  0
SECTION
  2
HEADER
  9
$ANGBASE
  50
0.0
  9
$ANGDIR
  70
1
  9
$MEASUREMENT
  70
0
  0
ENDSEC
  0
SECTION
  2
TABLES
  0
TABLE
  2
LTYPE
  70
4
  0
LTYPE
  5
40F
  2
CONTINUOUS
  70
0
  3
Solid line
  72
65
  73
0
  40
0.0
  0
LTYPE
  5
410
  2
DASHDOT
 70
0
  3
Dash Dot ____ _ ____ _
 72
65
 73
4
 40
2.0
 49
1.25
 49
-0.25
 49
0.25
 49
-0.25
  0
LTYPE
  5
411
  2
DASHED
 70
0
  3
Dashed __ __ __ __ __
 72
65
 73
2
 40
0.75
 49
0.5
 49
-0.25
  0
LTYPE
  5
43B
  2
DOTTED
 70
0
  3
Dotted .  .  .  .
 72
65
 73
2
 40
0.2
 49
0.0
 49
-0.2
  0
ENDTAB
  0
TABLE
  2
STYLE
  70
4
  0
STYLE
  2
KICAD
  70
0
  40
0
  41
1
  42
1
  50
0
  71
0
  3
isocp.shx
  0
STYLE
  2
KICADB
  70
0
  40
0
  41
1
  42
1
  50
0
  71
0
  3
isocp.shx
  0
STYLE
  2
KICADI
  70
0
  40
0
  41
1
  42
1
  50
15
  71
0
  3
isocp.shx
  0
STYLE
  2
KICADBI
  70
0
  40
0
  41
1
  42
1
  50
15
  71
0
  3
isocp.shx
  0
ENDTAB
  0
TABLE
  2
LAYER
  70
1
  0
LAYER
  2
BLACK
  70
0
  62
7
  6
CONTINUOUS
  0
ENDTAB
  0
ENDSEC
  0
SECTION
  2
ENTITIES
0
LINE
8
BLACK
6
CONTINUOUS
10
4.91815
20
-3.71261
11
4.92284
21
-3.71455
0
LINE
8
BLACK
6
CONTINUOUS
10
4.92284
20
-3.71455
11
4.92284
21
-3.71455
0
LINE
8
BLACK
6
CONTINUOUS
10
4.92284
20
-3.71455
11
4.92707
21
-3.71737
0
LINE
8
BLACK
6
CONTINUOUS
10
4.92707
20
-3.71737
11
4.93066
21
-3.72096
0
LINE
8
BLACK
6
CONTINUOUS
10
4.93066
20
-3.72096
11
4.93176
21
-3.72261
0
LINE
8
BLACK
6
CONTINUOUS
10
4.93176
20
-3.72261
11
4.93348
21
-3.72519
0
LINE
8
BLACK
6
CONTINUOUS
10
4.93348
20
-3.72519
11
4.93543
21
-3.72988
0
LINE
8
BLACK
6
CONTINUOUS
10
4.93543
20
-3.72988
11
4.93642
21
-3.73486
0
LINE
8
BLACK
6
CONTINUOUS
10
4.93642
20
-3.73486
11
4.93642
21
-3.73994
0
LINE
8
BLACK
6
CONTINUOUS
10
4.93642
20
-3.73994
11
4.93543
21
-3.74492
0
LINE
8
BLACK
6
CONTINUOUS
10
4.93543
20
-3.74492
11
4.93348
21
-3.74962
0
LINE
8
BLACK
6
CONTINUOUS
10
4.93348
20
-3.74962
11
4.93348
21
-3.74962
0
LINE
8
BLACK
6
CONTINUOUS
10
4.93348
20
-3.74962
11
4.93066
21
-3.75384
0
LINE
8
BLACK
6
CONTINUOUS
10
4.93066
20
-3.75384
11
4.92707
21
-3.75743
0
LINE
8
BLACK
6
CONTINUOUS
10
4.92707
20
-3.75743
11
4.92284
21
-3.76025
0
LINE
8
BLACK
6
CONTINUOUS
10
4.92284
20
-3.76025
11
4.92284
21
-3.76025
0
LINE
8
BLACK
6
CONTINUOUS
10
4.92284
20
-3.76025
11
4.92284
21
-3.76025
0
LINE
8
BLACK
6
CONTINUOUS
10
4.92284
20
-3.76025
11
4.91815
21
-3.7622
0
LINE
8
BLACK
6
CONTINUOUS
10
4.91815
20
-3.7622
11
4.91317
21
-3.76319
0
LINE
8
BLACK
6
CONTINUOUS
10
4.91317
20
-3.76319
11
4.90809
21
-3.76319
0
LINE
8
BLACK
6
CONTINUOUS
10
4.90809
20
-3.76319
11
4.90311
21
-3.7622
0
LINE
8
BLACK
6
CONTINUOUS
10
4.90311
20
-3.7622
11
4.89842
21
-3.76025
0
LINE
8
BLACK
6
CONTINUOUS
10
4.89842
20
-3.76025
11
4.89842
21
-3.76025
0
LINE
8
BLACK
6
CONTINUOUS
10
4.89842
20
-3.76025
11
4.89841
21
-3.76025
0
LINE
8
BLACK
6
CONTINUOUS
10
4.89841
20
-3.76025
11
4.89419
21
-3.75743
0
LINE
8
BLACK
6
CONTINUOUS
10
4.89419
20
-3.75743
11
4.8906
21
-3.75384
0
LINE
8
BLACK
6
CONTINUOUS
10
4.8906
20
-3.75384
11
4.88778
21
-3.74962
0
LINE
8
BLACK
6
CONTINUOUS
10
4.88778
20
-3.74962
11
4.88778
21
-3.74962
0
LINE
8
BLACK
6
CONTINUOUS
10
4.88778
20
-3.74962
11
4.88583
21
-3.74492
0
LINE
8
BLACK
6
CONTINUOUS
10
4.88583
20
-3.74492
11
4.88484
21
-3.73994
0
LINE
8
BLACK
6
CONTINUOUS
10
4.88484
20
-3.73994
11
4.88484
21
-3.73486
0
LINE
8
BLACK
6
CONTINUOUS
10
4.88484
20
-3.73486
11
4.88583
21
-3.72988
0
LINE
8
BLACK
6
CONTINUOUS
10
4.88583
20
-3.72988
11
4.88778
21
-3.72519
0
LINE
8
BLACK
6
CONTINUOUS
10
4.88778
20
-3.72519
11
4.8895
21
-3.72261
0
LINE
8
BLACK
6
CONTINUOUS
10
4.8895
20
-3.72261
11
4.8906
21
-3.72096
0
LINE
8
BLACK
6
CONTINUOUS
10
4.8906
20
-3.72096
11
4.89419
21
-3.71737
0
LINE
8
BLACK
6
CONTINUOUS
10
4.89419
20
-3.71737
11
4.89841
21
-3.71455
0
LINE
8
BLACK
6
CONTINUOUS
10
4.89841
20
-3.71455
11
4.89842
21
-3.71455
0
LINE
8
BLACK
6
CONTINUOUS
10
4.89842
20
-3.71455
11
4.90311
21
-3.71261
0
LINE
8
BLACK
6
CONTINUOUS
10
4.90311
20
-3.71261
11
4.90809
21
-3.71161
0
LINE
8
BLACK
6
CONTINUOUS
10
4.90809
20
-3.71161
11
4.91317
21
-3.71161
0
LINE
8
BLACK
6
CONTINUOUS
10
4.91317
20
-3.71161
11
4.91815
21
-3.71261
0
LINE
8
BLACK
6
CONTINUOUS
10
6.40447
20
-3.66472
11
6.41035
21
-3.66589
0
LINE
8
BLACK
6
CONTINUOUS
10
6.41035
20
-3.66589
11
6.4168
21
-3.66856
0
LINE
8
BLACK
6
CONTINUOUS
10
6.4168
20
-3.66856
11
6.42261
21
-3.67245
0
LINE
8
BLACK
6
CONTINUOUS
10
6.42261
20
-3.67245
11
6.42755
21
-3.67739
0
LINE
8
BLACK
6
CONTINUOUS
10
6.42755
20
-3.67739
11
6.43144
21
-3.6832
0
LINE
8
BLACK
6
CONTINUOUS
10
6.43144
20
-3.6832
11
6.43411
21
-3.68965
0
LINE
8
BLACK
6
CONTINUOUS
10
6.43411
20
-3.68965
11
6.43547
21
-3.69651
0
LINE
8
BLACK
6
CONTINUOUS
10
6.43547
20
-3.69651
11
6.43547
21
-3.70349
0
LINE
8
BLACK
6
CONTINUOUS
10
6.43547
20
-3.70349
11
6.43411
21
-3.71035
0
LINE
8
BLACK
6
CONTINUOUS
10
6.43411
20
-3.71035
11
6.43144
21
-3.7168
0
LINE
8
BLACK
6
CONTINUOUS
10
6.43144
20
-3.7168
11
6.42755
21
-3.72261
0
LINE
8
BLACK
6
CONTINUOUS
10
6.42755
20
-3.72261
11
6.42261
21
-3.72755
0
LINE
8
BLACK
6
CONTINUOUS
10
6.42261
20
-3.72755
11
6.4168
21
-3.73144
0
LINE
8
BLACK
6
CONTINUOUS
10
6.4168
20
-3.73144
11
6.41035
21
-3.73411
0
LINE
8
BLACK
6
CONTINUOUS
10
6.41035
20
-3.73411
11
6.40447
21
-3.73528
0
LINE
8
BLACK
6
CONTINUOUS
10
6.40447
20
-3.73528
11
6.40349
21
-3.73547
0
LINE
8
BLACK
6
CONTINUOUS
10
6.40349
20
-3.73547
11
6.39651
21
-3.73547
0
LINE
8
BLACK
6
CONTINUOUS
10
6.39651
20
-3.73547
11
6.39553
21
-3.73528
0
LINE
8
BLACK
6
CONTINUOUS
10
6.39553
20
-3.73528
11
6.38965
21
-3.73411
0
LINE
8
BLACK
6
CONTINUOUS
10
6.38965
20
-3.73411
11
6.3832
21
-3.73144
0
LINE
8
BLACK
6
CONTINUOUS
10
6.3832
20
-3.73144
11
6.37739
21
-3.72755
0
LINE
8
BLACK
6
CONTINUOUS
10
6.37739
20
-3.72755
11
6.37245
21
-3.72261
0
LINE
8
BLACK
6
CONTINUOUS
10
6.37245
20
-3.72261
11
6.36856
21
-3.7168
0
LINE
8
BLACK
6
CONTINUOUS
10
6.36856
20
-3.7168
11
6.36589
21
-3.71035
0
LINE
8
BLACK
6
CONTINUOUS
10
6.36589
20
-3.71035
11
6.36453
21
-3.70349
0
LINE
8
BLACK
6
CONTINUOUS
10
6.36453
20
-3.70349
11
6.36453
21
-3.69651
0
LINE
8
BLACK
6
CONTINUOUS
10
6.36453
20
-3.69651
11
6.36589
21
-3.68965
0
LINE
8
BLACK
6
CONTINUOUS
10
6.36589
20
-3.68965
11
6.36856
21
-3.6832
0
LINE
8
BLACK
6
CONTINUOUS
10
6.36856
20
-3.6832
11
6.37245
21
-3.67739
0
LINE
8
BLACK
6
CONTINUOUS
10
6.37245
20
-3.67739
11
6.37739
21
-3.67245
0
LINE
8
BLACK
6
CONTINUOUS
10
6.37739
20
-3.67245
11
6.3832
21
-3.66856
0
LINE
8
BLACK
6
CONTINUOUS
10
6.3832
20
-3.66856
11
6.38965
21
-3.66589
0
LINE
8
BLACK
6
CONTINUOUS
10
6.38965
20
-3.66589
11
6.39553
21
-3.66472
0
LINE
8
BLACK
6
CONTINUOUS
10
6.39553
20
-3.66472
11
6.39651
21
-3.66453
0
LINE
8
BLACK
6
CONTINUOUS
10
6.39651
20
-3.66453
11
6.40349
21
-3.66453
0
LINE
8
BLACK
6
CONTINUOUS
10
6.40349
20
-3.66453
11
6.40447
21
-3.66472
0
LINE
8
BLACK
6
CONTINUOUS
10
6.30447
20
-3.66472
11
6.31035
21
-3.66589
0
LINE
8
BLACK
6
CONTINUOUS
10
6.31035
20
-3.66589
11
6.3168
21
-3.66856
0
LINE
8
BLACK
6
CONTINUOUS
10
6.3168
20
-3.66856
11
6.32261
21
-3.67245
0
LINE
8
BLACK
6
CONTINUOUS
10
6.32261
20
-3.67245
11
6.32755
21
-3.67739
0
LINE
8
BLACK
6
CONTINUOUS
10
6.32755
20
-3.67739
11
6.33144
21
-3.6832
0
LINE
8
BLACK
6
CONTINUOUS
10
6.33144
20
-3.6832
11
6.33411
21
-3.68965
0
LINE
8
BLACK
6
CONTINUOUS
10
6.33411
20
-3.68965
11
6.33547
21
-3.69651
0
LINE
8
BLACK
6
CONTINUOUS
10
6.33547
20
-3.69651
11
6.33547
21
-3.70349
0
LINE
8
BLACK
6
CONTINUOUS
10
6.33547
20
-3.70349
11
6.33411
21
-3.71035
0
LINE
8
BLACK
6
CONTINUOUS
10
6.33411
20
-3.71035
11
6.33144
21
-3.7168
0
LINE
8
BLACK
6
CONTINUOUS
10
6.33144
20
-3.7168
11
6.32755
21
-3.72261
0
LINE
8
BLACK
6
CONTINUOUS
10
6.32755
20
-3.72261
11
6.32261
21
-3.72755
0
LINE
8
BLACK
6
CONTINUOUS
10
6.32261
20
-3.72755
11
6.3168
21
-3.73144
0
LINE
8
BLACK
6
CONTINUOUS
10
6.3168
20
-3.73144
11
6.31035
21
-3.73411
0
LINE
8
BLACK
6
CONTINUOUS
10
6.31035
20
-3.73411
11
6.30447
21
-3.73528
0
LINE
8
BLACK
6
CONTINUOUS
10
6.30447
20
-3.73528
11
6.30349
21
-3.73547
0
LINE
8
BLACK
6
CONTINUOUS
10
6.30349
20
-3.73547
11
6.29651
21
-3.73547
0
LINE
8
BLACK
6
CONTINUOUS
10
6.29651
20
-3.73547
11
6.29553
21
-3.73528
0
LINE
8
BLACK
6
CONTINUOUS
10
6.29553
20
-3.73528
11
6.28965
21
-3.73411
0
LINE
8
BLACK
6
CONTINUOUS
10
6.28965
20
-3.73411
11
6.2832
21
-3.73144
0
LINE
8
BLACK
6
CONTINUOUS
10
6.2832
20
-3.73144
11
6.27739
21
-3.72755
0
LINE
8
BLACK
6
CONTINUOUS
10
6.27739
20
-3.72755
11
6.27245
21
-3.72261
0
LINE
8
BLACK
6
CONTINUOUS
10
6.27245
20
-3.72261
11
6.26856
21
-3.7168
0
LINE
8
BLACK
6
CONTINUOUS
10
6.26856
20
-3.7168
11
6.26589
21
-3.71035
0
LINE
8
BLACK
6
CONTINUOUS
10
6.26589
20
-3.71035
11
6.26453
21
-3.70349
0
LINE
8
BLACK
6
CONTINUOUS
10
6.26453
20
-3.70349
11
6.26453
21
-3.69651
0
LINE
8
BLACK
6
CONTINUOUS
10
6.26453
20
-3.69651
11
6.26589
21
-3.68965
0
LINE
8
BLACK
6
CONTINUOUS
10
6.26589
20
-3.68965
11
6.26856
21
-3.6832
0
LINE
8
BLACK
6
CONTINUOUS
10
6.26856
20
-3.6832
11
6.27245
21
-3.67739
0
LINE
8
BLACK
6
CONTINUOUS
10
6.27245
20
-3.67739
11
6.27739
21
-3.67245
0
LINE
8
BLACK
6
CONTINUOUS
10
6.27739
20
-3.67245
11
6.2832
21
-3.66856
0
LINE
8
BLACK
6
CONTINUOUS
10
6.2832
20
-3.66856
11
6.28965
21
-3.66589
0
LINE
8
BLACK
6
CONTINUOUS
10
6.28965
20
-3.66589
11
6.29553
21
-3.66472
0
LINE
8
BLACK
6
CONTINUOUS
10
6.29553
20
-3.66472
11
6.29651
21
-3.66453
0
LINE
8
BLACK
6
CONTINUOUS
10
6.29651
20
-3.66453
11
6.30349
21
-3.66453
0
LINE
8
BLACK
6
CONTINUOUS
10
6.30349
20
-3.66453
11
6.30447
21
-3.66472
0
LINE
8
BLACK
6
CONTINUOUS
10
4.91815
20
-3.6378
11
4.92284
21
-3.63975
0
LINE
8
BLACK
6
CONTINUOUS
10
4.92284
20
-3.63975
11
4.92284
21
-3.63975
0
LINE
8
BLACK
6
CONTINUOUS
10
4.92284
20
-3.63975
11
4.92707
21
-3.64257
0
LINE
8
BLACK
6
CONTINUOUS
10
4.92707
20
-3.64257
11
4.93066
21
-3.64616
0
LINE
8
BLACK
6
CONTINUOUS
10
4.93066
20
-3.64616
11
4.93348
21
-3.65038
0
LINE
8
BLACK
6
CONTINUOUS
10
4.93348
20
-3.65038
11
4.93348
21
-3.65038
0
LINE
8
BLACK
6
CONTINUOUS
10
4.93348
20
-3.65038
11
4.93543
21
-3.65508
0
LINE
8
BLACK
6
CONTINUOUS
10
4.93543
20
-3.65508
11
4.93642
21
-3.66006
0
LINE
8
BLACK
6
CONTINUOUS
10
4.93642
20
-3.66006
11
4.93642
21
-3.66514
0
LINE
8
BLACK
6
CONTINUOUS
10
4.93642
20
-3.66514
11
4.93543
21
-3.67012
0
LINE
8
BLACK
6
CONTINUOUS
10
4.93543
20
-3.67012
11
4.93446
21
-3.67245
0
LINE
8
BLACK
6
CONTINUOUS
10
4.93446
20
-3.67245
11
4.93348
21
-3.67481
0
LINE
8
BLACK
6
CONTINUOUS
10
4.93348
20
-3.67481
11
4.93066
21
-3.67904
0
LINE
8
BLACK
6
CONTINUOUS
10
4.93066
20
-3.67904
11
4.92707
21
-3.68263
0
LINE
8
BLACK
6
CONTINUOUS
10
4.92707
20
-3.68263
11
4.92284
21
-3.68545
0
LINE
8
BLACK
6
CONTINUOUS
10
4.92284
20
-3.68545
11
4.92284
21
-3.68545
0
LINE
8
BLACK
6
CONTINUOUS
10
4.92284
20
-3.68545
11
4.92284
21
-3.68545
0
LINE
8
BLACK
6
CONTINUOUS
10
4.92284
20
-3.68545
11
4.91815
21
-3.68739
0
LINE
8
BLACK
6
CONTINUOUS
10
4.91815
20
-3.68739
11
4.91317
21
-3.68839
0
LINE
8
BLACK
6
CONTINUOUS
10
4.91317
20
-3.68839
11
4.90809
21
-3.68839
0
LINE
8
BLACK
6
CONTINUOUS
10
4.90809
20
-3.68839
11
4.90311
21
-3.68739
0
LINE
8
BLACK
6
CONTINUOUS
10
4.90311
20
-3.68739
11
4.89842
21
-3.68545
0
LINE
8
BLACK
6
CONTINUOUS
10
4.89842
20
-3.68545
11
4.89842
21
-3.68545
0
LINE
8
BLACK
6
CONTINUOUS
10
4.89842
20
-3.68545
11
4.89841
21
-3.68545
0
LINE
8
BLACK
6
CONTINUOUS
10
4.89841
20
-3.68545
11
4.89419
21
-3.68263
0
LINE
8
BLACK
6
CONTINUOUS
10
4.89419
20
-3.68263
11
4.8906
21
-3.67904
0
LINE
8
BLACK
6
CONTINUOUS
10
4.8906
20
-3.67904
11
4.88778
21
-3.67481
0
LINE
8
BLACK
6
CONTINUOUS
10
4.88778
20
-3.67481
11
4.8868
21
-3.67245
0
LINE
8
BLACK
6
CONTINUOUS
10
4.8868
20
-3.67245
11
4.88583
21
-3.67012
0
LINE
8
BLACK
6
CONTINUOUS
10
4.88583
20
-3.67012
11
4.88484
21
-3.66514
0
LINE
8
BLACK
6
CONTINUOUS
10
4.88484
20
-3.66514
11
4.88484
21
-3.66006
0
LINE
8
BLACK
6
CONTINUOUS
10
4.88484
20
-3.66006
11
4.88583
21
-3.65508
0
LINE
8
BLACK
6
CONTINUOUS
10
4.88583
20
-3.65508
11
4.88778
21
-3.65038
0
LINE
8
BLACK
6
CONTINUOUS
10
4.88778
20
-3.65038
11
4.88778
21
-3.65038
0
LINE
8
BLACK
6
CONTINUOUS
10
4.88778
20
-3.65038
11
4.8906
21
-3.64616
0
LINE
8
BLACK
6
CONTINUOUS
10
4.8906
20
-3.64616
11
4.89419
21
-3.64257
0
LINE
8
BLACK
6
CONTINUOUS
10
4.89419
20
-3.64257
11
4.89841
21
-3.63975
0
LINE
8
BLACK
6
CONTINUOUS
10
4.89841
20
-3.63975
11
4.89842
21
-3.63975
0
LINE
8
BLACK
6
CONTINUOUS
10
4.89842
20
-3.63975
11
4.90311
21
-3.6378
0
LINE
8
BLACK
6
CONTINUOUS
10
4.90311
20
-3.6378
11
4.90809
21
-3.63681
0
LINE
8
BLACK
6
CONTINUOUS
10
4.90809
20
-3.63681
11
4.91317
21
-3.63681
0
LINE
8
BLACK
6
CONTINUOUS
10
4.91317
20
-3.63681
11
4.91815
21
-3.6378
0
LINE
8
BLACK
6
CONTINUOUS
10
6.40447
20
-3.56472
11
6.41035
21
-3.56589
0
LINE
8
BLACK
6
CONTINUOUS
10
6.41035
20
-3.56589
11
6.4168
21
-3.56856
0
LINE
8
BLACK
6
CONTINUOUS
10
6.4168
20
-3.56856
11
6.42261
21
-3.57245
0
LINE
8
BLACK
6
CONTINUOUS
10
6.42261
20
-3.57245
11
6.42755
21
-3.57739
0
LINE
8
BLACK
6
CONTINUOUS
10
6.42755
20
-3.57739
11
6.43144
21
-3.5832
0
LINE
8
BLACK
6
CONTINUOUS
10
6.43144
20
-3.5832
11
6.43411
21
-3.58965
0
LINE
8
BLACK
6
CONTINUOUS
10
6.43411
20
-3.58965
11
6.43547
21
-3.59651
0
LINE
8
BLACK
6
CONTINUOUS
10
6.43547
20
-3.59651
11
6.43547
21
-3.60349
0
LINE
8
BLACK
6
CONTINUOUS
10
6.43547
20
-3.60349
11
6.43411
21
-3.61035
0
LINE
8
BLACK
6
CONTINUOUS
10
6.43411
20
-3.61035
11
6.43144
21
-3.6168
0
LINE
8
BLACK
6
CONTINUOUS
10
6.43144
20
-3.6168
11
6.42755
21
-3.62261
0
LINE
8
BLACK
6
CONTINUOUS
10
6.42755
20
-3.62261
11
6.42261
21
-3.62755
0
LINE
8
BLACK
6
CONTINUOUS
10
6.42261
20
-3.62755
11
6.4168
21
-3.63144
0
LINE
8
BLACK
6
CONTINUOUS
10
6.4168
20
-3.63144
11
6.41035
21
-3.63411
0
LINE
8
BLACK
6
CONTINUOUS
10
6.41035
20
-3.63411
11
6.40447
21
-3.63528
0
LINE
8
BLACK
6
CONTINUOUS
10
6.40447
20
-3.63528
11
6.40349
21
-3.63547
0
LINE
8
BLACK
6
CONTINUOUS
10
6.40349
20
-3.63547
11
6.39651
21
-3.63547
0
LINE
8
BLACK
6
CONTINUOUS
10
6.39651
20
-3.63547
11
6.39553
21
-3.63528
0
LINE
8
BLACK
6
CONTINUOUS
10
6.39553
20
-3.63528
11
6.38965
21
-3.63411
0
LINE
8
BLACK
6
CONTINUOUS
10
6.38965
20
-3.63411
11
6.3832
21
-3.63144
0
LINE
8
BLACK
6
CONTINUOUS
10
6.3832
20
-3.63144
11
6.37739
21
-3.62755
0
LINE
8
BLACK
6
CONTINUOUS
10
6.37739
20
-3.62755
11
6.37245
21
-3.62261
0
LINE
8
BLACK
6
CONTINUOUS
10
6.37245
20
-3.62261
11
6.36856
21
-3.6168
0
LINE
8
BLACK
6
CONTINUOUS
10
6.36856
20
-3.6168
11
6.36589
21
-3.61035
0
LINE
8
BLACK
6
CONTINUOUS
10
6.36589
20
-3.61035
11
6.36453
21
-3.60349
0
LINE
8
BLACK
6
CONTINUOUS
10
6.36453
20
-3.60349
11
6.36453
21
-3.59651
0
LINE
8
BLACK
6
CONTINUOUS
10
6.36453
20
-3.59651
11
6.36589
21
-3.58965
0
LINE
8
BLACK
6
CONTINUOUS
10
6.36589
20
-3.58965
11
6.36856
21
-3.5832
0
LINE
8
BLACK
6
CONTINUOUS
10
6.36856
20
-3.5832
11
6.37245
21
-3.57739
0
LINE
8
BLACK
6
CONTINUOUS
10
6.37245
20
-3.57739
11
6.37739
21
-3.57245
0
LINE
8
BLACK
6
CONTINUOUS
10
6.37739
20
-3.57245
11
6.3832
21
-3.56856
0
LINE
8
BLACK
6
CONTINUOUS
10
6.3832
20
-3.56856
11
6.38965
21
-3.56589
0
LINE
8
BLACK
6
CONTINUOUS
10
6.38965
20
-3.56589
11
6.39553
21
-3.56472
0
LINE
8
BLACK
6
CONTINUOUS
10
6.39553
20
-3.56472
11
6.39651
21
-3.56453
0
LINE
8
BLACK
6
CONTINUOUS
10
6.39651
20
-3.56453
11
6.40349
21
-3.56453
0
LINE
8
BLACK
6
CONTINUOUS
10
6.40349
20
-3.56453
11
6.40447
21
-3.56472
0
LINE
8
BLACK
6
CONTINUOUS
10
6.30447
20
-3.56472
11
6.31035
21
-3.56589
0
LINE
8
BLACK
6
CONTINUOUS
10
6.31035
20
-3.56589
11
6.3168
21
-3.56856
0
LINE
8
BLACK
6
CONTINUOUS
10
6.3168
20
-3.56856
11
6.32261
21
-3.57245
0
LINE
8
BLACK
6
CONTINUOUS
10
6.32261
20
-3.57245
11
6.32755
21
-3.57739
0
LINE
8
BLACK
6
CONTINUOUS
10
6.32755
20
-3.57739
11
6.33144
21
-3.5832
0
LINE
8
BLACK
6
CONTINUOUS
10
6.33144
20
-3.5832
11
6.33411
21
-3.58965
0
LINE
8
BLACK
6
CONTINUOUS
10
6.33411
20
-3.58965
11
6.33547
21
-3.59651
0
LINE
8
BLACK
6
CONTINUOUS
10
6.33547
20
-3.59651
11
6.33547
21
-3.60349
0
LINE
8
BLACK
6
CONTINUOUS
10
6.33547
20
-3.60349
11
6.33411
21
-3.61035
0
LINE
8
BLACK
6
CONTINUOUS
10
6.33411
20
-3.61035
11
6.33144
21
-3.6168
0
LINE
8
BLACK
6
CONTINUOUS
10
6.33144
20
-3.6168
11
6.32755
21
-3.62261
0
LINE
8
BLACK
6
CONTINUOUS
10
6.32755
20
-3.62261
11
6.32261
21
-3.62755
0
LINE
8
BLACK
6
CONTINUOUS
10
6.32261
20
-3.62755
11
6.3168
21
-3.63144
0
LINE
8
BLACK
6
CONTINUOUS
10
6.3168
20
-3.63144
11
6.31035
21
-3.63411
0
LINE
8
BLACK
6
CONTINUOUS
10
6.31035
20
-3.63411
11
6.30447
21
-3.63528
0
LINE
8
BLACK
6
CONTINUOUS
10
6.30447
20
-3.63528
11
6.30349
21
-3.63547
0
LINE
8
BLACK
6
CONTINUOUS
10
6.30349
20
-3.63547
11
6.29651
21
-3.63547
0
LINE
8
BLACK
6
CONTINUOUS
10
6.29651
20
-3.63547
11
6.29553
21
-3.63528
0
LINE
8
BLACK
6
CONTINUOUS
10
6.29553
20
-3.63528
11
6.28965
21
-3.63411
0
LINE
8
BLACK
6
CONTINUOUS
10
6.28965
20
-3.63411
11
6.2832
21
-3.63144
0
LINE
8
BLACK
6
CONTINUOUS
10
6.2832
20
-3.63144
11
6.27739
21
-3.62755
0
LINE
8
BLACK
6
CONTINUOUS
10
6.27739
20
-3.62755
11
6.27245
21
-3.62261
0
LINE
8
BLACK
6
CONTINUOUS
10
6.27245
20
-3.62261
11
6.26856
21
-3.6168
0
LINE
8
BLACK
6
CONTINUOUS
10
6.26856
20
-3.6168
11
6.26589
21
-3.61035
0
LINE
8
BLACK
6
CONTINUOUS
10
6.26589
20
-3.61035
11
6.26453
21
-3.60349
0
LINE
8
BLACK
6
CONTINUOUS
10
6.26453
20
-3.60349
11
6.26453
21
-3.59651
0
LINE
8
BLACK
6
CONTINUOUS
10
6.26453
20
-3.59651
11
6.26589
21
-3.58965
0
LINE
8
BLACK
6
CONTINUOUS
10
6.26589
20
-3.58965
11
6.26856
21
-3.5832
0
LINE
8
BLACK
6
CONTINUOUS
10
6.26856
20
-3.5832
11
6.27245
21
-3.57739
0
LINE
8
BLACK
6
CONTINUOUS
10
6.27245
20
-3.57739
11
6.27739
21
-3.57245
0
LINE
8
BLACK
6
CONTINUOUS
10
6.27739
20
-3.57245
11
6.2832
21
-3.56856
0
LINE
8
BLACK
6
CONTINUOUS
10
6.2832
20
-3.56856
11
6.28965
21
-3.56589
0
LINE
8
BLACK
6
CONTINUOUS
10
6.28965
20
-3.56589
11
6.29553
21
-3.56472
0
LINE
8
BLACK
6
CONTINUOUS
10
6.29553
20
-3.56472
11
6.29651
21
-3.56453
0
LINE
8
BLACK
6
CONTINUOUS
10
6.29651
20
-3.56453
11
6.30349
21
-3.56453
0
LINE
8
BLACK
6
CONTINUOUS
10
6.30349
20
-3.56453
11
6.30447
21
-3.56472
0
LINE
8
BLACK
6
CONTINUOUS
10
6.40447
20
-3.46472
11
6.41035
21
-3.46589
0
LINE
8
BLACK
6
CONTINUOUS
10
6.41035
20
-3.46589
11
6.4168
21
-3.46856
0
LINE
8
BLACK
6
CONTINUOUS
10
6.4168
20
-3.46856
11
6.42261
21
-3.47245
0
LINE
8
BLACK
6
CONTINUOUS
10
6.42261
20
-3.47245
11
6.42755
21
-3.47739
0
LINE
8
BLACK
6
CONTINUOUS
10
6.42755
20
-3.47739
11
6.43144
21
-3.4832
0
LINE
8
BLACK
6
CONTINUOUS
10
6.43144
20
-3.4832
11
6.43411
21
-3.48965
0
LINE
8
BLACK
6
CONTINUOUS
10
6.43411
20
-3.48965
11
6.43547
21
-3.49651
0
LINE
8
BLACK
6
CONTINUOUS
10
6.43547
20
-3.49651
11
6.43547
21
-3.50349
0
LINE
8
BLACK
6
CONTINUOUS
10
6.43547
20
-3.50349
11
6.43411
21
-3.51035
0
LINE
8
BLACK
6
CONTINUOUS
10
6.43411
20
-3.51035
11
6.43144
21
-3.5168
0
LINE
8
BLACK
6
CONTINUOUS
10
6.43144
20
-3.5168
11
6.42755
21
-3.52261
0
LINE
8
BLACK
6
CONTINUOUS
10
6.42755
20
-3.52261
11
6.42261
21
-3.52755
0
LINE
8
BLACK
6
CONTINUOUS
10
6.42261
20
-3.52755
11
6.4168
21
-3.53144
0
LINE
8
BLACK
6
CONTINUOUS
10
6.4168
20
-3.53144
11
6.41035
21
-3.53411
0
LINE
8
BLACK
6
CONTINUOUS
10
6.41035
20
-3.53411
11
6.40447
21
-3.53528
0
LINE
8
BLACK
6
CONTINUOUS
10
6.40447
20
-3.53528
11
6.40349
21
-3.53547
0
LINE
8
BLACK
6
CONTINUOUS
10
6.40349
20
-3.53547
11
6.39651
21
-3.53547
0
LINE
8
BLACK
6
CONTINUOUS
10
6.39651
20
-3.53547
11
6.39553
21
-3.53528
0
LINE
8
BLACK
6
CONTINUOUS
10
6.39553
20
-3.53528
11
6.38965
21
-3.53411
0
LINE
8
BLACK
6
CONTINUOUS
10
6.38965
20
-3.53411
11
6.3832
21
-3.53144
0
LINE
8
BLACK
6
CONTINUOUS
10
6.3832
20
-3.53144
11
6.37739
21
-3.52755
0
LINE
8
BLACK
6
CONTINUOUS
10
6.37739
20
-3.52755
11
6.37245
21
-3.52261
0
LINE
8
BLACK
6
CONTINUOUS
10
6.37245
20
-3.52261
11
6.36856
21
-3.5168
0
LINE
8
BLACK
6
CONTINUOUS
10
6.36856
20
-3.5168
11
6.36589
21
-3.51035
0
LINE
8
BLACK
6
CONTINUOUS
10
6.36589
20
-3.51035
11
6.36453
21
-3.50349
0
LINE
8
BLACK
6
CONTINUOUS
10
6.36453
20
-3.50349
11
6.36453
21
-3.49651
0
LINE
8
BLACK
6
CONTINUOUS
10
6.36453
20
-3.49651
11
6.36589
21
-3.48965
0
LINE
8
BLACK
6
CONTINUOUS
10
6.36589
20
-3.48965
11
6.36856
21
-3.4832
0
LINE
8
BLACK
6
CONTINUOUS
10
6.36856
20
-3.4832
11
6.37245
21
-3.47739
0
LINE
8
BLACK
6
CONTINUOUS
10
6.37245
20
-3.47739
11
6.37739
21
-3.47245
0
LINE
8
BLACK
6
CONTINUOUS
10
6.37739
20
-3.47245
11
6.3832
21
-3.46856
0
LINE
8
BLACK
6
CONTINUOUS
10
6.3832
20
-3.46856
11
6.38965
21
-3.46589
0
LINE
8
BLACK
6
CONTINUOUS
10
6.38965
20
-3.46589
11
6.39553
21
-3.46472
0
LINE
8
BLACK
6
CONTINUOUS
10
6.39553
20
-3.46472
11
6.39651
21
-3.46453
0
LINE
8
BLACK
6
CONTINUOUS
10
6.39651
20
-3.46453
11
6.40349
21
-3.46453
0
LINE
8
BLACK
6
CONTINUOUS
10
6.40349
20
-3.46453
11
6.40447
21
-3.46472
0
LINE
8
BLACK
6
CONTINUOUS
10
6.30447
20
-3.46472
11
6.31035
21
-3.46589
0
LINE
8
BLACK
6
CONTINUOUS
10
6.31035
20
-3.46589
11
6.3168
21
-3.46856
0
LINE
8
BLACK
6
CONTINUOUS
10
6.3168
20
-3.46856
11
6.32261
21
-3.47245
0
LINE
8
BLACK
6
CONTINUOUS
10
6.32261
20
-3.47245
11
6.32755
21
-3.47739
0
LINE
8
BLACK
6
CONTINUOUS
10
6.32755
20
-3.47739
11
6.33144
21
-3.4832
0
LINE
8
BLACK
6
CONTINUOUS
10
6.33144
20
-3.4832
11
6.33411
21
-3.48965
0
LINE
8
BLACK
6
CONTINUOUS
10
6.33411
20
-3.48965
11
6.33547
21
-3.49651
0
LINE
8
BLACK
6
CONTINUOUS
10
6.33547
20
-3.49651
11
6.33547
21
-3.50349
0
LINE
8
BLACK
6
CONTINUOUS
10
6.33547
20
-3.50349
11
6.33411
21
-3.51035
0
LINE
8
BLACK
6
CONTINUOUS
10
6.33411
20
-3.51035
11
6.33144
21
-3.5168
0
LINE
8
BLACK
6
CONTINUOUS
10
6.33144
20
-3.5168
11
6.32755
21
-3.52261
0
LINE
8
BLACK
6
CONTINUOUS
10
6.32755
20
-3.52261
11
6.32261
21
-3.52755
0
LINE
8
BLACK
6
CONTINUOUS
10
6.32261
20
-3.52755
11
6.3168
21
-3.53144
0
LINE
8
BLACK
6
CONTINUOUS
10
6.3168
20
-3.53144
11
6.31035
21
-3.53411
0
LINE
8
BLACK
6
CONTINUOUS
10
6.31035
20
-3.53411
11
6.30447
21
-3.53528
0
LINE
8
BLACK
6
CONTINUOUS
10
6.30447
20
-3.53528
11
6.30349
21
-3.53547
0
LINE
8
BLACK
6
CONTINUOUS
10
6.30349
20
-3.53547
11
6.29651
21
-3.53547
0
LINE
8
BLACK
6
CONTINUOUS
10
6.29651
20
-3.53547
11
6.29553
21
-3.53528
0
LINE
8
BLACK
6
CONTINUOUS
10
6.29553
20
-3.53528
11
6.28965
21
-3.53411
0
LINE
8
BLACK
6
CONTINUOUS
10
6.28965
20
-3.53411
11
6.2832
21
-3.53144
0
LINE
8
BLACK
6
CONTINUOUS
10
6.2832
20
-3.53144
11
6.27739
21
-3.52755
0
LINE
8
BLACK
6
CONTINUOUS
10
6.27739
20
-3.52755
11
6.27245
21
-3.52261
0
LINE
8
BLACK
6
CONTINUOUS
10
6.27245
20
-3.52261
11
6.26856
21
-3.5168
0
LINE
8
BLACK
6
CONTINUOUS
10
6.26856
20
-3.5168
11
6.26589
21
-3.51035
0
LINE
8
BLACK
6
CONTINUOUS
10
6.26589
20
-3.51035
11
6.26453
21
-3.50349
0
LINE
8
BLACK
6
CONTINUOUS
10
6.26453
20
-3.50349
11
6.26453
21
-3.49651
0
LINE
8
BLACK
6
CONTINUOUS
10
6.26453
20
-3.49651
11
6.26589
21
-3.48965
0
LINE
8
BLACK
6
CONTINUOUS
10
6.26589
20
-3.48965
11
6.26856
21
-3.4832
0
LINE
8
BLACK
6
CONTINUOUS
10
6.26856
20
-3.4832
11
6.27245
21
-3.47739
0
LINE
8
BLACK
6
CONTINUOUS
10
6.27245
20
-3.47739
11
6.27739
21
-3.47245
0
LINE
8
BLACK
6
CONTINUOUS
10
6.27739
20
-3.47245
11
6.2832
21
-3.46856
0
LINE
8
BLACK
6
CONTINUOUS
10
6.2832
20
-3.46856
11
6.28965
21
-3.46589
0
LINE
8
BLACK
6
CONTINUOUS
10
6.28965
20
-3.46589
11
6.29553
21
-3.46472
0
LINE
8
BLACK
6
CONTINUOUS
10
6.29553
20
-3.46472
11
6.29651
21
-3.46453
0
LINE
8
BLACK
6
CONTINUOUS
10
6.29651
20
-3.46453
11
6.30349
21
-3.46453
0
LINE
8
BLACK
6
CONTINUOUS
10
6.30349
20
-3.46453
11
6.30447
21
-3.46472
0
LINE
8
BLACK
6
CONTINUOUS
10
6.40447
20
-3.36472
11
6.41035
21
-3.36589
0
LINE
8
BLACK
6
CONTINUOUS
10
6.41035
20
-3.36589
11
6.4168
21
-3.36856
0
LINE
8
BLACK
6
CONTINUOUS
10
6.4168
20
-3.36856
11
6.42261
21
-3.37245
0
LINE
8
BLACK
6
CONTINUOUS
10
6.42261
20
-3.37245
11
6.42755
21
-3.37739
0
LINE
8
BLACK
6
CONTINUOUS
10
6.42755
20
-3.37739
11
6.43144
21
-3.3832
0
LINE
8
BLACK
6
CONTINUOUS
10
6.43144
20
-3.3832
11
6.43411
21
-3.38965
0
LINE
8
BLACK
6
CONTINUOUS
10
6.43411
20
-3.38965
11
6.43547
21
-3.39651
0
LINE
8
BLACK
6
CONTINUOUS
10
6.43547
20
-3.39651
11
6.43547
21
-3.40349
0
LINE
8
BLACK
6
CONTINUOUS
10
6.43547
20
-3.40349
11
6.43411
21
-3.41035
0
LINE
8
BLACK
6
CONTINUOUS
10
6.43411
20
-3.41035
11
6.43144
21
-3.4168
0
LINE
8
BLACK
6
CONTINUOUS
10
6.43144
20
-3.4168
11
6.42755
21
-3.42261
0
LINE
8
BLACK
6
CONTINUOUS
10
6.42755
20
-3.42261
11
6.42261
21
-3.42755
0
LINE
8
BLACK
6
CONTINUOUS
10
6.42261
20
-3.42755
11
6.4168
21
-3.43144
0
LINE
8
BLACK
6
CONTINUOUS
10
6.4168
20
-3.43144
11
6.41035
21
-3.43411
0
LINE
8
BLACK
6
CONTINUOUS
10
6.41035
20
-3.43411
11
6.40447
21
-3.43528
0
LINE
8
BLACK
6
CONTINUOUS
10
6.40447
20
-3.43528
11
6.40349
21
-3.43547
0
LINE
8
BLACK
6
CONTINUOUS
10
6.40349
20
-3.43547
11
6.39651
21
-3.43547
0
LINE
8
BLACK
6
CONTINUOUS
10
6.39651
20
-3.43547
11
6.39553
21
-3.43528
0
LINE
8
BLACK
6
CONTINUOUS
10
6.39553
20
-3.43528
11
6.38965
21
-3.43411
0
LINE
8
BLACK
6
CONTINUOUS
10
6.38965
20
-3.43411
11
6.3832
21
-3.43144
0
LINE
8
BLACK
6
CONTINUOUS
10
6.3832
20
-3.43144
11
6.37739
21
-3.42755
0
LINE
8
BLACK
6
CONTINUOUS
10
6.37739
20
-3.42755
11
6.37245
21
-3.42261
0
LINE
8
BLACK
6
CONTINUOUS
10
6.37245
20
-3.42261
11
6.36856
21
-3.4168
0
LINE
8
BLACK
6
CONTINUOUS
10
6.36856
20
-3.4168
11
6.36589
21
-3.41035
0
LINE
8
BLACK
6
CONTINUOUS
10
6.36589
20
-3.41035
11
6.36453
21
-3.40349
0
LINE
8
BLACK
6
CONTINUOUS
10
6.36453
20
-3.40349
11
6.36453
21
-3.39651
0
LINE
8
BLACK
6
CONTINUOUS
10
6.36453
20
-3.39651
11
6.36589
21
-3.38965
0
LINE
8
BLACK
6
CONTINUOUS
10
6.36589
20
-3.38965
11
6.36856
21
-3.3832
0
LINE
8
BLACK
6
CONTINUOUS
10
6.36856
20
-3.3832
11
6.37245
21
-3.37739
0
LINE
8
BLACK
6
CONTINUOUS
10
6.37245
20
-3.37739
11
6.37739
21
-3.37245
0
LINE
8
BLACK
6
CONTINUOUS
10
6.37739
20
-3.37245
11
6.3832
21
-3.36856
0
LINE
8
BLACK
6
CONTINUOUS
10
6.3832
20
-3.36856
11
6.38965
21
-3.36589
0
LINE
8
BLACK
6
CONTINUOUS
10
6.38965
20
-3.36589
11
6.39553
21
-3.36472
0
LINE
8
BLACK
6
CONTINUOUS
10
6.39553
20
-3.36472
11
6.39651
21
-3.36453
0
LINE
8
BLACK
6
CONTINUOUS
10
6.39651
20
-3.36453
11
6.40349
21
-3.36453
0
LINE
8
BLACK
6
CONTINUOUS
10
6.40349
20
-3.36453
11
6.40447
21
-3.36472
0
LINE
8
BLACK
6
CONTINUOUS
10
6.30447
20
-3.36472
11
6.31035
21
-3.36589
0
LINE
8
BLACK
6
CONTINUOUS
10
6.31035
20
-3.36589
11
6.3168
21
-3.36856
0
LINE
8
BLACK
6
CONTINUOUS
10
6.3168
20
-3.36856
11
6.32261
21
-3.37245
0
LINE
8
BLACK
6
CONTINUOUS
10
6.32261
20
-3.37245
11
6.32755
21
-3.37739
0
LINE
8
BLACK
6
CONTINUOUS
10
6.32755
20
-3.37739
11
6.33144
21
-3.3832
0
LINE
8
BLACK
6
CONTINUOUS
10
6.33144
20
-3.3832
11
6.33411
21
-3.38965
0
LINE
8
BLACK
6
CONTINUOUS
10
6.33411
20
-3.38965
11
6.33547
21
-3.39651
0
LINE
8
BLACK
6
CONTINUOUS
10
6.33547
20
-3.39651
11
6.33547
21
-3.40349
0
LINE
8
BLACK
6
CONTINUOUS
10
6.33547
20
-3.40349
11
6.33411
21
-3.41035
0
LINE
8
BLACK
6
CONTINUOUS
10
6.33411
20
-3.41035
11
6.33144
21
-3.4168
0
LINE
8
BLACK
6
CONTINUOUS
10
6.33144
20
-3.4168
11
6.32755
21
-3.42261
0
LINE
8
BLACK
6
CONTINUOUS
10
6.32755
20
-3.42261
11
6.32261
21
-3.42755
0
LINE
8
BLACK
6
CONTINUOUS
10
6.32261
20
-3.42755
11
6.3168
21
-3.43144
0
LINE
8
BLACK
6
CONTINUOUS
10
6.3168
20
-3.43144
11
6.31035
21
-3.43411
0
LINE
8
BLACK
6
CONTINUOUS
10
6.31035
20
-3.43411
11
6.30447
21
-3.43528
0
LINE
8
BLACK
6
CONTINUOUS
10
6.30447
20
-3.43528
11
6.30349
21
-3.43547
0
LINE
8
BLACK
6
CONTINUOUS
10
6.30349
20
-3.43547
11
6.29651
21
-3.43547
0
LINE
8
BLACK
6
CONTINUOUS
10
6.29651
20
-3.43547
11
6.29553
21
-3.43528
0
LINE
8
BLACK
6
CONTINUOUS
10
6.29553
20
-3.43528
11
6.28965
21
-3.43411
0
LINE
8
BLACK
6
CONTINUOUS
10
6.28965
20
-3.43411
11
6.2832
21
-3.43144
0
LINE
8
BLACK
6
CONTINUOUS
10
6.2832
20
-3.43144
11
6.27739
21
-3.42755
0
LINE
8
BLACK
6
CONTINUOUS
10
6.27739
20
-3.42755
11
6.27245
21
-3.42261
0
LINE
8
BLACK
6
CONTINUOUS
10
6.27245
20
-3.42261
11
6.26856
21
-3.4168
0
LINE
8
BLACK
6
CONTINUOUS
10
6.26856
20
-3.4168
11
6.26589
21
-3.41035
0
LINE
8
BLACK
6
CONTINUOUS
10
6.26589
20
-3.41035
11
6.26453
21
-3.40349
0
LINE
8
BLACK
6
CONTINUOUS
10
6.26453
20
-3.40349
11
6.26453
21
-3.39651
0
LINE
8
BLACK
6
CONTINUOUS
10
6.26453
20
-3.39651
11
6.26589
21
-3.38965
0
LINE
8
BLACK
6
CONTINUOUS
10
6.26589
20
-3.38965
11
6.26856
21
-3.3832
0
LINE
8
BLACK
6
CONTINUOUS
10
6.26856
20
-3.3832
11
6.27245
21
-3.37739
0
LINE
8
BLACK
6
CONTINUOUS
10
6.27245
20
-3.37739
11
6.27739
21
-3.37245
0
LINE
8
BLACK
6
CONTINUOUS
10
6.27739
20
-3.37245
11
6.2832
21
-3.36856
0
LINE
8
BLACK
6
CONTINUOUS
10
6.2832
20
-3.36856
11
6.28965
21
-3.36589
0
LINE
8
BLACK
6
CONTINUOUS
10
6.28965
20
-3.36589
11
6.29553
21
-3.36472
0
LINE
8
BLACK
6
CONTINUOUS
10
6.29553
20
-3.36472
11
6.29651
21
-3.36453
0
LINE
8
BLACK
6
CONTINUOUS
10
6.29651
20
-3.36453
11
6.30349
21
-3.36453
0
LINE
8
BLACK
6
CONTINUOUS
10
6.30349
20
-3.36453
11
6.30447
21
-3.36472
0
LINE
8
BLACK
6
CONTINUOUS
10
6.40447
20
-3.26472
11
6.41035
21
-3.26589
0
LINE
8
BLACK
6
CONTINUOUS
10
6.41035
20
-3.26589
11
6.4168
21
-3.26856
0
LINE
8
BLACK
6
CONTINUOUS
10
6.4168
20
-3.26856
11
6.42261
21
-3.27245
0
LINE
8
BLACK
6
CONTINUOUS
10
6.42261
20
-3.27245
11
6.42755
21
-3.27739
0
LINE
8
BLACK
6
CONTINUOUS
10
6.42755
20
-3.27739
11
6.43144
21
-3.2832
0
LINE
8
BLACK
6
CONTINUOUS
10
6.43144
20
-3.2832
11
6.43411
21
-3.28965
0
LINE
8
BLACK
6
CONTINUOUS
10
6.43411
20
-3.28965
11
6.43547
21
-3.29651
0
LINE
8
BLACK
6
CONTINUOUS
10
6.43547
20
-3.29651
11
6.43547
21
-3.30349
0
LINE
8
BLACK
6
CONTINUOUS
10
6.43547
20
-3.30349
11
6.43411
21
-3.31035
0
LINE
8
BLACK
6
CONTINUOUS
10
6.43411
20
-3.31035
11
6.43144
21
-3.3168
0
LINE
8
BLACK
6
CONTINUOUS
10
6.43144
20
-3.3168
11
6.42755
21
-3.32261
0
LINE
8
BLACK
6
CONTINUOUS
10
6.42755
20
-3.32261
11
6.42261
21
-3.32755
0
LINE
8
BLACK
6
CONTINUOUS
10
6.42261
20
-3.32755
11
6.4168
21
-3.33144
0
LINE
8
BLACK
6
CONTINUOUS
10
6.4168
20
-3.33144
11
6.41035
21
-3.33411
0
LINE
8
BLACK
6
CONTINUOUS
10
6.41035
20
-3.33411
11
6.40447
21
-3.33528
0
LINE
8
BLACK
6
CONTINUOUS
10
6.40447
20
-3.33528
11
6.40349
21
-3.33547
0
LINE
8
BLACK
6
CONTINUOUS
10
6.40349
20
-3.33547
11
6.39651
21
-3.33547
0
LINE
8
BLACK
6
CONTINUOUS
10
6.39651
20
-3.33547
11
6.39553
21
-3.33528
0
LINE
8
BLACK
6
CONTINUOUS
10
6.39553
20
-3.33528
11
6.38965
21
-3.33411
0
LINE
8
BLACK
6
CONTINUOUS
10
6.38965
20
-3.33411
11
6.3832
21
-3.33144
0
LINE
8
BLACK
6
CONTINUOUS
10
6.3832
20
-3.33144
11
6.37739
21
-3.32755
0
LINE
8
BLACK
6
CONTINUOUS
10
6.37739
20
-3.32755
11
6.37245
21
-3.32261
0
LINE
8
BLACK
6
CONTINUOUS
10
6.37245
20
-3.32261
11
6.36856
21
-3.3168
0
LINE
8
BLACK
6
CONTINUOUS
10
6.36856
20
-3.3168
11
6.36589
21
-3.31035
0
LINE
8
BLACK
6
CONTINUOUS
10
6.36589
20
-3.31035
11
6.36453
21
-3.30349
0
LINE
8
BLACK
6
CONTINUOUS
10
6.36453
20
-3.30349
11
6.36453
21
-3.29651
0
LINE
8
BLACK
6
CONTINUOUS
10
6.36453
20
-3.29651
11
6.36589
21
-3.28965
0
LINE
8
BLACK
6
CONTINUOUS
10
6.36589
20
-3.28965
11
6.36856
21
-3.2832
0
LINE
8
BLACK
6
CONTINUOUS
10
6.36856
20
-3.2832
11
6.37245
21
-3.27739
0
LINE
8
BLACK
6
CONTINUOUS
10
6.37245
20
-3.27739
11
6.37739
21
-3.27245
0
LINE
8
BLACK
6
CONTINUOUS
10
6.37739
20
-3.27245
11
6.3832
21
-3.26856
0
LINE
8
BLACK
6
CONTINUOUS
10
6.3832
20
-3.26856
11
6.38965
21
-3.26589
0
LINE
8
BLACK
6
CONTINUOUS
10
6.38965
20
-3.26589
11
6.39553
21
-3.26472
0
LINE
8
BLACK
6
CONTINUOUS
10
6.39553
20
-3.26472
11
6.39651
21
-3.26453
0
LINE
8
BLACK
6
CONTINUOUS
10
6.39651
20
-3.26453
11
6.40349
21
-3.26453
0
LINE
8
BLACK
6
CONTINUOUS
10
6.40349
20
-3.26453
11
6.40447
21
-3.26472
0
LINE
8
BLACK
6
CONTINUOUS
10
6.30447
20
-3.26472
11
6.31035
21
-3.26589
0
LINE
8
BLACK
6
CONTINUOUS
10
6.31035
20
-3.26589
11
6.3168
21
-3.26856
0
LINE
8
BLACK
6
CONTINUOUS
10
6.3168
20
-3.26856
11
6.32261
21
-3.27245
0
LINE
8
BLACK
6
CONTINUOUS
10
6.32261
20
-3.27245
11
6.32755
21
-3.27739
0
LINE
8
BLACK
6
CONTINUOUS
10
6.32755
20
-3.27739
11
6.33144
21
-3.2832
0
LINE
8
BLACK
6
CONTINUOUS
10
6.33144
20
-3.2832
11
6.33411
21
-3.28965
0
LINE
8
BLACK
6
CONTINUOUS
10
6.33411
20
-3.28965
11
6.33547
21
-3.29651
0
LINE
8
BLACK
6
CONTINUOUS
10
6.33547
20
-3.29651
11
6.33547
21
-3.30349
0
LINE
8
BLACK
6
CONTINUOUS
10
6.33547
20
-3.30349
11
6.33411
21
-3.31035
0
LINE
8
BLACK
6
CONTINUOUS
10
6.33411
20
-3.31035
11
6.33144
21
-3.3168
0
LINE
8
BLACK
6
CONTINUOUS
10
6.33144
20
-3.3168
11
6.32755
21
-3.32261
0
LINE
8
BLACK
6
CONTINUOUS
10
6.32755
20
-3.32261
11
6.32261
21
-3.32755
0
LINE
8
BLACK
6
CONTINUOUS
10
6.32261
20
-3.32755
11
6.3168
21
-3.33144
0
LINE
8
BLACK
6
CONTINUOUS
10
6.3168
20
-3.33144
11
6.31035
21
-3.33411
0
LINE
8
BLACK
6
CONTINUOUS
10
6.31035
20
-3.33411
11
6.30447
21
-3.33528
0
LINE
8
BLACK
6
CONTINUOUS
10
6.30447
20
-3.33528
11
6.30349
21
-3.33547
0
LINE
8
BLACK
6
CONTINUOUS
10
6.30349
20
-3.33547
11
6.29651
21
-3.33547
0
LINE
8
BLACK
6
CONTINUOUS
10
6.29651
20
-3.33547
11
6.29553
21
-3.33528
0
LINE
8
BLACK
6
CONTINUOUS
10
6.29553
20
-3.33528
11
6.28965
21
-3.33411
0
LINE
8
BLACK
6
CONTINUOUS
10
6.28965
20
-3.33411
11
6.2832
21
-3.33144
0
LINE
8
BLACK
6
CONTINUOUS
10
6.2832
20
-3.33144
11
6.27739
21
-3.32755
0
LINE
8
BLACK
6
CONTINUOUS
10
6.27739
20
-3.32755
11
6.27245
21
-3.32261
0
LINE
8
BLACK
6
CONTINUOUS
10
6.27245
20
-3.32261
11
6.26856
21
-3.3168
0
LINE
8
BLACK
6
CONTINUOUS
10
6.26856
20
-3.3168
11
6.26589
21
-3.31035
0
LINE
8
BLACK
6
CONTINUOUS
10
6.26589
20
-3.31035
11
6.26453
21
-3.30349
0
LINE
8
BLACK
6
CONTINUOUS
10
6.26453
20
-3.30349
11
6.26453
21
-3.29651
0
LINE
8
BLACK
6
CONTINUOUS
10
6.26453
20
-3.29651
11
6.26589
21
-3.28965
0
LINE
8
BLACK
6
CONTINUOUS
10
6.26589
20
-3.28965
11
6.26856
21
-3.2832
0
LINE
8
BLACK
6
CONTINUOUS
10
6.26856
20
-3.2832
11
6.27245
21
-3.27739
0
LINE
8
BLACK
6
CONTINUOUS
10
6.27245
20
-3.27739
11
6.27739
21
-3.27245
0
LINE
8
BLACK
6
CONTINUOUS
10
6.27739
20
-3.27245
11
6.2832
21
-3.26856
0
LINE
8
BLACK
6
CONTINUOUS
10
6.2832
20
-3.26856
11
6.28965
21
-3.26589
0
LINE
8
BLACK
6
CONTINUOUS
10
6.28965
20
-3.26589
11
6.29553
21
-3.26472
0
LINE
8
BLACK
6
CONTINUOUS
10
6.29553
20
-3.26472
11
6.29651
21
-3.26453
0
LINE
8
BLACK
6
CONTINUOUS
10
6.29651
20
-3.26453
11
6.30349
21
-3.26453
0
LINE
8
BLACK
6
CONTINUOUS
10
6.30349
20
-3.26453
11
6.30447
21
-3.26472
0
LINE
8
BLACK
6
CONTINUOUS
10
6.40447
20
-3.16472
11
6.41035
21
-3.16589
0
LINE
8
BLACK
6
CONTINUOUS
10
6.41035
20
-3.16589
11
6.4168
21
-3.16856
0
LINE
8
BLACK
6
CONTINUOUS
10
6.4168
20
-3.16856
11
6.42261
21
-3.17245
0
LINE
8
BLACK
6
CONTINUOUS
10
6.42261
20
-3.17245
11
6.42755
21
-3.17739
0
LINE
8
BLACK
6
CONTINUOUS
10
6.42755
20
-3.17739
11
6.43144
21
-3.1832
0
LINE
8
BLACK
6
CONTINUOUS
10
6.43144
20
-3.1832
11
6.43411
21
-3.18965
0
LINE
8
BLACK
6
CONTINUOUS
10
6.43411
20
-3.18965
11
6.43547
21
-3.19651
0
LINE
8
BLACK
6
CONTINUOUS
10
6.43547
20
-3.19651
11
6.43547
21
-3.20349
0
LINE
8
BLACK
6
CONTINUOUS
10
6.43547
20
-3.20349
11
6.43411
21
-3.21035
0
LINE
8
BLACK
6
CONTINUOUS
10
6.43411
20
-3.21035
11
6.43144
21
-3.2168
0
LINE
8
BLACK
6
CONTINUOUS
10
6.43144
20
-3.2168
11
6.42755
21
-3.22261
0
LINE
8
BLACK
6
CONTINUOUS
10
6.42755
20
-3.22261
11
6.42261
21
-3.22755
0
LINE
8
BLACK
6
CONTINUOUS
10
6.42261
20
-3.22755
11
6.4168
21
-3.23144
0
LINE
8
BLACK
6
CONTINUOUS
10
6.4168
20
-3.23144
11
6.41035
21
-3.23411
0
LINE
8
BLACK
6
CONTINUOUS
10
6.41035
20
-3.23411
11
6.40447
21
-3.23528
0
LINE
8
BLACK
6
CONTINUOUS
10
6.40447
20
-3.23528
11
6.40349
21
-3.23547
0
LINE
8
BLACK
6
CONTINUOUS
10
6.40349
20
-3.23547
11
6.39651
21
-3.23547
0
LINE
8
BLACK
6
CONTINUOUS
10
6.39651
20
-3.23547
11
6.39553
21
-3.23528
0
LINE
8
BLACK
6
CONTINUOUS
10
6.39553
20
-3.23528
11
6.38965
21
-3.23411
0
LINE
8
BLACK
6
CONTINUOUS
10
6.38965
20
-3.23411
11
6.3832
21
-3.23144
0
LINE
8
BLACK
6
CONTINUOUS
10
6.3832
20
-3.23144
11
6.37739
21
-3.22755
0
LINE
8
BLACK
6
CONTINUOUS
10
6.37739
20
-3.22755
11
6.37245
21
-3.22261
0
LINE
8
BLACK
6
CONTINUOUS
10
6.37245
20
-3.22261
11
6.36856
21
-3.2168
0
LINE
8
BLACK
6
CONTINUOUS
10
6.36856
20
-3.2168
11
6.36589
21
-3.21035
0
LINE
8
BLACK
6
CONTINUOUS
10
6.36589
20
-3.21035
11
6.36453
21
-3.20349
0
LINE
8
BLACK
6
CONTINUOUS
10
6.36453
20
-3.20349
11
6.36453
21
-3.19651
0
LINE
8
BLACK
6
CONTINUOUS
10
6.36453
20
-3.19651
11
6.36589
21
-3.18965
0
LINE
8
BLACK
6
CONTINUOUS
10
6.36589
20
-3.18965
11
6.36856
21
-3.1832
0
LINE
8
BLACK
6
CONTINUOUS
10
6.36856
20
-3.1832
11
6.37245
21
-3.17739
0
LINE
8
BLACK
6
CONTINUOUS
10
6.37245
20
-3.17739
11
6.37739
21
-3.17245
0
LINE
8
BLACK
6
CONTINUOUS
10
6.37739
20
-3.17245
11
6.3832
21
-3.16856
0
LINE
8
BLACK
6
CONTINUOUS
10
6.3832
20
-3.16856
11
6.38965
21
-3.16589
0
LINE
8
BLACK
6
CONTINUOUS
10
6.38965
20
-3.16589
11
6.39553
21
-3.16472
0
LINE
8
BLACK
6
CONTINUOUS
10
6.39553
20
-3.16472
11
6.39651
21
-3.16453
0
LINE
8
BLACK
6
CONTINUOUS
10
6.39651
20
-3.16453
11
6.40349
21
-3.16453
0
LINE
8
BLACK
6
CONTINUOUS
10
6.40349
20
-3.16453
11
6.40447
21
-3.16472
0
LINE
8
BLACK
6
CONTINUOUS
10
6.33547
20
-3.23547
11
6.26453
21
-3.23547
0
LINE
8
BLACK
6
CONTINUOUS
10
6.26453
20
-3.23547
11
6.26453
21
-3.16453
0
LINE
8
BLACK
6
CONTINUOUS
10
6.26453
20
-3.16453
11
6.33547
21
-3.16453
0
LINE
8
BLACK
6
CONTINUOUS
10
6.33547
20
-3.16453
11
6.33547
21
-3.23547
  0
ENDSEC
  0
EOF
