  0
SECTION
  2
HEADER
  9
$ANGBASE
  50
0.0
  9
$ANGDIR
  70
1
  9
$MEASUREMENT
  70
0
  0
ENDSEC
  0
SECTION
  2
TABLES
  0
TABLE
  2
LTYPE
  70
4
  0
LTYPE
  5
40F
  2
CONTINUOUS
  70
0
  3
Solid line
  72
65
  73
0
  40
0.0
  0
LTYPE
  5
410
  2
DASHDOT
 70
0
  3
Dash Dot ____ _ ____ _
 72
65
 73
4
 40
2.0
 49
1.25
 49
-0.25
 49
0.25
 49
-0.25
  0
LTYPE
  5
411
  2
DASHED
 70
0
  3
Dashed __ __ __ __ __
 72
65
 73
2
 40
0.75
 49
0.5
 49
-0.25
  0
LTYPE
  5
43B
  2
DOTTED
 70
0
  3
Dotted .  .  .  .
 72
65
 73
2
 40
0.2
 49
0.0
 49
-0.2
  0
ENDTAB
  0
TABLE
  2
STYLE
  70
4
  0
STYLE
  2
KICAD
  70
0
  40
0
  41
1
  42
1
  50
0
  71
0
  3
isocp.shx
  0
STYLE
  2
KICADB
  70
0
  40
0
  41
1
  42
1
  50
0
  71
0
  3
isocp.shx
  0
STYLE
  2
KICADI
  70
0
  40
0
  41
1
  42
1
  50
15
  71
0
  3
isocp.shx
  0
STYLE
  2
KICADBI
  70
0
  40
0
  41
1
  42
1
  50
15
  71
0
  3
isocp.shx
  0
ENDTAB
  0
TABLE
  2
LAYER
  70
1
  0
LAYER
  2
BLACK
  70
0
  62
7
  6
CONTINUOUS
  0
ENDTAB
  0
ENDSEC
  0
SECTION
  2
ENTITIES
0
LINE
8
BLACK
6
CONTINUOUS
10
4.75
20
-3.10497
11
4.75
21
-3.10497
0
LINE
8
BLACK
6
CONTINUOUS
10
4.75
20
-3.10497
11
4.75
21
-3.10496
0
LINE
8
BLACK
6
CONTINUOUS
10
4.75
20
-3.10496
11
4.75
21
-3.10493
0
LINE
8
BLACK
6
CONTINUOUS
10
4.75
20
-3.10493
11
4.75005
21
-3.10446
0
LINE
8
BLACK
6
CONTINUOUS
10
4.75005
20
-3.10446
11
4.7501
21
-3.10399
0
LINE
8
BLACK
6
CONTINUOUS
10
4.7501
20
-3.10399
11
4.75011
21
-3.10398
0
LINE
8
BLACK
6
CONTINUOUS
10
4.75011
20
-3.10398
11
4.75011
21
-3.10396
0
LINE
8
BLACK
6
CONTINUOUS
10
4.75011
20
-3.10396
11
4.75025
21
-3.10351
0
LINE
8
BLACK
6
CONTINUOUS
10
4.75025
20
-3.10351
11
4.75039
21
-3.10306
0
LINE
8
BLACK
6
CONTINUOUS
10
4.75039
20
-3.10306
11
4.7504
21
-3.10305
0
LINE
8
BLACK
6
CONTINUOUS
10
4.7504
20
-3.10305
11
4.7504
21
-3.10303
0
LINE
8
BLACK
6
CONTINUOUS
10
4.7504
20
-3.10303
11
4.75063
21
-3.10262
0
LINE
8
BLACK
6
CONTINUOUS
10
4.75063
20
-3.10262
11
4.75085
21
-3.1022
0
LINE
8
BLACK
6
CONTINUOUS
10
4.75085
20
-3.1022
11
4.75087
21
-3.10219
0
LINE
8
BLACK
6
CONTINUOUS
10
4.75087
20
-3.10219
11
4.75087
21
-3.10218
0
LINE
8
BLACK
6
CONTINUOUS
10
4.75087
20
-3.10218
11
4.75118
21
-3.10182
0
LINE
8
BLACK
6
CONTINUOUS
10
4.75118
20
-3.10182
11
4.75148
21
-3.10145
0
LINE
8
BLACK
6
CONTINUOUS
10
4.75148
20
-3.10145
11
4.75149
21
-3.10144
0
LINE
8
BLACK
6
CONTINUOUS
10
4.75149
20
-3.10144
11
4.7515
21
-3.10143
0
LINE
8
BLACK
6
CONTINUOUS
10
4.7515
20
-3.10143
11
4.75187
21
-3.10113
0
LINE
8
BLACK
6
CONTINUOUS
10
4.75187
20
-3.10113
11
4.75223
21
-3.10084
0
LINE
8
BLACK
6
CONTINUOUS
10
4.75223
20
-3.10084
11
4.75225
21
-3.10083
0
LINE
8
BLACK
6
CONTINUOUS
10
4.75225
20
-3.10083
11
4.75226
21
-3.10082
0
LINE
8
BLACK
6
CONTINUOUS
10
4.75226
20
-3.10082
11
4.75268
21
-3.1006
0
LINE
8
BLACK
6
CONTINUOUS
10
4.75268
20
-3.1006
11
4.75309
21
-3.10038
0
LINE
8
BLACK
6
CONTINUOUS
10
4.75309
20
-3.10038
11
4.75311
21
-3.10037
0
LINE
8
BLACK
6
CONTINUOUS
10
4.75311
20
-3.10037
11
4.75313
21
-3.10036
0
LINE
8
BLACK
6
CONTINUOUS
10
4.75313
20
-3.10036
11
4.75358
21
-3.10023
0
LINE
8
BLACK
6
CONTINUOUS
10
4.75358
20
-3.10023
11
4.75403
21
-3.1001
0
LINE
8
BLACK
6
CONTINUOUS
10
4.75403
20
-3.1001
11
4.75405
21
-3.10009
0
LINE
8
BLACK
6
CONTINUOUS
10
4.75405
20
-3.10009
11
4.75406
21
-3.10009
0
LINE
8
BLACK
6
CONTINUOUS
10
4.75406
20
-3.10009
11
4.75453
21
-3.10005
0
LINE
8
BLACK
6
CONTINUOUS
10
4.75453
20
-3.10005
11
4.755
21
-3.1
0
LINE
8
BLACK
6
CONTINUOUS
10
4.755
20
-3.1
11
6.445
21
-3.1
0
LINE
8
BLACK
6
CONTINUOUS
10
6.445
20
-3.1
11
6.44503
21
-3.1
0
LINE
8
BLACK
6
CONTINUOUS
10
6.44503
20
-3.1
11
6.44503
21
-3.1
0
LINE
8
BLACK
6
CONTINUOUS
10
6.44503
20
-3.1
11
6.44504
21
-3.1
0
LINE
8
BLACK
6
CONTINUOUS
10
6.44504
20
-3.1
11
6.44507
21
-3.1
0
LINE
8
BLACK
6
CONTINUOUS
10
6.44507
20
-3.1
11
6.44554
21
-3.10005
0
LINE
8
BLACK
6
CONTINUOUS
10
6.44554
20
-3.10005
11
6.44601
21
-3.1001
0
LINE
8
BLACK
6
CONTINUOUS
10
6.44601
20
-3.1001
11
6.44602
21
-3.10011
0
LINE
8
BLACK
6
CONTINUOUS
10
6.44602
20
-3.10011
11
6.44604
21
-3.10011
0
LINE
8
BLACK
6
CONTINUOUS
10
6.44604
20
-3.10011
11
6.44649
21
-3.10025
0
LINE
8
BLACK
6
CONTINUOUS
10
6.44649
20
-3.10025
11
6.44694
21
-3.10039
0
LINE
8
BLACK
6
CONTINUOUS
10
6.44694
20
-3.10039
11
6.44695
21
-3.1004
0
LINE
8
BLACK
6
CONTINUOUS
10
6.44695
20
-3.1004
11
6.44697
21
-3.1004
0
LINE
8
BLACK
6
CONTINUOUS
10
6.44697
20
-3.1004
11
6.44738
21
-3.10063
0
LINE
8
BLACK
6
CONTINUOUS
10
6.44738
20
-3.10063
11
6.4478
21
-3.10085
0
LINE
8
BLACK
6
CONTINUOUS
10
6.4478
20
-3.10085
11
6.44781
21
-3.10087
0
LINE
8
BLACK
6
CONTINUOUS
10
6.44781
20
-3.10087
11
6.44782
21
-3.10087
0
LINE
8
BLACK
6
CONTINUOUS
10
6.44782
20
-3.10087
11
6.44818
21
-3.10118
0
LINE
8
BLACK
6
CONTINUOUS
10
6.44818
20
-3.10118
11
6.44855
21
-3.10148
0
LINE
8
BLACK
6
CONTINUOUS
10
6.44855
20
-3.10148
11
6.44856
21
-3.10149
0
LINE
8
BLACK
6
CONTINUOUS
10
6.44856
20
-3.10149
11
6.44857
21
-3.1015
0
LINE
8
BLACK
6
CONTINUOUS
10
6.44857
20
-3.1015
11
6.44887
21
-3.10187
0
LINE
8
BLACK
6
CONTINUOUS
10
6.44887
20
-3.10187
11
6.44916
21
-3.10223
0
LINE
8
BLACK
6
CONTINUOUS
10
6.44916
20
-3.10223
11
6.44917
21
-3.10225
0
LINE
8
BLACK
6
CONTINUOUS
10
6.44917
20
-3.10225
11
6.44918
21
-3.10226
0
LINE
8
BLACK
6
CONTINUOUS
10
6.44918
20
-3.10226
11
6.4494
21
-3.10268
0
LINE
8
BLACK
6
CONTINUOUS
10
6.4494
20
-3.10268
11
6.44962
21
-3.10309
0
LINE
8
BLACK
6
CONTINUOUS
10
6.44962
20
-3.10309
11
6.44963
21
-3.10311
0
LINE
8
BLACK
6
CONTINUOUS
10
6.44963
20
-3.10311
11
6.44964
21
-3.10313
0
LINE
8
BLACK
6
CONTINUOUS
10
6.44964
20
-3.10313
11
6.44977
21
-3.10358
0
LINE
8
BLACK
6
CONTINUOUS
10
6.44977
20
-3.10358
11
6.4499
21
-3.10403
0
LINE
8
BLACK
6
CONTINUOUS
10
6.4499
20
-3.10403
11
6.44991
21
-3.10405
0
LINE
8
BLACK
6
CONTINUOUS
10
6.44991
20
-3.10405
11
6.44991
21
-3.10406
0
LINE
8
BLACK
6
CONTINUOUS
10
6.44991
20
-3.10406
11
6.44995
21
-3.10453
0
LINE
8
BLACK
6
CONTINUOUS
10
6.44995
20
-3.10453
11
6.45
21
-3.105
0
LINE
8
BLACK
6
CONTINUOUS
10
6.45
20
-3.105
11
6.45
21
-3.16232
0
LINE
8
BLACK
6
CONTINUOUS
10
6.45
20
-3.16232
11
6.45
21
-3.16237
0
LINE
8
BLACK
6
CONTINUOUS
10
6.45
20
-3.16237
11
6.45
21
-3.16237
0
LINE
8
BLACK
6
CONTINUOUS
10
6.45
20
-3.16237
11
6.45
21
-3.16237
0
LINE
8
BLACK
6
CONTINUOUS
10
6.45
20
-3.16237
11
6.45
21
-3.16239
0
LINE
8
BLACK
6
CONTINUOUS
10
6.45
20
-3.16239
11
6.44995
21
-3.16287
0
LINE
8
BLACK
6
CONTINUOUS
10
6.44995
20
-3.16287
11
6.44989
21
-3.16334
0
LINE
8
BLACK
6
CONTINUOUS
10
6.44989
20
-3.16334
11
6.44989
21
-3.16335
0
LINE
8
BLACK
6
CONTINUOUS
10
6.44989
20
-3.16335
11
6.44989
21
-3.16336
0
LINE
8
BLACK
6
CONTINUOUS
10
6.44989
20
-3.16336
11
6.44974
21
-3.16382
0
LINE
8
BLACK
6
CONTINUOUS
10
6.44974
20
-3.16382
11
6.4496
21
-3.16427
0
LINE
8
BLACK
6
CONTINUOUS
10
6.4496
20
-3.16427
11
6.4496
21
-3.16428
0
LINE
8
BLACK
6
CONTINUOUS
10
6.4496
20
-3.16428
11
6.4496
21
-3.16429
0
LINE
8
BLACK
6
CONTINUOUS
10
6.4496
20
-3.16429
11
6.44936
21
-3.16472
0
LINE
8
BLACK
6
CONTINUOUS
10
6.44936
20
-3.16472
11
6.44914
21
-3.16513
0
LINE
8
BLACK
6
CONTINUOUS
10
6.44914
20
-3.16513
11
6.44913
21
-3.16514
0
LINE
8
BLACK
6
CONTINUOUS
10
6.44913
20
-3.16514
11
6.44913
21
-3.16514
0
LINE
8
BLACK
6
CONTINUOUS
10
6.44913
20
-3.16514
11
6.44881
21
-3.16552
0
LINE
8
BLACK
6
CONTINUOUS
10
6.44881
20
-3.16552
11
6.44851
21
-3.16588
0
LINE
8
BLACK
6
CONTINUOUS
10
6.44851
20
-3.16588
11
6.4485
21
-3.16588
0
LINE
8
BLACK
6
CONTINUOUS
10
6.4485
20
-3.16588
11
6.4485
21
-3.16589
0
LINE
8
BLACK
6
CONTINUOUS
10
6.4485
20
-3.16589
11
6.44812
21
-3.16619
0
LINE
8
BLACK
6
CONTINUOUS
10
6.44812
20
-3.16619
11
6.44775
21
-3.16649
0
LINE
8
BLACK
6
CONTINUOUS
10
6.44775
20
-3.16649
11
6.44774
21
-3.1665
0
LINE
8
BLACK
6
CONTINUOUS
10
6.44774
20
-3.1665
11
6.44774
21
-3.1665
0
LINE
8
BLACK
6
CONTINUOUS
10
6.44774
20
-3.1665
11
6.44731
21
-3.16672
0
LINE
8
BLACK
6
CONTINUOUS
10
6.44731
20
-3.16672
11
6.44689
21
-3.16695
0
LINE
8
BLACK
6
CONTINUOUS
10
6.44689
20
-3.16695
11
6.44688
21
-3.16695
0
LINE
8
BLACK
6
CONTINUOUS
10
6.44688
20
-3.16695
11
6.44687
21
-3.16695
0
LINE
8
BLACK
6
CONTINUOUS
10
6.44687
20
-3.16695
11
6.44641
21
-3.16709
0
LINE
8
BLACK
6
CONTINUOUS
10
6.44641
20
-3.16709
11
6.44595
21
-3.16723
0
LINE
8
BLACK
6
CONTINUOUS
10
6.44595
20
-3.16723
11
6.44595
21
-3.16723
0
LINE
8
BLACK
6
CONTINUOUS
10
6.44595
20
-3.16723
11
6.44594
21
-3.16723
0
LINE
8
BLACK
6
CONTINUOUS
10
6.44594
20
-3.16723
11
6.44546
21
-3.16727
0
LINE
8
BLACK
6
CONTINUOUS
10
6.44546
20
-3.16727
11
6.44498
21
-3.16732
0
LINE
8
BLACK
6
CONTINUOUS
10
6.44498
20
-3.16732
11
6.44497
21
-3.16732
0
LINE
8
BLACK
6
CONTINUOUS
10
6.44497
20
-3.16732
11
6.44497
21
-3.16732
0
LINE
8
BLACK
6
CONTINUOUS
10
6.44497
20
-3.16732
11
6.44448
21
-3.16727
0
LINE
8
BLACK
6
CONTINUOUS
10
6.44448
20
-3.16727
11
6.44401
21
-3.16722
0
LINE
8
BLACK
6
CONTINUOUS
10
6.44401
20
-3.16722
11
6.444
21
-3.16722
0
LINE
8
BLACK
6
CONTINUOUS
10
6.444
20
-3.16722
11
6.44399
21
-3.16722
0
LINE
8
BLACK
6
CONTINUOUS
10
6.44399
20
-3.16722
11
6.44353
21
-3.16707
0
LINE
8
BLACK
6
CONTINUOUS
10
6.44353
20
-3.16707
11
6.44308
21
-3.16693
0
LINE
8
BLACK
6
CONTINUOUS
10
6.44308
20
-3.16693
11
6.44307
21
-3.16693
0
LINE
8
BLACK
6
CONTINUOUS
10
6.44307
20
-3.16693
11
6.44306
21
-3.16693
0
LINE
8
BLACK
6
CONTINUOUS
10
6.44306
20
-3.16693
11
6.44263
21
-3.1667
0
LINE
8
BLACK
6
CONTINUOUS
10
6.44263
20
-3.1667
11
6.44222
21
-3.16647
0
LINE
8
BLACK
6
CONTINUOUS
10
6.44222
20
-3.16647
11
6.44221
21
-3.16647
0
LINE
8
BLACK
6
CONTINUOUS
10
6.44221
20
-3.16647
11
6.4422
21
-3.16646
0
LINE
8
BLACK
6
CONTINUOUS
10
6.4422
20
-3.16646
11
6.44183
21
-3.16616
0
LINE
8
BLACK
6
CONTINUOUS
10
6.44183
20
-3.16616
11
6.44146
21
-3.16585
0
LINE
8
BLACK
6
CONTINUOUS
10
6.44146
20
-3.16585
11
6.43408
21
-3.15847
0
LINE
8
BLACK
6
CONTINUOUS
10
6.43408
20
-3.15847
11
6.42532
21
-3.15262
0
LINE
8
BLACK
6
CONTINUOUS
10
6.42532
20
-3.15262
11
6.41559
21
-3.14859
0
LINE
8
BLACK
6
CONTINUOUS
10
6.41559
20
-3.14859
11
6.40527
21
-3.14654
0
LINE
8
BLACK
6
CONTINUOUS
10
6.40527
20
-3.14654
11
6.39473
21
-3.14654
0
LINE
8
BLACK
6
CONTINUOUS
10
6.39473
20
-3.14654
11
6.38441
21
-3.14859
0
LINE
8
BLACK
6
CONTINUOUS
10
6.38441
20
-3.14859
11
6.37467
21
-3.15262
0
LINE
8
BLACK
6
CONTINUOUS
10
6.37467
20
-3.15262
11
6.36592
21
-3.15847
0
LINE
8
BLACK
6
CONTINUOUS
10
6.36592
20
-3.15847
11
6.36108
21
-3.16331
0
LINE
8
BLACK
6
CONTINUOUS
10
6.36108
20
-3.16331
11
6.36103
21
-3.16336
0
LINE
8
BLACK
6
CONTINUOUS
10
6.36103
20
-3.16336
11
6.36084
21
-3.16351
0
LINE
8
BLACK
6
CONTINUOUS
10
6.36084
20
-3.16351
11
6.36068
21
-3.16367
0
LINE
8
BLACK
6
CONTINUOUS
10
6.36068
20
-3.16367
11
6.36046
21
-3.16381
0
LINE
8
BLACK
6
CONTINUOUS
10
6.36046
20
-3.16381
11
6.36026
21
-3.16397
0
LINE
8
BLACK
6
CONTINUOUS
10
6.36026
20
-3.16397
11
6.36006
21
-3.16408
0
LINE
8
BLACK
6
CONTINUOUS
10
6.36006
20
-3.16408
11
6.35986
21
-3.16421
0
LINE
8
BLACK
6
CONTINUOUS
10
6.35986
20
-3.16421
11
6.35962
21
-3.1643
0
LINE
8
BLACK
6
CONTINUOUS
10
6.35962
20
-3.1643
11
6.3594
21
-3.16442
0
LINE
8
BLACK
6
CONTINUOUS
10
6.3594
20
-3.16442
11
6.35917
21
-3.16449
0
LINE
8
BLACK
6
CONTINUOUS
10
6.35917
20
-3.16449
11
6.35896
21
-3.16457
0
LINE
8
BLACK
6
CONTINUOUS
10
6.35896
20
-3.16457
11
6.35871
21
-3.16462
0
LINE
8
BLACK
6
CONTINUOUS
10
6.35871
20
-3.16462
11
6.35846
21
-3.16469
0
LINE
8
BLACK
6
CONTINUOUS
10
6.35846
20
-3.16469
11
6.35823
21
-3.16471
0
LINE
8
BLACK
6
CONTINUOUS
10
6.35823
20
-3.16471
11
6.358
21
-3.16476
0
LINE
8
BLACK
6
CONTINUOUS
10
6.358
20
-3.16476
11
6.35774
21
-3.16476
0
LINE
8
BLACK
6
CONTINUOUS
10
6.35774
20
-3.16476
11
6.35749
21
-3.16478
0
LINE
8
BLACK
6
CONTINUOUS
10
6.35749
20
-3.16478
11
6.35726
21
-3.16475
0
LINE
8
BLACK
6
CONTINUOUS
10
6.35726
20
-3.16475
11
6.35702
21
-3.16475
0
LINE
8
BLACK
6
CONTINUOUS
10
6.35702
20
-3.16475
11
6.35677
21
-3.1647
0
LINE
8
BLACK
6
CONTINUOUS
10
6.35677
20
-3.1647
11
6.35652
21
-3.16467
0
LINE
8
BLACK
6
CONTINUOUS
10
6.35652
20
-3.16467
11
6.3563
21
-3.1646
0
LINE
8
BLACK
6
CONTINUOUS
10
6.3563
20
-3.1646
11
6.35607
21
-3.16456
0
LINE
8
BLACK
6
CONTINUOUS
10
6.35607
20
-3.16456
11
6.35583
21
-3.16446
0
LINE
8
BLACK
6
CONTINUOUS
10
6.35583
20
-3.16446
11
6.35559
21
-3.16438
0
LINE
8
BLACK
6
CONTINUOUS
10
6.35559
20
-3.16438
11
6.35538
21
-3.16427
0
LINE
8
BLACK
6
CONTINUOUS
10
6.35538
20
-3.16427
11
6.35517
21
-3.16418
0
LINE
8
BLACK
6
CONTINUOUS
10
6.35517
20
-3.16418
11
6.35495
21
-3.16404
0
LINE
8
BLACK
6
CONTINUOUS
10
6.35495
20
-3.16404
11
6.35473
21
-3.16391
0
LINE
8
BLACK
6
CONTINUOUS
10
6.35473
20
-3.16391
11
6.35455
21
-3.16377
0
LINE
8
BLACK
6
CONTINUOUS
10
6.35455
20
-3.16377
11
6.35436
21
-3.16364
0
LINE
8
BLACK
6
CONTINUOUS
10
6.35436
20
-3.16364
11
6.35418
21
-3.16345
0
LINE
8
BLACK
6
CONTINUOUS
10
6.35418
20
-3.16345
11
6.35398
21
-3.16329
0
LINE
8
BLACK
6
CONTINUOUS
10
6.35398
20
-3.16329
11
6.35383
21
-3.16311
0
LINE
8
BLACK
6
CONTINUOUS
10
6.35383
20
-3.16311
11
6.35367
21
-3.16294
0
LINE
8
BLACK
6
CONTINUOUS
10
6.35367
20
-3.16294
11
6.35353
21
-3.16273
0
LINE
8
BLACK
6
CONTINUOUS
10
6.35353
20
-3.16273
11
6.35337
21
-3.16253
0
LINE
8
BLACK
6
CONTINUOUS
10
6.35337
20
-3.16253
11
6.35326
21
-3.16233
0
LINE
8
BLACK
6
CONTINUOUS
10
6.35326
20
-3.16233
11
6.35313
21
-3.16213
0
LINE
8
BLACK
6
CONTINUOUS
10
6.35313
20
-3.16213
11
6.35303
21
-3.16189
0
LINE
8
BLACK
6
CONTINUOUS
10
6.35303
20
-3.16189
11
6.35291
21
-3.16167
0
LINE
8
BLACK
6
CONTINUOUS
10
6.35291
20
-3.16167
11
6.35284
21
-3.16145
0
LINE
8
BLACK
6
CONTINUOUS
10
6.35284
20
-3.16145
11
6.35276
21
-3.16123
0
LINE
8
BLACK
6
CONTINUOUS
10
6.35276
20
-3.16123
11
6.35203
21
-3.15884
0
LINE
8
BLACK
6
CONTINUOUS
10
6.35203
20
-3.15884
11
6.35017
21
-3.15537
0
LINE
8
BLACK
6
CONTINUOUS
10
6.35017
20
-3.15537
11
6.34768
21
-3.15232
0
LINE
8
BLACK
6
CONTINUOUS
10
6.34768
20
-3.15232
11
6.34463
21
-3.14983
0
LINE
8
BLACK
6
CONTINUOUS
10
6.34463
20
-3.14983
11
6.34116
21
-3.14797
0
LINE
8
BLACK
6
CONTINUOUS
10
6.34116
20
-3.14797
11
6.33739
21
-3.14682
0
LINE
8
BLACK
6
CONTINUOUS
10
6.33739
20
-3.14682
11
6.33322
21
-3.14641
0
LINE
8
BLACK
6
CONTINUOUS
10
6.33322
20
-3.14641
11
6.26678
21
-3.14641
0
LINE
8
BLACK
6
CONTINUOUS
10
6.26678
20
-3.14641
11
6.26261
21
-3.14682
0
LINE
8
BLACK
6
CONTINUOUS
10
6.26261
20
-3.14682
11
6.25884
21
-3.14797
0
LINE
8
BLACK
6
CONTINUOUS
10
6.25884
20
-3.14797
11
6.25537
21
-3.14983
0
LINE
8
BLACK
6
CONTINUOUS
10
6.25537
20
-3.14983
11
6.25232
21
-3.15232
0
LINE
8
BLACK
6
CONTINUOUS
10
6.25232
20
-3.15232
11
6.24983
21
-3.15537
0
LINE
8
BLACK
6
CONTINUOUS
10
6.24983
20
-3.15537
11
6.24797
21
-3.15884
0
LINE
8
BLACK
6
CONTINUOUS
10
6.24797
20
-3.15884
11
6.24682
21
-3.16261
0
LINE
8
BLACK
6
CONTINUOUS
10
6.24682
20
-3.16261
11
6.24641
21
-3.16678
0
LINE
8
BLACK
6
CONTINUOUS
10
6.24641
20
-3.16678
11
6.24641
21
-3.23322
0
LINE
8
BLACK
6
CONTINUOUS
10
6.24641
20
-3.23322
11
6.24682
21
-3.23739
0
LINE
8
BLACK
6
CONTINUOUS
10
6.24682
20
-3.23739
11
6.24797
21
-3.24116
0
LINE
8
BLACK
6
CONTINUOUS
10
6.24797
20
-3.24116
11
6.24983
21
-3.24463
0
LINE
8
BLACK
6
CONTINUOUS
10
6.24983
20
-3.24463
11
6.25232
21
-3.24768
0
LINE
8
BLACK
6
CONTINUOUS
10
6.25232
20
-3.24768
11
6.25537
21
-3.25017
0
LINE
8
BLACK
6
CONTINUOUS
10
6.25537
20
-3.25017
11
6.25884
21
-3.25203
0
LINE
8
BLACK
6
CONTINUOUS
10
6.25884
20
-3.25203
11
6.26123
21
-3.25276
0
LINE
8
BLACK
6
CONTINUOUS
10
6.26123
20
-3.25276
11
6.2613
21
-3.25278
0
LINE
8
BLACK
6
CONTINUOUS
10
6.2613
20
-3.25278
11
6.26151
21
-3.25287
0
LINE
8
BLACK
6
CONTINUOUS
10
6.26151
20
-3.25287
11
6.26173
21
-3.25294
0
LINE
8
BLACK
6
CONTINUOUS
10
6.26173
20
-3.25294
11
6.26196
21
-3.25306
0
LINE
8
BLACK
6
CONTINUOUS
10
6.26196
20
-3.25306
11
6.26219
21
-3.25316
0
LINE
8
BLACK
6
CONTINUOUS
10
6.26219
20
-3.25316
11
6.26239
21
-3.25329
0
LINE
8
BLACK
6
CONTINUOUS
10
6.26239
20
-3.25329
11
6.26259
21
-3.2534
0
LINE
8
BLACK
6
CONTINUOUS
10
6.26259
20
-3.2534
11
6.26279
21
-3.25357
0
LINE
8
BLACK
6
CONTINUOUS
10
6.26279
20
-3.25357
11
6.263
21
-3.25371
0
LINE
8
BLACK
6
CONTINUOUS
10
6.263
20
-3.25371
11
6.26316
21
-3.25388
0
LINE
8
BLACK
6
CONTINUOUS
10
6.26316
20
-3.25388
11
6.26334
21
-3.25403
0
LINE
8
BLACK
6
CONTINUOUS
10
6.26334
20
-3.25403
11
6.2635
21
-3.25423
0
LINE
8
BLACK
6
CONTINUOUS
10
6.2635
20
-3.25423
11
6.26368
21
-3.25441
0
LINE
8
BLACK
6
CONTINUOUS
10
6.26368
20
-3.25441
11
6.26381
21
-3.25461
0
LINE
8
BLACK
6
CONTINUOUS
10
6.26381
20
-3.25461
11
6.26395
21
-3.25479
0
LINE
8
BLACK
6
CONTINUOUS
10
6.26395
20
-3.25479
11
6.26407
21
-3.25501
0
LINE
8
BLACK
6
CONTINUOUS
10
6.26407
20
-3.25501
11
6.26421
21
-3.25523
0
LINE
8
BLACK
6
CONTINUOUS
10
6.26421
20
-3.25523
11
6.2643
21
-3.25545
0
LINE
8
BLACK
6
CONTINUOUS
10
6.2643
20
-3.25545
11
6.26441
21
-3.25565
0
LINE
8
BLACK
6
CONTINUOUS
10
6.26441
20
-3.25565
11
6.26448
21
-3.2559
0
LINE
8
BLACK
6
CONTINUOUS
10
6.26448
20
-3.2559
11
6.26458
21
-3.25613
0
LINE
8
BLACK
6
CONTINUOUS
10
6.26458
20
-3.25613
11
6.26462
21
-3.25636
0
LINE
8
BLACK
6
CONTINUOUS
10
6.26462
20
-3.25636
11
6.26469
21
-3.25659
0
LINE
8
BLACK
6
CONTINUOUS
10
6.26469
20
-3.25659
11
6.26471
21
-3.25684
0
LINE
8
BLACK
6
CONTINUOUS
10
6.26471
20
-3.25684
11
6.26476
21
-3.25709
0
LINE
8
BLACK
6
CONTINUOUS
10
6.26476
20
-3.25709
11
6.26476
21
-3.25733
0
LINE
8
BLACK
6
CONTINUOUS
10
6.26476
20
-3.25733
11
6.26478
21
-3.25756
0
LINE
8
BLACK
6
CONTINUOUS
10
6.26478
20
-3.25756
11
6.26475
21
-3.25781
0
LINE
8
BLACK
6
CONTINUOUS
10
6.26475
20
-3.25781
11
6.26475
21
-3.25807
0
LINE
8
BLACK
6
CONTINUOUS
10
6.26475
20
-3.25807
11
6.2647
21
-3.2583
0
LINE
8
BLACK
6
CONTINUOUS
10
6.2647
20
-3.2583
11
6.26468
21
-3.25853
0
LINE
8
BLACK
6
CONTINUOUS
10
6.26468
20
-3.25853
11
6.26461
21
-3.25877
0
LINE
8
BLACK
6
CONTINUOUS
10
6.26461
20
-3.25877
11
6.26455
21
-3.25902
0
LINE
8
BLACK
6
CONTINUOUS
10
6.26455
20
-3.25902
11
6.26446
21
-3.25924
0
LINE
8
BLACK
6
CONTINUOUS
10
6.26446
20
-3.25924
11
6.26439
21
-3.25946
0
LINE
8
BLACK
6
CONTINUOUS
10
6.26439
20
-3.25946
11
6.26427
21
-3.25969
0
LINE
8
BLACK
6
CONTINUOUS
10
6.26427
20
-3.25969
11
6.26417
21
-3.25992
0
LINE
8
BLACK
6
CONTINUOUS
10
6.26417
20
-3.25992
11
6.26404
21
-3.26012
0
LINE
8
BLACK
6
CONTINUOUS
10
6.26404
20
-3.26012
11
6.26393
21
-3.26032
0
LINE
8
BLACK
6
CONTINUOUS
10
6.26393
20
-3.26032
11
6.26377
21
-3.26052
0
LINE
8
BLACK
6
CONTINUOUS
10
6.26377
20
-3.26052
11
6.26363
21
-3.26073
0
LINE
8
BLACK
6
CONTINUOUS
10
6.26363
20
-3.26073
11
6.26346
21
-3.2609
0
LINE
8
BLACK
6
CONTINUOUS
10
6.26346
20
-3.2609
11
6.26331
21
-3.26108
0
LINE
8
BLACK
6
CONTINUOUS
10
6.26331
20
-3.26108
11
6.25847
21
-3.26592
0
LINE
8
BLACK
6
CONTINUOUS
10
6.25847
20
-3.26592
11
6.25262
21
-3.27468
0
LINE
8
BLACK
6
CONTINUOUS
10
6.25262
20
-3.27468
11
6.24859
21
-3.28441
0
LINE
8
BLACK
6
CONTINUOUS
10
6.24859
20
-3.28441
11
6.24654
21
-3.29473
0
LINE
8
BLACK
6
CONTINUOUS
10
6.24654
20
-3.29473
11
6.24654
21
-3.30527
0
LINE
8
BLACK
6
CONTINUOUS
10
6.24654
20
-3.30527
11
6.24859
21
-3.3156
0
LINE
8
BLACK
6
CONTINUOUS
10
6.24859
20
-3.3156
11
6.25262
21
-3.32532
0
LINE
8
BLACK
6
CONTINUOUS
10
6.25262
20
-3.32532
11
6.25847
21
-3.33408
0
LINE
8
BLACK
6
CONTINUOUS
10
6.25847
20
-3.33408
11
6.26592
21
-3.34153
0
LINE
8
BLACK
6
CONTINUOUS
10
6.26592
20
-3.34153
11
6.27237
21
-3.34584
0
LINE
8
BLACK
6
CONTINUOUS
10
6.27237
20
-3.34584
11
6.27241
21
-3.34587
0
LINE
8
BLACK
6
CONTINUOUS
10
6.27241
20
-3.34587
11
6.27241
21
-3.34587
0
LINE
8
BLACK
6
CONTINUOUS
10
6.27241
20
-3.34587
11
6.27241
21
-3.34587
0
LINE
8
BLACK
6
CONTINUOUS
10
6.27241
20
-3.34587
11
6.27243
21
-3.34588
0
LINE
8
BLACK
6
CONTINUOUS
10
6.27243
20
-3.34588
11
6.2728
21
-3.34619
0
LINE
8
BLACK
6
CONTINUOUS
10
6.2728
20
-3.34619
11
6.27316
21
-3.34649
0
LINE
8
BLACK
6
CONTINUOUS
10
6.27316
20
-3.34649
11
6.27317
21
-3.3465
0
LINE
8
BLACK
6
CONTINUOUS
10
6.27317
20
-3.3465
11
6.27318
21
-3.34651
0
LINE
8
BLACK
6
CONTINUOUS
10
6.27318
20
-3.34651
11
6.27348
21
-3.34688
0
LINE
8
BLACK
6
CONTINUOUS
10
6.27348
20
-3.34688
11
6.27377
21
-3.34725
0
LINE
8
BLACK
6
CONTINUOUS
10
6.27377
20
-3.34725
11
6.27378
21
-3.34726
0
LINE
8
BLACK
6
CONTINUOUS
10
6.27378
20
-3.34726
11
6.27379
21
-3.34727
0
LINE
8
BLACK
6
CONTINUOUS
10
6.27379
20
-3.34727
11
6.27401
21
-3.34769
0
LINE
8
BLACK
6
CONTINUOUS
10
6.27401
20
-3.34769
11
6.27423
21
-3.34811
0
LINE
8
BLACK
6
CONTINUOUS
10
6.27423
20
-3.34811
11
6.27423
21
-3.34813
0
LINE
8
BLACK
6
CONTINUOUS
10
6.27423
20
-3.34813
11
6.27424
21
-3.34814
0
LINE
8
BLACK
6
CONTINUOUS
10
6.27424
20
-3.34814
11
6.27437
21
-3.3486
0
LINE
8
BLACK
6
CONTINUOUS
10
6.27437
20
-3.3486
11
6.27451
21
-3.34905
0
LINE
8
BLACK
6
CONTINUOUS
10
6.27451
20
-3.34905
11
6.27451
21
-3.34906
0
LINE
8
BLACK
6
CONTINUOUS
10
6.27451
20
-3.34906
11
6.27451
21
-3.34908
0
LINE
8
BLACK
6
CONTINUOUS
10
6.27451
20
-3.34908
11
6.27455
21
-3.34955
0
LINE
8
BLACK
6
CONTINUOUS
10
6.27455
20
-3.34955
11
6.2746
21
-3.35002
0
LINE
8
BLACK
6
CONTINUOUS
10
6.2746
20
-3.35002
11
6.2746
21
-3.35003
0
LINE
8
BLACK
6
CONTINUOUS
10
6.2746
20
-3.35003
11
6.2746
21
-3.35005
0
LINE
8
BLACK
6
CONTINUOUS
10
6.2746
20
-3.35005
11
6.27455
21
-3.35052
0
LINE
8
BLACK
6
CONTINUOUS
10
6.27455
20
-3.35052
11
6.2745
21
-3.35099
0
LINE
8
BLACK
6
CONTINUOUS
10
6.2745
20
-3.35099
11
6.27449
21
-3.35101
0
LINE
8
BLACK
6
CONTINUOUS
10
6.27449
20
-3.35101
11
6.27449
21
-3.35102
0
LINE
8
BLACK
6
CONTINUOUS
10
6.27449
20
-3.35102
11
6.27435
21
-3.35147
0
LINE
8
BLACK
6
CONTINUOUS
10
6.27435
20
-3.35147
11
6.27421
21
-3.35193
0
LINE
8
BLACK
6
CONTINUOUS
10
6.27421
20
-3.35193
11
6.2742
21
-3.35194
0
LINE
8
BLACK
6
CONTINUOUS
10
6.2742
20
-3.35194
11
6.2742
21
-3.35195
0
LINE
8
BLACK
6
CONTINUOUS
10
6.2742
20
-3.35195
11
6.27398
21
-3.35236
0
LINE
8
BLACK
6
CONTINUOUS
10
6.27398
20
-3.35236
11
6.27375
21
-3.35279
0
LINE
8
BLACK
6
CONTINUOUS
10
6.27375
20
-3.35279
11
6.27374
21
-3.3528
0
LINE
8
BLACK
6
CONTINUOUS
10
6.27374
20
-3.3528
11
6.27373
21
-3.35281
0
LINE
8
BLACK
6
CONTINUOUS
10
6.27373
20
-3.35281
11
6.27343
21
-3.35317
0
LINE
8
BLACK
6
CONTINUOUS
10
6.27343
20
-3.35317
11
6.27313
21
-3.35354
0
LINE
8
BLACK
6
CONTINUOUS
10
6.27313
20
-3.35354
11
6.27312
21
-3.35355
0
LINE
8
BLACK
6
CONTINUOUS
10
6.27312
20
-3.35355
11
6.27311
21
-3.35356
0
LINE
8
BLACK
6
CONTINUOUS
10
6.27311
20
-3.35356
11
6.27274
21
-3.35385
0
LINE
8
BLACK
6
CONTINUOUS
10
6.27274
20
-3.35385
11
6.27237
21
-3.35416
0
LINE
8
BLACK
6
CONTINUOUS
10
6.27237
20
-3.35416
11
6.26592
21
-3.35847
0
LINE
8
BLACK
6
CONTINUOUS
10
6.26592
20
-3.35847
11
6.25847
21
-3.36592
0
LINE
8
BLACK
6
CONTINUOUS
10
6.25847
20
-3.36592
11
6.25262
21
-3.37468
0
LINE
8
BLACK
6
CONTINUOUS
10
6.25262
20
-3.37468
11
6.24859
21
-3.38441
0
LINE
8
BLACK
6
CONTINUOUS
10
6.24859
20
-3.38441
11
6.24654
21
-3.39473
0
LINE
8
BLACK
6
CONTINUOUS
10
6.24654
20
-3.39473
11
6.24654
21
-3.40527
0
LINE
8
BLACK
6
CONTINUOUS
10
6.24654
20
-3.40527
11
6.24859
21
-3.41559
0
LINE
8
BLACK
6
CONTINUOUS
10
6.24859
20
-3.41559
11
6.25262
21
-3.42532
0
LINE
8
BLACK
6
CONTINUOUS
10
6.25262
20
-3.42532
11
6.25847
21
-3.43408
0
LINE
8
BLACK
6
CONTINUOUS
10
6.25847
20
-3.43408
11
6.26592
21
-3.44153
0
LINE
8
BLACK
6
CONTINUOUS
10
6.26592
20
-3.44153
11
6.27123
21
-3.44508
0
LINE
8
BLACK
6
CONTINUOUS
10
6.27123
20
-3.44508
11
6.32877
21
-3.44508
0
LINE
8
BLACK
6
CONTINUOUS
10
6.32877
20
-3.44508
11
6.33408
21
-3.44153
0
LINE
8
BLACK
6
CONTINUOUS
10
6.33408
20
-3.44153
11
6.34153
21
-3.43408
0
LINE
8
BLACK
6
CONTINUOUS
10
6.34153
20
-3.43408
11
6.34589
21
-3.42756
0
LINE
8
BLACK
6
CONTINUOUS
10
6.34589
20
-3.42756
11
6.34593
21
-3.4275
0
LINE
8
BLACK
6
CONTINUOUS
10
6.34593
20
-3.4275
11
6.34615
21
-3.42724
0
LINE
8
BLACK
6
CONTINUOUS
10
6.34615
20
-3.42724
11
6.34636
21
-3.42696
0
LINE
8
BLACK
6
CONTINUOUS
10
6.34636
20
-3.42696
11
6.34646
21
-3.42687
0
LINE
8
BLACK
6
CONTINUOUS
10
6.34646
20
-3.42687
11
6.34655
21
-3.42676
0
LINE
8
BLACK
6
CONTINUOUS
10
6.34655
20
-3.42676
11
6.34683
21
-3.42654
0
LINE
8
BLACK
6
CONTINUOUS
10
6.34683
20
-3.42654
11
6.34708
21
-3.42631
0
LINE
8
BLACK
6
CONTINUOUS
10
6.34708
20
-3.42631
11
6.3472
21
-3.42624
0
LINE
8
BLACK
6
CONTINUOUS
10
6.3472
20
-3.42624
11
6.34732
21
-3.42615
0
LINE
8
BLACK
6
CONTINUOUS
10
6.34732
20
-3.42615
11
6.34762
21
-3.42599
0
LINE
8
BLACK
6
CONTINUOUS
10
6.34762
20
-3.42599
11
6.34792
21
-3.42581
0
LINE
8
BLACK
6
CONTINUOUS
10
6.34792
20
-3.42581
11
6.34806
21
-3.42576
0
LINE
8
BLACK
6
CONTINUOUS
10
6.34806
20
-3.42576
11
6.34818
21
-3.4257
0
LINE
8
BLACK
6
CONTINUOUS
10
6.34818
20
-3.4257
11
6.34851
21
-3.4256
0
LINE
8
BLACK
6
CONTINUOUS
10
6.34851
20
-3.4256
11
6.34884
21
-3.42549
0
LINE
8
BLACK
6
CONTINUOUS
10
6.34884
20
-3.42549
11
6.34898
21
-3.42546
0
LINE
8
BLACK
6
CONTINUOUS
10
6.34898
20
-3.42546
11
6.34912
21
-3.42542
0
LINE
8
BLACK
6
CONTINUOUS
10
6.34912
20
-3.42542
11
6.34946
21
-3.42539
0
LINE
8
BLACK
6
CONTINUOUS
10
6.34946
20
-3.42539
11
6.34981
21
-3.42534
0
LINE
8
BLACK
6
CONTINUOUS
10
6.34981
20
-3.42534
11
6.34995
21
-3.42535
0
LINE
8
BLACK
6
CONTINUOUS
10
6.34995
20
-3.42535
11
6.35009
21
-3.42534
0
LINE
8
BLACK
6
CONTINUOUS
10
6.35009
20
-3.42534
11
6.35044
21
-3.42538
0
LINE
8
BLACK
6
CONTINUOUS
10
6.35044
20
-3.42538
11
6.35078
21
-3.42539
0
LINE
8
BLACK
6
CONTINUOUS
10
6.35078
20
-3.42539
11
6.35092
21
-3.42543
0
LINE
8
BLACK
6
CONTINUOUS
10
6.35092
20
-3.42543
11
6.35106
21
-3.42544
0
LINE
8
BLACK
6
CONTINUOUS
10
6.35106
20
-3.42544
11
6.35139
21
-3.42555
0
LINE
8
BLACK
6
CONTINUOUS
10
6.35139
20
-3.42555
11
6.35173
21
-3.42563
0
LINE
8
BLACK
6
CONTINUOUS
10
6.35173
20
-3.42563
11
6.35186
21
-3.42569
0
LINE
8
BLACK
6
CONTINUOUS
10
6.35186
20
-3.42569
11
6.35199
21
-3.42573
0
LINE
8
BLACK
6
CONTINUOUS
10
6.35199
20
-3.42573
11
6.3523
21
-3.4259
0
LINE
8
BLACK
6
CONTINUOUS
10
6.3523
20
-3.4259
11
6.35261
21
-3.42605
0
LINE
8
BLACK
6
CONTINUOUS
10
6.35261
20
-3.42605
11
6.35272
21
-3.42613
0
LINE
8
BLACK
6
CONTINUOUS
10
6.35272
20
-3.42613
11
6.35285
21
-3.4262
0
LINE
8
BLACK
6
CONTINUOUS
10
6.35285
20
-3.4262
11
6.35312
21
-3.42642
0
LINE
8
BLACK
6
CONTINUOUS
10
6.35312
20
-3.42642
11
6.35339
21
-3.42663
0
LINE
8
BLACK
6
CONTINUOUS
10
6.35339
20
-3.42663
11
6.35349
21
-3.42673
0
LINE
8
BLACK
6
CONTINUOUS
10
6.35349
20
-3.42673
11
6.3536
21
-3.42682
0
LINE
8
BLACK
6
CONTINUOUS
10
6.3536
20
-3.42682
11
6.35382
21
-3.42709
0
LINE
8
BLACK
6
CONTINUOUS
10
6.35382
20
-3.42709
11
6.35405
21
-3.42735
0
LINE
8
BLACK
6
CONTINUOUS
10
6.35405
20
-3.42735
11
6.3605
21
-3.436
0
LINE
8
BLACK
6
CONTINUOUS
10
6.3605
20
-3.436
11
6.36828
21
-3.44301
0
LINE
8
BLACK
6
CONTINUOUS
10
6.36828
20
-3.44301
11
6.37281
21
-3.4457
0
LINE
8
BLACK
6
CONTINUOUS
10
6.37281
20
-3.4457
11
6.37286
21
-3.44574
0
LINE
8
BLACK
6
CONTINUOUS
10
6.37286
20
-3.44574
11
6.37306
21
-3.44589
0
LINE
8
BLACK
6
CONTINUOUS
10
6.37306
20
-3.44589
11
6.37327
21
-3.44602
0
LINE
8
BLACK
6
CONTINUOUS
10
6.37327
20
-3.44602
11
6.37345
21
-3.44618
0
LINE
8
BLACK
6
CONTINUOUS
10
6.37345
20
-3.44618
11
6.37364
21
-3.44633
0
LINE
8
BLACK
6
CONTINUOUS
10
6.37364
20
-3.44633
11
6.37381
21
-3.44651
0
LINE
8
BLACK
6
CONTINUOUS
10
6.37381
20
-3.44651
11
6.37399
21
-3.44668
0
LINE
8
BLACK
6
CONTINUOUS
10
6.37399
20
-3.44668
11
6.37413
21
-3.44688
0
LINE
8
BLACK
6
CONTINUOUS
10
6.37413
20
-3.44688
11
6.37429
21
-3.44706
0
LINE
8
BLACK
6
CONTINUOUS
10
6.37429
20
-3.44706
11
6.37442
21
-3.44727
0
LINE
8
BLACK
6
CONTINUOUS
10
6.37442
20
-3.44727
11
6.37456
21
-3.44747
0
LINE
8
BLACK
6
CONTINUOUS
10
6.37456
20
-3.44747
11
6.37466
21
-3.44769
0
LINE
8
BLACK
6
CONTINUOUS
10
6.37466
20
-3.44769
11
6.37478
21
-3.4479
0
LINE
8
BLACK
6
CONTINUOUS
10
6.37478
20
-3.4479
11
6.37487
21
-3.44813
0
LINE
8
BLACK
6
CONTINUOUS
10
6.37487
20
-3.44813
11
6.37497
21
-3.44836
0
LINE
8
BLACK
6
CONTINUOUS
10
6.37497
20
-3.44836
11
6.37503
21
-3.44859
0
LINE
8
BLACK
6
CONTINUOUS
10
6.37503
20
-3.44859
11
6.37511
21
-3.44882
0
LINE
8
BLACK
6
CONTINUOUS
10
6.37511
20
-3.44882
11
6.37514
21
-3.44907
0
LINE
8
BLACK
6
CONTINUOUS
10
6.37514
20
-3.44907
11
6.3752
21
-3.44931
0
LINE
8
BLACK
6
CONTINUOUS
10
6.3752
20
-3.44931
11
6.37521
21
-3.44955
0
LINE
8
BLACK
6
CONTINUOUS
10
6.37521
20
-3.44955
11
6.37524
21
-3.44979
0
LINE
8
BLACK
6
CONTINUOUS
10
6.37524
20
-3.44979
11
6.37523
21
-3.45003
0
LINE
8
BLACK
6
CONTINUOUS
10
6.37523
20
-3.45003
11
6.37524
21
-3.45028
0
LINE
8
BLACK
6
CONTINUOUS
10
6.37524
20
-3.45028
11
6.3752
21
-3.45052
0
LINE
8
BLACK
6
CONTINUOUS
10
6.3752
20
-3.45052
11
6.37519
21
-3.45076
0
LINE
8
BLACK
6
CONTINUOUS
10
6.37519
20
-3.45076
11
6.37513
21
-3.451
0
LINE
8
BLACK
6
CONTINUOUS
10
6.37513
20
-3.451
11
6.37509
21
-3.45125
0
LINE
8
BLACK
6
CONTINUOUS
10
6.37509
20
-3.45125
11
6.37501
21
-3.45147
0
LINE
8
BLACK
6
CONTINUOUS
10
6.37501
20
-3.45147
11
6.37495
21
-3.45171
0
LINE
8
BLACK
6
CONTINUOUS
10
6.37495
20
-3.45171
11
6.37484
21
-3.45193
0
LINE
8
BLACK
6
CONTINUOUS
10
6.37484
20
-3.45193
11
6.37475
21
-3.45216
0
LINE
8
BLACK
6
CONTINUOUS
10
6.37475
20
-3.45216
11
6.37463
21
-3.45237
0
LINE
8
BLACK
6
CONTINUOUS
10
6.37463
20
-3.45237
11
6.37452
21
-3.45259
0
LINE
8
BLACK
6
CONTINUOUS
10
6.37452
20
-3.45259
11
6.37438
21
-3.45279
0
LINE
8
BLACK
6
CONTINUOUS
10
6.37438
20
-3.45279
11
6.37425
21
-3.453
0
LINE
8
BLACK
6
CONTINUOUS
10
6.37425
20
-3.453
11
6.37409
21
-3.45318
0
LINE
8
BLACK
6
CONTINUOUS
10
6.37409
20
-3.45318
11
6.37394
21
-3.45337
0
LINE
8
BLACK
6
CONTINUOUS
10
6.37394
20
-3.45337
11
6.37376
21
-3.45354
0
LINE
8
BLACK
6
CONTINUOUS
10
6.37376
20
-3.45354
11
6.37359
21
-3.45372
0
LINE
8
BLACK
6
CONTINUOUS
10
6.37359
20
-3.45372
11
6.3734
21
-3.45386
0
LINE
8
BLACK
6
CONTINUOUS
10
6.3734
20
-3.45386
11
6.37321
21
-3.45402
0
LINE
8
BLACK
6
CONTINUOUS
10
6.37321
20
-3.45402
11
6.373
21
-3.45415
0
LINE
8
BLACK
6
CONTINUOUS
10
6.373
20
-3.45415
11
6.37281
21
-3.4543
0
LINE
8
BLACK
6
CONTINUOUS
10
6.37281
20
-3.4543
11
6.36828
21
-3.45699
0
LINE
8
BLACK
6
CONTINUOUS
10
6.36828
20
-3.45699
11
6.366
21
-3.45904
0
LINE
8
BLACK
6
CONTINUOUS
10
6.366
20
-3.45904
11
6.38005
21
-3.47309
0
LINE
8
BLACK
6
CONTINUOUS
10
6.38005
20
-3.47309
11
6.38415
21
-3.47034
0
LINE
8
BLACK
6
CONTINUOUS
10
6.38415
20
-3.47034
11
6.39
21
-3.46792
0
LINE
8
BLACK
6
CONTINUOUS
10
6.39
20
-3.46792
11
6.39
21
-3.43208
0
LINE
8
BLACK
6
CONTINUOUS
10
6.39
20
-3.43208
11
6.38415
21
-3.42966
0
LINE
8
BLACK
6
CONTINUOUS
10
6.38415
20
-3.42966
11
6.37867
21
-3.42599
0
LINE
8
BLACK
6
CONTINUOUS
10
6.37867
20
-3.42599
11
6.37401
21
-3.42133
0
LINE
8
BLACK
6
CONTINUOUS
10
6.37401
20
-3.42133
11
6.37034
21
-3.41585
0
LINE
8
BLACK
6
CONTINUOUS
10
6.37034
20
-3.41585
11
6.36782
21
-3.40976
0
LINE
8
BLACK
6
CONTINUOUS
10
6.36782
20
-3.40976
11
6.36654
21
-3.4033
0
LINE
8
BLACK
6
CONTINUOUS
10
6.36654
20
-3.4033
11
6.36654
21
-3.3967
0
LINE
8
BLACK
6
CONTINUOUS
10
6.36654
20
-3.3967
11
6.36782
21
-3.39024
0
LINE
8
BLACK
6
CONTINUOUS
10
6.36782
20
-3.39024
11
6.37034
21
-3.38415
0
LINE
8
BLACK
6
CONTINUOUS
10
6.37034
20
-3.38415
11
6.37401
21
-3.37867
0
LINE
8
BLACK
6
CONTINUOUS
10
6.37401
20
-3.37867
11
6.37867
21
-3.37401
0
LINE
8
BLACK
6
CONTINUOUS
10
6.37867
20
-3.37401
11
6.38415
21
-3.37034
0
LINE
8
BLACK
6
CONTINUOUS
10
6.38415
20
-3.37034
11
6.39024
21
-3.36782
0
LINE
8
BLACK
6
CONTINUOUS
10
6.39024
20
-3.36782
11
6.3967
21
-3.36654
0
LINE
8
BLACK
6
CONTINUOUS
10
6.3967
20
-3.36654
11
6.4033
21
-3.36654
0
LINE
8
BLACK
6
CONTINUOUS
10
6.4033
20
-3.36654
11
6.40976
21
-3.36782
0
LINE
8
BLACK
6
CONTINUOUS
10
6.40976
20
-3.36782
11
6.41585
21
-3.37034
0
LINE
8
BLACK
6
CONTINUOUS
10
6.41585
20
-3.37034
11
6.42133
21
-3.37401
0
LINE
8
BLACK
6
CONTINUOUS
10
6.42133
20
-3.37401
11
6.42599
21
-3.37867
0
LINE
8
BLACK
6
CONTINUOUS
10
6.42599
20
-3.37867
11
6.42966
21
-3.38415
0
LINE
8
BLACK
6
CONTINUOUS
10
6.42966
20
-3.38415
11
6.43218
21
-3.39024
0
LINE
8
BLACK
6
CONTINUOUS
10
6.43218
20
-3.39024
11
6.43346
21
-3.3967
0
LINE
8
BLACK
6
CONTINUOUS
10
6.43346
20
-3.3967
11
6.43346
21
-3.4033
0
LINE
8
BLACK
6
CONTINUOUS
10
6.43346
20
-3.4033
11
6.43218
21
-3.40976
0
LINE
8
BLACK
6
CONTINUOUS
10
6.43218
20
-3.40976
11
6.42966
21
-3.41585
0
LINE
8
BLACK
6
CONTINUOUS
10
6.42966
20
-3.41585
11
6.42599
21
-3.42133
0
LINE
8
BLACK
6
CONTINUOUS
10
6.42599
20
-3.42133
11
6.42133
21
-3.42599
0
LINE
8
BLACK
6
CONTINUOUS
10
6.42133
20
-3.42599
11
6.41585
21
-3.42966
0
LINE
8
BLACK
6
CONTINUOUS
10
6.41585
20
-3.42966
11
6.41
21
-3.43208
0
LINE
8
BLACK
6
CONTINUOUS
10
6.41
20
-3.43208
11
6.41
21
-3.46792
0
LINE
8
BLACK
6
CONTINUOUS
10
6.41
20
-3.46792
11
6.41585
21
-3.47034
0
LINE
8
BLACK
6
CONTINUOUS
10
6.41585
20
-3.47034
11
6.42133
21
-3.47401
0
LINE
8
BLACK
6
CONTINUOUS
10
6.42133
20
-3.47401
11
6.42599
21
-3.47867
0
LINE
8
BLACK
6
CONTINUOUS
10
6.42599
20
-3.47867
11
6.42966
21
-3.48415
0
LINE
8
BLACK
6
CONTINUOUS
10
6.42966
20
-3.48415
11
6.43218
21
-3.49024
0
LINE
8
BLACK
6
CONTINUOUS
10
6.43218
20
-3.49024
11
6.43346
21
-3.4967
0
LINE
8
BLACK
6
CONTINUOUS
10
6.43346
20
-3.4967
11
6.43346
21
-3.5033
0
LINE
8
BLACK
6
CONTINUOUS
10
6.43346
20
-3.5033
11
6.43218
21
-3.50976
0
LINE
8
BLACK
6
CONTINUOUS
10
6.43218
20
-3.50976
11
6.42966
21
-3.51585
0
LINE
8
BLACK
6
CONTINUOUS
10
6.42966
20
-3.51585
11
6.42599
21
-3.52133
0
LINE
8
BLACK
6
CONTINUOUS
10
6.42599
20
-3.52133
11
6.42133
21
-3.52599
0
LINE
8
BLACK
6
CONTINUOUS
10
6.42133
20
-3.52599
11
6.41585
21
-3.52966
0
LINE
8
BLACK
6
CONTINUOUS
10
6.41585
20
-3.52966
11
6.40976
21
-3.53218
0
LINE
8
BLACK
6
CONTINUOUS
10
6.40976
20
-3.53218
11
6.4033
21
-3.53346
0
LINE
8
BLACK
6
CONTINUOUS
10
6.4033
20
-3.53346
11
6.3967
21
-3.53346
0
LINE
8
BLACK
6
CONTINUOUS
10
6.3967
20
-3.53346
11
6.39024
21
-3.53218
0
LINE
8
BLACK
6
CONTINUOUS
10
6.39024
20
-3.53218
11
6.38415
21
-3.52966
0
LINE
8
BLACK
6
CONTINUOUS
10
6.38415
20
-3.52966
11
6.37867
21
-3.52599
0
LINE
8
BLACK
6
CONTINUOUS
10
6.37867
20
-3.52599
11
6.37401
21
-3.52133
0
LINE
8
BLACK
6
CONTINUOUS
10
6.37401
20
-3.52133
11
6.37034
21
-3.51585
0
LINE
8
BLACK
6
CONTINUOUS
10
6.37034
20
-3.51585
11
6.36782
21
-3.50976
0
LINE
8
BLACK
6
CONTINUOUS
10
6.36782
20
-3.50976
11
6.36654
21
-3.5033
0
LINE
8
BLACK
6
CONTINUOUS
10
6.36654
20
-3.5033
11
6.36654
21
-3.4967
0
LINE
8
BLACK
6
CONTINUOUS
10
6.36654
20
-3.4967
11
6.36782
21
-3.49024
0
LINE
8
BLACK
6
CONTINUOUS
10
6.36782
20
-3.49024
11
6.37034
21
-3.48415
0
LINE
8
BLACK
6
CONTINUOUS
10
6.37034
20
-3.48415
11
6.37309
21
-3.48005
0
LINE
8
BLACK
6
CONTINUOUS
10
6.37309
20
-3.48005
11
6.35902
21
-3.46598
0
LINE
8
BLACK
6
CONTINUOUS
10
6.35902
20
-3.46598
11
6.35405
21
-3.47265
0
LINE
8
BLACK
6
CONTINUOUS
10
6.35405
20
-3.47265
11
6.35401
21
-3.47271
0
LINE
8
BLACK
6
CONTINUOUS
10
6.35401
20
-3.47271
11
6.35377
21
-3.47296
0
LINE
8
BLACK
6
CONTINUOUS
10
6.35377
20
-3.47296
11
6.35355
21
-3.47322
0
LINE
8
BLACK
6
CONTINUOUS
10
6.35355
20
-3.47322
11
6.35344
21
-3.47331
0
LINE
8
BLACK
6
CONTINUOUS
10
6.35344
20
-3.47331
11
6.35334
21
-3.47342
0
LINE
8
BLACK
6
CONTINUOUS
10
6.35334
20
-3.47342
11
6.35306
21
-3.47362
0
LINE
8
BLACK
6
CONTINUOUS
10
6.35306
20
-3.47362
11
6.35279
21
-3.47384
0
LINE
8
BLACK
6
CONTINUOUS
10
6.35279
20
-3.47384
11
6.35267
21
-3.4739
0
LINE
8
BLACK
6
CONTINUOUS
10
6.35267
20
-3.4739
11
6.35255
21
-3.47399
0
LINE
8
BLACK
6
CONTINUOUS
10
6.35255
20
-3.47399
11
6.35223
21
-3.47413
0
LINE
8
BLACK
6
CONTINUOUS
10
6.35223
20
-3.47413
11
6.35193
21
-3.47429
0
LINE
8
BLACK
6
CONTINUOUS
10
6.35193
20
-3.47429
11
6.35179
21
-3.47433
0
LINE
8
BLACK
6
CONTINUOUS
10
6.35179
20
-3.47433
11
6.35166
21
-3.47439
0
LINE
8
BLACK
6
CONTINUOUS
10
6.35166
20
-3.47439
11
6.35133
21
-3.47447
0
LINE
8
BLACK
6
CONTINUOUS
10
6.35133
20
-3.47447
11
6.35099
21
-3.47457
0
LINE
8
BLACK
6
CONTINUOUS
10
6.35099
20
-3.47457
11
6.35085
21
-3.47458
0
LINE
8
BLACK
6
CONTINUOUS
10
6.35085
20
-3.47458
11
6.35071
21
-3.47462
0
LINE
8
BLACK
6
CONTINUOUS
10
6.35071
20
-3.47462
11
6.35037
21
-3.47463
0
LINE
8
BLACK
6
CONTINUOUS
10
6.35037
20
-3.47463
11
6.35002
21
-3.47466
0
LINE
8
BLACK
6
CONTINUOUS
10
6.35002
20
-3.47466
11
6.34988
21
-3.47465
0
LINE
8
BLACK
6
CONTINUOUS
10
6.34988
20
-3.47465
11
6.34974
21
-3.47465
0
LINE
8
BLACK
6
CONTINUOUS
10
6.34974
20
-3.47465
11
6.34939
21
-3.4746
0
LINE
8
BLACK
6
CONTINUOUS
10
6.34939
20
-3.4746
11
6.34905
21
-3.47456
0
LINE
8
BLACK
6
CONTINUOUS
10
6.34905
20
-3.47456
11
6.34891
21
-3.47452
0
LINE
8
BLACK
6
CONTINUOUS
10
6.34891
20
-3.47452
11
6.34877
21
-3.4745
0
LINE
8
BLACK
6
CONTINUOUS
10
6.34877
20
-3.4745
11
6.34845
21
-3.47438
0
LINE
8
BLACK
6
CONTINUOUS
10
6.34845
20
-3.47438
11
6.34812
21
-3.47428
0
LINE
8
BLACK
6
CONTINUOUS
10
6.34812
20
-3.47428
11
6.34799
21
-3.47421
0
LINE
8
BLACK
6
CONTINUOUS
10
6.34799
20
-3.47421
11
6.34786
21
-3.47416
0
LINE
8
BLACK
6
CONTINUOUS
10
6.34786
20
-3.47416
11
6.34756
21
-3.47398
0
LINE
8
BLACK
6
CONTINUOUS
10
6.34756
20
-3.47398
11
6.34726
21
-3.47381
0
LINE
8
BLACK
6
CONTINUOUS
10
6.34726
20
-3.47381
11
6.34715
21
-3.47372
0
LINE
8
BLACK
6
CONTINUOUS
10
6.34715
20
-3.47372
11
6.34703
21
-3.47365
0
LINE
8
BLACK
6
CONTINUOUS
10
6.34703
20
-3.47365
11
6.34677
21
-3.47341
0
LINE
8
BLACK
6
CONTINUOUS
10
6.34677
20
-3.47341
11
6.3465
21
-3.47319
0
LINE
8
BLACK
6
CONTINUOUS
10
6.3465
20
-3.47319
11
6.34641
21
-3.47308
0
LINE
8
BLACK
6
CONTINUOUS
10
6.34641
20
-3.47308
11
6.34631
21
-3.47299
0
LINE
8
BLACK
6
CONTINUOUS
10
6.34631
20
-3.47299
11
6.34611
21
-3.47271
0
LINE
8
BLACK
6
CONTINUOUS
10
6.34611
20
-3.47271
11
6.34589
21
-3.47244
0
LINE
8
BLACK
6
CONTINUOUS
10
6.34589
20
-3.47244
11
6.34153
21
-3.46592
0
LINE
8
BLACK
6
CONTINUOUS
10
6.34153
20
-3.46592
11
6.33408
21
-3.45847
0
LINE
8
BLACK
6
CONTINUOUS
10
6.33408
20
-3.45847
11
6.32877
21
-3.45492
0
LINE
8
BLACK
6
CONTINUOUS
10
6.32877
20
-3.45492
11
6.27123
21
-3.45492
0
LINE
8
BLACK
6
CONTINUOUS
10
6.27123
20
-3.45492
11
6.26592
21
-3.45847
0
LINE
8
BLACK
6
CONTINUOUS
10
6.26592
20
-3.45847
11
6.25847
21
-3.46592
0
LINE
8
BLACK
6
CONTINUOUS
10
6.25847
20
-3.46592
11
6.25262
21
-3.47468
0
LINE
8
BLACK
6
CONTINUOUS
10
6.25262
20
-3.47468
11
6.24859
21
-3.4844
0
LINE
8
BLACK
6
CONTINUOUS
10
6.24859
20
-3.4844
11
6.24654
21
-3.49473
0
LINE
8
BLACK
6
CONTINUOUS
10
6.24654
20
-3.49473
11
6.24654
21
-3.50527
0
LINE
8
BLACK
6
CONTINUOUS
10
6.24654
20
-3.50527
11
6.24859
21
-3.51559
0
LINE
8
BLACK
6
CONTINUOUS
10
6.24859
20
-3.51559
11
6.25262
21
-3.52532
0
LINE
8
BLACK
6
CONTINUOUS
10
6.25262
20
-3.52532
11
6.25847
21
-3.53408
0
LINE
8
BLACK
6
CONTINUOUS
10
6.25847
20
-3.53408
11
6.26592
21
-3.54153
0
LINE
8
BLACK
6
CONTINUOUS
10
6.26592
20
-3.54153
11
6.27237
21
-3.54584
0
LINE
8
BLACK
6
CONTINUOUS
10
6.27237
20
-3.54584
11
6.27241
21
-3.54587
0
LINE
8
BLACK
6
CONTINUOUS
10
6.27241
20
-3.54587
11
6.27241
21
-3.54587
0
LINE
8
BLACK
6
CONTINUOUS
10
6.27241
20
-3.54587
11
6.27241
21
-3.54587
0
LINE
8
BLACK
6
CONTINUOUS
10
6.27241
20
-3.54587
11
6.27243
21
-3.54588
0
LINE
8
BLACK
6
CONTINUOUS
10
6.27243
20
-3.54588
11
6.2728
21
-3.54619
0
LINE
8
BLACK
6
CONTINUOUS
10
6.2728
20
-3.54619
11
6.27316
21
-3.54649
0
LINE
8
BLACK
6
CONTINUOUS
10
6.27316
20
-3.54649
11
6.27317
21
-3.5465
0
LINE
8
BLACK
6
CONTINUOUS
10
6.27317
20
-3.5465
11
6.27318
21
-3.54651
0
LINE
8
BLACK
6
CONTINUOUS
10
6.27318
20
-3.54651
11
6.27348
21
-3.54688
0
LINE
8
BLACK
6
CONTINUOUS
10
6.27348
20
-3.54688
11
6.27377
21
-3.54725
0
LINE
8
BLACK
6
CONTINUOUS
10
6.27377
20
-3.54725
11
6.27378
21
-3.54726
0
LINE
8
BLACK
6
CONTINUOUS
10
6.27378
20
-3.54726
11
6.27379
21
-3.54727
0
LINE
8
BLACK
6
CONTINUOUS
10
6.27379
20
-3.54727
11
6.27401
21
-3.54769
0
LINE
8
BLACK
6
CONTINUOUS
10
6.27401
20
-3.54769
11
6.27423
21
-3.54811
0
LINE
8
BLACK
6
CONTINUOUS
10
6.27423
20
-3.54811
11
6.27423
21
-3.54813
0
LINE
8
BLACK
6
CONTINUOUS
10
6.27423
20
-3.54813
11
6.27424
21
-3.54814
0
LINE
8
BLACK
6
CONTINUOUS
10
6.27424
20
-3.54814
11
6.27437
21
-3.5486
0
LINE
8
BLACK
6
CONTINUOUS
10
6.27437
20
-3.5486
11
6.27451
21
-3.54905
0
LINE
8
BLACK
6
CONTINUOUS
10
6.27451
20
-3.54905
11
6.27451
21
-3.54906
0
LINE
8
BLACK
6
CONTINUOUS
10
6.27451
20
-3.54906
11
6.27451
21
-3.54908
0
LINE
8
BLACK
6
CONTINUOUS
10
6.27451
20
-3.54908
11
6.27455
21
-3.54955
0
LINE
8
BLACK
6
CONTINUOUS
10
6.27455
20
-3.54955
11
6.2746
21
-3.55002
0
LINE
8
BLACK
6
CONTINUOUS
10
6.2746
20
-3.55002
11
6.2746
21
-3.55003
0
LINE
8
BLACK
6
CONTINUOUS
10
6.2746
20
-3.55003
11
6.2746
21
-3.55005
0
LINE
8
BLACK
6
CONTINUOUS
10
6.2746
20
-3.55005
11
6.27455
21
-3.55052
0
LINE
8
BLACK
6
CONTINUOUS
10
6.27455
20
-3.55052
11
6.2745
21
-3.55099
0
LINE
8
BLACK
6
CONTINUOUS
10
6.2745
20
-3.55099
11
6.27449
21
-3.55101
0
LINE
8
BLACK
6
CONTINUOUS
10
6.27449
20
-3.55101
11
6.27449
21
-3.55102
0
LINE
8
BLACK
6
CONTINUOUS
10
6.27449
20
-3.55102
11
6.27435
21
-3.55147
0
LINE
8
BLACK
6
CONTINUOUS
10
6.27435
20
-3.55147
11
6.27421
21
-3.55193
0
LINE
8
BLACK
6
CONTINUOUS
10
6.27421
20
-3.55193
11
6.2742
21
-3.55194
0
LINE
8
BLACK
6
CONTINUOUS
10
6.2742
20
-3.55194
11
6.2742
21
-3.55195
0
LINE
8
BLACK
6
CONTINUOUS
10
6.2742
20
-3.55195
11
6.27398
21
-3.55236
0
LINE
8
BLACK
6
CONTINUOUS
10
6.27398
20
-3.55236
11
6.27375
21
-3.55279
0
LINE
8
BLACK
6
CONTINUOUS
10
6.27375
20
-3.55279
11
6.27374
21
-3.5528
0
LINE
8
BLACK
6
CONTINUOUS
10
6.27374
20
-3.5528
11
6.27373
21
-3.55281
0
LINE
8
BLACK
6
CONTINUOUS
10
6.27373
20
-3.55281
11
6.27343
21
-3.55317
0
LINE
8
BLACK
6
CONTINUOUS
10
6.27343
20
-3.55317
11
6.27313
21
-3.55354
0
LINE
8
BLACK
6
CONTINUOUS
10
6.27313
20
-3.55354
11
6.27312
21
-3.55355
0
LINE
8
BLACK
6
CONTINUOUS
10
6.27312
20
-3.55355
11
6.27311
21
-3.55356
0
LINE
8
BLACK
6
CONTINUOUS
10
6.27311
20
-3.55356
11
6.27274
21
-3.55385
0
LINE
8
BLACK
6
CONTINUOUS
10
6.27274
20
-3.55385
11
6.27237
21
-3.55416
0
LINE
8
BLACK
6
CONTINUOUS
10
6.27237
20
-3.55416
11
6.26592
21
-3.55847
0
LINE
8
BLACK
6
CONTINUOUS
10
6.26592
20
-3.55847
11
6.25847
21
-3.56592
0
LINE
8
BLACK
6
CONTINUOUS
10
6.25847
20
-3.56592
11
6.25262
21
-3.57468
0
LINE
8
BLACK
6
CONTINUOUS
10
6.25262
20
-3.57468
11
6.24859
21
-3.5844
0
LINE
8
BLACK
6
CONTINUOUS
10
6.24859
20
-3.5844
11
6.24654
21
-3.59473
0
LINE
8
BLACK
6
CONTINUOUS
10
6.24654
20
-3.59473
11
6.24654
21
-3.60527
0
LINE
8
BLACK
6
CONTINUOUS
10
6.24654
20
-3.60527
11
6.24859
21
-3.61559
0
LINE
8
BLACK
6
CONTINUOUS
10
6.24859
20
-3.61559
11
6.25262
21
-3.62532
0
LINE
8
BLACK
6
CONTINUOUS
10
6.25262
20
-3.62532
11
6.25847
21
-3.63408
0
LINE
8
BLACK
6
CONTINUOUS
10
6.25847
20
-3.63408
11
6.26592
21
-3.64153
0
LINE
8
BLACK
6
CONTINUOUS
10
6.26592
20
-3.64153
11
6.27237
21
-3.64584
0
LINE
8
BLACK
6
CONTINUOUS
10
6.27237
20
-3.64584
11
6.27241
21
-3.64587
0
LINE
8
BLACK
6
CONTINUOUS
10
6.27241
20
-3.64587
11
6.27241
21
-3.64587
0
LINE
8
BLACK
6
CONTINUOUS
10
6.27241
20
-3.64587
11
6.27241
21
-3.64587
0
LINE
8
BLACK
6
CONTINUOUS
10
6.27241
20
-3.64587
11
6.27243
21
-3.64588
0
LINE
8
BLACK
6
CONTINUOUS
10
6.27243
20
-3.64588
11
6.2728
21
-3.64619
0
LINE
8
BLACK
6
CONTINUOUS
10
6.2728
20
-3.64619
11
6.27316
21
-3.64649
0
LINE
8
BLACK
6
CONTINUOUS
10
6.27316
20
-3.64649
11
6.27317
21
-3.6465
0
LINE
8
BLACK
6
CONTINUOUS
10
6.27317
20
-3.6465
11
6.27318
21
-3.64651
0
LINE
8
BLACK
6
CONTINUOUS
10
6.27318
20
-3.64651
11
6.27348
21
-3.64688
0
LINE
8
BLACK
6
CONTINUOUS
10
6.27348
20
-3.64688
11
6.27377
21
-3.64725
0
LINE
8
BLACK
6
CONTINUOUS
10
6.27377
20
-3.64725
11
6.27378
21
-3.64726
0
LINE
8
BLACK
6
CONTINUOUS
10
6.27378
20
-3.64726
11
6.27379
21
-3.64727
0
LINE
8
BLACK
6
CONTINUOUS
10
6.27379
20
-3.64727
11
6.27401
21
-3.64769
0
LINE
8
BLACK
6
CONTINUOUS
10
6.27401
20
-3.64769
11
6.27423
21
-3.64811
0
LINE
8
BLACK
6
CONTINUOUS
10
6.27423
20
-3.64811
11
6.27423
21
-3.64813
0
LINE
8
BLACK
6
CONTINUOUS
10
6.27423
20
-3.64813
11
6.27424
21
-3.64814
0
LINE
8
BLACK
6
CONTINUOUS
10
6.27424
20
-3.64814
11
6.27437
21
-3.6486
0
LINE
8
BLACK
6
CONTINUOUS
10
6.27437
20
-3.6486
11
6.27451
21
-3.64905
0
LINE
8
BLACK
6
CONTINUOUS
10
6.27451
20
-3.64905
11
6.27451
21
-3.64906
0
LINE
8
BLACK
6
CONTINUOUS
10
6.27451
20
-3.64906
11
6.27451
21
-3.64908
0
LINE
8
BLACK
6
CONTINUOUS
10
6.27451
20
-3.64908
11
6.27455
21
-3.64955
0
LINE
8
BLACK
6
CONTINUOUS
10
6.27455
20
-3.64955
11
6.2746
21
-3.65002
0
LINE
8
BLACK
6
CONTINUOUS
10
6.2746
20
-3.65002
11
6.2746
21
-3.65003
0
LINE
8
BLACK
6
CONTINUOUS
10
6.2746
20
-3.65003
11
6.2746
21
-3.65005
0
LINE
8
BLACK
6
CONTINUOUS
10
6.2746
20
-3.65005
11
6.27455
21
-3.65052
0
LINE
8
BLACK
6
CONTINUOUS
10
6.27455
20
-3.65052
11
6.2745
21
-3.65099
0
LINE
8
BLACK
6
CONTINUOUS
10
6.2745
20
-3.65099
11
6.27449
21
-3.65101
0
LINE
8
BLACK
6
CONTINUOUS
10
6.27449
20
-3.65101
11
6.27449
21
-3.65102
0
LINE
8
BLACK
6
CONTINUOUS
10
6.27449
20
-3.65102
11
6.27435
21
-3.65147
0
LINE
8
BLACK
6
CONTINUOUS
10
6.27435
20
-3.65147
11
6.27421
21
-3.65193
0
LINE
8
BLACK
6
CONTINUOUS
10
6.27421
20
-3.65193
11
6.2742
21
-3.65194
0
LINE
8
BLACK
6
CONTINUOUS
10
6.2742
20
-3.65194
11
6.2742
21
-3.65195
0
LINE
8
BLACK
6
CONTINUOUS
10
6.2742
20
-3.65195
11
6.27398
21
-3.65236
0
LINE
8
BLACK
6
CONTINUOUS
10
6.27398
20
-3.65236
11
6.27375
21
-3.65279
0
LINE
8
BLACK
6
CONTINUOUS
10
6.27375
20
-3.65279
11
6.27374
21
-3.6528
0
LINE
8
BLACK
6
CONTINUOUS
10
6.27374
20
-3.6528
11
6.27373
21
-3.65281
0
LINE
8
BLACK
6
CONTINUOUS
10
6.27373
20
-3.65281
11
6.27343
21
-3.65317
0
LINE
8
BLACK
6
CONTINUOUS
10
6.27343
20
-3.65317
11
6.27313
21
-3.65354
0
LINE
8
BLACK
6
CONTINUOUS
10
6.27313
20
-3.65354
11
6.27312
21
-3.65355
0
LINE
8
BLACK
6
CONTINUOUS
10
6.27312
20
-3.65355
11
6.27311
21
-3.65356
0
LINE
8
BLACK
6
CONTINUOUS
10
6.27311
20
-3.65356
11
6.27274
21
-3.65385
0
LINE
8
BLACK
6
CONTINUOUS
10
6.27274
20
-3.65385
11
6.27237
21
-3.65416
0
LINE
8
BLACK
6
CONTINUOUS
10
6.27237
20
-3.65416
11
6.26592
21
-3.65847
0
LINE
8
BLACK
6
CONTINUOUS
10
6.26592
20
-3.65847
11
6.25847
21
-3.66592
0
LINE
8
BLACK
6
CONTINUOUS
10
6.25847
20
-3.66592
11
6.25262
21
-3.67468
0
LINE
8
BLACK
6
CONTINUOUS
10
6.25262
20
-3.67468
11
6.24859
21
-3.6844
0
LINE
8
BLACK
6
CONTINUOUS
10
6.24859
20
-3.6844
11
6.24654
21
-3.69473
0
LINE
8
BLACK
6
CONTINUOUS
10
6.24654
20
-3.69473
11
6.24654
21
-3.70527
0
LINE
8
BLACK
6
CONTINUOUS
10
6.24654
20
-3.70527
11
6.24859
21
-3.71559
0
LINE
8
BLACK
6
CONTINUOUS
10
6.24859
20
-3.71559
11
6.25262
21
-3.72532
0
LINE
8
BLACK
6
CONTINUOUS
10
6.25262
20
-3.72532
11
6.25847
21
-3.73408
0
LINE
8
BLACK
6
CONTINUOUS
10
6.25847
20
-3.73408
11
6.26592
21
-3.74153
0
LINE
8
BLACK
6
CONTINUOUS
10
6.26592
20
-3.74153
11
6.27468
21
-3.74738
0
LINE
8
BLACK
6
CONTINUOUS
10
6.27468
20
-3.74738
11
6.2844
21
-3.75141
0
LINE
8
BLACK
6
CONTINUOUS
10
6.2844
20
-3.75141
11
6.29473
21
-3.75346
0
LINE
8
BLACK
6
CONTINUOUS
10
6.29473
20
-3.75346
11
6.30527
21
-3.75346
0
LINE
8
BLACK
6
CONTINUOUS
10
6.30527
20
-3.75346
11
6.3156
21
-3.75141
0
LINE
8
BLACK
6
CONTINUOUS
10
6.3156
20
-3.75141
11
6.32532
21
-3.74738
0
LINE
8
BLACK
6
CONTINUOUS
10
6.32532
20
-3.74738
11
6.33408
21
-3.74153
0
LINE
8
BLACK
6
CONTINUOUS
10
6.33408
20
-3.74153
11
6.34153
21
-3.73408
0
LINE
8
BLACK
6
CONTINUOUS
10
6.34153
20
-3.73408
11
6.34584
21
-3.72763
0
LINE
8
BLACK
6
CONTINUOUS
10
6.34584
20
-3.72763
11
6.34587
21
-3.72759
0
LINE
8
BLACK
6
CONTINUOUS
10
6.34587
20
-3.72759
11
6.34587
21
-3.72759
0
LINE
8
BLACK
6
CONTINUOUS
10
6.34587
20
-3.72759
11
6.34587
21
-3.72759
0
LINE
8
BLACK
6
CONTINUOUS
10
6.34587
20
-3.72759
11
6.34588
21
-3.72757
0
LINE
8
BLACK
6
CONTINUOUS
10
6.34588
20
-3.72757
11
6.34619
21
-3.7272
0
LINE
8
BLACK
6
CONTINUOUS
10
6.34619
20
-3.7272
11
6.34649
21
-3.72684
0
LINE
8
BLACK
6
CONTINUOUS
10
6.34649
20
-3.72684
11
6.3465
21
-3.72683
0
LINE
8
BLACK
6
CONTINUOUS
10
6.3465
20
-3.72683
11
6.34651
21
-3.72682
0
LINE
8
BLACK
6
CONTINUOUS
10
6.34651
20
-3.72682
11
6.34688
21
-3.72652
0
LINE
8
BLACK
6
CONTINUOUS
10
6.34688
20
-3.72652
11
6.34725
21
-3.72623
0
LINE
8
BLACK
6
CONTINUOUS
10
6.34725
20
-3.72623
11
6.34726
21
-3.72622
0
LINE
8
BLACK
6
CONTINUOUS
10
6.34726
20
-3.72622
11
6.34727
21
-3.72621
0
LINE
8
BLACK
6
CONTINUOUS
10
6.34727
20
-3.72621
11
6.34769
21
-3.72599
0
LINE
8
BLACK
6
CONTINUOUS
10
6.34769
20
-3.72599
11
6.34811
21
-3.72577
0
LINE
8
BLACK
6
CONTINUOUS
10
6.34811
20
-3.72577
11
6.34813
21
-3.72577
0
LINE
8
BLACK
6
CONTINUOUS
10
6.34813
20
-3.72577
11
6.34814
21
-3.72576
0
LINE
8
BLACK
6
CONTINUOUS
10
6.34814
20
-3.72576
11
6.34859
21
-3.72563
0
LINE
8
BLACK
6
CONTINUOUS
10
6.34859
20
-3.72563
11
6.34905
21
-3.72549
0
LINE
8
BLACK
6
CONTINUOUS
10
6.34905
20
-3.72549
11
6.34906
21
-3.72549
0
LINE
8
BLACK
6
CONTINUOUS
10
6.34906
20
-3.72549
11
6.34908
21
-3.72549
0
LINE
8
BLACK
6
CONTINUOUS
10
6.34908
20
-3.72549
11
6.34955
21
-3.72545
0
LINE
8
BLACK
6
CONTINUOUS
10
6.34955
20
-3.72545
11
6.35002
21
-3.7254
0
LINE
8
BLACK
6
CONTINUOUS
10
6.35002
20
-3.7254
11
6.35003
21
-3.7254
0
LINE
8
BLACK
6
CONTINUOUS
10
6.35003
20
-3.7254
11
6.35005
21
-3.7254
0
LINE
8
BLACK
6
CONTINUOUS
10
6.35005
20
-3.7254
11
6.35051
21
-3.72545
0
LINE
8
BLACK
6
CONTINUOUS
10
6.35051
20
-3.72545
11
6.35099
21
-3.7255
0
LINE
8
BLACK
6
CONTINUOUS
10
6.35099
20
-3.7255
11
6.35101
21
-3.72551
0
LINE
8
BLACK
6
CONTINUOUS
10
6.35101
20
-3.72551
11
6.35102
21
-3.72551
0
LINE
8
BLACK
6
CONTINUOUS
10
6.35102
20
-3.72551
11
6.35146
21
-3.72565
0
LINE
8
BLACK
6
CONTINUOUS
10
6.35146
20
-3.72565
11
6.35193
21
-3.72579
0
LINE
8
BLACK
6
CONTINUOUS
10
6.35193
20
-3.72579
11
6.35194
21
-3.7258
0
LINE
8
BLACK
6
CONTINUOUS
10
6.35194
20
-3.7258
11
6.35195
21
-3.7258
0
LINE
8
BLACK
6
CONTINUOUS
10
6.35195
20
-3.7258
11
6.35236
21
-3.72602
0
LINE
8
BLACK
6
CONTINUOUS
10
6.35236
20
-3.72602
11
6.35279
21
-3.72625
0
LINE
8
BLACK
6
CONTINUOUS
10
6.35279
20
-3.72625
11
6.3528
21
-3.72626
0
LINE
8
BLACK
6
CONTINUOUS
10
6.3528
20
-3.72626
11
6.35281
21
-3.72627
0
LINE
8
BLACK
6
CONTINUOUS
10
6.35281
20
-3.72627
11
6.35317
21
-3.72657
0
LINE
8
BLACK
6
CONTINUOUS
10
6.35317
20
-3.72657
11
6.35354
21
-3.72687
0
LINE
8
BLACK
6
CONTINUOUS
10
6.35354
20
-3.72687
11
6.35355
21
-3.72688
0
LINE
8
BLACK
6
CONTINUOUS
10
6.35355
20
-3.72688
11
6.35356
21
-3.72689
0
LINE
8
BLACK
6
CONTINUOUS
10
6.35356
20
-3.72689
11
6.35385
21
-3.72726
0
LINE
8
BLACK
6
CONTINUOUS
10
6.35385
20
-3.72726
11
6.35416
21
-3.72763
0
LINE
8
BLACK
6
CONTINUOUS
10
6.35416
20
-3.72763
11
6.35847
21
-3.73408
0
LINE
8
BLACK
6
CONTINUOUS
10
6.35847
20
-3.73408
11
6.36592
21
-3.74153
0
LINE
8
BLACK
6
CONTINUOUS
10
6.36592
20
-3.74153
11
6.37467
21
-3.74738
0
LINE
8
BLACK
6
CONTINUOUS
10
6.37467
20
-3.74738
11
6.38441
21
-3.75141
0
LINE
8
BLACK
6
CONTINUOUS
10
6.38441
20
-3.75141
11
6.39473
21
-3.75346
0
LINE
8
BLACK
6
CONTINUOUS
10
6.39473
20
-3.75346
11
6.40527
21
-3.75346
0
LINE
8
BLACK
6
CONTINUOUS
10
6.40527
20
-3.75346
11
6.41559
21
-3.75141
0
LINE
8
BLACK
6
CONTINUOUS
10
6.41559
20
-3.75141
11
6.42532
21
-3.74738
0
LINE
8
BLACK
6
CONTINUOUS
10
6.42532
20
-3.74738
11
6.43408
21
-3.74153
0
LINE
8
BLACK
6
CONTINUOUS
10
6.43408
20
-3.74153
11
6.44146
21
-3.73415
0
LINE
8
BLACK
6
CONTINUOUS
10
6.44146
20
-3.73415
11
6.4415
21
-3.73411
0
LINE
8
BLACK
6
CONTINUOUS
10
6.4415
20
-3.73411
11
6.4415
21
-3.73411
0
LINE
8
BLACK
6
CONTINUOUS
10
6.4415
20
-3.73411
11
6.4415
21
-3.73411
0
LINE
8
BLACK
6
CONTINUOUS
10
6.4415
20
-3.73411
11
6.44151
21
-3.7341
0
LINE
8
BLACK
6
CONTINUOUS
10
6.44151
20
-3.7341
11
6.44189
21
-3.7338
0
LINE
8
BLACK
6
CONTINUOUS
10
6.44189
20
-3.7338
11
6.44226
21
-3.7335
0
LINE
8
BLACK
6
CONTINUOUS
10
6.44226
20
-3.7335
11
6.44227
21
-3.73349
0
LINE
8
BLACK
6
CONTINUOUS
10
6.44227
20
-3.73349
11
6.44228
21
-3.73349
0
LINE
8
BLACK
6
CONTINUOUS
10
6.44228
20
-3.73349
11
6.4427
21
-3.73327
0
LINE
8
BLACK
6
CONTINUOUS
10
6.4427
20
-3.73327
11
6.44313
21
-3.73305
0
LINE
8
BLACK
6
CONTINUOUS
10
6.44313
20
-3.73305
11
6.44314
21
-3.73304
0
LINE
8
BLACK
6
CONTINUOUS
10
6.44314
20
-3.73304
11
6.44314
21
-3.73304
0
LINE
8
BLACK
6
CONTINUOUS
10
6.44314
20
-3.73304
11
6.44361
21
-3.7329
0
LINE
8
BLACK
6
CONTINUOUS
10
6.44361
20
-3.7329
11
6.44406
21
-3.73277
0
LINE
8
BLACK
6
CONTINUOUS
10
6.44406
20
-3.73277
11
6.44407
21
-3.73277
0
LINE
8
BLACK
6
CONTINUOUS
10
6.44407
20
-3.73277
11
6.44408
21
-3.73277
0
LINE
8
BLACK
6
CONTINUOUS
10
6.44408
20
-3.73277
11
6.44456
21
-3.73273
0
LINE
8
BLACK
6
CONTINUOUS
10
6.44456
20
-3.73273
11
6.44503
21
-3.73268
0
LINE
8
BLACK
6
CONTINUOUS
10
6.44503
20
-3.73268
11
6.44504
21
-3.73268
0
LINE
8
BLACK
6
CONTINUOUS
10
6.44504
20
-3.73268
11
6.44505
21
-3.73268
0
LINE
8
BLACK
6
CONTINUOUS
10
6.44505
20
-3.73268
11
6.44553
21
-3.73273
0
LINE
8
BLACK
6
CONTINUOUS
10
6.44553
20
-3.73273
11
6.44601
21
-3.73278
0
LINE
8
BLACK
6
CONTINUOUS
10
6.44601
20
-3.73278
11
6.44601
21
-3.73279
0
LINE
8
BLACK
6
CONTINUOUS
10
6.44601
20
-3.73279
11
6.44602
21
-3.73279
0
LINE
8
BLACK
6
CONTINUOUS
10
6.44602
20
-3.73279
11
6.44647
21
-3.73293
0
LINE
8
BLACK
6
CONTINUOUS
10
6.44647
20
-3.73293
11
6.44694
21
-3.73307
0
LINE
8
BLACK
6
CONTINUOUS
10
6.44694
20
-3.73307
11
6.44695
21
-3.73308
0
LINE
8
BLACK
6
CONTINUOUS
10
6.44695
20
-3.73308
11
6.44695
21
-3.73308
0
LINE
8
BLACK
6
CONTINUOUS
10
6.44695
20
-3.73308
11
6.44736
21
-3.7333
0
LINE
8
BLACK
6
CONTINUOUS
10
6.44736
20
-3.7333
11
6.4478
21
-3.73354
0
LINE
8
BLACK
6
CONTINUOUS
10
6.4478
20
-3.73354
11
6.4478
21
-3.73354
0
LINE
8
BLACK
6
CONTINUOUS
10
6.4478
20
-3.73354
11
6.44781
21
-3.73355
0
LINE
8
BLACK
6
CONTINUOUS
10
6.44781
20
-3.73355
11
6.44817
21
-3.73385
0
LINE
8
BLACK
6
CONTINUOUS
10
6.44817
20
-3.73385
11
6.44855
21
-3.73416
0
LINE
8
BLACK
6
CONTINUOUS
10
6.44855
20
-3.73416
11
6.44855
21
-3.73417
0
LINE
8
BLACK
6
CONTINUOUS
10
6.44855
20
-3.73417
11
6.44856
21
-3.73417
0
LINE
8
BLACK
6
CONTINUOUS
10
6.44856
20
-3.73417
11
6.44886
21
-3.73454
0
LINE
8
BLACK
6
CONTINUOUS
10
6.44886
20
-3.73454
11
6.44916
21
-3.73491
0
LINE
8
BLACK
6
CONTINUOUS
10
6.44916
20
-3.73491
11
6.44917
21
-3.73492
0
LINE
8
BLACK
6
CONTINUOUS
10
6.44917
20
-3.73492
11
6.44917
21
-3.73493
0
LINE
8
BLACK
6
CONTINUOUS
10
6.44917
20
-3.73493
11
6.4494
21
-3.73535
0
LINE
8
BLACK
6
CONTINUOUS
10
6.4494
20
-3.73535
11
6.44962
21
-3.73578
0
LINE
8
BLACK
6
CONTINUOUS
10
6.44962
20
-3.73578
11
6.44963
21
-3.73578
0
LINE
8
BLACK
6
CONTINUOUS
10
6.44963
20
-3.73578
11
6.44963
21
-3.73579
0
LINE
8
BLACK
6
CONTINUOUS
10
6.44963
20
-3.73579
11
6.44976
21
-3.73625
0
LINE
8
BLACK
6
CONTINUOUS
10
6.44976
20
-3.73625
11
6.4499
21
-3.73671
0
LINE
8
BLACK
6
CONTINUOUS
10
6.4499
20
-3.73671
11
6.44991
21
-3.73672
0
LINE
8
BLACK
6
CONTINUOUS
10
6.44991
20
-3.73672
11
6.44991
21
-3.73673
0
LINE
8
BLACK
6
CONTINUOUS
10
6.44991
20
-3.73673
11
6.44995
21
-3.7372
0
LINE
8
BLACK
6
CONTINUOUS
10
6.44995
20
-3.7372
11
6.45
21
-3.73768
0
LINE
8
BLACK
6
CONTINUOUS
10
6.45
20
-3.73768
11
6.45
21
-3.895
0
LINE
8
BLACK
6
CONTINUOUS
10
6.45
20
-3.895
11
6.45
21
-3.89503
0
LINE
8
BLACK
6
CONTINUOUS
10
6.45
20
-3.89503
11
6.45
21
-3.89503
0
LINE
8
BLACK
6
CONTINUOUS
10
6.45
20
-3.89503
11
6.45
21
-3.89504
0
LINE
8
BLACK
6
CONTINUOUS
10
6.45
20
-3.89504
11
6.45
21
-3.89507
0
LINE
8
BLACK
6
CONTINUOUS
10
6.45
20
-3.89507
11
6.44995
21
-3.89554
0
LINE
8
BLACK
6
CONTINUOUS
10
6.44995
20
-3.89554
11
6.4499
21
-3.89601
0
LINE
8
BLACK
6
CONTINUOUS
10
6.4499
20
-3.89601
11
6.44989
21
-3.89602
0
LINE
8
BLACK
6
CONTINUOUS
10
6.44989
20
-3.89602
11
6.44989
21
-3.89604
0
LINE
8
BLACK
6
CONTINUOUS
10
6.44989
20
-3.89604
11
6.44975
21
-3.89649
0
LINE
8
BLACK
6
CONTINUOUS
10
6.44975
20
-3.89649
11
6.44961
21
-3.89694
0
LINE
8
BLACK
6
CONTINUOUS
10
6.44961
20
-3.89694
11
6.4496
21
-3.89695
0
LINE
8
BLACK
6
CONTINUOUS
10
6.4496
20
-3.89695
11
6.4496
21
-3.89697
0
LINE
8
BLACK
6
CONTINUOUS
10
6.4496
20
-3.89697
11
6.44937
21
-3.89738
0
LINE
8
BLACK
6
CONTINUOUS
10
6.44937
20
-3.89738
11
6.44915
21
-3.8978
0
LINE
8
BLACK
6
CONTINUOUS
10
6.44915
20
-3.8978
11
6.44913
21
-3.89781
0
LINE
8
BLACK
6
CONTINUOUS
10
6.44913
20
-3.89781
11
6.44913
21
-3.89782
0
LINE
8
BLACK
6
CONTINUOUS
10
6.44913
20
-3.89782
11
6.44882
21
-3.89818
0
LINE
8
BLACK
6
CONTINUOUS
10
6.44882
20
-3.89818
11
6.44852
21
-3.89855
0
LINE
8
BLACK
6
CONTINUOUS
10
6.44852
20
-3.89855
11
6.44851
21
-3.89856
0
LINE
8
BLACK
6
CONTINUOUS
10
6.44851
20
-3.89856
11
6.4485
21
-3.89857
0
LINE
8
BLACK
6
CONTINUOUS
10
6.4485
20
-3.89857
11
6.44813
21
-3.89887
0
LINE
8
BLACK
6
CONTINUOUS
10
6.44813
20
-3.89887
11
6.44777
21
-3.89916
0
LINE
8
BLACK
6
CONTINUOUS
10
6.44777
20
-3.89916
11
6.44775
21
-3.89917
0
LINE
8
BLACK
6
CONTINUOUS
10
6.44775
20
-3.89917
11
6.44774
21
-3.89918
0
LINE
8
BLACK
6
CONTINUOUS
10
6.44774
20
-3.89918
11
6.44732
21
-3.8994
0
LINE
8
BLACK
6
CONTINUOUS
10
6.44732
20
-3.8994
11
6.44691
21
-3.89962
0
LINE
8
BLACK
6
CONTINUOUS
10
6.44691
20
-3.89962
11
6.44689
21
-3.89963
0
LINE
8
BLACK
6
CONTINUOUS
10
6.44689
20
-3.89963
11
6.44687
21
-3.89964
0
LINE
8
BLACK
6
CONTINUOUS
10
6.44687
20
-3.89964
11
6.44642
21
-3.89977
0
LINE
8
BLACK
6
CONTINUOUS
10
6.44642
20
-3.89977
11
6.44597
21
-3.8999
0
LINE
8
BLACK
6
CONTINUOUS
10
6.44597
20
-3.8999
11
6.44595
21
-3.89991
0
LINE
8
BLACK
6
CONTINUOUS
10
6.44595
20
-3.89991
11
6.44594
21
-3.89991
0
LINE
8
BLACK
6
CONTINUOUS
10
6.44594
20
-3.89991
11
6.44547
21
-3.89995
0
LINE
8
BLACK
6
CONTINUOUS
10
6.44547
20
-3.89995
11
6.445
21
-3.9
0
LINE
8
BLACK
6
CONTINUOUS
10
6.445
20
-3.9
11
6.005
21
-3.9
0
LINE
8
BLACK
6
CONTINUOUS
10
6.005
20
-3.9
11
6.00497
21
-3.9
0
LINE
8
BLACK
6
CONTINUOUS
10
6.00497
20
-3.9
11
6.00497
21
-3.9
0
LINE
8
BLACK
6
CONTINUOUS
10
6.00497
20
-3.9
11
6.00496
21
-3.9
0
LINE
8
BLACK
6
CONTINUOUS
10
6.00496
20
-3.9
11
6.00493
21
-3.9
0
LINE
8
BLACK
6
CONTINUOUS
10
6.00493
20
-3.9
11
6.00446
21
-3.89995
0
LINE
8
BLACK
6
CONTINUOUS
10
6.00446
20
-3.89995
11
6.00399
21
-3.8999
0
LINE
8
BLACK
6
CONTINUOUS
10
6.00399
20
-3.8999
11
6.00398
21
-3.89989
0
LINE
8
BLACK
6
CONTINUOUS
10
6.00398
20
-3.89989
11
6.00396
21
-3.89989
0
LINE
8
BLACK
6
CONTINUOUS
10
6.00396
20
-3.89989
11
6.00351
21
-3.89975
0
LINE
8
BLACK
6
CONTINUOUS
10
6.00351
20
-3.89975
11
6.00306
21
-3.89961
0
LINE
8
BLACK
6
CONTINUOUS
10
6.00306
20
-3.89961
11
6.00305
21
-3.8996
0
LINE
8
BLACK
6
CONTINUOUS
10
6.00305
20
-3.8996
11
6.00303
21
-3.8996
0
LINE
8
BLACK
6
CONTINUOUS
10
6.00303
20
-3.8996
11
6.00262
21
-3.89937
0
LINE
8
BLACK
6
CONTINUOUS
10
6.00262
20
-3.89937
11
6.0022
21
-3.89915
0
LINE
8
BLACK
6
CONTINUOUS
10
6.0022
20
-3.89915
11
6.00219
21
-3.89913
0
LINE
8
BLACK
6
CONTINUOUS
10
6.00219
20
-3.89913
11
6.00218
21
-3.89913
0
LINE
8
BLACK
6
CONTINUOUS
10
6.00218
20
-3.89913
11
6.00182
21
-3.89882
0
LINE
8
BLACK
6
CONTINUOUS
10
6.00182
20
-3.89882
11
6.00145
21
-3.89852
0
LINE
8
BLACK
6
CONTINUOUS
10
6.00145
20
-3.89852
11
6.00144
21
-3.89851
0
LINE
8
BLACK
6
CONTINUOUS
10
6.00144
20
-3.89851
11
6.00143
21
-3.8985
0
LINE
8
BLACK
6
CONTINUOUS
10
6.00143
20
-3.8985
11
6.00113
21
-3.89813
0
LINE
8
BLACK
6
CONTINUOUS
10
6.00113
20
-3.89813
11
6.00084
21
-3.89777
0
LINE
8
BLACK
6
CONTINUOUS
10
6.00084
20
-3.89777
11
6.00083
21
-3.89775
0
LINE
8
BLACK
6
CONTINUOUS
10
6.00083
20
-3.89775
11
6.00082
21
-3.89774
0
LINE
8
BLACK
6
CONTINUOUS
10
6.00082
20
-3.89774
11
6.0006
21
-3.89732
0
LINE
8
BLACK
6
CONTINUOUS
10
6.0006
20
-3.89732
11
6.00038
21
-3.89691
0
LINE
8
BLACK
6
CONTINUOUS
10
6.00038
20
-3.89691
11
6.00037
21
-3.89689
0
LINE
8
BLACK
6
CONTINUOUS
10
6.00037
20
-3.89689
11
6.00036
21
-3.89687
0
LINE
8
BLACK
6
CONTINUOUS
10
6.00036
20
-3.89687
11
6.00023
21
-3.89642
0
LINE
8
BLACK
6
CONTINUOUS
10
6.00023
20
-3.89642
11
6.0001
21
-3.89597
0
LINE
8
BLACK
6
CONTINUOUS
10
6.0001
20
-3.89597
11
6.00009
21
-3.89595
0
LINE
8
BLACK
6
CONTINUOUS
10
6.00009
20
-3.89595
11
6.00009
21
-3.89594
0
LINE
8
BLACK
6
CONTINUOUS
10
6.00009
20
-3.89594
11
6.00005
21
-3.89547
0
LINE
8
BLACK
6
CONTINUOUS
10
6.00005
20
-3.89547
11
6
21
-3.895
0
LINE
8
BLACK
6
CONTINUOUS
10
6
20
-3.895
11
6
21
-3.65025
0
LINE
8
BLACK
6
CONTINUOUS
10
6
20
-3.65025
11
5.99998
21
-3.65002
0
LINE
8
BLACK
6
CONTINUOUS
10
5.99998
20
-3.65002
11
5.99975
21
-3.65
0
LINE
8
BLACK
6
CONTINUOUS
10
5.99975
20
-3.65
11
5.15025
21
-3.65
0
LINE
8
BLACK
6
CONTINUOUS
10
5.15025
20
-3.65
11
5.15002
21
-3.65002
0
LINE
8
BLACK
6
CONTINUOUS
10
5.15002
20
-3.65002
11
5.15
21
-3.65025
0
LINE
8
BLACK
6
CONTINUOUS
10
5.15
20
-3.65025
11
5.15
21
-3.895
0
LINE
8
BLACK
6
CONTINUOUS
10
5.15
20
-3.895
11
5.15
21
-3.89503
0
LINE
8
BLACK
6
CONTINUOUS
10
5.15
20
-3.89503
11
5.15
21
-3.89503
0
LINE
8
BLACK
6
CONTINUOUS
10
5.15
20
-3.89503
11
5.15
21
-3.89504
0
LINE
8
BLACK
6
CONTINUOUS
10
5.15
20
-3.89504
11
5.15
21
-3.89507
0
LINE
8
BLACK
6
CONTINUOUS
10
5.15
20
-3.89507
11
5.14995
21
-3.89554
0
LINE
8
BLACK
6
CONTINUOUS
10
5.14995
20
-3.89554
11
5.1499
21
-3.89601
0
LINE
8
BLACK
6
CONTINUOUS
10
5.1499
20
-3.89601
11
5.14989
21
-3.89602
0
LINE
8
BLACK
6
CONTINUOUS
10
5.14989
20
-3.89602
11
5.14989
21
-3.89604
0
LINE
8
BLACK
6
CONTINUOUS
10
5.14989
20
-3.89604
11
5.14975
21
-3.89649
0
LINE
8
BLACK
6
CONTINUOUS
10
5.14975
20
-3.89649
11
5.14961
21
-3.89694
0
LINE
8
BLACK
6
CONTINUOUS
10
5.14961
20
-3.89694
11
5.1496
21
-3.89695
0
LINE
8
BLACK
6
CONTINUOUS
10
5.1496
20
-3.89695
11
5.1496
21
-3.89697
0
LINE
8
BLACK
6
CONTINUOUS
10
5.1496
20
-3.89697
11
5.14937
21
-3.89738
0
LINE
8
BLACK
6
CONTINUOUS
10
5.14937
20
-3.89738
11
5.14915
21
-3.8978
0
LINE
8
BLACK
6
CONTINUOUS
10
5.14915
20
-3.8978
11
5.14913
21
-3.89781
0
LINE
8
BLACK
6
CONTINUOUS
10
5.14913
20
-3.89781
11
5.14913
21
-3.89782
0
LINE
8
BLACK
6
CONTINUOUS
10
5.14913
20
-3.89782
11
5.14882
21
-3.89818
0
LINE
8
BLACK
6
CONTINUOUS
10
5.14882
20
-3.89818
11
5.14852
21
-3.89855
0
LINE
8
BLACK
6
CONTINUOUS
10
5.14852
20
-3.89855
11
5.14851
21
-3.89856
0
LINE
8
BLACK
6
CONTINUOUS
10
5.14851
20
-3.89856
11
5.1485
21
-3.89857
0
LINE
8
BLACK
6
CONTINUOUS
10
5.1485
20
-3.89857
11
5.14813
21
-3.89887
0
LINE
8
BLACK
6
CONTINUOUS
10
5.14813
20
-3.89887
11
5.14777
21
-3.89916
0
LINE
8
BLACK
6
CONTINUOUS
10
5.14777
20
-3.89916
11
5.14775
21
-3.89917
0
LINE
8
BLACK
6
CONTINUOUS
10
5.14775
20
-3.89917
11
5.14774
21
-3.89918
0
LINE
8
BLACK
6
CONTINUOUS
10
5.14774
20
-3.89918
11
5.14732
21
-3.8994
0
LINE
8
BLACK
6
CONTINUOUS
10
5.14732
20
-3.8994
11
5.14691
21
-3.89962
0
LINE
8
BLACK
6
CONTINUOUS
10
5.14691
20
-3.89962
11
5.14689
21
-3.89963
0
LINE
8
BLACK
6
CONTINUOUS
10
5.14689
20
-3.89963
11
5.14687
21
-3.89964
0
LINE
8
BLACK
6
CONTINUOUS
10
5.14687
20
-3.89964
11
5.14642
21
-3.89977
0
LINE
8
BLACK
6
CONTINUOUS
10
5.14642
20
-3.89977
11
5.14597
21
-3.8999
0
LINE
8
BLACK
6
CONTINUOUS
10
5.14597
20
-3.8999
11
5.14595
21
-3.89991
0
LINE
8
BLACK
6
CONTINUOUS
10
5.14595
20
-3.89991
11
5.14594
21
-3.89991
0
LINE
8
BLACK
6
CONTINUOUS
10
5.14594
20
-3.89991
11
5.14547
21
-3.89995
0
LINE
8
BLACK
6
CONTINUOUS
10
5.14547
20
-3.89995
11
5.145
21
-3.9
0
LINE
8
BLACK
6
CONTINUOUS
10
5.145
20
-3.9
11
4.755
21
-3.9
0
LINE
8
BLACK
6
CONTINUOUS
10
4.755
20
-3.9
11
4.75497
21
-3.9
0
LINE
8
BLACK
6
CONTINUOUS
10
4.75497
20
-3.9
11
4.75497
21
-3.9
0
LINE
8
BLACK
6
CONTINUOUS
10
4.75497
20
-3.9
11
4.75496
21
-3.9
0
LINE
8
BLACK
6
CONTINUOUS
10
4.75496
20
-3.9
11
4.75493
21
-3.9
0
LINE
8
BLACK
6
CONTINUOUS
10
4.75493
20
-3.9
11
4.75446
21
-3.89995
0
LINE
8
BLACK
6
CONTINUOUS
10
4.75446
20
-3.89995
11
4.75399
21
-3.8999
0
LINE
8
BLACK
6
CONTINUOUS
10
4.75399
20
-3.8999
11
4.75398
21
-3.89989
0
LINE
8
BLACK
6
CONTINUOUS
10
4.75398
20
-3.89989
11
4.75396
21
-3.89989
0
LINE
8
BLACK
6
CONTINUOUS
10
4.75396
20
-3.89989
11
4.75351
21
-3.89975
0
LINE
8
BLACK
6
CONTINUOUS
10
4.75351
20
-3.89975
11
4.75306
21
-3.89961
0
LINE
8
BLACK
6
CONTINUOUS
10
4.75306
20
-3.89961
11
4.75305
21
-3.8996
0
LINE
8
BLACK
6
CONTINUOUS
10
4.75305
20
-3.8996
11
4.75303
21
-3.8996
0
LINE
8
BLACK
6
CONTINUOUS
10
4.75303
20
-3.8996
11
4.75262
21
-3.89937
0
LINE
8
BLACK
6
CONTINUOUS
10
4.75262
20
-3.89937
11
4.7522
21
-3.89915
0
LINE
8
BLACK
6
CONTINUOUS
10
4.7522
20
-3.89915
11
4.75219
21
-3.89913
0
LINE
8
BLACK
6
CONTINUOUS
10
4.75219
20
-3.89913
11
4.75218
21
-3.89913
0
LINE
8
BLACK
6
CONTINUOUS
10
4.75218
20
-3.89913
11
4.75182
21
-3.89882
0
LINE
8
BLACK
6
CONTINUOUS
10
4.75182
20
-3.89882
11
4.75145
21
-3.89852
0
LINE
8
BLACK
6
CONTINUOUS
10
4.75145
20
-3.89852
11
4.75144
21
-3.89851
0
LINE
8
BLACK
6
CONTINUOUS
10
4.75144
20
-3.89851
11
4.75143
21
-3.8985
0
LINE
8
BLACK
6
CONTINUOUS
10
4.75143
20
-3.8985
11
4.75113
21
-3.89813
0
LINE
8
BLACK
6
CONTINUOUS
10
4.75113
20
-3.89813
11
4.75084
21
-3.89777
0
LINE
8
BLACK
6
CONTINUOUS
10
4.75084
20
-3.89777
11
4.75083
21
-3.89775
0
LINE
8
BLACK
6
CONTINUOUS
10
4.75083
20
-3.89775
11
4.75082
21
-3.89774
0
LINE
8
BLACK
6
CONTINUOUS
10
4.75082
20
-3.89774
11
4.7506
21
-3.89732
0
LINE
8
BLACK
6
CONTINUOUS
10
4.7506
20
-3.89732
11
4.75038
21
-3.89691
0
LINE
8
BLACK
6
CONTINUOUS
10
4.75038
20
-3.89691
11
4.75037
21
-3.89689
0
LINE
8
BLACK
6
CONTINUOUS
10
4.75037
20
-3.89689
11
4.75036
21
-3.89687
0
LINE
8
BLACK
6
CONTINUOUS
10
4.75036
20
-3.89687
11
4.75023
21
-3.89642
0
LINE
8
BLACK
6
CONTINUOUS
10
4.75023
20
-3.89642
11
4.7501
21
-3.89597
0
LINE
8
BLACK
6
CONTINUOUS
10
4.7501
20
-3.89597
11
4.75009
21
-3.89595
0
LINE
8
BLACK
6
CONTINUOUS
10
4.75009
20
-3.89595
11
4.75009
21
-3.89594
0
LINE
8
BLACK
6
CONTINUOUS
10
4.75009
20
-3.89594
11
4.75005
21
-3.89547
0
LINE
8
BLACK
6
CONTINUOUS
10
4.75005
20
-3.89547
11
4.75
21
-3.895
0
LINE
8
BLACK
6
CONTINUOUS
10
4.75
20
-3.895
11
4.75
21
-3.105
0
LINE
8
BLACK
6
CONTINUOUS
10
4.75
20
-3.105
11
4.75
21
-3.10497
0
LINE
8
BLACK
6
CONTINUOUS
10
4.91757
20
-3.76027
11
4.91297
21
-3.76118
0
LINE
8
BLACK
6
CONTINUOUS
10
4.91297
20
-3.76118
11
4.90829
21
-3.76118
0
LINE
8
BLACK
6
CONTINUOUS
10
4.90829
20
-3.76118
11
4.90369
21
-3.76027
0
LINE
8
BLACK
6
CONTINUOUS
10
4.90369
20
-3.76027
11
4.90243
21
-3.75974
0
LINE
8
BLACK
6
CONTINUOUS
10
4.90243
20
-3.75974
11
4.88959
21
-3.77258
0
LINE
8
BLACK
6
CONTINUOUS
10
4.88959
20
-3.77258
11
4.89038
21
-3.77628
0
LINE
8
BLACK
6
CONTINUOUS
10
4.89038
20
-3.77628
11
4.89638
21
-3.77902
0
LINE
8
BLACK
6
CONTINUOUS
10
4.89638
20
-3.77902
11
4.90478
21
-3.781
0
LINE
8
BLACK
6
CONTINUOUS
10
4.90478
20
-3.781
11
4.9134
21
-3.78131
0
LINE
8
BLACK
6
CONTINUOUS
10
4.9134
20
-3.78131
11
4.92191
21
-3.77992
0
LINE
8
BLACK
6
CONTINUOUS
10
4.92191
20
-3.77992
11
4.93014
21
-3.77685
0
LINE
8
BLACK
6
CONTINUOUS
10
4.93014
20
-3.77685
11
4.93084
21
-3.77647
0
LINE
8
BLACK
6
CONTINUOUS
10
4.93084
20
-3.77647
11
4.93167
21
-3.77258
0
LINE
8
BLACK
6
CONTINUOUS
10
4.93167
20
-3.77258
11
4.91883
21
-3.75974
0
LINE
8
BLACK
6
CONTINUOUS
10
4.91883
20
-3.75974
11
4.91757
21
-3.76027
0
LINE
8
BLACK
6
CONTINUOUS
10
4.87175
20
-3.71715
11
4.86901
21
-3.72316
0
LINE
8
BLACK
6
CONTINUOUS
10
4.86901
20
-3.72316
11
4.86703
21
-3.73155
0
LINE
8
BLACK
6
CONTINUOUS
10
4.86703
20
-3.73155
11
4.86673
21
-3.74017
0
LINE
8
BLACK
6
CONTINUOUS
10
4.86673
20
-3.74017
11
4.86811
21
-3.74868
0
LINE
8
BLACK
6
CONTINUOUS
10
4.86811
20
-3.74868
11
4.87118
21
-3.75691
0
LINE
8
BLACK
6
CONTINUOUS
10
4.87118
20
-3.75691
11
4.87156
21
-3.75761
0
LINE
8
BLACK
6
CONTINUOUS
10
4.87156
20
-3.75761
11
4.87545
21
-3.75844
0
LINE
8
BLACK
6
CONTINUOUS
10
4.87545
20
-3.75844
11
4.88829
21
-3.7456
0
LINE
8
BLACK
6
CONTINUOUS
10
4.88829
20
-3.7456
11
4.88776
21
-3.74434
0
LINE
8
BLACK
6
CONTINUOUS
10
4.88776
20
-3.74434
11
4.88685
21
-3.73974
0
LINE
8
BLACK
6
CONTINUOUS
10
4.88685
20
-3.73974
11
4.88685
21
-3.73506
0
LINE
8
BLACK
6
CONTINUOUS
10
4.88685
20
-3.73506
11
4.88776
21
-3.73047
0
LINE
8
BLACK
6
CONTINUOUS
10
4.88776
20
-3.73047
11
4.88829
21
-3.7292
0
LINE
8
BLACK
6
CONTINUOUS
10
4.88829
20
-3.7292
11
4.87545
21
-3.71636
0
LINE
8
BLACK
6
CONTINUOUS
10
4.87545
20
-3.71636
11
4.87175
21
-3.71715
0
LINE
8
BLACK
6
CONTINUOUS
10
4.93297
20
-3.7292
11
4.9335
21
-3.73047
0
LINE
8
BLACK
6
CONTINUOUS
10
4.9335
20
-3.73047
11
4.93441
21
-3.73506
0
LINE
8
BLACK
6
CONTINUOUS
10
4.93441
20
-3.73506
11
4.93441
21
-3.73974
0
LINE
8
BLACK
6
CONTINUOUS
10
4.93441
20
-3.73974
11
4.9335
21
-3.74434
0
LINE
8
BLACK
6
CONTINUOUS
10
4.9335
20
-3.74434
11
4.93297
21
-3.7456
0
LINE
8
BLACK
6
CONTINUOUS
10
4.93297
20
-3.7456
11
4.94581
21
-3.75844
0
LINE
8
BLACK
6
CONTINUOUS
10
4.94581
20
-3.75844
11
4.94951
21
-3.75765
0
LINE
8
BLACK
6
CONTINUOUS
10
4.94951
20
-3.75765
11
4.95225
21
-3.75165
0
LINE
8
BLACK
6
CONTINUOUS
10
4.95225
20
-3.75165
11
4.95423
21
-3.74325
0
LINE
8
BLACK
6
CONTINUOUS
10
4.95423
20
-3.74325
11
4.95453
21
-3.73464
0
LINE
8
BLACK
6
CONTINUOUS
10
4.95453
20
-3.73464
11
4.95315
21
-3.72612
0
LINE
8
BLACK
6
CONTINUOUS
10
4.95315
20
-3.72612
11
4.95008
21
-3.7179
0
LINE
8
BLACK
6
CONTINUOUS
10
4.95008
20
-3.7179
11
4.9497
21
-3.71719
0
LINE
8
BLACK
6
CONTINUOUS
10
4.9497
20
-3.71719
11
4.94581
21
-3.71636
0
LINE
8
BLACK
6
CONTINUOUS
10
4.94581
20
-3.71636
11
4.93297
21
-3.7292
0
LINE
8
BLACK
6
CONTINUOUS
10
4.90632
20
-3.61882
11
4.89786
21
-3.6205
0
LINE
8
BLACK
6
CONTINUOUS
10
4.89786
20
-3.6205
11
4.88989
21
-3.6238
0
LINE
8
BLACK
6
CONTINUOUS
10
4.88989
20
-3.6238
11
4.88272
21
-3.62859
0
LINE
8
BLACK
6
CONTINUOUS
10
4.88272
20
-3.62859
11
4.87662
21
-3.63469
0
LINE
8
BLACK
6
CONTINUOUS
10
4.87662
20
-3.63469
11
4.87183
21
-3.64186
0
LINE
8
BLACK
6
CONTINUOUS
10
4.87183
20
-3.64186
11
4.86853
21
-3.64983
0
LINE
8
BLACK
6
CONTINUOUS
10
4.86853
20
-3.64983
11
4.86685
21
-3.65829
0
LINE
8
BLACK
6
CONTINUOUS
10
4.86685
20
-3.65829
11
4.86685
21
-3.66691
0
LINE
8
BLACK
6
CONTINUOUS
10
4.86685
20
-3.66691
11
4.86853
21
-3.67537
0
LINE
8
BLACK
6
CONTINUOUS
10
4.86853
20
-3.67537
11
4.87183
21
-3.68334
0
LINE
8
BLACK
6
CONTINUOUS
10
4.87183
20
-3.68334
11
4.87662
21
-3.69051
0
LINE
8
BLACK
6
CONTINUOUS
10
4.87662
20
-3.69051
11
4.88272
21
-3.6966
0
LINE
8
BLACK
6
CONTINUOUS
10
4.88272
20
-3.6966
11
4.88696
21
-3.69944
0
LINE
8
BLACK
6
CONTINUOUS
10
4.88696
20
-3.69944
11
4.88702
21
-3.69948
0
LINE
8
BLACK
6
CONTINUOUS
10
4.88702
20
-3.69948
11
4.88703
21
-3.69948
0
LINE
8
BLACK
6
CONTINUOUS
10
4.88703
20
-3.69948
11
4.88704
21
-3.69949
0
LINE
8
BLACK
6
CONTINUOUS
10
4.88704
20
-3.69949
11
4.8874
21
-3.6998
0
LINE
8
BLACK
6
CONTINUOUS
10
4.8874
20
-3.6998
11
4.88777
21
-3.70011
0
LINE
8
BLACK
6
CONTINUOUS
10
4.88777
20
-3.70011
11
4.88777
21
-3.70012
0
LINE
8
BLACK
6
CONTINUOUS
10
4.88777
20
-3.70012
11
4.88778
21
-3.70012
0
LINE
8
BLACK
6
CONTINUOUS
10
4.88778
20
-3.70012
11
4.88808
21
-3.7005
0
LINE
8
BLACK
6
CONTINUOUS
10
4.88808
20
-3.7005
11
4.88838
21
-3.70087
0
LINE
8
BLACK
6
CONTINUOUS
10
4.88838
20
-3.70087
11
4.88838
21
-3.70088
0
LINE
8
BLACK
6
CONTINUOUS
10
4.88838
20
-3.70088
11
4.88839
21
-3.70089
0
LINE
8
BLACK
6
CONTINUOUS
10
4.88839
20
-3.70089
11
4.88853
21
-3.70115
0
LINE
8
BLACK
6
CONTINUOUS
10
4.88853
20
-3.70115
11
4.90243
21
-3.71506
0
LINE
8
BLACK
6
CONTINUOUS
10
4.90243
20
-3.71506
11
4.90369
21
-3.71454
0
LINE
8
BLACK
6
CONTINUOUS
10
4.90369
20
-3.71454
11
4.90829
21
-3.71362
0
LINE
8
BLACK
6
CONTINUOUS
10
4.90829
20
-3.71362
11
4.91297
21
-3.71362
0
LINE
8
BLACK
6
CONTINUOUS
10
4.91297
20
-3.71362
11
4.91757
21
-3.71454
0
LINE
8
BLACK
6
CONTINUOUS
10
4.91757
20
-3.71454
11
4.91883
21
-3.71506
0
LINE
8
BLACK
6
CONTINUOUS
10
4.91883
20
-3.71506
11
4.93274
21
-3.70115
0
LINE
8
BLACK
6
CONTINUOUS
10
4.93274
20
-3.70115
11
4.93291
21
-3.70083
0
LINE
8
BLACK
6
CONTINUOUS
10
4.93291
20
-3.70083
11
4.93292
21
-3.70082
0
LINE
8
BLACK
6
CONTINUOUS
10
4.93292
20
-3.70082
11
4.93292
21
-3.70081
0
LINE
8
BLACK
6
CONTINUOUS
10
4.93292
20
-3.70081
11
4.93323
21
-3.70044
0
LINE
8
BLACK
6
CONTINUOUS
10
4.93323
20
-3.70044
11
4.93353
21
-3.70007
0
LINE
8
BLACK
6
CONTINUOUS
10
4.93353
20
-3.70007
11
4.93354
21
-3.70007
0
LINE
8
BLACK
6
CONTINUOUS
10
4.93354
20
-3.70007
11
4.93354
21
-3.70006
0
LINE
8
BLACK
6
CONTINUOUS
10
4.93354
20
-3.70006
11
4.93391
21
-3.69975
0
LINE
8
BLACK
6
CONTINUOUS
10
4.93391
20
-3.69975
11
4.93428
21
-3.69945
0
LINE
8
BLACK
6
CONTINUOUS
10
4.93428
20
-3.69945
11
4.93429
21
-3.69945
0
LINE
8
BLACK
6
CONTINUOUS
10
4.93429
20
-3.69945
11
4.9343
21
-3.69944
0
LINE
8
BLACK
6
CONTINUOUS
10
4.9343
20
-3.69944
11
4.93854
21
-3.6966
0
LINE
8
BLACK
6
CONTINUOUS
10
4.93854
20
-3.6966
11
4.94464
21
-3.69051
0
LINE
8
BLACK
6
CONTINUOUS
10
4.94464
20
-3.69051
11
4.94943
21
-3.68334
0
LINE
8
BLACK
6
CONTINUOUS
10
4.94943
20
-3.68334
11
4.95273
21
-3.67537
0
LINE
8
BLACK
6
CONTINUOUS
10
4.95273
20
-3.67537
11
4.95441
21
-3.66691
0
LINE
8
BLACK
6
CONTINUOUS
10
4.95441
20
-3.66691
11
4.95441
21
-3.65829
0
LINE
8
BLACK
6
CONTINUOUS
10
4.95441
20
-3.65829
11
4.95273
21
-3.64983
0
LINE
8
BLACK
6
CONTINUOUS
10
4.95273
20
-3.64983
11
4.94943
21
-3.64186
0
LINE
8
BLACK
6
CONTINUOUS
10
4.94943
20
-3.64186
11
4.94464
21
-3.63469
0
LINE
8
BLACK
6
CONTINUOUS
10
4.94464
20
-3.63469
11
4.93854
21
-3.62859
0
LINE
8
BLACK
6
CONTINUOUS
10
4.93854
20
-3.62859
11
4.93137
21
-3.6238
0
LINE
8
BLACK
6
CONTINUOUS
10
4.93137
20
-3.6238
11
4.9234
21
-3.6205
0
LINE
8
BLACK
6
CONTINUOUS
10
4.9234
20
-3.6205
11
4.91494
21
-3.61882
0
LINE
8
BLACK
6
CONTINUOUS
10
4.91494
20
-3.61882
11
4.90632
21
-3.61882
0
LINE
8
BLACK
6
CONTINUOUS
10
5.49648
20
-3.41425
11
5.48957
21
-3.41563
0
LINE
8
BLACK
6
CONTINUOUS
10
5.48957
20
-3.41563
11
5.48307
21
-3.41832
0
LINE
8
BLACK
6
CONTINUOUS
10
5.48307
20
-3.41832
11
5.47721
21
-3.42223
0
LINE
8
BLACK
6
CONTINUOUS
10
5.47721
20
-3.42223
11
5.47223
21
-3.42721
0
LINE
8
BLACK
6
CONTINUOUS
10
5.47223
20
-3.42721
11
5.46832
21
-3.43307
0
LINE
8
BLACK
6
CONTINUOUS
10
5.46832
20
-3.43307
11
5.46563
21
-3.43957
0
LINE
8
BLACK
6
CONTINUOUS
10
5.46563
20
-3.43957
11
5.46425
21
-3.44648
0
LINE
8
BLACK
6
CONTINUOUS
10
5.46425
20
-3.44648
11
5.46425
21
-3.45352
0
LINE
8
BLACK
6
CONTINUOUS
10
5.46425
20
-3.45352
11
5.46563
21
-3.46043
0
LINE
8
BLACK
6
CONTINUOUS
10
5.46563
20
-3.46043
11
5.46832
21
-3.46693
0
LINE
8
BLACK
6
CONTINUOUS
10
5.46832
20
-3.46693
11
5.47223
21
-3.47279
0
LINE
8
BLACK
6
CONTINUOUS
10
5.47223
20
-3.47279
11
5.47721
21
-3.47777
0
LINE
8
BLACK
6
CONTINUOUS
10
5.47721
20
-3.47777
11
5.48307
21
-3.48168
0
LINE
8
BLACK
6
CONTINUOUS
10
5.48307
20
-3.48168
11
5.48957
21
-3.48437
0
LINE
8
BLACK
6
CONTINUOUS
10
5.48957
20
-3.48437
11
5.49648
21
-3.48575
0
LINE
8
BLACK
6
CONTINUOUS
10
5.49648
20
-3.48575
11
5.50352
21
-3.48575
0
LINE
8
BLACK
6
CONTINUOUS
10
5.50352
20
-3.48575
11
5.51043
21
-3.48437
0
LINE
8
BLACK
6
CONTINUOUS
10
5.51043
20
-3.48437
11
5.51693
21
-3.48168
0
LINE
8
BLACK
6
CONTINUOUS
10
5.51693
20
-3.48168
11
5.52279
21
-3.47777
0
LINE
8
BLACK
6
CONTINUOUS
10
5.52279
20
-3.47777
11
5.52777
21
-3.47279
0
LINE
8
BLACK
6
CONTINUOUS
10
5.52777
20
-3.47279
11
5.53168
21
-3.46693
0
LINE
8
BLACK
6
CONTINUOUS
10
5.53168
20
-3.46693
11
5.53437
21
-3.46043
0
LINE
8
BLACK
6
CONTINUOUS
10
5.53437
20
-3.46043
11
5.53575
21
-3.45352
0
LINE
8
BLACK
6
CONTINUOUS
10
5.53575
20
-3.45352
11
5.53575
21
-3.44648
0
LINE
8
BLACK
6
CONTINUOUS
10
5.53575
20
-3.44648
11
5.53437
21
-3.43957
0
LINE
8
BLACK
6
CONTINUOUS
10
5.53437
20
-3.43957
11
5.53168
21
-3.43307
0
LINE
8
BLACK
6
CONTINUOUS
10
5.53168
20
-3.43307
11
5.52777
21
-3.42721
0
LINE
8
BLACK
6
CONTINUOUS
10
5.52777
20
-3.42721
11
5.52279
21
-3.42223
0
LINE
8
BLACK
6
CONTINUOUS
10
5.52279
20
-3.42223
11
5.51693
21
-3.41832
0
LINE
8
BLACK
6
CONTINUOUS
10
5.51693
20
-3.41832
11
5.51043
21
-3.41563
0
LINE
8
BLACK
6
CONTINUOUS
10
5.51043
20
-3.41563
11
5.50352
21
-3.41425
0
LINE
8
BLACK
6
CONTINUOUS
10
5.50352
20
-3.41425
11
5.49648
21
-3.41425
0
LINE
8
BLACK
6
CONTINUOUS
10
5.69648
20
-3.16425
11
5.68957
21
-3.16563
0
LINE
8
BLACK
6
CONTINUOUS
10
5.68957
20
-3.16563
11
5.68307
21
-3.16832
0
LINE
8
BLACK
6
CONTINUOUS
10
5.68307
20
-3.16832
11
5.67721
21
-3.17223
0
LINE
8
BLACK
6
CONTINUOUS
10
5.67721
20
-3.17223
11
5.67583
21
-3.17361
0
LINE
8
BLACK
6
CONTINUOUS
10
5.67583
20
-3.17361
11
5.67582
21
-3.17363
0
LINE
8
BLACK
6
CONTINUOUS
10
5.67582
20
-3.17363
11
5.67582
21
-3.17363
0
LINE
8
BLACK
6
CONTINUOUS
10
5.67582
20
-3.17363
11
5.67582
21
-3.17363
0
LINE
8
BLACK
6
CONTINUOUS
10
5.67582
20
-3.17363
11
5.67578
21
-3.17366
0
LINE
8
BLACK
6
CONTINUOUS
10
5.67578
20
-3.17366
11
5.67542
21
-3.17395
0
LINE
8
BLACK
6
CONTINUOUS
10
5.67542
20
-3.17395
11
5.67506
21
-3.17424
0
LINE
8
BLACK
6
CONTINUOUS
10
5.67506
20
-3.17424
11
5.67504
21
-3.17426
0
LINE
8
BLACK
6
CONTINUOUS
10
5.67504
20
-3.17426
11
5.67502
21
-3.17427
0
LINE
8
BLACK
6
CONTINUOUS
10
5.67502
20
-3.17427
11
5.67461
21
-3.17448
0
LINE
8
BLACK
6
CONTINUOUS
10
5.67461
20
-3.17448
11
5.6742
21
-3.1747
0
LINE
8
BLACK
6
CONTINUOUS
10
5.6742
20
-3.1747
11
5.67418
21
-3.17471
0
LINE
8
BLACK
6
CONTINUOUS
10
5.67418
20
-3.17471
11
5.67415
21
-3.17472
0
LINE
8
BLACK
6
CONTINUOUS
10
5.67415
20
-3.17472
11
5.67371
21
-3.17485
0
LINE
8
BLACK
6
CONTINUOUS
10
5.67371
20
-3.17485
11
5.67327
21
-3.17498
0
LINE
8
BLACK
6
CONTINUOUS
10
5.67327
20
-3.17498
11
5.67324
21
-3.17499
0
LINE
8
BLACK
6
CONTINUOUS
10
5.67324
20
-3.17499
11
5.67321
21
-3.17499
0
LINE
8
BLACK
6
CONTINUOUS
10
5.67321
20
-3.17499
11
5.67275
21
-3.17503
0
LINE
8
BLACK
6
CONTINUOUS
10
5.67275
20
-3.17503
11
5.67229
21
-3.17508
0
LINE
8
BLACK
6
CONTINUOUS
10
5.67229
20
-3.17508
11
5.62771
21
-3.17508
0
LINE
8
BLACK
6
CONTINUOUS
10
5.62771
20
-3.17508
11
5.62769
21
-3.17508
0
LINE
8
BLACK
6
CONTINUOUS
10
5.62769
20
-3.17508
11
5.62769
21
-3.17508
0
LINE
8
BLACK
6
CONTINUOUS
10
5.62769
20
-3.17508
11
5.62769
21
-3.17508
0
LINE
8
BLACK
6
CONTINUOUS
10
5.62769
20
-3.17508
11
5.62764
21
-3.17508
0
LINE
8
BLACK
6
CONTINUOUS
10
5.62764
20
-3.17508
11
5.62717
21
-3.17503
0
LINE
8
BLACK
6
CONTINUOUS
10
5.62717
20
-3.17503
11
5.62672
21
-3.17498
0
LINE
8
BLACK
6
CONTINUOUS
10
5.62672
20
-3.17498
11
5.62669
21
-3.17497
0
LINE
8
BLACK
6
CONTINUOUS
10
5.62669
20
-3.17497
11
5.62667
21
-3.17497
0
LINE
8
BLACK
6
CONTINUOUS
10
5.62667
20
-3.17497
11
5.62622
21
-3.17483
0
LINE
8
BLACK
6
CONTINUOUS
10
5.62622
20
-3.17483
11
5.62578
21
-3.17469
0
LINE
8
BLACK
6
CONTINUOUS
10
5.62578
20
-3.17469
11
5.62576
21
-3.17468
0
LINE
8
BLACK
6
CONTINUOUS
10
5.62576
20
-3.17468
11
5.62574
21
-3.17467
0
LINE
8
BLACK
6
CONTINUOUS
10
5.62574
20
-3.17467
11
5.62533
21
-3.17445
0
LINE
8
BLACK
6
CONTINUOUS
10
5.62533
20
-3.17445
11
5.62492
21
-3.17423
0
LINE
8
BLACK
6
CONTINUOUS
10
5.62492
20
-3.17423
11
5.6249
21
-3.17422
0
LINE
8
BLACK
6
CONTINUOUS
10
5.6249
20
-3.17422
11
5.62488
21
-3.1742
0
LINE
8
BLACK
6
CONTINUOUS
10
5.62488
20
-3.1742
11
5.62453
21
-3.17391
0
LINE
8
BLACK
6
CONTINUOUS
10
5.62453
20
-3.17391
11
5.62417
21
-3.17361
0
LINE
8
BLACK
6
CONTINUOUS
10
5.62417
20
-3.17361
11
5.62279
21
-3.17223
0
LINE
8
BLACK
6
CONTINUOUS
10
5.62279
20
-3.17223
11
5.61693
21
-3.16832
0
LINE
8
BLACK
6
CONTINUOUS
10
5.61693
20
-3.16832
11
5.61043
21
-3.16563
0
LINE
8
BLACK
6
CONTINUOUS
10
5.61043
20
-3.16563
11
5.60352
21
-3.16425
0
LINE
8
BLACK
6
CONTINUOUS
10
5.60352
20
-3.16425
11
5.59648
21
-3.16425
0
LINE
8
BLACK
6
CONTINUOUS
10
5.59648
20
-3.16425
11
5.58957
21
-3.16563
0
LINE
8
BLACK
6
CONTINUOUS
10
5.58957
20
-3.16563
11
5.58307
21
-3.16832
0
LINE
8
BLACK
6
CONTINUOUS
10
5.58307
20
-3.16832
11
5.57721
21
-3.17223
0
LINE
8
BLACK
6
CONTINUOUS
10
5.57721
20
-3.17223
11
5.57223
21
-3.17721
0
LINE
8
BLACK
6
CONTINUOUS
10
5.57223
20
-3.17721
11
5.56832
21
-3.18307
0
LINE
8
BLACK
6
CONTINUOUS
10
5.56832
20
-3.18307
11
5.56563
21
-3.18957
0
LINE
8
BLACK
6
CONTINUOUS
10
5.56563
20
-3.18957
11
5.56425
21
-3.19648
0
LINE
8
BLACK
6
CONTINUOUS
10
5.56425
20
-3.19648
11
5.56425
21
-3.20352
0
LINE
8
BLACK
6
CONTINUOUS
10
5.56425
20
-3.20352
11
5.56563
21
-3.21043
0
LINE
8
BLACK
6
CONTINUOUS
10
5.56563
20
-3.21043
11
5.56832
21
-3.21693
0
LINE
8
BLACK
6
CONTINUOUS
10
5.56832
20
-3.21693
11
5.57223
21
-3.22279
0
LINE
8
BLACK
6
CONTINUOUS
10
5.57223
20
-3.22279
11
5.57721
21
-3.22777
0
LINE
8
BLACK
6
CONTINUOUS
10
5.57721
20
-3.22777
11
5.58307
21
-3.23168
0
LINE
8
BLACK
6
CONTINUOUS
10
5.58307
20
-3.23168
11
5.58957
21
-3.23437
0
LINE
8
BLACK
6
CONTINUOUS
10
5.58957
20
-3.23437
11
5.59648
21
-3.23575
0
LINE
8
BLACK
6
CONTINUOUS
10
5.59648
20
-3.23575
11
5.60352
21
-3.23575
0
LINE
8
BLACK
6
CONTINUOUS
10
5.60352
20
-3.23575
11
5.61043
21
-3.23437
0
LINE
8
BLACK
6
CONTINUOUS
10
5.61043
20
-3.23437
11
5.61693
21
-3.23168
0
LINE
8
BLACK
6
CONTINUOUS
10
5.61693
20
-3.23168
11
5.62279
21
-3.22777
0
LINE
8
BLACK
6
CONTINUOUS
10
5.62279
20
-3.22777
11
5.62417
21
-3.22639
0
LINE
8
BLACK
6
CONTINUOUS
10
5.62417
20
-3.22639
11
5.62418
21
-3.22637
0
LINE
8
BLACK
6
CONTINUOUS
10
5.62418
20
-3.22637
11
5.62418
21
-3.22637
0
LINE
8
BLACK
6
CONTINUOUS
10
5.62418
20
-3.22637
11
5.62418
21
-3.22637
0
LINE
8
BLACK
6
CONTINUOUS
10
5.62418
20
-3.22637
11
5.62422
21
-3.22634
0
LINE
8
BLACK
6
CONTINUOUS
10
5.62422
20
-3.22634
11
5.62458
21
-3.22605
0
LINE
8
BLACK
6
CONTINUOUS
10
5.62458
20
-3.22605
11
5.62494
21
-3.22576
0
LINE
8
BLACK
6
CONTINUOUS
10
5.62494
20
-3.22576
11
5.62496
21
-3.22574
0
LINE
8
BLACK
6
CONTINUOUS
10
5.62496
20
-3.22574
11
5.62498
21
-3.22573
0
LINE
8
BLACK
6
CONTINUOUS
10
5.62498
20
-3.22573
11
5.62539
21
-3.22552
0
LINE
8
BLACK
6
CONTINUOUS
10
5.62539
20
-3.22552
11
5.6258
21
-3.2253
0
LINE
8
BLACK
6
CONTINUOUS
10
5.6258
20
-3.2253
11
5.62582
21
-3.22529
0
LINE
8
BLACK
6
CONTINUOUS
10
5.62582
20
-3.22529
11
5.62585
21
-3.22528
0
LINE
8
BLACK
6
CONTINUOUS
10
5.62585
20
-3.22528
11
5.62629
21
-3.22515
0
LINE
8
BLACK
6
CONTINUOUS
10
5.62629
20
-3.22515
11
5.62673
21
-3.22502
0
LINE
8
BLACK
6
CONTINUOUS
10
5.62673
20
-3.22502
11
5.62676
21
-3.22501
0
LINE
8
BLACK
6
CONTINUOUS
10
5.62676
20
-3.22501
11
5.62679
21
-3.22501
0
LINE
8
BLACK
6
CONTINUOUS
10
5.62679
20
-3.22501
11
5.62724
21
-3.22497
0
LINE
8
BLACK
6
CONTINUOUS
10
5.62724
20
-3.22497
11
5.62771
21
-3.22492
0
LINE
8
BLACK
6
CONTINUOUS
10
5.62771
20
-3.22492
11
5.67229
21
-3.22492
0
LINE
8
BLACK
6
CONTINUOUS
10
5.67229
20
-3.22492
11
5.67231
21
-3.22492
0
LINE
8
BLACK
6
CONTINUOUS
10
5.67231
20
-3.22492
11
5.67231
21
-3.22492
0
LINE
8
BLACK
6
CONTINUOUS
10
5.67231
20
-3.22492
11
5.67231
21
-3.22492
0
LINE
8
BLACK
6
CONTINUOUS
10
5.67231
20
-3.22492
11
5.67236
21
-3.22492
0
LINE
8
BLACK
6
CONTINUOUS
10
5.67236
20
-3.22492
11
5.67282
21
-3.22497
0
LINE
8
BLACK
6
CONTINUOUS
10
5.67282
20
-3.22497
11
5.67328
21
-3.22502
0
LINE
8
BLACK
6
CONTINUOUS
10
5.67328
20
-3.22502
11
5.67331
21
-3.22503
0
LINE
8
BLACK
6
CONTINUOUS
10
5.67331
20
-3.22503
11
5.67333
21
-3.22503
0
LINE
8
BLACK
6
CONTINUOUS
10
5.67333
20
-3.22503
11
5.67378
21
-3.22517
0
LINE
8
BLACK
6
CONTINUOUS
10
5.67378
20
-3.22517
11
5.67422
21
-3.22531
0
LINE
8
BLACK
6
CONTINUOUS
10
5.67422
20
-3.22531
11
5.67424
21
-3.22532
0
LINE
8
BLACK
6
CONTINUOUS
10
5.67424
20
-3.22532
11
5.67426
21
-3.22533
0
LINE
8
BLACK
6
CONTINUOUS
10
5.67426
20
-3.22533
11
5.67467
21
-3.22555
0
LINE
8
BLACK
6
CONTINUOUS
10
5.67467
20
-3.22555
11
5.67508
21
-3.22577
0
LINE
8
BLACK
6
CONTINUOUS
10
5.67508
20
-3.22577
11
5.6751
21
-3.22578
0
LINE
8
BLACK
6
CONTINUOUS
10
5.6751
20
-3.22578
11
5.67512
21
-3.2258
0
LINE
8
BLACK
6
CONTINUOUS
10
5.67512
20
-3.2258
11
5.67547
21
-3.22609
0
LINE
8
BLACK
6
CONTINUOUS
10
5.67547
20
-3.22609
11
5.67583
21
-3.22639
0
LINE
8
BLACK
6
CONTINUOUS
10
5.67583
20
-3.22639
11
5.67721
21
-3.22777
0
LINE
8
BLACK
6
CONTINUOUS
10
5.67721
20
-3.22777
11
5.68307
21
-3.23168
0
LINE
8
BLACK
6
CONTINUOUS
10
5.68307
20
-3.23168
11
5.68957
21
-3.23437
0
LINE
8
BLACK
6
CONTINUOUS
10
5.68957
20
-3.23437
11
5.69648
21
-3.23575
0
LINE
8
BLACK
6
CONTINUOUS
10
5.69648
20
-3.23575
11
5.70352
21
-3.23575
0
LINE
8
BLACK
6
CONTINUOUS
10
5.70352
20
-3.23575
11
5.71043
21
-3.23437
0
LINE
8
BLACK
6
CONTINUOUS
10
5.71043
20
-3.23437
11
5.71693
21
-3.23168
0
LINE
8
BLACK
6
CONTINUOUS
10
5.71693
20
-3.23168
11
5.72279
21
-3.22777
0
LINE
8
BLACK
6
CONTINUOUS
10
5.72279
20
-3.22777
11
5.72777
21
-3.22279
0
LINE
8
BLACK
6
CONTINUOUS
10
5.72777
20
-3.22279
11
5.73168
21
-3.21693
0
LINE
8
BLACK
6
CONTINUOUS
10
5.73168
20
-3.21693
11
5.73437
21
-3.21043
0
LINE
8
BLACK
6
CONTINUOUS
10
5.73437
20
-3.21043
11
5.73575
21
-3.20352
0
LINE
8
BLACK
6
CONTINUOUS
10
5.73575
20
-3.20352
11
5.73575
21
-3.19648
0
LINE
8
BLACK
6
CONTINUOUS
10
5.73575
20
-3.19648
11
5.73437
21
-3.18957
0
LINE
8
BLACK
6
CONTINUOUS
10
5.73437
20
-3.18957
11
5.73168
21
-3.18307
0
LINE
8
BLACK
6
CONTINUOUS
10
5.73168
20
-3.18307
11
5.72777
21
-3.17721
0
LINE
8
BLACK
6
CONTINUOUS
10
5.72777
20
-3.17721
11
5.72279
21
-3.17223
0
LINE
8
BLACK
6
CONTINUOUS
10
5.72279
20
-3.17223
11
5.71693
21
-3.16832
0
LINE
8
BLACK
6
CONTINUOUS
10
5.71693
20
-3.16832
11
5.71043
21
-3.16563
0
LINE
8
BLACK
6
CONTINUOUS
10
5.71043
20
-3.16563
11
5.70352
21
-3.16425
0
LINE
8
BLACK
6
CONTINUOUS
10
5.70352
20
-3.16425
11
5.69648
21
-3.16425
0
LINE
8
BLACK
6
CONTINUOUS
10
4.91757
20
-3.63973
11
4.92189
21
-3.64153
0
LINE
8
BLACK
6
CONTINUOUS
10
4.92189
20
-3.64153
11
4.92579
21
-3.64413
0
LINE
8
BLACK
6
CONTINUOUS
10
4.92579
20
-3.64413
11
4.9291
21
-3.64744
0
LINE
8
BLACK
6
CONTINUOUS
10
4.9291
20
-3.64744
11
4.9317
21
-3.65133
0
LINE
8
BLACK
6
CONTINUOUS
10
4.9317
20
-3.65133
11
4.9335
21
-3.65566
0
LINE
8
BLACK
6
CONTINUOUS
10
4.9335
20
-3.65566
11
4.93441
21
-3.66026
0
LINE
8
BLACK
6
CONTINUOUS
10
4.93441
20
-3.66026
11
4.93441
21
-3.66494
0
LINE
8
BLACK
6
CONTINUOUS
10
4.93441
20
-3.66494
11
4.9335
21
-3.66953
0
LINE
8
BLACK
6
CONTINUOUS
10
4.9335
20
-3.66953
11
4.9317
21
-3.67386
0
LINE
8
BLACK
6
CONTINUOUS
10
4.9317
20
-3.67386
11
4.9291
21
-3.67776
0
LINE
8
BLACK
6
CONTINUOUS
10
4.9291
20
-3.67776
11
4.92579
21
-3.68107
0
LINE
8
BLACK
6
CONTINUOUS
10
4.92579
20
-3.68107
11
4.92189
21
-3.68367
0
LINE
8
BLACK
6
CONTINUOUS
10
4.92189
20
-3.68367
11
4.91757
21
-3.68546
0
LINE
8
BLACK
6
CONTINUOUS
10
4.91757
20
-3.68546
11
4.91297
21
-3.68638
0
LINE
8
BLACK
6
CONTINUOUS
10
4.91297
20
-3.68638
11
4.90829
21
-3.68638
0
LINE
8
BLACK
6
CONTINUOUS
10
4.90829
20
-3.68638
11
4.90369
21
-3.68546
0
LINE
8
BLACK
6
CONTINUOUS
10
4.90369
20
-3.68546
11
4.89937
21
-3.68367
0
LINE
8
BLACK
6
CONTINUOUS
10
4.89937
20
-3.68367
11
4.89547
21
-3.68107
0
LINE
8
BLACK
6
CONTINUOUS
10
4.89547
20
-3.68107
11
4.89216
21
-3.67776
0
LINE
8
BLACK
6
CONTINUOUS
10
4.89216
20
-3.67776
11
4.88956
21
-3.67386
0
LINE
8
BLACK
6
CONTINUOUS
10
4.88956
20
-3.67386
11
4.88776
21
-3.66953
0
LINE
8
BLACK
6
CONTINUOUS
10
4.88776
20
-3.66953
11
4.88685
21
-3.66494
0
LINE
8
BLACK
6
CONTINUOUS
10
4.88685
20
-3.66494
11
4.88685
21
-3.66026
0
LINE
8
BLACK
6
CONTINUOUS
10
4.88685
20
-3.66026
11
4.88776
21
-3.65566
0
LINE
8
BLACK
6
CONTINUOUS
10
4.88776
20
-3.65566
11
4.88956
21
-3.65133
0
LINE
8
BLACK
6
CONTINUOUS
10
4.88956
20
-3.65133
11
4.89216
21
-3.64744
0
LINE
8
BLACK
6
CONTINUOUS
10
4.89216
20
-3.64744
11
4.89547
21
-3.64413
0
LINE
8
BLACK
6
CONTINUOUS
10
4.89547
20
-3.64413
11
4.89937
21
-3.64153
0
LINE
8
BLACK
6
CONTINUOUS
10
4.89937
20
-3.64153
11
4.90369
21
-3.63973
0
LINE
8
BLACK
6
CONTINUOUS
10
4.90369
20
-3.63973
11
4.90829
21
-3.63882
0
LINE
8
BLACK
6
CONTINUOUS
10
4.90829
20
-3.63882
11
4.91297
21
-3.63882
0
LINE
8
BLACK
6
CONTINUOUS
10
4.91297
20
-3.63882
11
4.91757
21
-3.63973
0
LINE
8
BLACK
6
CONTINUOUS
10
5.50459
20
-3.43486
11
5.50746
21
-3.43604
0
LINE
8
BLACK
6
CONTINUOUS
10
5.50746
20
-3.43604
11
5.51004
21
-3.43777
0
LINE
8
BLACK
6
CONTINUOUS
10
5.51004
20
-3.43777
11
5.51223
21
-3.43996
0
LINE
8
BLACK
6
CONTINUOUS
10
5.51223
20
-3.43996
11
5.51396
21
-3.44254
0
LINE
8
BLACK
6
CONTINUOUS
10
5.51396
20
-3.44254
11
5.51514
21
-3.44541
0
LINE
8
BLACK
6
CONTINUOUS
10
5.51514
20
-3.44541
11
5.51575
21
-3.44845
0
LINE
8
BLACK
6
CONTINUOUS
10
5.51575
20
-3.44845
11
5.51575
21
-3.45155
0
LINE
8
BLACK
6
CONTINUOUS
10
5.51575
20
-3.45155
11
5.51514
21
-3.45459
0
LINE
8
BLACK
6
CONTINUOUS
10
5.51514
20
-3.45459
11
5.51396
21
-3.45746
0
LINE
8
BLACK
6
CONTINUOUS
10
5.51396
20
-3.45746
11
5.51223
21
-3.46004
0
LINE
8
BLACK
6
CONTINUOUS
10
5.51223
20
-3.46004
11
5.51004
21
-3.46223
0
LINE
8
BLACK
6
CONTINUOUS
10
5.51004
20
-3.46223
11
5.50746
21
-3.46396
0
LINE
8
BLACK
6
CONTINUOUS
10
5.50746
20
-3.46396
11
5.50459
21
-3.46514
0
LINE
8
BLACK
6
CONTINUOUS
10
5.50459
20
-3.46514
11
5.50155
21
-3.46575
0
LINE
8
BLACK
6
CONTINUOUS
10
5.50155
20
-3.46575
11
5.49845
21
-3.46575
0
LINE
8
BLACK
6
CONTINUOUS
10
5.49845
20
-3.46575
11
5.49541
21
-3.46514
0
LINE
8
BLACK
6
CONTINUOUS
10
5.49541
20
-3.46514
11
5.49254
21
-3.46396
0
LINE
8
BLACK
6
CONTINUOUS
10
5.49254
20
-3.46396
11
5.48996
21
-3.46223
0
LINE
8
BLACK
6
CONTINUOUS
10
5.48996
20
-3.46223
11
5.48777
21
-3.46004
0
LINE
8
BLACK
6
CONTINUOUS
10
5.48777
20
-3.46004
11
5.48604
21
-3.45746
0
LINE
8
BLACK
6
CONTINUOUS
10
5.48604
20
-3.45746
11
5.48486
21
-3.45459
0
LINE
8
BLACK
6
CONTINUOUS
10
5.48486
20
-3.45459
11
5.48425
21
-3.45155
0
LINE
8
BLACK
6
CONTINUOUS
10
5.48425
20
-3.45155
11
5.48425
21
-3.44845
0
LINE
8
BLACK
6
CONTINUOUS
10
5.48425
20
-3.44845
11
5.48486
21
-3.44541
0
LINE
8
BLACK
6
CONTINUOUS
10
5.48486
20
-3.44541
11
5.48604
21
-3.44254
0
LINE
8
BLACK
6
CONTINUOUS
10
5.48604
20
-3.44254
11
5.48777
21
-3.43996
0
LINE
8
BLACK
6
CONTINUOUS
10
5.48777
20
-3.43996
11
5.48996
21
-3.43777
0
LINE
8
BLACK
6
CONTINUOUS
10
5.48996
20
-3.43777
11
5.49254
21
-3.43604
0
LINE
8
BLACK
6
CONTINUOUS
10
5.49254
20
-3.43604
11
5.49541
21
-3.43486
0
LINE
8
BLACK
6
CONTINUOUS
10
5.49541
20
-3.43486
11
5.49845
21
-3.43425
0
LINE
8
BLACK
6
CONTINUOUS
10
5.49845
20
-3.43425
11
5.50155
21
-3.43425
0
LINE
8
BLACK
6
CONTINUOUS
10
5.50155
20
-3.43425
11
5.50459
21
-3.43486
0
LINE
8
BLACK
6
CONTINUOUS
10
5.60459
20
-3.18486
11
5.60746
21
-3.18604
0
LINE
8
BLACK
6
CONTINUOUS
10
5.60746
20
-3.18604
11
5.61004
21
-3.18777
0
LINE
8
BLACK
6
CONTINUOUS
10
5.61004
20
-3.18777
11
5.61223
21
-3.18996
0
LINE
8
BLACK
6
CONTINUOUS
10
5.61223
20
-3.18996
11
5.61396
21
-3.19254
0
LINE
8
BLACK
6
CONTINUOUS
10
5.61396
20
-3.19254
11
5.61501
21
-3.19508
0
LINE
8
BLACK
6
CONTINUOUS
10
5.61501
20
-3.19508
11
5.68499
21
-3.19508
0
LINE
8
BLACK
6
CONTINUOUS
10
5.68499
20
-3.19508
11
5.68604
21
-3.19254
0
LINE
8
BLACK
6
CONTINUOUS
10
5.68604
20
-3.19254
11
5.68777
21
-3.18996
0
LINE
8
BLACK
6
CONTINUOUS
10
5.68777
20
-3.18996
11
5.68996
21
-3.18777
0
LINE
8
BLACK
6
CONTINUOUS
10
5.68996
20
-3.18777
11
5.69254
21
-3.18604
0
LINE
8
BLACK
6
CONTINUOUS
10
5.69254
20
-3.18604
11
5.69541
21
-3.18486
0
LINE
8
BLACK
6
CONTINUOUS
10
5.69541
20
-3.18486
11
5.69845
21
-3.18425
0
LINE
8
BLACK
6
CONTINUOUS
10
5.69845
20
-3.18425
11
5.70155
21
-3.18425
0
LINE
8
BLACK
6
CONTINUOUS
10
5.70155
20
-3.18425
11
5.70459
21
-3.18486
0
LINE
8
BLACK
6
CONTINUOUS
10
5.70459
20
-3.18486
11
5.70746
21
-3.18604
0
LINE
8
BLACK
6
CONTINUOUS
10
5.70746
20
-3.18604
11
5.71004
21
-3.18777
0
LINE
8
BLACK
6
CONTINUOUS
10
5.71004
20
-3.18777
11
5.71223
21
-3.18996
0
LINE
8
BLACK
6
CONTINUOUS
10
5.71223
20
-3.18996
11
5.71396
21
-3.19254
0
LINE
8
BLACK
6
CONTINUOUS
10
5.71396
20
-3.19254
11
5.71514
21
-3.19541
0
LINE
8
BLACK
6
CONTINUOUS
10
5.71514
20
-3.19541
11
5.71575
21
-3.19845
0
LINE
8
BLACK
6
CONTINUOUS
10
5.71575
20
-3.19845
11
5.71575
21
-3.20155
0
LINE
8
BLACK
6
CONTINUOUS
10
5.71575
20
-3.20155
11
5.71514
21
-3.20459
0
LINE
8
BLACK
6
CONTINUOUS
10
5.71514
20
-3.20459
11
5.71396
21
-3.20746
0
LINE
8
BLACK
6
CONTINUOUS
10
5.71396
20
-3.20746
11
5.71223
21
-3.21004
0
LINE
8
BLACK
6
CONTINUOUS
10
5.71223
20
-3.21004
11
5.71004
21
-3.21223
0
LINE
8
BLACK
6
CONTINUOUS
10
5.71004
20
-3.21223
11
5.70746
21
-3.21396
0
LINE
8
BLACK
6
CONTINUOUS
10
5.70746
20
-3.21396
11
5.70459
21
-3.21514
0
LINE
8
BLACK
6
CONTINUOUS
10
5.70459
20
-3.21514
11
5.70155
21
-3.21575
0
LINE
8
BLACK
6
CONTINUOUS
10
5.70155
20
-3.21575
11
5.69845
21
-3.21575
0
LINE
8
BLACK
6
CONTINUOUS
10
5.69845
20
-3.21575
11
5.69541
21
-3.21514
0
LINE
8
BLACK
6
CONTINUOUS
10
5.69541
20
-3.21514
11
5.69254
21
-3.21396
0
LINE
8
BLACK
6
CONTINUOUS
10
5.69254
20
-3.21396
11
5.68996
21
-3.21223
0
LINE
8
BLACK
6
CONTINUOUS
10
5.68996
20
-3.21223
11
5.68777
21
-3.21004
0
LINE
8
BLACK
6
CONTINUOUS
10
5.68777
20
-3.21004
11
5.68604
21
-3.20746
0
LINE
8
BLACK
6
CONTINUOUS
10
5.68604
20
-3.20746
11
5.68499
21
-3.20492
0
LINE
8
BLACK
6
CONTINUOUS
10
5.68499
20
-3.20492
11
5.61501
21
-3.20492
0
LINE
8
BLACK
6
CONTINUOUS
10
5.61501
20
-3.20492
11
5.61396
21
-3.20746
0
LINE
8
BLACK
6
CONTINUOUS
10
5.61396
20
-3.20746
11
5.61223
21
-3.21004
0
LINE
8
BLACK
6
CONTINUOUS
10
5.61223
20
-3.21004
11
5.61004
21
-3.21223
0
LINE
8
BLACK
6
CONTINUOUS
10
5.61004
20
-3.21223
11
5.60746
21
-3.21396
0
LINE
8
BLACK
6
CONTINUOUS
10
5.60746
20
-3.21396
11
5.60459
21
-3.21514
0
LINE
8
BLACK
6
CONTINUOUS
10
5.60459
20
-3.21514
11
5.60155
21
-3.21575
0
LINE
8
BLACK
6
CONTINUOUS
10
5.60155
20
-3.21575
11
5.59845
21
-3.21575
0
LINE
8
BLACK
6
CONTINUOUS
10
5.59845
20
-3.21575
11
5.59541
21
-3.21514
0
LINE
8
BLACK
6
CONTINUOUS
10
5.59541
20
-3.21514
11
5.59254
21
-3.21396
0
LINE
8
BLACK
6
CONTINUOUS
10
5.59254
20
-3.21396
11
5.58996
21
-3.21223
0
LINE
8
BLACK
6
CONTINUOUS
10
5.58996
20
-3.21223
11
5.58777
21
-3.21004
0
LINE
8
BLACK
6
CONTINUOUS
10
5.58777
20
-3.21004
11
5.58604
21
-3.20746
0
LINE
8
BLACK
6
CONTINUOUS
10
5.58604
20
-3.20746
11
5.58486
21
-3.20459
0
LINE
8
BLACK
6
CONTINUOUS
10
5.58486
20
-3.20459
11
5.58425
21
-3.20155
0
LINE
8
BLACK
6
CONTINUOUS
10
5.58425
20
-3.20155
11
5.58425
21
-3.19845
0
LINE
8
BLACK
6
CONTINUOUS
10
5.58425
20
-3.19845
11
5.58486
21
-3.19541
0
LINE
8
BLACK
6
CONTINUOUS
10
5.58486
20
-3.19541
11
5.58604
21
-3.19254
0
LINE
8
BLACK
6
CONTINUOUS
10
5.58604
20
-3.19254
11
5.58777
21
-3.18996
0
LINE
8
BLACK
6
CONTINUOUS
10
5.58777
20
-3.18996
11
5.58996
21
-3.18777
0
LINE
8
BLACK
6
CONTINUOUS
10
5.58996
20
-3.18777
11
5.59254
21
-3.18604
0
LINE
8
BLACK
6
CONTINUOUS
10
5.59254
20
-3.18604
11
5.59541
21
-3.18486
0
LINE
8
BLACK
6
CONTINUOUS
10
5.59541
20
-3.18486
11
5.59845
21
-3.18425
0
LINE
8
BLACK
6
CONTINUOUS
10
5.59845
20
-3.18425
11
5.60155
21
-3.18425
0
LINE
8
BLACK
6
CONTINUOUS
10
5.60155
20
-3.18425
11
5.60459
21
-3.18486
0
LINE
8
BLACK
6
CONTINUOUS
10
6.30976
20
-3.66782
11
6.31585
21
-3.67034
0
LINE
8
BLACK
6
CONTINUOUS
10
6.31585
20
-3.67034
11
6.32133
21
-3.67401
0
LINE
8
BLACK
6
CONTINUOUS
10
6.32133
20
-3.67401
11
6.32599
21
-3.67867
0
LINE
8
BLACK
6
CONTINUOUS
10
6.32599
20
-3.67867
11
6.32966
21
-3.68415
0
LINE
8
BLACK
6
CONTINUOUS
10
6.32966
20
-3.68415
11
6.33218
21
-3.69024
0
LINE
8
BLACK
6
CONTINUOUS
10
6.33218
20
-3.69024
11
6.33346
21
-3.6967
0
LINE
8
BLACK
6
CONTINUOUS
10
6.33346
20
-3.6967
11
6.33346
21
-3.7033
0
LINE
8
BLACK
6
CONTINUOUS
10
6.33346
20
-3.7033
11
6.33218
21
-3.70976
0
LINE
8
BLACK
6
CONTINUOUS
10
6.33218
20
-3.70976
11
6.32966
21
-3.71585
0
LINE
8
BLACK
6
CONTINUOUS
10
6.32966
20
-3.71585
11
6.32599
21
-3.72133
0
LINE
8
BLACK
6
CONTINUOUS
10
6.32599
20
-3.72133
11
6.32133
21
-3.72599
0
LINE
8
BLACK
6
CONTINUOUS
10
6.32133
20
-3.72599
11
6.31585
21
-3.72966
0
LINE
8
BLACK
6
CONTINUOUS
10
6.31585
20
-3.72966
11
6.30976
21
-3.73218
0
LINE
8
BLACK
6
CONTINUOUS
10
6.30976
20
-3.73218
11
6.3033
21
-3.73346
0
LINE
8
BLACK
6
CONTINUOUS
10
6.3033
20
-3.73346
11
6.2967
21
-3.73346
0
LINE
8
BLACK
6
CONTINUOUS
10
6.2967
20
-3.73346
11
6.29024
21
-3.73218
0
LINE
8
BLACK
6
CONTINUOUS
10
6.29024
20
-3.73218
11
6.28415
21
-3.72966
0
LINE
8
BLACK
6
CONTINUOUS
10
6.28415
20
-3.72966
11
6.27867
21
-3.72599
0
LINE
8
BLACK
6
CONTINUOUS
10
6.27867
20
-3.72599
11
6.27401
21
-3.72133
0
LINE
8
BLACK
6
CONTINUOUS
10
6.27401
20
-3.72133
11
6.27034
21
-3.71585
0
LINE
8
BLACK
6
CONTINUOUS
10
6.27034
20
-3.71585
11
6.26782
21
-3.70976
0
LINE
8
BLACK
6
CONTINUOUS
10
6.26782
20
-3.70976
11
6.26654
21
-3.7033
0
LINE
8
BLACK
6
CONTINUOUS
10
6.26654
20
-3.7033
11
6.26654
21
-3.6967
0
LINE
8
BLACK
6
CONTINUOUS
10
6.26654
20
-3.6967
11
6.26782
21
-3.69024
0
LINE
8
BLACK
6
CONTINUOUS
10
6.26782
20
-3.69024
11
6.27034
21
-3.68415
0
LINE
8
BLACK
6
CONTINUOUS
10
6.27034
20
-3.68415
11
6.27401
21
-3.67867
0
LINE
8
BLACK
6
CONTINUOUS
10
6.27401
20
-3.67867
11
6.27867
21
-3.67401
0
LINE
8
BLACK
6
CONTINUOUS
10
6.27867
20
-3.67401
11
6.28415
21
-3.67034
0
LINE
8
BLACK
6
CONTINUOUS
10
6.28415
20
-3.67034
11
6.29024
21
-3.66782
0
LINE
8
BLACK
6
CONTINUOUS
10
6.29024
20
-3.66782
11
6.2967
21
-3.66654
0
LINE
8
BLACK
6
CONTINUOUS
10
6.2967
20
-3.66654
11
6.3033
21
-3.66654
0
LINE
8
BLACK
6
CONTINUOUS
10
6.3033
20
-3.66654
11
6.30976
21
-3.66782
0
LINE
8
BLACK
6
CONTINUOUS
10
6.40976
20
-3.56782
11
6.41585
21
-3.57034
0
LINE
8
BLACK
6
CONTINUOUS
10
6.41585
20
-3.57034
11
6.42133
21
-3.57401
0
LINE
8
BLACK
6
CONTINUOUS
10
6.42133
20
-3.57401
11
6.42599
21
-3.57867
0
LINE
8
BLACK
6
CONTINUOUS
10
6.42599
20
-3.57867
11
6.42966
21
-3.58415
0
LINE
8
BLACK
6
CONTINUOUS
10
6.42966
20
-3.58415
11
6.43218
21
-3.59024
0
LINE
8
BLACK
6
CONTINUOUS
10
6.43218
20
-3.59024
11
6.43346
21
-3.5967
0
LINE
8
BLACK
6
CONTINUOUS
10
6.43346
20
-3.5967
11
6.43346
21
-3.6033
0
LINE
8
BLACK
6
CONTINUOUS
10
6.43346
20
-3.6033
11
6.43218
21
-3.60976
0
LINE
8
BLACK
6
CONTINUOUS
10
6.43218
20
-3.60976
11
6.42966
21
-3.61585
0
LINE
8
BLACK
6
CONTINUOUS
10
6.42966
20
-3.61585
11
6.42599
21
-3.62133
0
LINE
8
BLACK
6
CONTINUOUS
10
6.42599
20
-3.62133
11
6.42133
21
-3.62599
0
LINE
8
BLACK
6
CONTINUOUS
10
6.42133
20
-3.62599
11
6.41585
21
-3.62966
0
LINE
8
BLACK
6
CONTINUOUS
10
6.41585
20
-3.62966
11
6.40976
21
-3.63218
0
LINE
8
BLACK
6
CONTINUOUS
10
6.40976
20
-3.63218
11
6.40492
21
-3.63314
0
LINE
8
BLACK
6
CONTINUOUS
10
6.40492
20
-3.63314
11
6.40492
21
-3.66686
0
LINE
8
BLACK
6
CONTINUOUS
10
6.40492
20
-3.66686
11
6.40976
21
-3.66782
0
LINE
8
BLACK
6
CONTINUOUS
10
6.40976
20
-3.66782
11
6.41585
21
-3.67034
0
LINE
8
BLACK
6
CONTINUOUS
10
6.41585
20
-3.67034
11
6.42133
21
-3.67401
0
LINE
8
BLACK
6
CONTINUOUS
10
6.42133
20
-3.67401
11
6.42599
21
-3.67867
0
LINE
8
BLACK
6
CONTINUOUS
10
6.42599
20
-3.67867
11
6.42966
21
-3.68415
0
LINE
8
BLACK
6
CONTINUOUS
10
6.42966
20
-3.68415
11
6.43218
21
-3.69024
0
LINE
8
BLACK
6
CONTINUOUS
10
6.43218
20
-3.69024
11
6.43346
21
-3.6967
0
LINE
8
BLACK
6
CONTINUOUS
10
6.43346
20
-3.6967
11
6.43346
21
-3.7033
0
LINE
8
BLACK
6
CONTINUOUS
10
6.43346
20
-3.7033
11
6.43218
21
-3.70976
0
LINE
8
BLACK
6
CONTINUOUS
10
6.43218
20
-3.70976
11
6.42966
21
-3.71585
0
LINE
8
BLACK
6
CONTINUOUS
10
6.42966
20
-3.71585
11
6.42599
21
-3.72133
0
LINE
8
BLACK
6
CONTINUOUS
10
6.42599
20
-3.72133
11
6.42133
21
-3.72599
0
LINE
8
BLACK
6
CONTINUOUS
10
6.42133
20
-3.72599
11
6.41585
21
-3.72966
0
LINE
8
BLACK
6
CONTINUOUS
10
6.41585
20
-3.72966
11
6.40976
21
-3.73218
0
LINE
8
BLACK
6
CONTINUOUS
10
6.40976
20
-3.73218
11
6.4033
21
-3.73346
0
LINE
8
BLACK
6
CONTINUOUS
10
6.4033
20
-3.73346
11
6.3967
21
-3.73346
0
LINE
8
BLACK
6
CONTINUOUS
10
6.3967
20
-3.73346
11
6.39024
21
-3.73218
0
LINE
8
BLACK
6
CONTINUOUS
10
6.39024
20
-3.73218
11
6.38415
21
-3.72966
0
LINE
8
BLACK
6
CONTINUOUS
10
6.38415
20
-3.72966
11
6.37867
21
-3.72599
0
LINE
8
BLACK
6
CONTINUOUS
10
6.37867
20
-3.72599
11
6.37401
21
-3.72133
0
LINE
8
BLACK
6
CONTINUOUS
10
6.37401
20
-3.72133
11
6.37034
21
-3.71585
0
LINE
8
BLACK
6
CONTINUOUS
10
6.37034
20
-3.71585
11
6.36782
21
-3.70976
0
LINE
8
BLACK
6
CONTINUOUS
10
6.36782
20
-3.70976
11
6.36654
21
-3.7033
0
LINE
8
BLACK
6
CONTINUOUS
10
6.36654
20
-3.7033
11
6.36654
21
-3.6967
0
LINE
8
BLACK
6
CONTINUOUS
10
6.36654
20
-3.6967
11
6.36782
21
-3.69024
0
LINE
8
BLACK
6
CONTINUOUS
10
6.36782
20
-3.69024
11
6.37034
21
-3.68415
0
LINE
8
BLACK
6
CONTINUOUS
10
6.37034
20
-3.68415
11
6.37401
21
-3.67867
0
LINE
8
BLACK
6
CONTINUOUS
10
6.37401
20
-3.67867
11
6.37867
21
-3.67401
0
LINE
8
BLACK
6
CONTINUOUS
10
6.37867
20
-3.67401
11
6.38415
21
-3.67034
0
LINE
8
BLACK
6
CONTINUOUS
10
6.38415
20
-3.67034
11
6.39024
21
-3.66782
0
LINE
8
BLACK
6
CONTINUOUS
10
6.39024
20
-3.66782
11
6.39508
21
-3.66686
0
LINE
8
BLACK
6
CONTINUOUS
10
6.39508
20
-3.66686
11
6.39508
21
-3.63314
0
LINE
8
BLACK
6
CONTINUOUS
10
6.39508
20
-3.63314
11
6.39024
21
-3.63218
0
LINE
8
BLACK
6
CONTINUOUS
10
6.39024
20
-3.63218
11
6.38415
21
-3.62966
0
LINE
8
BLACK
6
CONTINUOUS
10
6.38415
20
-3.62966
11
6.37867
21
-3.62599
0
LINE
8
BLACK
6
CONTINUOUS
10
6.37867
20
-3.62599
11
6.37401
21
-3.62133
0
LINE
8
BLACK
6
CONTINUOUS
10
6.37401
20
-3.62133
11
6.37034
21
-3.61585
0
LINE
8
BLACK
6
CONTINUOUS
10
6.37034
20
-3.61585
11
6.36782
21
-3.60976
0
LINE
8
BLACK
6
CONTINUOUS
10
6.36782
20
-3.60976
11
6.36654
21
-3.6033
0
LINE
8
BLACK
6
CONTINUOUS
10
6.36654
20
-3.6033
11
6.36654
21
-3.5967
0
LINE
8
BLACK
6
CONTINUOUS
10
6.36654
20
-3.5967
11
6.36782
21
-3.59024
0
LINE
8
BLACK
6
CONTINUOUS
10
6.36782
20
-3.59024
11
6.37034
21
-3.58415
0
LINE
8
BLACK
6
CONTINUOUS
10
6.37034
20
-3.58415
11
6.37401
21
-3.57867
0
LINE
8
BLACK
6
CONTINUOUS
10
6.37401
20
-3.57867
11
6.37867
21
-3.57401
0
LINE
8
BLACK
6
CONTINUOUS
10
6.37867
20
-3.57401
11
6.38415
21
-3.57034
0
LINE
8
BLACK
6
CONTINUOUS
10
6.38415
20
-3.57034
11
6.39024
21
-3.56782
0
LINE
8
BLACK
6
CONTINUOUS
10
6.39024
20
-3.56782
11
6.3967
21
-3.56654
0
LINE
8
BLACK
6
CONTINUOUS
10
6.3967
20
-3.56654
11
6.4033
21
-3.56654
0
LINE
8
BLACK
6
CONTINUOUS
10
6.4033
20
-3.56654
11
6.40976
21
-3.56782
0
LINE
8
BLACK
6
CONTINUOUS
10
6.30976
20
-3.56782
11
6.31585
21
-3.57034
0
LINE
8
BLACK
6
CONTINUOUS
10
6.31585
20
-3.57034
11
6.32133
21
-3.57401
0
LINE
8
BLACK
6
CONTINUOUS
10
6.32133
20
-3.57401
11
6.32599
21
-3.57867
0
LINE
8
BLACK
6
CONTINUOUS
10
6.32599
20
-3.57867
11
6.32966
21
-3.58415
0
LINE
8
BLACK
6
CONTINUOUS
10
6.32966
20
-3.58415
11
6.33218
21
-3.59024
0
LINE
8
BLACK
6
CONTINUOUS
10
6.33218
20
-3.59024
11
6.33346
21
-3.5967
0
LINE
8
BLACK
6
CONTINUOUS
10
6.33346
20
-3.5967
11
6.33346
21
-3.6033
0
LINE
8
BLACK
6
CONTINUOUS
10
6.33346
20
-3.6033
11
6.33218
21
-3.60976
0
LINE
8
BLACK
6
CONTINUOUS
10
6.33218
20
-3.60976
11
6.32966
21
-3.61585
0
LINE
8
BLACK
6
CONTINUOUS
10
6.32966
20
-3.61585
11
6.32599
21
-3.62133
0
LINE
8
BLACK
6
CONTINUOUS
10
6.32599
20
-3.62133
11
6.32133
21
-3.62599
0
LINE
8
BLACK
6
CONTINUOUS
10
6.32133
20
-3.62599
11
6.31585
21
-3.62966
0
LINE
8
BLACK
6
CONTINUOUS
10
6.31585
20
-3.62966
11
6.30976
21
-3.63218
0
LINE
8
BLACK
6
CONTINUOUS
10
6.30976
20
-3.63218
11
6.3033
21
-3.63346
0
LINE
8
BLACK
6
CONTINUOUS
10
6.3033
20
-3.63346
11
6.2967
21
-3.63346
0
LINE
8
BLACK
6
CONTINUOUS
10
6.2967
20
-3.63346
11
6.29024
21
-3.63218
0
LINE
8
BLACK
6
CONTINUOUS
10
6.29024
20
-3.63218
11
6.28415
21
-3.62966
0
LINE
8
BLACK
6
CONTINUOUS
10
6.28415
20
-3.62966
11
6.27867
21
-3.62599
0
LINE
8
BLACK
6
CONTINUOUS
10
6.27867
20
-3.62599
11
6.27401
21
-3.62133
0
LINE
8
BLACK
6
CONTINUOUS
10
6.27401
20
-3.62133
11
6.27034
21
-3.61585
0
LINE
8
BLACK
6
CONTINUOUS
10
6.27034
20
-3.61585
11
6.26782
21
-3.60976
0
LINE
8
BLACK
6
CONTINUOUS
10
6.26782
20
-3.60976
11
6.26654
21
-3.6033
0
LINE
8
BLACK
6
CONTINUOUS
10
6.26654
20
-3.6033
11
6.26654
21
-3.5967
0
LINE
8
BLACK
6
CONTINUOUS
10
6.26654
20
-3.5967
11
6.26782
21
-3.59024
0
LINE
8
BLACK
6
CONTINUOUS
10
6.26782
20
-3.59024
11
6.27034
21
-3.58415
0
LINE
8
BLACK
6
CONTINUOUS
10
6.27034
20
-3.58415
11
6.27401
21
-3.57867
0
LINE
8
BLACK
6
CONTINUOUS
10
6.27401
20
-3.57867
11
6.27867
21
-3.57401
0
LINE
8
BLACK
6
CONTINUOUS
10
6.27867
20
-3.57401
11
6.28415
21
-3.57034
0
LINE
8
BLACK
6
CONTINUOUS
10
6.28415
20
-3.57034
11
6.29024
21
-3.56782
0
LINE
8
BLACK
6
CONTINUOUS
10
6.29024
20
-3.56782
11
6.2967
21
-3.56654
0
LINE
8
BLACK
6
CONTINUOUS
10
6.2967
20
-3.56654
11
6.3033
21
-3.56654
0
LINE
8
BLACK
6
CONTINUOUS
10
6.3033
20
-3.56654
11
6.30976
21
-3.56782
0
LINE
8
BLACK
6
CONTINUOUS
10
6.30976
20
-3.46782
11
6.31585
21
-3.47034
0
LINE
8
BLACK
6
CONTINUOUS
10
6.31585
20
-3.47034
11
6.32133
21
-3.47401
0
LINE
8
BLACK
6
CONTINUOUS
10
6.32133
20
-3.47401
11
6.32599
21
-3.47867
0
LINE
8
BLACK
6
CONTINUOUS
10
6.32599
20
-3.47867
11
6.32966
21
-3.48415
0
LINE
8
BLACK
6
CONTINUOUS
10
6.32966
20
-3.48415
11
6.33218
21
-3.49024
0
LINE
8
BLACK
6
CONTINUOUS
10
6.33218
20
-3.49024
11
6.33346
21
-3.4967
0
LINE
8
BLACK
6
CONTINUOUS
10
6.33346
20
-3.4967
11
6.33346
21
-3.5033
0
LINE
8
BLACK
6
CONTINUOUS
10
6.33346
20
-3.5033
11
6.33218
21
-3.50976
0
LINE
8
BLACK
6
CONTINUOUS
10
6.33218
20
-3.50976
11
6.32966
21
-3.51585
0
LINE
8
BLACK
6
CONTINUOUS
10
6.32966
20
-3.51585
11
6.32599
21
-3.52133
0
LINE
8
BLACK
6
CONTINUOUS
10
6.32599
20
-3.52133
11
6.32133
21
-3.52599
0
LINE
8
BLACK
6
CONTINUOUS
10
6.32133
20
-3.52599
11
6.31585
21
-3.52966
0
LINE
8
BLACK
6
CONTINUOUS
10
6.31585
20
-3.52966
11
6.30976
21
-3.53218
0
LINE
8
BLACK
6
CONTINUOUS
10
6.30976
20
-3.53218
11
6.3033
21
-3.53346
0
LINE
8
BLACK
6
CONTINUOUS
10
6.3033
20
-3.53346
11
6.2967
21
-3.53346
0
LINE
8
BLACK
6
CONTINUOUS
10
6.2967
20
-3.53346
11
6.29024
21
-3.53218
0
LINE
8
BLACK
6
CONTINUOUS
10
6.29024
20
-3.53218
11
6.28415
21
-3.52966
0
LINE
8
BLACK
6
CONTINUOUS
10
6.28415
20
-3.52966
11
6.27867
21
-3.52599
0
LINE
8
BLACK
6
CONTINUOUS
10
6.27867
20
-3.52599
11
6.27401
21
-3.52133
0
LINE
8
BLACK
6
CONTINUOUS
10
6.27401
20
-3.52133
11
6.27034
21
-3.51585
0
LINE
8
BLACK
6
CONTINUOUS
10
6.27034
20
-3.51585
11
6.26782
21
-3.50976
0
LINE
8
BLACK
6
CONTINUOUS
10
6.26782
20
-3.50976
11
6.26654
21
-3.5033
0
LINE
8
BLACK
6
CONTINUOUS
10
6.26654
20
-3.5033
11
6.26654
21
-3.4967
0
LINE
8
BLACK
6
CONTINUOUS
10
6.26654
20
-3.4967
11
6.26782
21
-3.49024
0
LINE
8
BLACK
6
CONTINUOUS
10
6.26782
20
-3.49024
11
6.27034
21
-3.48415
0
LINE
8
BLACK
6
CONTINUOUS
10
6.27034
20
-3.48415
11
6.27401
21
-3.47867
0
LINE
8
BLACK
6
CONTINUOUS
10
6.27401
20
-3.47867
11
6.27867
21
-3.47401
0
LINE
8
BLACK
6
CONTINUOUS
10
6.27867
20
-3.47401
11
6.28415
21
-3.47034
0
LINE
8
BLACK
6
CONTINUOUS
10
6.28415
20
-3.47034
11
6.29024
21
-3.46782
0
LINE
8
BLACK
6
CONTINUOUS
10
6.29024
20
-3.46782
11
6.2967
21
-3.46654
0
LINE
8
BLACK
6
CONTINUOUS
10
6.2967
20
-3.46654
11
6.3033
21
-3.46654
0
LINE
8
BLACK
6
CONTINUOUS
10
6.3033
20
-3.46654
11
6.30976
21
-3.46782
0
LINE
8
BLACK
6
CONTINUOUS
10
6.30976
20
-3.36782
11
6.31585
21
-3.37034
0
LINE
8
BLACK
6
CONTINUOUS
10
6.31585
20
-3.37034
11
6.32133
21
-3.37401
0
LINE
8
BLACK
6
CONTINUOUS
10
6.32133
20
-3.37401
11
6.32599
21
-3.37867
0
LINE
8
BLACK
6
CONTINUOUS
10
6.32599
20
-3.37867
11
6.32966
21
-3.38415
0
LINE
8
BLACK
6
CONTINUOUS
10
6.32966
20
-3.38415
11
6.33218
21
-3.39024
0
LINE
8
BLACK
6
CONTINUOUS
10
6.33218
20
-3.39024
11
6.33346
21
-3.3967
0
LINE
8
BLACK
6
CONTINUOUS
10
6.33346
20
-3.3967
11
6.33346
21
-3.4033
0
LINE
8
BLACK
6
CONTINUOUS
10
6.33346
20
-3.4033
11
6.33218
21
-3.40976
0
LINE
8
BLACK
6
CONTINUOUS
10
6.33218
20
-3.40976
11
6.32966
21
-3.41585
0
LINE
8
BLACK
6
CONTINUOUS
10
6.32966
20
-3.41585
11
6.32599
21
-3.42133
0
LINE
8
BLACK
6
CONTINUOUS
10
6.32599
20
-3.42133
11
6.32133
21
-3.42599
0
LINE
8
BLACK
6
CONTINUOUS
10
6.32133
20
-3.42599
11
6.31585
21
-3.42966
0
LINE
8
BLACK
6
CONTINUOUS
10
6.31585
20
-3.42966
11
6.30976
21
-3.43218
0
LINE
8
BLACK
6
CONTINUOUS
10
6.30976
20
-3.43218
11
6.3033
21
-3.43346
0
LINE
8
BLACK
6
CONTINUOUS
10
6.3033
20
-3.43346
11
6.2967
21
-3.43346
0
LINE
8
BLACK
6
CONTINUOUS
10
6.2967
20
-3.43346
11
6.29024
21
-3.43218
0
LINE
8
BLACK
6
CONTINUOUS
10
6.29024
20
-3.43218
11
6.28415
21
-3.42966
0
LINE
8
BLACK
6
CONTINUOUS
10
6.28415
20
-3.42966
11
6.27867
21
-3.42599
0
LINE
8
BLACK
6
CONTINUOUS
10
6.27867
20
-3.42599
11
6.27401
21
-3.42133
0
LINE
8
BLACK
6
CONTINUOUS
10
6.27401
20
-3.42133
11
6.27034
21
-3.41585
0
LINE
8
BLACK
6
CONTINUOUS
10
6.27034
20
-3.41585
11
6.26782
21
-3.40976
0
LINE
8
BLACK
6
CONTINUOUS
10
6.26782
20
-3.40976
11
6.26654
21
-3.4033
0
LINE
8
BLACK
6
CONTINUOUS
10
6.26654
20
-3.4033
11
6.26654
21
-3.3967
0
LINE
8
BLACK
6
CONTINUOUS
10
6.26654
20
-3.3967
11
6.26782
21
-3.39024
0
LINE
8
BLACK
6
CONTINUOUS
10
6.26782
20
-3.39024
11
6.27034
21
-3.38415
0
LINE
8
BLACK
6
CONTINUOUS
10
6.27034
20
-3.38415
11
6.27401
21
-3.37867
0
LINE
8
BLACK
6
CONTINUOUS
10
6.27401
20
-3.37867
11
6.27867
21
-3.37401
0
LINE
8
BLACK
6
CONTINUOUS
10
6.27867
20
-3.37401
11
6.28415
21
-3.37034
0
LINE
8
BLACK
6
CONTINUOUS
10
6.28415
20
-3.37034
11
6.29024
21
-3.36782
0
LINE
8
BLACK
6
CONTINUOUS
10
6.29024
20
-3.36782
11
6.2967
21
-3.36654
0
LINE
8
BLACK
6
CONTINUOUS
10
6.2967
20
-3.36654
11
6.3033
21
-3.36654
0
LINE
8
BLACK
6
CONTINUOUS
10
6.3033
20
-3.36654
11
6.30976
21
-3.36782
0
LINE
8
BLACK
6
CONTINUOUS
10
6.30976
20
-3.26782
11
6.31585
21
-3.27034
0
LINE
8
BLACK
6
CONTINUOUS
10
6.31585
20
-3.27034
11
6.32133
21
-3.27401
0
LINE
8
BLACK
6
CONTINUOUS
10
6.32133
20
-3.27401
11
6.32599
21
-3.27867
0
LINE
8
BLACK
6
CONTINUOUS
10
6.32599
20
-3.27867
11
6.32966
21
-3.28415
0
LINE
8
BLACK
6
CONTINUOUS
10
6.32966
20
-3.28415
11
6.33218
21
-3.29024
0
LINE
8
BLACK
6
CONTINUOUS
10
6.33218
20
-3.29024
11
6.33346
21
-3.2967
0
LINE
8
BLACK
6
CONTINUOUS
10
6.33346
20
-3.2967
11
6.33346
21
-3.3033
0
LINE
8
BLACK
6
CONTINUOUS
10
6.33346
20
-3.3033
11
6.33218
21
-3.30976
0
LINE
8
BLACK
6
CONTINUOUS
10
6.33218
20
-3.30976
11
6.32966
21
-3.31585
0
LINE
8
BLACK
6
CONTINUOUS
10
6.32966
20
-3.31585
11
6.32599
21
-3.32133
0
LINE
8
BLACK
6
CONTINUOUS
10
6.32599
20
-3.32133
11
6.32133
21
-3.32599
0
LINE
8
BLACK
6
CONTINUOUS
10
6.32133
20
-3.32599
11
6.31585
21
-3.32966
0
LINE
8
BLACK
6
CONTINUOUS
10
6.31585
20
-3.32966
11
6.30976
21
-3.33218
0
LINE
8
BLACK
6
CONTINUOUS
10
6.30976
20
-3.33218
11
6.3033
21
-3.33346
0
LINE
8
BLACK
6
CONTINUOUS
10
6.3033
20
-3.33346
11
6.2967
21
-3.33346
0
LINE
8
BLACK
6
CONTINUOUS
10
6.2967
20
-3.33346
11
6.29024
21
-3.33218
0
LINE
8
BLACK
6
CONTINUOUS
10
6.29024
20
-3.33218
11
6.28415
21
-3.32966
0
LINE
8
BLACK
6
CONTINUOUS
10
6.28415
20
-3.32966
11
6.27867
21
-3.32599
0
LINE
8
BLACK
6
CONTINUOUS
10
6.27867
20
-3.32599
11
6.27401
21
-3.32133
0
LINE
8
BLACK
6
CONTINUOUS
10
6.27401
20
-3.32133
11
6.27034
21
-3.31585
0
LINE
8
BLACK
6
CONTINUOUS
10
6.27034
20
-3.31585
11
6.26782
21
-3.30976
0
LINE
8
BLACK
6
CONTINUOUS
10
6.26782
20
-3.30976
11
6.26654
21
-3.3033
0
LINE
8
BLACK
6
CONTINUOUS
10
6.26654
20
-3.3033
11
6.26654
21
-3.2967
0
LINE
8
BLACK
6
CONTINUOUS
10
6.26654
20
-3.2967
11
6.26782
21
-3.29024
0
LINE
8
BLACK
6
CONTINUOUS
10
6.26782
20
-3.29024
11
6.27034
21
-3.28415
0
LINE
8
BLACK
6
CONTINUOUS
10
6.27034
20
-3.28415
11
6.27401
21
-3.27867
0
LINE
8
BLACK
6
CONTINUOUS
10
6.27401
20
-3.27867
11
6.27867
21
-3.27401
0
LINE
8
BLACK
6
CONTINUOUS
10
6.27867
20
-3.27401
11
6.28415
21
-3.27034
0
LINE
8
BLACK
6
CONTINUOUS
10
6.28415
20
-3.27034
11
6.29024
21
-3.26782
0
LINE
8
BLACK
6
CONTINUOUS
10
6.29024
20
-3.26782
11
6.2967
21
-3.26654
0
LINE
8
BLACK
6
CONTINUOUS
10
6.2967
20
-3.26654
11
6.3033
21
-3.26654
0
LINE
8
BLACK
6
CONTINUOUS
10
6.3033
20
-3.26654
11
6.30976
21
-3.26782
0
LINE
8
BLACK
6
CONTINUOUS
10
6.40976
20
-3.26782
11
6.41585
21
-3.27034
0
LINE
8
BLACK
6
CONTINUOUS
10
6.41585
20
-3.27034
11
6.42133
21
-3.27401
0
LINE
8
BLACK
6
CONTINUOUS
10
6.42133
20
-3.27401
11
6.42599
21
-3.27867
0
LINE
8
BLACK
6
CONTINUOUS
10
6.42599
20
-3.27867
11
6.42966
21
-3.28415
0
LINE
8
BLACK
6
CONTINUOUS
10
6.42966
20
-3.28415
11
6.43218
21
-3.29024
0
LINE
8
BLACK
6
CONTINUOUS
10
6.43218
20
-3.29024
11
6.43346
21
-3.2967
0
LINE
8
BLACK
6
CONTINUOUS
10
6.43346
20
-3.2967
11
6.43346
21
-3.3033
0
LINE
8
BLACK
6
CONTINUOUS
10
6.43346
20
-3.3033
11
6.43218
21
-3.30976
0
LINE
8
BLACK
6
CONTINUOUS
10
6.43218
20
-3.30976
11
6.42966
21
-3.31585
0
LINE
8
BLACK
6
CONTINUOUS
10
6.42966
20
-3.31585
11
6.42599
21
-3.32133
0
LINE
8
BLACK
6
CONTINUOUS
10
6.42599
20
-3.32133
11
6.42133
21
-3.32599
0
LINE
8
BLACK
6
CONTINUOUS
10
6.42133
20
-3.32599
11
6.41585
21
-3.32966
0
LINE
8
BLACK
6
CONTINUOUS
10
6.41585
20
-3.32966
11
6.40976
21
-3.33218
0
LINE
8
BLACK
6
CONTINUOUS
10
6.40976
20
-3.33218
11
6.4033
21
-3.33346
0
LINE
8
BLACK
6
CONTINUOUS
10
6.4033
20
-3.33346
11
6.3967
21
-3.33346
0
LINE
8
BLACK
6
CONTINUOUS
10
6.3967
20
-3.33346
11
6.39024
21
-3.33218
0
LINE
8
BLACK
6
CONTINUOUS
10
6.39024
20
-3.33218
11
6.38415
21
-3.32966
0
LINE
8
BLACK
6
CONTINUOUS
10
6.38415
20
-3.32966
11
6.37867
21
-3.32599
0
LINE
8
BLACK
6
CONTINUOUS
10
6.37867
20
-3.32599
11
6.37401
21
-3.32133
0
LINE
8
BLACK
6
CONTINUOUS
10
6.37401
20
-3.32133
11
6.37034
21
-3.31585
0
LINE
8
BLACK
6
CONTINUOUS
10
6.37034
20
-3.31585
11
6.36782
21
-3.30976
0
LINE
8
BLACK
6
CONTINUOUS
10
6.36782
20
-3.30976
11
6.36654
21
-3.3033
0
LINE
8
BLACK
6
CONTINUOUS
10
6.36654
20
-3.3033
11
6.36654
21
-3.2967
0
LINE
8
BLACK
6
CONTINUOUS
10
6.36654
20
-3.2967
11
6.36782
21
-3.29024
0
LINE
8
BLACK
6
CONTINUOUS
10
6.36782
20
-3.29024
11
6.37034
21
-3.28415
0
LINE
8
BLACK
6
CONTINUOUS
10
6.37034
20
-3.28415
11
6.37401
21
-3.27867
0
LINE
8
BLACK
6
CONTINUOUS
10
6.37401
20
-3.27867
11
6.37867
21
-3.27401
0
LINE
8
BLACK
6
CONTINUOUS
10
6.37867
20
-3.27401
11
6.38415
21
-3.27034
0
LINE
8
BLACK
6
CONTINUOUS
10
6.38415
20
-3.27034
11
6.39024
21
-3.26782
0
LINE
8
BLACK
6
CONTINUOUS
10
6.39024
20
-3.26782
11
6.3967
21
-3.26654
0
LINE
8
BLACK
6
CONTINUOUS
10
6.3967
20
-3.26654
11
6.4033
21
-3.26654
0
LINE
8
BLACK
6
CONTINUOUS
10
6.4033
20
-3.26654
11
6.40976
21
-3.26782
0
LINE
8
BLACK
6
CONTINUOUS
10
6.40976
20
-3.16782
11
6.41585
21
-3.17034
0
LINE
8
BLACK
6
CONTINUOUS
10
6.41585
20
-3.17034
11
6.42133
21
-3.17401
0
LINE
8
BLACK
6
CONTINUOUS
10
6.42133
20
-3.17401
11
6.42599
21
-3.17867
0
LINE
8
BLACK
6
CONTINUOUS
10
6.42599
20
-3.17867
11
6.42966
21
-3.18415
0
LINE
8
BLACK
6
CONTINUOUS
10
6.42966
20
-3.18415
11
6.43218
21
-3.19024
0
LINE
8
BLACK
6
CONTINUOUS
10
6.43218
20
-3.19024
11
6.43346
21
-3.1967
0
LINE
8
BLACK
6
CONTINUOUS
10
6.43346
20
-3.1967
11
6.43346
21
-3.2033
0
LINE
8
BLACK
6
CONTINUOUS
10
6.43346
20
-3.2033
11
6.43218
21
-3.20976
0
LINE
8
BLACK
6
CONTINUOUS
10
6.43218
20
-3.20976
11
6.42966
21
-3.21585
0
LINE
8
BLACK
6
CONTINUOUS
10
6.42966
20
-3.21585
11
6.42599
21
-3.22133
0
LINE
8
BLACK
6
CONTINUOUS
10
6.42599
20
-3.22133
11
6.42133
21
-3.22599
0
LINE
8
BLACK
6
CONTINUOUS
10
6.42133
20
-3.22599
11
6.41585
21
-3.22966
0
LINE
8
BLACK
6
CONTINUOUS
10
6.41585
20
-3.22966
11
6.40976
21
-3.23218
0
LINE
8
BLACK
6
CONTINUOUS
10
6.40976
20
-3.23218
11
6.4033
21
-3.23346
0
LINE
8
BLACK
6
CONTINUOUS
10
6.4033
20
-3.23346
11
6.3967
21
-3.23346
0
LINE
8
BLACK
6
CONTINUOUS
10
6.3967
20
-3.23346
11
6.39024
21
-3.23218
0
LINE
8
BLACK
6
CONTINUOUS
10
6.39024
20
-3.23218
11
6.38415
21
-3.22966
0
LINE
8
BLACK
6
CONTINUOUS
10
6.38415
20
-3.22966
11
6.37867
21
-3.22599
0
LINE
8
BLACK
6
CONTINUOUS
10
6.37867
20
-3.22599
11
6.37401
21
-3.22133
0
LINE
8
BLACK
6
CONTINUOUS
10
6.37401
20
-3.22133
11
6.37034
21
-3.21585
0
LINE
8
BLACK
6
CONTINUOUS
10
6.37034
20
-3.21585
11
6.36782
21
-3.20976
0
LINE
8
BLACK
6
CONTINUOUS
10
6.36782
20
-3.20976
11
6.36654
21
-3.2033
0
LINE
8
BLACK
6
CONTINUOUS
10
6.36654
20
-3.2033
11
6.36654
21
-3.1967
0
LINE
8
BLACK
6
CONTINUOUS
10
6.36654
20
-3.1967
11
6.36782
21
-3.19024
0
LINE
8
BLACK
6
CONTINUOUS
10
6.36782
20
-3.19024
11
6.37034
21
-3.18415
0
LINE
8
BLACK
6
CONTINUOUS
10
6.37034
20
-3.18415
11
6.37401
21
-3.17867
0
LINE
8
BLACK
6
CONTINUOUS
10
6.37401
20
-3.17867
11
6.37867
21
-3.17401
0
LINE
8
BLACK
6
CONTINUOUS
10
6.37867
20
-3.17401
11
6.38415
21
-3.17034
0
LINE
8
BLACK
6
CONTINUOUS
10
6.38415
20
-3.17034
11
6.39024
21
-3.16782
0
LINE
8
BLACK
6
CONTINUOUS
10
6.39024
20
-3.16782
11
6.3967
21
-3.16654
0
LINE
8
BLACK
6
CONTINUOUS
10
6.3967
20
-3.16654
11
6.4033
21
-3.16654
0
LINE
8
BLACK
6
CONTINUOUS
10
6.4033
20
-3.16654
11
6.40976
21
-3.16782
0
LINE
8
BLACK
6
CONTINUOUS
10
6.33346
20
-3.23346
11
6.26654
21
-3.23346
0
LINE
8
BLACK
6
CONTINUOUS
10
6.26654
20
-3.23346
11
6.26654
21
-3.16654
0
LINE
8
BLACK
6
CONTINUOUS
10
6.26654
20
-3.16654
11
6.33346
21
-3.16654
0
LINE
8
BLACK
6
CONTINUOUS
10
6.33346
20
-3.16654
11
6.33346
21
-3.23346
0
CIRCLE
8
BLACK
10
5.5
20
-3.45
40
0.00787402
0
CIRCLE
8
BLACK
10
5.7
20
-3.2
40
0.00787402
0
CIRCLE
8
BLACK
10
5.6
20
-3.2
40
0.00787402
0
CIRCLE
8
BLACK
10
5.3
20
-3.5
40
0.00787402
0
CIRCLE
8
BLACK
10
5.85
20
-3.6
40
0.00787402
0
CIRCLE
8
BLACK
10
6
20
-3.6
40
0.00787402
  0
ENDSEC
  0
EOF
