  0
SECTION
  2
HEADER
  9
$ANGBASE
  50
0.0
  9
$ANGDIR
  70
1
  9
$MEASUREMENT
  70
0
  0
ENDSEC
  0
SECTION
  2
TABLES
  0
TABLE
  2
LTYPE
  70
4
  0
LTYPE
  5
40F
  2
CONTINUOUS
  70
0
  3
Solid line
  72
65
  73
0
  40
0.0
  0
LTYPE
  5
410
  2
DASHDOT
 70
0
  3
Dash Dot ____ _ ____ _
 72
65
 73
4
 40
2.0
 49
1.25
 49
-0.25
 49
0.25
 49
-0.25
  0
LTYPE
  5
411
  2
DASHED
 70
0
  3
Dashed __ __ __ __ __
 72
65
 73
2
 40
0.75
 49
0.5
 49
-0.25
  0
LTYPE
  5
43B
  2
DOTTED
 70
0
  3
Dotted .  .  .  .
 72
65
 73
2
 40
0.2
 49
0.0
 49
-0.2
  0
ENDTAB
  0
TABLE
  2
STYLE
  70
4
  0
STYLE
  2
KICAD
  70
0
  40
0
  41
1
  42
1
  50
0
  71
0
  3
isocp.shx
  0
STYLE
  2
KICADB
  70
0
  40
0
  41
1
  42
1
  50
0
  71
0
  3
isocp.shx
  0
STYLE
  2
KICADI
  70
0
  40
0
  41
1
  42
1
  50
15
  71
0
  3
isocp.shx
  0
STYLE
  2
KICADBI
  70
0
  40
0
  41
1
  42
1
  50
15
  71
0
  3
isocp.shx
  0
ENDTAB
  0
TABLE
  2
LAYER
  70
1
  0
LAYER
  2
BLACK
  70
0
  62
7
  6
CONTINUOUS
  0
ENDTAB
  0
ENDSEC
  0
SECTION
  2
ENTITIES
0
LINE
8
BLACK
6
CONTINUOUS
10
4.91815
20
-3.71261
11
4.92284
21
-3.71455
0
LINE
8
BLACK
6
CONTINUOUS
10
4.92284
20
-3.71455
11
4.92284
21
-3.71455
0
LINE
8
BLACK
6
CONTINUOUS
10
4.92284
20
-3.71455
11
4.92707
21
-3.71737
0
LINE
8
BLACK
6
CONTINUOUS
10
4.92707
20
-3.71737
11
4.93066
21
-3.72096
0
LINE
8
BLACK
6
CONTINUOUS
10
4.93066
20
-3.72096
11
4.93176
21
-3.72261
0
LINE
8
BLACK
6
CONTINUOUS
10
4.93176
20
-3.72261
11
4.93348
21
-3.72519
0
LINE
8
BLACK
6
CONTINUOUS
10
4.93348
20
-3.72519
11
4.93543
21
-3.72988
0
LINE
8
BLACK
6
CONTINUOUS
10
4.93543
20
-3.72988
11
4.93642
21
-3.73486
0
LINE
8
BLACK
6
CONTINUOUS
10
4.93642
20
-3.73486
11
4.93642
21
-3.73994
0
LINE
8
BLACK
6
CONTINUOUS
10
4.93642
20
-3.73994
11
4.93543
21
-3.74492
0
LINE
8
BLACK
6
CONTINUOUS
10
4.93543
20
-3.74492
11
4.93348
21
-3.74962
0
LINE
8
BLACK
6
CONTINUOUS
10
4.93348
20
-3.74962
11
4.93348
21
-3.74962
0
LINE
8
BLACK
6
CONTINUOUS
10
4.93348
20
-3.74962
11
4.93066
21
-3.75384
0
LINE
8
BLACK
6
CONTINUOUS
10
4.93066
20
-3.75384
11
4.92707
21
-3.75743
0
LINE
8
BLACK
6
CONTINUOUS
10
4.92707
20
-3.75743
11
4.92284
21
-3.76025
0
LINE
8
BLACK
6
CONTINUOUS
10
4.92284
20
-3.76025
11
4.92284
21
-3.76025
0
LINE
8
BLACK
6
CONTINUOUS
10
4.92284
20
-3.76025
11
4.92284
21
-3.76025
0
LINE
8
BLACK
6
CONTINUOUS
10
4.92284
20
-3.76025
11
4.91815
21
-3.7622
0
LINE
8
BLACK
6
CONTINUOUS
10
4.91815
20
-3.7622
11
4.91317
21
-3.76319
0
LINE
8
BLACK
6
CONTINUOUS
10
4.91317
20
-3.76319
11
4.90809
21
-3.76319
0
LINE
8
BLACK
6
CONTINUOUS
10
4.90809
20
-3.76319
11
4.90311
21
-3.7622
0
LINE
8
BLACK
6
CONTINUOUS
10
4.90311
20
-3.7622
11
4.89842
21
-3.76025
0
LINE
8
BLACK
6
CONTINUOUS
10
4.89842
20
-3.76025
11
4.89842
21
-3.76025
0
LINE
8
BLACK
6
CONTINUOUS
10
4.89842
20
-3.76025
11
4.89841
21
-3.76025
0
LINE
8
BLACK
6
CONTINUOUS
10
4.89841
20
-3.76025
11
4.89419
21
-3.75743
0
LINE
8
BLACK
6
CONTINUOUS
10
4.89419
20
-3.75743
11
4.8906
21
-3.75384
0
LINE
8
BLACK
6
CONTINUOUS
10
4.8906
20
-3.75384
11
4.88778
21
-3.74962
0
LINE
8
BLACK
6
CONTINUOUS
10
4.88778
20
-3.74962
11
4.88778
21
-3.74962
0
LINE
8
BLACK
6
CONTINUOUS
10
4.88778
20
-3.74962
11
4.88583
21
-3.74492
0
LINE
8
BLACK
6
CONTINUOUS
10
4.88583
20
-3.74492
11
4.88484
21
-3.73994
0
LINE
8
BLACK
6
CONTINUOUS
10
4.88484
20
-3.73994
11
4.88484
21
-3.73486
0
LINE
8
BLACK
6
CONTINUOUS
10
4.88484
20
-3.73486
11
4.88583
21
-3.72988
0
LINE
8
BLACK
6
CONTINUOUS
10
4.88583
20
-3.72988
11
4.88778
21
-3.72519
0
LINE
8
BLACK
6
CONTINUOUS
10
4.88778
20
-3.72519
11
4.8895
21
-3.72261
0
LINE
8
BLACK
6
CONTINUOUS
10
4.8895
20
-3.72261
11
4.8906
21
-3.72096
0
LINE
8
BLACK
6
CONTINUOUS
10
4.8906
20
-3.72096
11
4.89419
21
-3.71737
0
LINE
8
BLACK
6
CONTINUOUS
10
4.89419
20
-3.71737
11
4.89841
21
-3.71455
0
LINE
8
BLACK
6
CONTINUOUS
10
4.89841
20
-3.71455
11
4.89842
21
-3.71455
0
LINE
8
BLACK
6
CONTINUOUS
10
4.89842
20
-3.71455
11
4.90311
21
-3.71261
0
LINE
8
BLACK
6
CONTINUOUS
10
4.90311
20
-3.71261
11
4.90809
21
-3.71161
0
LINE
8
BLACK
6
CONTINUOUS
10
4.90809
20
-3.71161
11
4.91317
21
-3.71161
0
LINE
8
BLACK
6
CONTINUOUS
10
4.91317
20
-3.71161
11
4.91815
21
-3.71261
0
LINE
8
BLACK
6
CONTINUOUS
10
6.17554
20
-3.66371
11
6.17697
21
-3.66415
0
LINE
8
BLACK
6
CONTINUOUS
10
6.17697
20
-3.66415
11
6.1783
21
-3.66486
0
LINE
8
BLACK
6
CONTINUOUS
10
6.1783
20
-3.66486
11
6.17946
21
-3.66581
0
LINE
8
BLACK
6
CONTINUOUS
10
6.17946
20
-3.66581
11
6.18042
21
-3.66698
0
LINE
8
BLACK
6
CONTINUOUS
10
6.18042
20
-3.66698
11
6.18112
21
-3.6683
0
LINE
8
BLACK
6
CONTINUOUS
10
6.18112
20
-3.6683
11
6.18156
21
-3.66974
0
LINE
8
BLACK
6
CONTINUOUS
10
6.18156
20
-3.66974
11
6.18173
21
-3.67148
0
LINE
8
BLACK
6
CONTINUOUS
10
6.18173
20
-3.67148
11
6.18173
21
-3.72852
0
LINE
8
BLACK
6
CONTINUOUS
10
6.18173
20
-3.72852
11
6.18156
21
-3.73026
0
LINE
8
BLACK
6
CONTINUOUS
10
6.18156
20
-3.73026
11
6.18112
21
-3.7317
0
LINE
8
BLACK
6
CONTINUOUS
10
6.18112
20
-3.7317
11
6.18042
21
-3.73302
0
LINE
8
BLACK
6
CONTINUOUS
10
6.18042
20
-3.73302
11
6.17946
21
-3.73419
0
LINE
8
BLACK
6
CONTINUOUS
10
6.17946
20
-3.73419
11
6.1783
21
-3.73514
0
LINE
8
BLACK
6
CONTINUOUS
10
6.1783
20
-3.73514
11
6.17697
21
-3.73585
0
LINE
8
BLACK
6
CONTINUOUS
10
6.17697
20
-3.73585
11
6.17554
21
-3.73629
0
LINE
8
BLACK
6
CONTINUOUS
10
6.17554
20
-3.73629
11
6.1738
21
-3.73646
0
LINE
8
BLACK
6
CONTINUOUS
10
6.1738
20
-3.73646
11
6.13644
21
-3.73646
0
LINE
8
BLACK
6
CONTINUOUS
10
6.13644
20
-3.73646
11
6.1347
21
-3.73629
0
LINE
8
BLACK
6
CONTINUOUS
10
6.1347
20
-3.73629
11
6.13326
21
-3.73585
0
LINE
8
BLACK
6
CONTINUOUS
10
6.13326
20
-3.73585
11
6.13194
21
-3.73514
0
LINE
8
BLACK
6
CONTINUOUS
10
6.13194
20
-3.73514
11
6.13077
21
-3.73419
0
LINE
8
BLACK
6
CONTINUOUS
10
6.13077
20
-3.73419
11
6.12982
21
-3.73302
0
LINE
8
BLACK
6
CONTINUOUS
10
6.12982
20
-3.73302
11
6.12911
21
-3.7317
0
LINE
8
BLACK
6
CONTINUOUS
10
6.12911
20
-3.7317
11
6.12868
21
-3.73026
0
LINE
8
BLACK
6
CONTINUOUS
10
6.12868
20
-3.73026
11
6.1285
21
-3.72852
0
LINE
8
BLACK
6
CONTINUOUS
10
6.1285
20
-3.72852
11
6.1285
21
-3.67148
0
LINE
8
BLACK
6
CONTINUOUS
10
6.1285
20
-3.67148
11
6.12868
21
-3.66974
0
LINE
8
BLACK
6
CONTINUOUS
10
6.12868
20
-3.66974
11
6.12911
21
-3.6683
0
LINE
8
BLACK
6
CONTINUOUS
10
6.12911
20
-3.6683
11
6.12982
21
-3.66698
0
LINE
8
BLACK
6
CONTINUOUS
10
6.12982
20
-3.66698
11
6.13077
21
-3.66581
0
LINE
8
BLACK
6
CONTINUOUS
10
6.13077
20
-3.66581
11
6.13194
21
-3.66486
0
LINE
8
BLACK
6
CONTINUOUS
10
6.13194
20
-3.66486
11
6.13326
21
-3.66415
0
LINE
8
BLACK
6
CONTINUOUS
10
6.13326
20
-3.66415
11
6.1347
21
-3.66371
0
LINE
8
BLACK
6
CONTINUOUS
10
6.1347
20
-3.66371
11
6.13644
21
-3.66354
0
LINE
8
BLACK
6
CONTINUOUS
10
6.13644
20
-3.66354
11
6.1738
21
-3.66354
0
LINE
8
BLACK
6
CONTINUOUS
10
6.1738
20
-3.66354
11
6.17554
21
-3.66371
0
LINE
8
BLACK
6
CONTINUOUS
10
6.0653
20
-3.66371
11
6.06674
21
-3.66415
0
LINE
8
BLACK
6
CONTINUOUS
10
6.06674
20
-3.66415
11
6.06806
21
-3.66486
0
LINE
8
BLACK
6
CONTINUOUS
10
6.06806
20
-3.66486
11
6.06923
21
-3.66581
0
LINE
8
BLACK
6
CONTINUOUS
10
6.06923
20
-3.66581
11
6.07018
21
-3.66698
0
LINE
8
BLACK
6
CONTINUOUS
10
6.07018
20
-3.66698
11
6.07089
21
-3.6683
0
LINE
8
BLACK
6
CONTINUOUS
10
6.07089
20
-3.6683
11
6.07132
21
-3.66974
0
LINE
8
BLACK
6
CONTINUOUS
10
6.07132
20
-3.66974
11
6.0715
21
-3.67148
0
LINE
8
BLACK
6
CONTINUOUS
10
6.0715
20
-3.67148
11
6.0715
21
-3.72852
0
LINE
8
BLACK
6
CONTINUOUS
10
6.0715
20
-3.72852
11
6.07132
21
-3.73026
0
LINE
8
BLACK
6
CONTINUOUS
10
6.07132
20
-3.73026
11
6.07089
21
-3.7317
0
LINE
8
BLACK
6
CONTINUOUS
10
6.07089
20
-3.7317
11
6.07018
21
-3.73302
0
LINE
8
BLACK
6
CONTINUOUS
10
6.07018
20
-3.73302
11
6.06923
21
-3.73419
0
LINE
8
BLACK
6
CONTINUOUS
10
6.06923
20
-3.73419
11
6.06806
21
-3.73514
0
LINE
8
BLACK
6
CONTINUOUS
10
6.06806
20
-3.73514
11
6.06674
21
-3.73585
0
LINE
8
BLACK
6
CONTINUOUS
10
6.06674
20
-3.73585
11
6.0653
21
-3.73629
0
LINE
8
BLACK
6
CONTINUOUS
10
6.0653
20
-3.73629
11
6.06356
21
-3.73646
0
LINE
8
BLACK
6
CONTINUOUS
10
6.06356
20
-3.73646
11
6.0262
21
-3.73646
0
LINE
8
BLACK
6
CONTINUOUS
10
6.0262
20
-3.73646
11
6.02446
21
-3.73629
0
LINE
8
BLACK
6
CONTINUOUS
10
6.02446
20
-3.73629
11
6.02303
21
-3.73585
0
LINE
8
BLACK
6
CONTINUOUS
10
6.02303
20
-3.73585
11
6.0217
21
-3.73514
0
LINE
8
BLACK
6
CONTINUOUS
10
6.0217
20
-3.73514
11
6.02054
21
-3.73419
0
LINE
8
BLACK
6
CONTINUOUS
10
6.02054
20
-3.73419
11
6.01958
21
-3.73302
0
LINE
8
BLACK
6
CONTINUOUS
10
6.01958
20
-3.73302
11
6.01888
21
-3.7317
0
LINE
8
BLACK
6
CONTINUOUS
10
6.01888
20
-3.7317
11
6.01844
21
-3.73026
0
LINE
8
BLACK
6
CONTINUOUS
10
6.01844
20
-3.73026
11
6.01827
21
-3.72852
0
LINE
8
BLACK
6
CONTINUOUS
10
6.01827
20
-3.72852
11
6.01827
21
-3.67148
0
LINE
8
BLACK
6
CONTINUOUS
10
6.01827
20
-3.67148
11
6.01844
21
-3.66974
0
LINE
8
BLACK
6
CONTINUOUS
10
6.01844
20
-3.66974
11
6.01888
21
-3.6683
0
LINE
8
BLACK
6
CONTINUOUS
10
6.01888
20
-3.6683
11
6.01958
21
-3.66698
0
LINE
8
BLACK
6
CONTINUOUS
10
6.01958
20
-3.66698
11
6.02054
21
-3.66581
0
LINE
8
BLACK
6
CONTINUOUS
10
6.02054
20
-3.66581
11
6.0217
21
-3.66486
0
LINE
8
BLACK
6
CONTINUOUS
10
6.0217
20
-3.66486
11
6.02303
21
-3.66415
0
LINE
8
BLACK
6
CONTINUOUS
10
6.02303
20
-3.66415
11
6.02446
21
-3.66371
0
LINE
8
BLACK
6
CONTINUOUS
10
6.02446
20
-3.66371
11
6.0262
21
-3.66354
0
LINE
8
BLACK
6
CONTINUOUS
10
6.0262
20
-3.66354
11
6.06356
21
-3.66354
0
LINE
8
BLACK
6
CONTINUOUS
10
6.06356
20
-3.66354
11
6.0653
21
-3.66371
0
LINE
8
BLACK
6
CONTINUOUS
10
6.40447
20
-3.66472
11
6.41035
21
-3.66589
0
LINE
8
BLACK
6
CONTINUOUS
10
6.41035
20
-3.66589
11
6.4168
21
-3.66856
0
LINE
8
BLACK
6
CONTINUOUS
10
6.4168
20
-3.66856
11
6.42261
21
-3.67245
0
LINE
8
BLACK
6
CONTINUOUS
10
6.42261
20
-3.67245
11
6.42755
21
-3.67739
0
LINE
8
BLACK
6
CONTINUOUS
10
6.42755
20
-3.67739
11
6.43144
21
-3.6832
0
LINE
8
BLACK
6
CONTINUOUS
10
6.43144
20
-3.6832
11
6.43411
21
-3.68965
0
LINE
8
BLACK
6
CONTINUOUS
10
6.43411
20
-3.68965
11
6.43547
21
-3.69651
0
LINE
8
BLACK
6
CONTINUOUS
10
6.43547
20
-3.69651
11
6.43547
21
-3.70349
0
LINE
8
BLACK
6
CONTINUOUS
10
6.43547
20
-3.70349
11
6.43411
21
-3.71035
0
LINE
8
BLACK
6
CONTINUOUS
10
6.43411
20
-3.71035
11
6.43144
21
-3.7168
0
LINE
8
BLACK
6
CONTINUOUS
10
6.43144
20
-3.7168
11
6.42755
21
-3.72261
0
LINE
8
BLACK
6
CONTINUOUS
10
6.42755
20
-3.72261
11
6.42261
21
-3.72755
0
LINE
8
BLACK
6
CONTINUOUS
10
6.42261
20
-3.72755
11
6.4168
21
-3.73144
0
LINE
8
BLACK
6
CONTINUOUS
10
6.4168
20
-3.73144
11
6.41035
21
-3.73411
0
LINE
8
BLACK
6
CONTINUOUS
10
6.41035
20
-3.73411
11
6.40447
21
-3.73528
0
LINE
8
BLACK
6
CONTINUOUS
10
6.40447
20
-3.73528
11
6.40349
21
-3.73547
0
LINE
8
BLACK
6
CONTINUOUS
10
6.40349
20
-3.73547
11
6.39651
21
-3.73547
0
LINE
8
BLACK
6
CONTINUOUS
10
6.39651
20
-3.73547
11
6.39553
21
-3.73528
0
LINE
8
BLACK
6
CONTINUOUS
10
6.39553
20
-3.73528
11
6.38965
21
-3.73411
0
LINE
8
BLACK
6
CONTINUOUS
10
6.38965
20
-3.73411
11
6.3832
21
-3.73144
0
LINE
8
BLACK
6
CONTINUOUS
10
6.3832
20
-3.73144
11
6.37739
21
-3.72755
0
LINE
8
BLACK
6
CONTINUOUS
10
6.37739
20
-3.72755
11
6.37245
21
-3.72261
0
LINE
8
BLACK
6
CONTINUOUS
10
6.37245
20
-3.72261
11
6.36856
21
-3.7168
0
LINE
8
BLACK
6
CONTINUOUS
10
6.36856
20
-3.7168
11
6.36589
21
-3.71035
0
LINE
8
BLACK
6
CONTINUOUS
10
6.36589
20
-3.71035
11
6.36453
21
-3.70349
0
LINE
8
BLACK
6
CONTINUOUS
10
6.36453
20
-3.70349
11
6.36453
21
-3.69651
0
LINE
8
BLACK
6
CONTINUOUS
10
6.36453
20
-3.69651
11
6.36589
21
-3.68965
0
LINE
8
BLACK
6
CONTINUOUS
10
6.36589
20
-3.68965
11
6.36856
21
-3.6832
0
LINE
8
BLACK
6
CONTINUOUS
10
6.36856
20
-3.6832
11
6.37245
21
-3.67739
0
LINE
8
BLACK
6
CONTINUOUS
10
6.37245
20
-3.67739
11
6.37739
21
-3.67245
0
LINE
8
BLACK
6
CONTINUOUS
10
6.37739
20
-3.67245
11
6.3832
21
-3.66856
0
LINE
8
BLACK
6
CONTINUOUS
10
6.3832
20
-3.66856
11
6.38965
21
-3.66589
0
LINE
8
BLACK
6
CONTINUOUS
10
6.38965
20
-3.66589
11
6.39553
21
-3.66472
0
LINE
8
BLACK
6
CONTINUOUS
10
6.39553
20
-3.66472
11
6.39651
21
-3.66453
0
LINE
8
BLACK
6
CONTINUOUS
10
6.39651
20
-3.66453
11
6.40349
21
-3.66453
0
LINE
8
BLACK
6
CONTINUOUS
10
6.40349
20
-3.66453
11
6.40447
21
-3.66472
0
LINE
8
BLACK
6
CONTINUOUS
10
6.30447
20
-3.66472
11
6.31035
21
-3.66589
0
LINE
8
BLACK
6
CONTINUOUS
10
6.31035
20
-3.66589
11
6.3168
21
-3.66856
0
LINE
8
BLACK
6
CONTINUOUS
10
6.3168
20
-3.66856
11
6.32261
21
-3.67245
0
LINE
8
BLACK
6
CONTINUOUS
10
6.32261
20
-3.67245
11
6.32755
21
-3.67739
0
LINE
8
BLACK
6
CONTINUOUS
10
6.32755
20
-3.67739
11
6.33144
21
-3.6832
0
LINE
8
BLACK
6
CONTINUOUS
10
6.33144
20
-3.6832
11
6.33411
21
-3.68965
0
LINE
8
BLACK
6
CONTINUOUS
10
6.33411
20
-3.68965
11
6.33547
21
-3.69651
0
LINE
8
BLACK
6
CONTINUOUS
10
6.33547
20
-3.69651
11
6.33547
21
-3.70349
0
LINE
8
BLACK
6
CONTINUOUS
10
6.33547
20
-3.70349
11
6.33411
21
-3.71035
0
LINE
8
BLACK
6
CONTINUOUS
10
6.33411
20
-3.71035
11
6.33144
21
-3.7168
0
LINE
8
BLACK
6
CONTINUOUS
10
6.33144
20
-3.7168
11
6.32755
21
-3.72261
0
LINE
8
BLACK
6
CONTINUOUS
10
6.32755
20
-3.72261
11
6.32261
21
-3.72755
0
LINE
8
BLACK
6
CONTINUOUS
10
6.32261
20
-3.72755
11
6.3168
21
-3.73144
0
LINE
8
BLACK
6
CONTINUOUS
10
6.3168
20
-3.73144
11
6.31035
21
-3.73411
0
LINE
8
BLACK
6
CONTINUOUS
10
6.31035
20
-3.73411
11
6.30447
21
-3.73528
0
LINE
8
BLACK
6
CONTINUOUS
10
6.30447
20
-3.73528
11
6.30349
21
-3.73547
0
LINE
8
BLACK
6
CONTINUOUS
10
6.30349
20
-3.73547
11
6.29651
21
-3.73547
0
LINE
8
BLACK
6
CONTINUOUS
10
6.29651
20
-3.73547
11
6.29553
21
-3.73528
0
LINE
8
BLACK
6
CONTINUOUS
10
6.29553
20
-3.73528
11
6.28965
21
-3.73411
0
LINE
8
BLACK
6
CONTINUOUS
10
6.28965
20
-3.73411
11
6.2832
21
-3.73144
0
LINE
8
BLACK
6
CONTINUOUS
10
6.2832
20
-3.73144
11
6.27739
21
-3.72755
0
LINE
8
BLACK
6
CONTINUOUS
10
6.27739
20
-3.72755
11
6.27245
21
-3.72261
0
LINE
8
BLACK
6
CONTINUOUS
10
6.27245
20
-3.72261
11
6.26856
21
-3.7168
0
LINE
8
BLACK
6
CONTINUOUS
10
6.26856
20
-3.7168
11
6.26589
21
-3.71035
0
LINE
8
BLACK
6
CONTINUOUS
10
6.26589
20
-3.71035
11
6.26453
21
-3.70349
0
LINE
8
BLACK
6
CONTINUOUS
10
6.26453
20
-3.70349
11
6.26453
21
-3.69651
0
LINE
8
BLACK
6
CONTINUOUS
10
6.26453
20
-3.69651
11
6.26589
21
-3.68965
0
LINE
8
BLACK
6
CONTINUOUS
10
6.26589
20
-3.68965
11
6.26856
21
-3.6832
0
LINE
8
BLACK
6
CONTINUOUS
10
6.26856
20
-3.6832
11
6.27245
21
-3.67739
0
LINE
8
BLACK
6
CONTINUOUS
10
6.27245
20
-3.67739
11
6.27739
21
-3.67245
0
LINE
8
BLACK
6
CONTINUOUS
10
6.27739
20
-3.67245
11
6.2832
21
-3.66856
0
LINE
8
BLACK
6
CONTINUOUS
10
6.2832
20
-3.66856
11
6.28965
21
-3.66589
0
LINE
8
BLACK
6
CONTINUOUS
10
6.28965
20
-3.66589
11
6.29553
21
-3.66472
0
LINE
8
BLACK
6
CONTINUOUS
10
6.29553
20
-3.66472
11
6.29651
21
-3.66453
0
LINE
8
BLACK
6
CONTINUOUS
10
6.29651
20
-3.66453
11
6.30349
21
-3.66453
0
LINE
8
BLACK
6
CONTINUOUS
10
6.30349
20
-3.66453
11
6.30447
21
-3.66472
0
LINE
8
BLACK
6
CONTINUOUS
10
4.91815
20
-3.6378
11
4.92284
21
-3.63975
0
LINE
8
BLACK
6
CONTINUOUS
10
4.92284
20
-3.63975
11
4.92284
21
-3.63975
0
LINE
8
BLACK
6
CONTINUOUS
10
4.92284
20
-3.63975
11
4.92707
21
-3.64257
0
LINE
8
BLACK
6
CONTINUOUS
10
4.92707
20
-3.64257
11
4.93066
21
-3.64616
0
LINE
8
BLACK
6
CONTINUOUS
10
4.93066
20
-3.64616
11
4.93348
21
-3.65038
0
LINE
8
BLACK
6
CONTINUOUS
10
4.93348
20
-3.65038
11
4.93348
21
-3.65038
0
LINE
8
BLACK
6
CONTINUOUS
10
4.93348
20
-3.65038
11
4.93543
21
-3.65508
0
LINE
8
BLACK
6
CONTINUOUS
10
4.93543
20
-3.65508
11
4.93642
21
-3.66006
0
LINE
8
BLACK
6
CONTINUOUS
10
4.93642
20
-3.66006
11
4.93642
21
-3.66514
0
LINE
8
BLACK
6
CONTINUOUS
10
4.93642
20
-3.66514
11
4.93543
21
-3.67012
0
LINE
8
BLACK
6
CONTINUOUS
10
4.93543
20
-3.67012
11
4.93446
21
-3.67245
0
LINE
8
BLACK
6
CONTINUOUS
10
4.93446
20
-3.67245
11
4.93348
21
-3.67481
0
LINE
8
BLACK
6
CONTINUOUS
10
4.93348
20
-3.67481
11
4.93066
21
-3.67904
0
LINE
8
BLACK
6
CONTINUOUS
10
4.93066
20
-3.67904
11
4.92707
21
-3.68263
0
LINE
8
BLACK
6
CONTINUOUS
10
4.92707
20
-3.68263
11
4.92284
21
-3.68545
0
LINE
8
BLACK
6
CONTINUOUS
10
4.92284
20
-3.68545
11
4.92284
21
-3.68545
0
LINE
8
BLACK
6
CONTINUOUS
10
4.92284
20
-3.68545
11
4.92284
21
-3.68545
0
LINE
8
BLACK
6
CONTINUOUS
10
4.92284
20
-3.68545
11
4.91815
21
-3.68739
0
LINE
8
BLACK
6
CONTINUOUS
10
4.91815
20
-3.68739
11
4.91317
21
-3.68839
0
LINE
8
BLACK
6
CONTINUOUS
10
4.91317
20
-3.68839
11
4.90809
21
-3.68839
0
LINE
8
BLACK
6
CONTINUOUS
10
4.90809
20
-3.68839
11
4.90311
21
-3.68739
0
LINE
8
BLACK
6
CONTINUOUS
10
4.90311
20
-3.68739
11
4.89842
21
-3.68545
0
LINE
8
BLACK
6
CONTINUOUS
10
4.89842
20
-3.68545
11
4.89842
21
-3.68545
0
LINE
8
BLACK
6
CONTINUOUS
10
4.89842
20
-3.68545
11
4.89841
21
-3.68545
0
LINE
8
BLACK
6
CONTINUOUS
10
4.89841
20
-3.68545
11
4.89419
21
-3.68263
0
LINE
8
BLACK
6
CONTINUOUS
10
4.89419
20
-3.68263
11
4.8906
21
-3.67904
0
LINE
8
BLACK
6
CONTINUOUS
10
4.8906
20
-3.67904
11
4.88778
21
-3.67481
0
LINE
8
BLACK
6
CONTINUOUS
10
4.88778
20
-3.67481
11
4.8868
21
-3.67245
0
LINE
8
BLACK
6
CONTINUOUS
10
4.8868
20
-3.67245
11
4.88583
21
-3.67012
0
LINE
8
BLACK
6
CONTINUOUS
10
4.88583
20
-3.67012
11
4.88484
21
-3.66514
0
LINE
8
BLACK
6
CONTINUOUS
10
4.88484
20
-3.66514
11
4.88484
21
-3.66006
0
LINE
8
BLACK
6
CONTINUOUS
10
4.88484
20
-3.66006
11
4.88583
21
-3.65508
0
LINE
8
BLACK
6
CONTINUOUS
10
4.88583
20
-3.65508
11
4.88778
21
-3.65038
0
LINE
8
BLACK
6
CONTINUOUS
10
4.88778
20
-3.65038
11
4.88778
21
-3.65038
0
LINE
8
BLACK
6
CONTINUOUS
10
4.88778
20
-3.65038
11
4.8906
21
-3.64616
0
LINE
8
BLACK
6
CONTINUOUS
10
4.8906
20
-3.64616
11
4.89419
21
-3.64257
0
LINE
8
BLACK
6
CONTINUOUS
10
4.89419
20
-3.64257
11
4.89841
21
-3.63975
0
LINE
8
BLACK
6
CONTINUOUS
10
4.89841
20
-3.63975
11
4.89842
21
-3.63975
0
LINE
8
BLACK
6
CONTINUOUS
10
4.89842
20
-3.63975
11
4.90311
21
-3.6378
0
LINE
8
BLACK
6
CONTINUOUS
10
4.90311
20
-3.6378
11
4.90809
21
-3.63681
0
LINE
8
BLACK
6
CONTINUOUS
10
4.90809
20
-3.63681
11
4.91317
21
-3.63681
0
LINE
8
BLACK
6
CONTINUOUS
10
4.91317
20
-3.63681
11
4.91815
21
-3.6378
0
LINE
8
BLACK
6
CONTINUOUS
10
5.82042
20
-3.56371
11
5.82186
21
-3.56415
0
LINE
8
BLACK
6
CONTINUOUS
10
5.82186
20
-3.56415
11
5.82318
21
-3.56486
0
LINE
8
BLACK
6
CONTINUOUS
10
5.82318
20
-3.56486
11
5.82434
21
-3.56581
0
LINE
8
BLACK
6
CONTINUOUS
10
5.82434
20
-3.56581
11
5.8253
21
-3.56698
0
LINE
8
BLACK
6
CONTINUOUS
10
5.8253
20
-3.56698
11
5.82601
21
-3.5683
0
LINE
8
BLACK
6
CONTINUOUS
10
5.82601
20
-3.5683
11
5.82644
21
-3.56974
0
LINE
8
BLACK
6
CONTINUOUS
10
5.82644
20
-3.56974
11
5.82661
21
-3.57148
0
LINE
8
BLACK
6
CONTINUOUS
10
5.82661
20
-3.57148
11
5.82661
21
-3.62852
0
LINE
8
BLACK
6
CONTINUOUS
10
5.82661
20
-3.62852
11
5.82644
21
-3.63026
0
LINE
8
BLACK
6
CONTINUOUS
10
5.82644
20
-3.63026
11
5.82601
21
-3.6317
0
LINE
8
BLACK
6
CONTINUOUS
10
5.82601
20
-3.6317
11
5.8253
21
-3.63302
0
LINE
8
BLACK
6
CONTINUOUS
10
5.8253
20
-3.63302
11
5.82434
21
-3.63419
0
LINE
8
BLACK
6
CONTINUOUS
10
5.82434
20
-3.63419
11
5.82318
21
-3.63514
0
LINE
8
BLACK
6
CONTINUOUS
10
5.82318
20
-3.63514
11
5.82186
21
-3.63585
0
LINE
8
BLACK
6
CONTINUOUS
10
5.82186
20
-3.63585
11
5.82042
21
-3.63629
0
LINE
8
BLACK
6
CONTINUOUS
10
5.82042
20
-3.63629
11
5.81868
21
-3.63646
0
LINE
8
BLACK
6
CONTINUOUS
10
5.81868
20
-3.63646
11
5.78132
21
-3.63646
0
LINE
8
BLACK
6
CONTINUOUS
10
5.78132
20
-3.63646
11
5.77958
21
-3.63629
0
LINE
8
BLACK
6
CONTINUOUS
10
5.77958
20
-3.63629
11
5.77814
21
-3.63585
0
LINE
8
BLACK
6
CONTINUOUS
10
5.77814
20
-3.63585
11
5.77682
21
-3.63514
0
LINE
8
BLACK
6
CONTINUOUS
10
5.77682
20
-3.63514
11
5.77566
21
-3.63419
0
LINE
8
BLACK
6
CONTINUOUS
10
5.77566
20
-3.63419
11
5.7747
21
-3.63302
0
LINE
8
BLACK
6
CONTINUOUS
10
5.7747
20
-3.63302
11
5.77399
21
-3.6317
0
LINE
8
BLACK
6
CONTINUOUS
10
5.77399
20
-3.6317
11
5.77356
21
-3.63026
0
LINE
8
BLACK
6
CONTINUOUS
10
5.77356
20
-3.63026
11
5.77339
21
-3.62852
0
LINE
8
BLACK
6
CONTINUOUS
10
5.77339
20
-3.62852
11
5.77339
21
-3.57148
0
LINE
8
BLACK
6
CONTINUOUS
10
5.77339
20
-3.57148
11
5.77356
21
-3.56974
0
LINE
8
BLACK
6
CONTINUOUS
10
5.77356
20
-3.56974
11
5.77399
21
-3.5683
0
LINE
8
BLACK
6
CONTINUOUS
10
5.77399
20
-3.5683
11
5.7747
21
-3.56698
0
LINE
8
BLACK
6
CONTINUOUS
10
5.7747
20
-3.56698
11
5.77566
21
-3.56581
0
LINE
8
BLACK
6
CONTINUOUS
10
5.77566
20
-3.56581
11
5.77682
21
-3.56486
0
LINE
8
BLACK
6
CONTINUOUS
10
5.77682
20
-3.56486
11
5.77814
21
-3.56415
0
LINE
8
BLACK
6
CONTINUOUS
10
5.77814
20
-3.56415
11
5.77958
21
-3.56371
0
LINE
8
BLACK
6
CONTINUOUS
10
5.77958
20
-3.56371
11
5.78132
21
-3.56354
0
LINE
8
BLACK
6
CONTINUOUS
10
5.78132
20
-3.56354
11
5.81868
21
-3.56354
0
LINE
8
BLACK
6
CONTINUOUS
10
5.81868
20
-3.56354
11
5.82042
21
-3.56371
0
LINE
8
BLACK
6
CONTINUOUS
10
5.71018
20
-3.56371
11
5.71162
21
-3.56415
0
LINE
8
BLACK
6
CONTINUOUS
10
5.71162
20
-3.56415
11
5.71295
21
-3.56486
0
LINE
8
BLACK
6
CONTINUOUS
10
5.71295
20
-3.56486
11
5.71411
21
-3.56581
0
LINE
8
BLACK
6
CONTINUOUS
10
5.71411
20
-3.56581
11
5.71506
21
-3.56698
0
LINE
8
BLACK
6
CONTINUOUS
10
5.71506
20
-3.56698
11
5.71577
21
-3.5683
0
LINE
8
BLACK
6
CONTINUOUS
10
5.71577
20
-3.5683
11
5.71621
21
-3.56974
0
LINE
8
BLACK
6
CONTINUOUS
10
5.71621
20
-3.56974
11
5.71638
21
-3.57148
0
LINE
8
BLACK
6
CONTINUOUS
10
5.71638
20
-3.57148
11
5.71638
21
-3.62852
0
LINE
8
BLACK
6
CONTINUOUS
10
5.71638
20
-3.62852
11
5.71621
21
-3.63026
0
LINE
8
BLACK
6
CONTINUOUS
10
5.71621
20
-3.63026
11
5.71577
21
-3.6317
0
LINE
8
BLACK
6
CONTINUOUS
10
5.71577
20
-3.6317
11
5.71506
21
-3.63302
0
LINE
8
BLACK
6
CONTINUOUS
10
5.71506
20
-3.63302
11
5.71411
21
-3.63419
0
LINE
8
BLACK
6
CONTINUOUS
10
5.71411
20
-3.63419
11
5.71295
21
-3.63514
0
LINE
8
BLACK
6
CONTINUOUS
10
5.71295
20
-3.63514
11
5.71162
21
-3.63585
0
LINE
8
BLACK
6
CONTINUOUS
10
5.71162
20
-3.63585
11
5.71018
21
-3.63629
0
LINE
8
BLACK
6
CONTINUOUS
10
5.71018
20
-3.63629
11
5.70844
21
-3.63646
0
LINE
8
BLACK
6
CONTINUOUS
10
5.70844
20
-3.63646
11
5.67108
21
-3.63646
0
LINE
8
BLACK
6
CONTINUOUS
10
5.67108
20
-3.63646
11
5.66935
21
-3.63629
0
LINE
8
BLACK
6
CONTINUOUS
10
5.66935
20
-3.63629
11
5.66791
21
-3.63585
0
LINE
8
BLACK
6
CONTINUOUS
10
5.66791
20
-3.63585
11
5.66658
21
-3.63514
0
LINE
8
BLACK
6
CONTINUOUS
10
5.66658
20
-3.63514
11
5.66542
21
-3.63419
0
LINE
8
BLACK
6
CONTINUOUS
10
5.66542
20
-3.63419
11
5.66447
21
-3.63302
0
LINE
8
BLACK
6
CONTINUOUS
10
5.66447
20
-3.63302
11
5.66376
21
-3.6317
0
LINE
8
BLACK
6
CONTINUOUS
10
5.66376
20
-3.6317
11
5.66332
21
-3.63026
0
LINE
8
BLACK
6
CONTINUOUS
10
5.66332
20
-3.63026
11
5.66315
21
-3.62852
0
LINE
8
BLACK
6
CONTINUOUS
10
5.66315
20
-3.62852
11
5.66315
21
-3.57148
0
LINE
8
BLACK
6
CONTINUOUS
10
5.66315
20
-3.57148
11
5.66332
21
-3.56974
0
LINE
8
BLACK
6
CONTINUOUS
10
5.66332
20
-3.56974
11
5.66376
21
-3.5683
0
LINE
8
BLACK
6
CONTINUOUS
10
5.66376
20
-3.5683
11
5.66447
21
-3.56698
0
LINE
8
BLACK
6
CONTINUOUS
10
5.66447
20
-3.56698
11
5.66542
21
-3.56581
0
LINE
8
BLACK
6
CONTINUOUS
10
5.66542
20
-3.56581
11
5.66658
21
-3.56486
0
LINE
8
BLACK
6
CONTINUOUS
10
5.66658
20
-3.56486
11
5.66791
21
-3.56415
0
LINE
8
BLACK
6
CONTINUOUS
10
5.66791
20
-3.56415
11
5.66935
21
-3.56371
0
LINE
8
BLACK
6
CONTINUOUS
10
5.66935
20
-3.56371
11
5.67108
21
-3.56354
0
LINE
8
BLACK
6
CONTINUOUS
10
5.67108
20
-3.56354
11
5.70844
21
-3.56354
0
LINE
8
BLACK
6
CONTINUOUS
10
5.70844
20
-3.56354
11
5.71018
21
-3.56371
0
LINE
8
BLACK
6
CONTINUOUS
10
6.30447
20
-3.56472
11
6.31035
21
-3.56589
0
LINE
8
BLACK
6
CONTINUOUS
10
6.31035
20
-3.56589
11
6.3168
21
-3.56856
0
LINE
8
BLACK
6
CONTINUOUS
10
6.3168
20
-3.56856
11
6.32261
21
-3.57245
0
LINE
8
BLACK
6
CONTINUOUS
10
6.32261
20
-3.57245
11
6.32755
21
-3.57739
0
LINE
8
BLACK
6
CONTINUOUS
10
6.32755
20
-3.57739
11
6.33144
21
-3.5832
0
LINE
8
BLACK
6
CONTINUOUS
10
6.33144
20
-3.5832
11
6.33411
21
-3.58965
0
LINE
8
BLACK
6
CONTINUOUS
10
6.33411
20
-3.58965
11
6.33547
21
-3.59651
0
LINE
8
BLACK
6
CONTINUOUS
10
6.33547
20
-3.59651
11
6.33547
21
-3.60349
0
LINE
8
BLACK
6
CONTINUOUS
10
6.33547
20
-3.60349
11
6.33411
21
-3.61035
0
LINE
8
BLACK
6
CONTINUOUS
10
6.33411
20
-3.61035
11
6.33144
21
-3.6168
0
LINE
8
BLACK
6
CONTINUOUS
10
6.33144
20
-3.6168
11
6.32755
21
-3.62261
0
LINE
8
BLACK
6
CONTINUOUS
10
6.32755
20
-3.62261
11
6.32261
21
-3.62755
0
LINE
8
BLACK
6
CONTINUOUS
10
6.32261
20
-3.62755
11
6.3168
21
-3.63144
0
LINE
8
BLACK
6
CONTINUOUS
10
6.3168
20
-3.63144
11
6.31035
21
-3.63411
0
LINE
8
BLACK
6
CONTINUOUS
10
6.31035
20
-3.63411
11
6.30447
21
-3.63528
0
LINE
8
BLACK
6
CONTINUOUS
10
6.30447
20
-3.63528
11
6.30349
21
-3.63547
0
LINE
8
BLACK
6
CONTINUOUS
10
6.30349
20
-3.63547
11
6.29651
21
-3.63547
0
LINE
8
BLACK
6
CONTINUOUS
10
6.29651
20
-3.63547
11
6.29553
21
-3.63528
0
LINE
8
BLACK
6
CONTINUOUS
10
6.29553
20
-3.63528
11
6.28965
21
-3.63411
0
LINE
8
BLACK
6
CONTINUOUS
10
6.28965
20
-3.63411
11
6.2832
21
-3.63144
0
LINE
8
BLACK
6
CONTINUOUS
10
6.2832
20
-3.63144
11
6.27739
21
-3.62755
0
LINE
8
BLACK
6
CONTINUOUS
10
6.27739
20
-3.62755
11
6.27245
21
-3.62261
0
LINE
8
BLACK
6
CONTINUOUS
10
6.27245
20
-3.62261
11
6.26856
21
-3.6168
0
LINE
8
BLACK
6
CONTINUOUS
10
6.26856
20
-3.6168
11
6.26589
21
-3.61035
0
LINE
8
BLACK
6
CONTINUOUS
10
6.26589
20
-3.61035
11
6.26453
21
-3.60349
0
LINE
8
BLACK
6
CONTINUOUS
10
6.26453
20
-3.60349
11
6.26453
21
-3.59651
0
LINE
8
BLACK
6
CONTINUOUS
10
6.26453
20
-3.59651
11
6.26589
21
-3.58965
0
LINE
8
BLACK
6
CONTINUOUS
10
6.26589
20
-3.58965
11
6.26856
21
-3.5832
0
LINE
8
BLACK
6
CONTINUOUS
10
6.26856
20
-3.5832
11
6.27245
21
-3.57739
0
LINE
8
BLACK
6
CONTINUOUS
10
6.27245
20
-3.57739
11
6.27739
21
-3.57245
0
LINE
8
BLACK
6
CONTINUOUS
10
6.27739
20
-3.57245
11
6.2832
21
-3.56856
0
LINE
8
BLACK
6
CONTINUOUS
10
6.2832
20
-3.56856
11
6.28965
21
-3.56589
0
LINE
8
BLACK
6
CONTINUOUS
10
6.28965
20
-3.56589
11
6.29553
21
-3.56472
0
LINE
8
BLACK
6
CONTINUOUS
10
6.29553
20
-3.56472
11
6.29651
21
-3.56453
0
LINE
8
BLACK
6
CONTINUOUS
10
6.29651
20
-3.56453
11
6.30349
21
-3.56453
0
LINE
8
BLACK
6
CONTINUOUS
10
6.30349
20
-3.56453
11
6.30447
21
-3.56472
0
LINE
8
BLACK
6
CONTINUOUS
10
6.40447
20
-3.56472
11
6.41035
21
-3.56589
0
LINE
8
BLACK
6
CONTINUOUS
10
6.41035
20
-3.56589
11
6.4168
21
-3.56856
0
LINE
8
BLACK
6
CONTINUOUS
10
6.4168
20
-3.56856
11
6.42261
21
-3.57245
0
LINE
8
BLACK
6
CONTINUOUS
10
6.42261
20
-3.57245
11
6.42755
21
-3.57739
0
LINE
8
BLACK
6
CONTINUOUS
10
6.42755
20
-3.57739
11
6.43144
21
-3.5832
0
LINE
8
BLACK
6
CONTINUOUS
10
6.43144
20
-3.5832
11
6.43411
21
-3.58965
0
LINE
8
BLACK
6
CONTINUOUS
10
6.43411
20
-3.58965
11
6.43547
21
-3.59651
0
LINE
8
BLACK
6
CONTINUOUS
10
6.43547
20
-3.59651
11
6.43547
21
-3.60349
0
LINE
8
BLACK
6
CONTINUOUS
10
6.43547
20
-3.60349
11
6.43411
21
-3.61035
0
LINE
8
BLACK
6
CONTINUOUS
10
6.43411
20
-3.61035
11
6.43144
21
-3.6168
0
LINE
8
BLACK
6
CONTINUOUS
10
6.43144
20
-3.6168
11
6.42755
21
-3.62261
0
LINE
8
BLACK
6
CONTINUOUS
10
6.42755
20
-3.62261
11
6.42261
21
-3.62755
0
LINE
8
BLACK
6
CONTINUOUS
10
6.42261
20
-3.62755
11
6.4168
21
-3.63144
0
LINE
8
BLACK
6
CONTINUOUS
10
6.4168
20
-3.63144
11
6.41035
21
-3.63411
0
LINE
8
BLACK
6
CONTINUOUS
10
6.41035
20
-3.63411
11
6.40447
21
-3.63528
0
LINE
8
BLACK
6
CONTINUOUS
10
6.40447
20
-3.63528
11
6.40349
21
-3.63547
0
LINE
8
BLACK
6
CONTINUOUS
10
6.40349
20
-3.63547
11
6.39651
21
-3.63547
0
LINE
8
BLACK
6
CONTINUOUS
10
6.39651
20
-3.63547
11
6.39553
21
-3.63528
0
LINE
8
BLACK
6
CONTINUOUS
10
6.39553
20
-3.63528
11
6.38965
21
-3.63411
0
LINE
8
BLACK
6
CONTINUOUS
10
6.38965
20
-3.63411
11
6.3832
21
-3.63144
0
LINE
8
BLACK
6
CONTINUOUS
10
6.3832
20
-3.63144
11
6.37739
21
-3.62755
0
LINE
8
BLACK
6
CONTINUOUS
10
6.37739
20
-3.62755
11
6.37245
21
-3.62261
0
LINE
8
BLACK
6
CONTINUOUS
10
6.37245
20
-3.62261
11
6.36856
21
-3.6168
0
LINE
8
BLACK
6
CONTINUOUS
10
6.36856
20
-3.6168
11
6.36589
21
-3.61035
0
LINE
8
BLACK
6
CONTINUOUS
10
6.36589
20
-3.61035
11
6.36453
21
-3.60349
0
LINE
8
BLACK
6
CONTINUOUS
10
6.36453
20
-3.60349
11
6.36453
21
-3.59651
0
LINE
8
BLACK
6
CONTINUOUS
10
6.36453
20
-3.59651
11
6.36589
21
-3.58965
0
LINE
8
BLACK
6
CONTINUOUS
10
6.36589
20
-3.58965
11
6.36856
21
-3.5832
0
LINE
8
BLACK
6
CONTINUOUS
10
6.36856
20
-3.5832
11
6.37245
21
-3.57739
0
LINE
8
BLACK
6
CONTINUOUS
10
6.37245
20
-3.57739
11
6.37739
21
-3.57245
0
LINE
8
BLACK
6
CONTINUOUS
10
6.37739
20
-3.57245
11
6.3832
21
-3.56856
0
LINE
8
BLACK
6
CONTINUOUS
10
6.3832
20
-3.56856
11
6.38965
21
-3.56589
0
LINE
8
BLACK
6
CONTINUOUS
10
6.38965
20
-3.56589
11
6.39553
21
-3.56472
0
LINE
8
BLACK
6
CONTINUOUS
10
6.39553
20
-3.56472
11
6.39651
21
-3.56453
0
LINE
8
BLACK
6
CONTINUOUS
10
6.39651
20
-3.56453
11
6.40349
21
-3.56453
0
LINE
8
BLACK
6
CONTINUOUS
10
6.40349
20
-3.56453
11
6.40447
21
-3.56472
0
LINE
8
BLACK
6
CONTINUOUS
10
5.43937
20
-3.51129
11
5.4402
21
-3.51154
0
LINE
8
BLACK
6
CONTINUOUS
10
5.4402
20
-3.51154
11
5.44096
21
-3.51195
0
LINE
8
BLACK
6
CONTINUOUS
10
5.44096
20
-3.51195
11
5.44163
21
-3.5125
0
LINE
8
BLACK
6
CONTINUOUS
10
5.44163
20
-3.5125
11
5.44218
21
-3.51317
0
LINE
8
BLACK
6
CONTINUOUS
10
5.44218
20
-3.51317
11
5.44259
21
-3.51394
0
LINE
8
BLACK
6
CONTINUOUS
10
5.44259
20
-3.51394
11
5.44284
21
-3.51477
0
LINE
8
BLACK
6
CONTINUOUS
10
5.44284
20
-3.51477
11
5.44295
21
-3.51587
0
LINE
8
BLACK
6
CONTINUOUS
10
5.44295
20
-3.51587
11
5.44295
21
-3.53413
0
LINE
8
BLACK
6
CONTINUOUS
10
5.44295
20
-3.53413
11
5.44284
21
-3.53523
0
LINE
8
BLACK
6
CONTINUOUS
10
5.44284
20
-3.53523
11
5.44259
21
-3.53606
0
LINE
8
BLACK
6
CONTINUOUS
10
5.44259
20
-3.53606
11
5.44218
21
-3.53683
0
LINE
8
BLACK
6
CONTINUOUS
10
5.44218
20
-3.53683
11
5.44163
21
-3.5375
0
LINE
8
BLACK
6
CONTINUOUS
10
5.44163
20
-3.5375
11
5.44096
21
-3.53805
0
LINE
8
BLACK
6
CONTINUOUS
10
5.44096
20
-3.53805
11
5.4402
21
-3.53846
0
LINE
8
BLACK
6
CONTINUOUS
10
5.4402
20
-3.53846
11
5.43937
21
-3.53871
0
LINE
8
BLACK
6
CONTINUOUS
10
5.43937
20
-3.53871
11
5.43826
21
-3.53882
0
LINE
8
BLACK
6
CONTINUOUS
10
5.43826
20
-3.53882
11
5.36686
21
-3.53882
0
LINE
8
BLACK
6
CONTINUOUS
10
5.36686
20
-3.53882
11
5.36575
21
-3.53871
0
LINE
8
BLACK
6
CONTINUOUS
10
5.36575
20
-3.53871
11
5.36492
21
-3.53846
0
LINE
8
BLACK
6
CONTINUOUS
10
5.36492
20
-3.53846
11
5.36416
21
-3.53805
0
LINE
8
BLACK
6
CONTINUOUS
10
5.36416
20
-3.53805
11
5.36349
21
-3.5375
0
LINE
8
BLACK
6
CONTINUOUS
10
5.36349
20
-3.5375
11
5.36293
21
-3.53683
0
LINE
8
BLACK
6
CONTINUOUS
10
5.36293
20
-3.53683
11
5.36253
21
-3.53606
0
LINE
8
BLACK
6
CONTINUOUS
10
5.36253
20
-3.53606
11
5.36227
21
-3.53523
0
LINE
8
BLACK
6
CONTINUOUS
10
5.36227
20
-3.53523
11
5.36217
21
-3.53413
0
LINE
8
BLACK
6
CONTINUOUS
10
5.36217
20
-3.53413
11
5.36217
21
-3.51587
0
LINE
8
BLACK
6
CONTINUOUS
10
5.36217
20
-3.51587
11
5.36227
21
-3.51477
0
LINE
8
BLACK
6
CONTINUOUS
10
5.36227
20
-3.51477
11
5.36253
21
-3.51394
0
LINE
8
BLACK
6
CONTINUOUS
10
5.36253
20
-3.51394
11
5.36293
21
-3.51317
0
LINE
8
BLACK
6
CONTINUOUS
10
5.36293
20
-3.51317
11
5.36349
21
-3.5125
0
LINE
8
BLACK
6
CONTINUOUS
10
5.36349
20
-3.5125
11
5.36416
21
-3.51195
0
LINE
8
BLACK
6
CONTINUOUS
10
5.36416
20
-3.51195
11
5.36492
21
-3.51154
0
LINE
8
BLACK
6
CONTINUOUS
10
5.36492
20
-3.51154
11
5.36575
21
-3.51129
0
LINE
8
BLACK
6
CONTINUOUS
10
5.36575
20
-3.51129
11
5.36686
21
-3.51118
0
LINE
8
BLACK
6
CONTINUOUS
10
5.36686
20
-3.51118
11
5.43826
21
-3.51118
0
LINE
8
BLACK
6
CONTINUOUS
10
5.43826
20
-3.51118
11
5.43937
21
-3.51129
0
LINE
8
BLACK
6
CONTINUOUS
10
5.63425
20
-3.51129
11
5.63508
21
-3.51154
0
LINE
8
BLACK
6
CONTINUOUS
10
5.63508
20
-3.51154
11
5.63584
21
-3.51195
0
LINE
8
BLACK
6
CONTINUOUS
10
5.63584
20
-3.51195
11
5.63651
21
-3.5125
0
LINE
8
BLACK
6
CONTINUOUS
10
5.63651
20
-3.5125
11
5.63707
21
-3.51317
0
LINE
8
BLACK
6
CONTINUOUS
10
5.63707
20
-3.51317
11
5.63747
21
-3.51394
0
LINE
8
BLACK
6
CONTINUOUS
10
5.63747
20
-3.51394
11
5.63773
21
-3.51477
0
LINE
8
BLACK
6
CONTINUOUS
10
5.63773
20
-3.51477
11
5.63783
21
-3.51587
0
LINE
8
BLACK
6
CONTINUOUS
10
5.63783
20
-3.51587
11
5.63783
21
-3.53413
0
LINE
8
BLACK
6
CONTINUOUS
10
5.63783
20
-3.53413
11
5.63773
21
-3.53523
0
LINE
8
BLACK
6
CONTINUOUS
10
5.63773
20
-3.53523
11
5.63747
21
-3.53606
0
LINE
8
BLACK
6
CONTINUOUS
10
5.63747
20
-3.53606
11
5.63707
21
-3.53683
0
LINE
8
BLACK
6
CONTINUOUS
10
5.63707
20
-3.53683
11
5.63651
21
-3.5375
0
LINE
8
BLACK
6
CONTINUOUS
10
5.63651
20
-3.5375
11
5.63584
21
-3.53805
0
LINE
8
BLACK
6
CONTINUOUS
10
5.63584
20
-3.53805
11
5.63508
21
-3.53846
0
LINE
8
BLACK
6
CONTINUOUS
10
5.63508
20
-3.53846
11
5.63425
21
-3.53871
0
LINE
8
BLACK
6
CONTINUOUS
10
5.63425
20
-3.53871
11
5.63314
21
-3.53882
0
LINE
8
BLACK
6
CONTINUOUS
10
5.63314
20
-3.53882
11
5.56174
21
-3.53882
0
LINE
8
BLACK
6
CONTINUOUS
10
5.56174
20
-3.53882
11
5.56063
21
-3.53871
0
LINE
8
BLACK
6
CONTINUOUS
10
5.56063
20
-3.53871
11
5.5598
21
-3.53846
0
LINE
8
BLACK
6
CONTINUOUS
10
5.5598
20
-3.53846
11
5.55904
21
-3.53805
0
LINE
8
BLACK
6
CONTINUOUS
10
5.55904
20
-3.53805
11
5.55837
21
-3.5375
0
LINE
8
BLACK
6
CONTINUOUS
10
5.55837
20
-3.5375
11
5.55782
21
-3.53683
0
LINE
8
BLACK
6
CONTINUOUS
10
5.55782
20
-3.53683
11
5.55741
21
-3.53606
0
LINE
8
BLACK
6
CONTINUOUS
10
5.55741
20
-3.53606
11
5.55716
21
-3.53523
0
LINE
8
BLACK
6
CONTINUOUS
10
5.55716
20
-3.53523
11
5.55705
21
-3.53413
0
LINE
8
BLACK
6
CONTINUOUS
10
5.55705
20
-3.53413
11
5.55705
21
-3.51587
0
LINE
8
BLACK
6
CONTINUOUS
10
5.55705
20
-3.51587
11
5.55716
21
-3.51477
0
LINE
8
BLACK
6
CONTINUOUS
10
5.55716
20
-3.51477
11
5.55741
21
-3.51394
0
LINE
8
BLACK
6
CONTINUOUS
10
5.55741
20
-3.51394
11
5.55782
21
-3.51317
0
LINE
8
BLACK
6
CONTINUOUS
10
5.55782
20
-3.51317
11
5.55837
21
-3.5125
0
LINE
8
BLACK
6
CONTINUOUS
10
5.55837
20
-3.5125
11
5.55904
21
-3.51195
0
LINE
8
BLACK
6
CONTINUOUS
10
5.55904
20
-3.51195
11
5.5598
21
-3.51154
0
LINE
8
BLACK
6
CONTINUOUS
10
5.5598
20
-3.51154
11
5.56063
21
-3.51129
0
LINE
8
BLACK
6
CONTINUOUS
10
5.56063
20
-3.51129
11
5.56174
21
-3.51118
0
LINE
8
BLACK
6
CONTINUOUS
10
5.56174
20
-3.51118
11
5.63314
21
-3.51118
0
LINE
8
BLACK
6
CONTINUOUS
10
5.63314
20
-3.51118
11
5.63425
21
-3.51129
0
LINE
8
BLACK
6
CONTINUOUS
10
6.40447
20
-3.46472
11
6.41035
21
-3.46589
0
LINE
8
BLACK
6
CONTINUOUS
10
6.41035
20
-3.46589
11
6.4168
21
-3.46856
0
LINE
8
BLACK
6
CONTINUOUS
10
6.4168
20
-3.46856
11
6.42261
21
-3.47245
0
LINE
8
BLACK
6
CONTINUOUS
10
6.42261
20
-3.47245
11
6.42755
21
-3.47739
0
LINE
8
BLACK
6
CONTINUOUS
10
6.42755
20
-3.47739
11
6.43144
21
-3.4832
0
LINE
8
BLACK
6
CONTINUOUS
10
6.43144
20
-3.4832
11
6.43411
21
-3.48965
0
LINE
8
BLACK
6
CONTINUOUS
10
6.43411
20
-3.48965
11
6.43547
21
-3.49651
0
LINE
8
BLACK
6
CONTINUOUS
10
6.43547
20
-3.49651
11
6.43547
21
-3.50349
0
LINE
8
BLACK
6
CONTINUOUS
10
6.43547
20
-3.50349
11
6.43411
21
-3.51035
0
LINE
8
BLACK
6
CONTINUOUS
10
6.43411
20
-3.51035
11
6.43144
21
-3.5168
0
LINE
8
BLACK
6
CONTINUOUS
10
6.43144
20
-3.5168
11
6.42755
21
-3.52261
0
LINE
8
BLACK
6
CONTINUOUS
10
6.42755
20
-3.52261
11
6.42261
21
-3.52755
0
LINE
8
BLACK
6
CONTINUOUS
10
6.42261
20
-3.52755
11
6.4168
21
-3.53144
0
LINE
8
BLACK
6
CONTINUOUS
10
6.4168
20
-3.53144
11
6.41035
21
-3.53411
0
LINE
8
BLACK
6
CONTINUOUS
10
6.41035
20
-3.53411
11
6.4047
21
-3.53523
0
LINE
8
BLACK
6
CONTINUOUS
10
6.4047
20
-3.53523
11
6.40349
21
-3.53547
0
LINE
8
BLACK
6
CONTINUOUS
10
6.40349
20
-3.53547
11
6.39651
21
-3.53547
0
LINE
8
BLACK
6
CONTINUOUS
10
6.39651
20
-3.53547
11
6.3953
21
-3.53523
0
LINE
8
BLACK
6
CONTINUOUS
10
6.3953
20
-3.53523
11
6.38965
21
-3.53411
0
LINE
8
BLACK
6
CONTINUOUS
10
6.38965
20
-3.53411
11
6.3832
21
-3.53144
0
LINE
8
BLACK
6
CONTINUOUS
10
6.3832
20
-3.53144
11
6.37739
21
-3.52755
0
LINE
8
BLACK
6
CONTINUOUS
10
6.37739
20
-3.52755
11
6.37245
21
-3.52261
0
LINE
8
BLACK
6
CONTINUOUS
10
6.37245
20
-3.52261
11
6.36856
21
-3.5168
0
LINE
8
BLACK
6
CONTINUOUS
10
6.36856
20
-3.5168
11
6.36589
21
-3.51035
0
LINE
8
BLACK
6
CONTINUOUS
10
6.36589
20
-3.51035
11
6.36453
21
-3.50349
0
LINE
8
BLACK
6
CONTINUOUS
10
6.36453
20
-3.50349
11
6.36453
21
-3.49651
0
LINE
8
BLACK
6
CONTINUOUS
10
6.36453
20
-3.49651
11
6.36589
21
-3.48965
0
LINE
8
BLACK
6
CONTINUOUS
10
6.36589
20
-3.48965
11
6.36856
21
-3.4832
0
LINE
8
BLACK
6
CONTINUOUS
10
6.36856
20
-3.4832
11
6.37245
21
-3.47739
0
LINE
8
BLACK
6
CONTINUOUS
10
6.37245
20
-3.47739
11
6.37739
21
-3.47245
0
LINE
8
BLACK
6
CONTINUOUS
10
6.37739
20
-3.47245
11
6.3832
21
-3.46856
0
LINE
8
BLACK
6
CONTINUOUS
10
6.3832
20
-3.46856
11
6.38965
21
-3.46589
0
LINE
8
BLACK
6
CONTINUOUS
10
6.38965
20
-3.46589
11
6.39553
21
-3.46472
0
LINE
8
BLACK
6
CONTINUOUS
10
6.39553
20
-3.46472
11
6.39651
21
-3.46453
0
LINE
8
BLACK
6
CONTINUOUS
10
6.39651
20
-3.46453
11
6.40349
21
-3.46453
0
LINE
8
BLACK
6
CONTINUOUS
10
6.40349
20
-3.46453
11
6.40447
21
-3.46472
0
LINE
8
BLACK
6
CONTINUOUS
10
6.30447
20
-3.46472
11
6.31035
21
-3.46589
0
LINE
8
BLACK
6
CONTINUOUS
10
6.31035
20
-3.46589
11
6.3168
21
-3.46856
0
LINE
8
BLACK
6
CONTINUOUS
10
6.3168
20
-3.46856
11
6.32261
21
-3.47245
0
LINE
8
BLACK
6
CONTINUOUS
10
6.32261
20
-3.47245
11
6.32755
21
-3.47739
0
LINE
8
BLACK
6
CONTINUOUS
10
6.32755
20
-3.47739
11
6.33144
21
-3.4832
0
LINE
8
BLACK
6
CONTINUOUS
10
6.33144
20
-3.4832
11
6.33411
21
-3.48965
0
LINE
8
BLACK
6
CONTINUOUS
10
6.33411
20
-3.48965
11
6.33547
21
-3.49651
0
LINE
8
BLACK
6
CONTINUOUS
10
6.33547
20
-3.49651
11
6.33547
21
-3.50349
0
LINE
8
BLACK
6
CONTINUOUS
10
6.33547
20
-3.50349
11
6.33411
21
-3.51035
0
LINE
8
BLACK
6
CONTINUOUS
10
6.33411
20
-3.51035
11
6.33144
21
-3.5168
0
LINE
8
BLACK
6
CONTINUOUS
10
6.33144
20
-3.5168
11
6.32755
21
-3.52261
0
LINE
8
BLACK
6
CONTINUOUS
10
6.32755
20
-3.52261
11
6.32261
21
-3.52755
0
LINE
8
BLACK
6
CONTINUOUS
10
6.32261
20
-3.52755
11
6.3168
21
-3.53144
0
LINE
8
BLACK
6
CONTINUOUS
10
6.3168
20
-3.53144
11
6.31035
21
-3.53411
0
LINE
8
BLACK
6
CONTINUOUS
10
6.31035
20
-3.53411
11
6.3047
21
-3.53523
0
LINE
8
BLACK
6
CONTINUOUS
10
6.3047
20
-3.53523
11
6.30349
21
-3.53547
0
LINE
8
BLACK
6
CONTINUOUS
10
6.30349
20
-3.53547
11
6.29651
21
-3.53547
0
LINE
8
BLACK
6
CONTINUOUS
10
6.29651
20
-3.53547
11
6.2953
21
-3.53523
0
LINE
8
BLACK
6
CONTINUOUS
10
6.2953
20
-3.53523
11
6.28965
21
-3.53411
0
LINE
8
BLACK
6
CONTINUOUS
10
6.28965
20
-3.53411
11
6.2832
21
-3.53144
0
LINE
8
BLACK
6
CONTINUOUS
10
6.2832
20
-3.53144
11
6.27739
21
-3.52755
0
LINE
8
BLACK
6
CONTINUOUS
10
6.27739
20
-3.52755
11
6.27245
21
-3.52261
0
LINE
8
BLACK
6
CONTINUOUS
10
6.27245
20
-3.52261
11
6.26856
21
-3.5168
0
LINE
8
BLACK
6
CONTINUOUS
10
6.26856
20
-3.5168
11
6.26589
21
-3.51035
0
LINE
8
BLACK
6
CONTINUOUS
10
6.26589
20
-3.51035
11
6.26453
21
-3.50349
0
LINE
8
BLACK
6
CONTINUOUS
10
6.26453
20
-3.50349
11
6.26453
21
-3.49651
0
LINE
8
BLACK
6
CONTINUOUS
10
6.26453
20
-3.49651
11
6.26589
21
-3.48965
0
LINE
8
BLACK
6
CONTINUOUS
10
6.26589
20
-3.48965
11
6.26856
21
-3.4832
0
LINE
8
BLACK
6
CONTINUOUS
10
6.26856
20
-3.4832
11
6.27245
21
-3.47739
0
LINE
8
BLACK
6
CONTINUOUS
10
6.27245
20
-3.47739
11
6.27739
21
-3.47245
0
LINE
8
BLACK
6
CONTINUOUS
10
6.27739
20
-3.47245
11
6.2832
21
-3.46856
0
LINE
8
BLACK
6
CONTINUOUS
10
6.2832
20
-3.46856
11
6.28965
21
-3.46589
0
LINE
8
BLACK
6
CONTINUOUS
10
6.28965
20
-3.46589
11
6.29553
21
-3.46472
0
LINE
8
BLACK
6
CONTINUOUS
10
6.29553
20
-3.46472
11
6.29651
21
-3.46453
0
LINE
8
BLACK
6
CONTINUOUS
10
6.29651
20
-3.46453
11
6.30349
21
-3.46453
0
LINE
8
BLACK
6
CONTINUOUS
10
6.30349
20
-3.46453
11
6.30447
21
-3.46472
0
LINE
8
BLACK
6
CONTINUOUS
10
5.85155
20
-3.47061
11
5.85308
21
-3.47107
0
LINE
8
BLACK
6
CONTINUOUS
10
5.85308
20
-3.47107
11
5.85448
21
-3.47182
0
LINE
8
BLACK
6
CONTINUOUS
10
5.85448
20
-3.47182
11
5.85571
21
-3.47283
0
LINE
8
BLACK
6
CONTINUOUS
10
5.85571
20
-3.47283
11
5.85672
21
-3.47406
0
LINE
8
BLACK
6
CONTINUOUS
10
5.85672
20
-3.47406
11
5.85747
21
-3.47547
0
LINE
8
BLACK
6
CONTINUOUS
10
5.85747
20
-3.47547
11
5.85793
21
-3.47699
0
LINE
8
BLACK
6
CONTINUOUS
10
5.85793
20
-3.47699
11
5.85811
21
-3.47881
0
LINE
8
BLACK
6
CONTINUOUS
10
5.85811
20
-3.47881
11
5.85811
21
-3.52119
0
LINE
8
BLACK
6
CONTINUOUS
10
5.85811
20
-3.52119
11
5.85793
21
-3.52301
0
LINE
8
BLACK
6
CONTINUOUS
10
5.85793
20
-3.52301
11
5.85747
21
-3.52453
0
LINE
8
BLACK
6
CONTINUOUS
10
5.85747
20
-3.52453
11
5.85672
21
-3.52594
0
LINE
8
BLACK
6
CONTINUOUS
10
5.85672
20
-3.52594
11
5.85571
21
-3.52717
0
LINE
8
BLACK
6
CONTINUOUS
10
5.85571
20
-3.52717
11
5.85448
21
-3.52818
0
LINE
8
BLACK
6
CONTINUOUS
10
5.85448
20
-3.52818
11
5.85308
21
-3.52893
0
LINE
8
BLACK
6
CONTINUOUS
10
5.85308
20
-3.52893
11
5.85155
21
-3.52939
0
LINE
8
BLACK
6
CONTINUOUS
10
5.85155
20
-3.52939
11
5.84973
21
-3.52957
0
LINE
8
BLACK
6
CONTINUOUS
10
5.84973
20
-3.52957
11
5.82409
21
-3.52957
0
LINE
8
BLACK
6
CONTINUOUS
10
5.82409
20
-3.52957
11
5.82227
21
-3.52939
0
LINE
8
BLACK
6
CONTINUOUS
10
5.82227
20
-3.52939
11
5.82074
21
-3.52893
0
LINE
8
BLACK
6
CONTINUOUS
10
5.82074
20
-3.52893
11
5.81934
21
-3.52818
0
LINE
8
BLACK
6
CONTINUOUS
10
5.81934
20
-3.52818
11
5.81811
21
-3.52717
0
LINE
8
BLACK
6
CONTINUOUS
10
5.81811
20
-3.52717
11
5.8171
21
-3.52594
0
LINE
8
BLACK
6
CONTINUOUS
10
5.8171
20
-3.52594
11
5.81635
21
-3.52453
0
LINE
8
BLACK
6
CONTINUOUS
10
5.81635
20
-3.52453
11
5.81589
21
-3.52301
0
LINE
8
BLACK
6
CONTINUOUS
10
5.81589
20
-3.52301
11
5.81571
21
-3.52119
0
LINE
8
BLACK
6
CONTINUOUS
10
5.81571
20
-3.52119
11
5.81571
21
-3.47881
0
LINE
8
BLACK
6
CONTINUOUS
10
5.81571
20
-3.47881
11
5.81589
21
-3.47699
0
LINE
8
BLACK
6
CONTINUOUS
10
5.81589
20
-3.47699
11
5.81635
21
-3.47547
0
LINE
8
BLACK
6
CONTINUOUS
10
5.81635
20
-3.47547
11
5.8171
21
-3.47406
0
LINE
8
BLACK
6
CONTINUOUS
10
5.8171
20
-3.47406
11
5.81811
21
-3.47283
0
LINE
8
BLACK
6
CONTINUOUS
10
5.81811
20
-3.47283
11
5.81934
21
-3.47182
0
LINE
8
BLACK
6
CONTINUOUS
10
5.81934
20
-3.47182
11
5.82074
21
-3.47107
0
LINE
8
BLACK
6
CONTINUOUS
10
5.82074
20
-3.47107
11
5.82227
21
-3.47061
0
LINE
8
BLACK
6
CONTINUOUS
10
5.82227
20
-3.47061
11
5.82409
21
-3.47043
0
LINE
8
BLACK
6
CONTINUOUS
10
5.82409
20
-3.47043
11
5.84973
21
-3.47043
0
LINE
8
BLACK
6
CONTINUOUS
10
5.84973
20
-3.47043
11
5.85155
21
-3.47061
0
LINE
8
BLACK
6
CONTINUOUS
10
5.77773
20
-3.47061
11
5.77926
21
-3.47107
0
LINE
8
BLACK
6
CONTINUOUS
10
5.77926
20
-3.47107
11
5.78066
21
-3.47182
0
LINE
8
BLACK
6
CONTINUOUS
10
5.78066
20
-3.47182
11
5.78189
21
-3.47283
0
LINE
8
BLACK
6
CONTINUOUS
10
5.78189
20
-3.47283
11
5.7829
21
-3.47406
0
LINE
8
BLACK
6
CONTINUOUS
10
5.7829
20
-3.47406
11
5.78365
21
-3.47547
0
LINE
8
BLACK
6
CONTINUOUS
10
5.78365
20
-3.47547
11
5.78411
21
-3.47699
0
LINE
8
BLACK
6
CONTINUOUS
10
5.78411
20
-3.47699
11
5.78429
21
-3.47881
0
LINE
8
BLACK
6
CONTINUOUS
10
5.78429
20
-3.47881
11
5.78429
21
-3.52119
0
LINE
8
BLACK
6
CONTINUOUS
10
5.78429
20
-3.52119
11
5.78411
21
-3.52301
0
LINE
8
BLACK
6
CONTINUOUS
10
5.78411
20
-3.52301
11
5.78365
21
-3.52453
0
LINE
8
BLACK
6
CONTINUOUS
10
5.78365
20
-3.52453
11
5.7829
21
-3.52594
0
LINE
8
BLACK
6
CONTINUOUS
10
5.7829
20
-3.52594
11
5.78189
21
-3.52717
0
LINE
8
BLACK
6
CONTINUOUS
10
5.78189
20
-3.52717
11
5.78066
21
-3.52818
0
LINE
8
BLACK
6
CONTINUOUS
10
5.78066
20
-3.52818
11
5.77926
21
-3.52893
0
LINE
8
BLACK
6
CONTINUOUS
10
5.77926
20
-3.52893
11
5.77773
21
-3.52939
0
LINE
8
BLACK
6
CONTINUOUS
10
5.77773
20
-3.52939
11
5.77591
21
-3.52957
0
LINE
8
BLACK
6
CONTINUOUS
10
5.77591
20
-3.52957
11
5.75027
21
-3.52957
0
LINE
8
BLACK
6
CONTINUOUS
10
5.75027
20
-3.52957
11
5.74845
21
-3.52939
0
LINE
8
BLACK
6
CONTINUOUS
10
5.74845
20
-3.52939
11
5.74692
21
-3.52893
0
LINE
8
BLACK
6
CONTINUOUS
10
5.74692
20
-3.52893
11
5.74552
21
-3.52818
0
LINE
8
BLACK
6
CONTINUOUS
10
5.74552
20
-3.52818
11
5.74429
21
-3.52717
0
LINE
8
BLACK
6
CONTINUOUS
10
5.74429
20
-3.52717
11
5.74328
21
-3.52594
0
LINE
8
BLACK
6
CONTINUOUS
10
5.74328
20
-3.52594
11
5.74253
21
-3.52453
0
LINE
8
BLACK
6
CONTINUOUS
10
5.74253
20
-3.52453
11
5.74207
21
-3.52301
0
LINE
8
BLACK
6
CONTINUOUS
10
5.74207
20
-3.52301
11
5.74189
21
-3.52119
0
LINE
8
BLACK
6
CONTINUOUS
10
5.74189
20
-3.52119
11
5.74189
21
-3.47881
0
LINE
8
BLACK
6
CONTINUOUS
10
5.74189
20
-3.47881
11
5.74207
21
-3.47699
0
LINE
8
BLACK
6
CONTINUOUS
10
5.74207
20
-3.47699
11
5.74253
21
-3.47547
0
LINE
8
BLACK
6
CONTINUOUS
10
5.74253
20
-3.47547
11
5.74328
21
-3.47406
0
LINE
8
BLACK
6
CONTINUOUS
10
5.74328
20
-3.47406
11
5.74429
21
-3.47283
0
LINE
8
BLACK
6
CONTINUOUS
10
5.74429
20
-3.47283
11
5.74552
21
-3.47182
0
LINE
8
BLACK
6
CONTINUOUS
10
5.74552
20
-3.47182
11
5.74692
21
-3.47107
0
LINE
8
BLACK
6
CONTINUOUS
10
5.74692
20
-3.47107
11
5.74845
21
-3.47061
0
LINE
8
BLACK
6
CONTINUOUS
10
5.74845
20
-3.47061
11
5.75027
21
-3.47043
0
LINE
8
BLACK
6
CONTINUOUS
10
5.75027
20
-3.47043
11
5.77591
21
-3.47043
0
LINE
8
BLACK
6
CONTINUOUS
10
5.77591
20
-3.47043
11
5.77773
21
-3.47061
0
LINE
8
BLACK
6
CONTINUOUS
10
5.54709
20
-3.51106
11
5.45291
21
-3.51106
0
LINE
8
BLACK
6
CONTINUOUS
10
5.45291
20
-3.51106
11
5.45291
21
-3.38894
0
LINE
8
BLACK
6
CONTINUOUS
10
5.45291
20
-3.38894
11
5.54709
21
-3.38894
0
LINE
8
BLACK
6
CONTINUOUS
10
5.54709
20
-3.38894
11
5.54709
21
-3.51106
0
LINE
8
BLACK
6
CONTINUOUS
10
5.63425
20
-3.46129
11
5.63508
21
-3.46154
0
LINE
8
BLACK
6
CONTINUOUS
10
5.63508
20
-3.46154
11
5.63584
21
-3.46195
0
LINE
8
BLACK
6
CONTINUOUS
10
5.63584
20
-3.46195
11
5.63651
21
-3.4625
0
LINE
8
BLACK
6
CONTINUOUS
10
5.63651
20
-3.4625
11
5.63707
21
-3.46317
0
LINE
8
BLACK
6
CONTINUOUS
10
5.63707
20
-3.46317
11
5.63747
21
-3.46394
0
LINE
8
BLACK
6
CONTINUOUS
10
5.63747
20
-3.46394
11
5.63773
21
-3.46477
0
LINE
8
BLACK
6
CONTINUOUS
10
5.63773
20
-3.46477
11
5.63783
21
-3.46587
0
LINE
8
BLACK
6
CONTINUOUS
10
5.63783
20
-3.46587
11
5.63783
21
-3.48413
0
LINE
8
BLACK
6
CONTINUOUS
10
5.63783
20
-3.48413
11
5.63773
21
-3.48523
0
LINE
8
BLACK
6
CONTINUOUS
10
5.63773
20
-3.48523
11
5.63747
21
-3.48606
0
LINE
8
BLACK
6
CONTINUOUS
10
5.63747
20
-3.48606
11
5.63707
21
-3.48683
0
LINE
8
BLACK
6
CONTINUOUS
10
5.63707
20
-3.48683
11
5.63651
21
-3.4875
0
LINE
8
BLACK
6
CONTINUOUS
10
5.63651
20
-3.4875
11
5.63584
21
-3.48805
0
LINE
8
BLACK
6
CONTINUOUS
10
5.63584
20
-3.48805
11
5.63508
21
-3.48846
0
LINE
8
BLACK
6
CONTINUOUS
10
5.63508
20
-3.48846
11
5.63425
21
-3.48871
0
LINE
8
BLACK
6
CONTINUOUS
10
5.63425
20
-3.48871
11
5.63314
21
-3.48882
0
LINE
8
BLACK
6
CONTINUOUS
10
5.63314
20
-3.48882
11
5.56174
21
-3.48882
0
LINE
8
BLACK
6
CONTINUOUS
10
5.56174
20
-3.48882
11
5.56063
21
-3.48871
0
LINE
8
BLACK
6
CONTINUOUS
10
5.56063
20
-3.48871
11
5.5598
21
-3.48846
0
LINE
8
BLACK
6
CONTINUOUS
10
5.5598
20
-3.48846
11
5.55904
21
-3.48805
0
LINE
8
BLACK
6
CONTINUOUS
10
5.55904
20
-3.48805
11
5.55837
21
-3.4875
0
LINE
8
BLACK
6
CONTINUOUS
10
5.55837
20
-3.4875
11
5.55782
21
-3.48683
0
LINE
8
BLACK
6
CONTINUOUS
10
5.55782
20
-3.48683
11
5.55741
21
-3.48606
0
LINE
8
BLACK
6
CONTINUOUS
10
5.55741
20
-3.48606
11
5.55716
21
-3.48523
0
LINE
8
BLACK
6
CONTINUOUS
10
5.55716
20
-3.48523
11
5.55705
21
-3.48413
0
LINE
8
BLACK
6
CONTINUOUS
10
5.55705
20
-3.48413
11
5.55705
21
-3.46587
0
LINE
8
BLACK
6
CONTINUOUS
10
5.55705
20
-3.46587
11
5.55716
21
-3.46477
0
LINE
8
BLACK
6
CONTINUOUS
10
5.55716
20
-3.46477
11
5.55741
21
-3.46394
0
LINE
8
BLACK
6
CONTINUOUS
10
5.55741
20
-3.46394
11
5.55782
21
-3.46317
0
LINE
8
BLACK
6
CONTINUOUS
10
5.55782
20
-3.46317
11
5.55837
21
-3.4625
0
LINE
8
BLACK
6
CONTINUOUS
10
5.55837
20
-3.4625
11
5.55904
21
-3.46195
0
LINE
8
BLACK
6
CONTINUOUS
10
5.55904
20
-3.46195
11
5.5598
21
-3.46154
0
LINE
8
BLACK
6
CONTINUOUS
10
5.5598
20
-3.46154
11
5.56063
21
-3.46129
0
LINE
8
BLACK
6
CONTINUOUS
10
5.56063
20
-3.46129
11
5.56174
21
-3.46118
0
LINE
8
BLACK
6
CONTINUOUS
10
5.56174
20
-3.46118
11
5.63314
21
-3.46118
0
LINE
8
BLACK
6
CONTINUOUS
10
5.63314
20
-3.46118
11
5.63425
21
-3.46129
0
LINE
8
BLACK
6
CONTINUOUS
10
5.43937
20
-3.46129
11
5.4402
21
-3.46154
0
LINE
8
BLACK
6
CONTINUOUS
10
5.4402
20
-3.46154
11
5.44096
21
-3.46195
0
LINE
8
BLACK
6
CONTINUOUS
10
5.44096
20
-3.46195
11
5.44163
21
-3.4625
0
LINE
8
BLACK
6
CONTINUOUS
10
5.44163
20
-3.4625
11
5.44218
21
-3.46317
0
LINE
8
BLACK
6
CONTINUOUS
10
5.44218
20
-3.46317
11
5.44259
21
-3.46394
0
LINE
8
BLACK
6
CONTINUOUS
10
5.44259
20
-3.46394
11
5.44284
21
-3.46477
0
LINE
8
BLACK
6
CONTINUOUS
10
5.44284
20
-3.46477
11
5.44295
21
-3.46587
0
LINE
8
BLACK
6
CONTINUOUS
10
5.44295
20
-3.46587
11
5.44295
21
-3.48413
0
LINE
8
BLACK
6
CONTINUOUS
10
5.44295
20
-3.48413
11
5.44284
21
-3.48523
0
LINE
8
BLACK
6
CONTINUOUS
10
5.44284
20
-3.48523
11
5.44259
21
-3.48606
0
LINE
8
BLACK
6
CONTINUOUS
10
5.44259
20
-3.48606
11
5.44218
21
-3.48683
0
LINE
8
BLACK
6
CONTINUOUS
10
5.44218
20
-3.48683
11
5.44163
21
-3.4875
0
LINE
8
BLACK
6
CONTINUOUS
10
5.44163
20
-3.4875
11
5.44096
21
-3.48805
0
LINE
8
BLACK
6
CONTINUOUS
10
5.44096
20
-3.48805
11
5.4402
21
-3.48846
0
LINE
8
BLACK
6
CONTINUOUS
10
5.4402
20
-3.48846
11
5.43937
21
-3.48871
0
LINE
8
BLACK
6
CONTINUOUS
10
5.43937
20
-3.48871
11
5.43826
21
-3.48882
0
LINE
8
BLACK
6
CONTINUOUS
10
5.43826
20
-3.48882
11
5.36686
21
-3.48882
0
LINE
8
BLACK
6
CONTINUOUS
10
5.36686
20
-3.48882
11
5.36575
21
-3.48871
0
LINE
8
BLACK
6
CONTINUOUS
10
5.36575
20
-3.48871
11
5.36492
21
-3.48846
0
LINE
8
BLACK
6
CONTINUOUS
10
5.36492
20
-3.48846
11
5.36416
21
-3.48805
0
LINE
8
BLACK
6
CONTINUOUS
10
5.36416
20
-3.48805
11
5.36349
21
-3.4875
0
LINE
8
BLACK
6
CONTINUOUS
10
5.36349
20
-3.4875
11
5.36293
21
-3.48683
0
LINE
8
BLACK
6
CONTINUOUS
10
5.36293
20
-3.48683
11
5.36253
21
-3.48606
0
LINE
8
BLACK
6
CONTINUOUS
10
5.36253
20
-3.48606
11
5.36227
21
-3.48523
0
LINE
8
BLACK
6
CONTINUOUS
10
5.36227
20
-3.48523
11
5.36217
21
-3.48413
0
LINE
8
BLACK
6
CONTINUOUS
10
5.36217
20
-3.48413
11
5.36217
21
-3.46587
0
LINE
8
BLACK
6
CONTINUOUS
10
5.36217
20
-3.46587
11
5.36227
21
-3.46477
0
LINE
8
BLACK
6
CONTINUOUS
10
5.36227
20
-3.46477
11
5.36253
21
-3.46394
0
LINE
8
BLACK
6
CONTINUOUS
10
5.36253
20
-3.46394
11
5.36293
21
-3.46317
0
LINE
8
BLACK
6
CONTINUOUS
10
5.36293
20
-3.46317
11
5.36349
21
-3.4625
0
LINE
8
BLACK
6
CONTINUOUS
10
5.36349
20
-3.4625
11
5.36416
21
-3.46195
0
LINE
8
BLACK
6
CONTINUOUS
10
5.36416
20
-3.46195
11
5.36492
21
-3.46154
0
LINE
8
BLACK
6
CONTINUOUS
10
5.36492
20
-3.46154
11
5.36575
21
-3.46129
0
LINE
8
BLACK
6
CONTINUOUS
10
5.36575
20
-3.46129
11
5.36686
21
-3.46118
0
LINE
8
BLACK
6
CONTINUOUS
10
5.36686
20
-3.46118
11
5.43826
21
-3.46118
0
LINE
8
BLACK
6
CONTINUOUS
10
5.43826
20
-3.46118
11
5.43937
21
-3.46129
0
LINE
8
BLACK
6
CONTINUOUS
10
5.00155
20
-3.42061
11
5.00308
21
-3.42107
0
LINE
8
BLACK
6
CONTINUOUS
10
5.00308
20
-3.42107
11
5.00448
21
-3.42182
0
LINE
8
BLACK
6
CONTINUOUS
10
5.00448
20
-3.42182
11
5.00571
21
-3.42283
0
LINE
8
BLACK
6
CONTINUOUS
10
5.00571
20
-3.42283
11
5.00672
21
-3.42406
0
LINE
8
BLACK
6
CONTINUOUS
10
5.00672
20
-3.42406
11
5.00747
21
-3.42547
0
LINE
8
BLACK
6
CONTINUOUS
10
5.00747
20
-3.42547
11
5.00793
21
-3.42699
0
LINE
8
BLACK
6
CONTINUOUS
10
5.00793
20
-3.42699
11
5.00811
21
-3.42881
0
LINE
8
BLACK
6
CONTINUOUS
10
5.00811
20
-3.42881
11
5.00811
21
-3.47119
0
LINE
8
BLACK
6
CONTINUOUS
10
5.00811
20
-3.47119
11
5.00793
21
-3.47301
0
LINE
8
BLACK
6
CONTINUOUS
10
5.00793
20
-3.47301
11
5.00747
21
-3.47453
0
LINE
8
BLACK
6
CONTINUOUS
10
5.00747
20
-3.47453
11
5.00672
21
-3.47594
0
LINE
8
BLACK
6
CONTINUOUS
10
5.00672
20
-3.47594
11
5.00571
21
-3.47717
0
LINE
8
BLACK
6
CONTINUOUS
10
5.00571
20
-3.47717
11
5.00448
21
-3.47818
0
LINE
8
BLACK
6
CONTINUOUS
10
5.00448
20
-3.47818
11
5.00308
21
-3.47893
0
LINE
8
BLACK
6
CONTINUOUS
10
5.00308
20
-3.47893
11
5.00155
21
-3.47939
0
LINE
8
BLACK
6
CONTINUOUS
10
5.00155
20
-3.47939
11
4.99973
21
-3.47957
0
LINE
8
BLACK
6
CONTINUOUS
10
4.99973
20
-3.47957
11
4.97409
21
-3.47957
0
LINE
8
BLACK
6
CONTINUOUS
10
4.97409
20
-3.47957
11
4.97227
21
-3.47939
0
LINE
8
BLACK
6
CONTINUOUS
10
4.97227
20
-3.47939
11
4.97074
21
-3.47893
0
LINE
8
BLACK
6
CONTINUOUS
10
4.97074
20
-3.47893
11
4.96934
21
-3.47818
0
LINE
8
BLACK
6
CONTINUOUS
10
4.96934
20
-3.47818
11
4.96811
21
-3.47717
0
LINE
8
BLACK
6
CONTINUOUS
10
4.96811
20
-3.47717
11
4.9671
21
-3.47594
0
LINE
8
BLACK
6
CONTINUOUS
10
4.9671
20
-3.47594
11
4.96635
21
-3.47453
0
LINE
8
BLACK
6
CONTINUOUS
10
4.96635
20
-3.47453
11
4.96589
21
-3.47301
0
LINE
8
BLACK
6
CONTINUOUS
10
4.96589
20
-3.47301
11
4.96571
21
-3.47119
0
LINE
8
BLACK
6
CONTINUOUS
10
4.96571
20
-3.47119
11
4.96571
21
-3.42881
0
LINE
8
BLACK
6
CONTINUOUS
10
4.96571
20
-3.42881
11
4.96589
21
-3.42699
0
LINE
8
BLACK
6
CONTINUOUS
10
4.96589
20
-3.42699
11
4.96635
21
-3.42547
0
LINE
8
BLACK
6
CONTINUOUS
10
4.96635
20
-3.42547
11
4.9671
21
-3.42406
0
LINE
8
BLACK
6
CONTINUOUS
10
4.9671
20
-3.42406
11
4.96811
21
-3.42283
0
LINE
8
BLACK
6
CONTINUOUS
10
4.96811
20
-3.42283
11
4.96934
21
-3.42182
0
LINE
8
BLACK
6
CONTINUOUS
10
4.96934
20
-3.42182
11
4.97074
21
-3.42107
0
LINE
8
BLACK
6
CONTINUOUS
10
4.97074
20
-3.42107
11
4.97227
21
-3.42061
0
LINE
8
BLACK
6
CONTINUOUS
10
4.97227
20
-3.42061
11
4.97409
21
-3.42043
0
LINE
8
BLACK
6
CONTINUOUS
10
4.97409
20
-3.42043
11
4.99973
21
-3.42043
0
LINE
8
BLACK
6
CONTINUOUS
10
4.99973
20
-3.42043
11
5.00155
21
-3.42061
0
LINE
8
BLACK
6
CONTINUOUS
10
4.92773
20
-3.42061
11
4.92926
21
-3.42107
0
LINE
8
BLACK
6
CONTINUOUS
10
4.92926
20
-3.42107
11
4.93066
21
-3.42182
0
LINE
8
BLACK
6
CONTINUOUS
10
4.93066
20
-3.42182
11
4.93189
21
-3.42283
0
LINE
8
BLACK
6
CONTINUOUS
10
4.93189
20
-3.42283
11
4.9329
21
-3.42406
0
LINE
8
BLACK
6
CONTINUOUS
10
4.9329
20
-3.42406
11
4.93365
21
-3.42547
0
LINE
8
BLACK
6
CONTINUOUS
10
4.93365
20
-3.42547
11
4.93411
21
-3.42699
0
LINE
8
BLACK
6
CONTINUOUS
10
4.93411
20
-3.42699
11
4.93429
21
-3.42881
0
LINE
8
BLACK
6
CONTINUOUS
10
4.93429
20
-3.42881
11
4.93429
21
-3.47119
0
LINE
8
BLACK
6
CONTINUOUS
10
4.93429
20
-3.47119
11
4.93411
21
-3.47301
0
LINE
8
BLACK
6
CONTINUOUS
10
4.93411
20
-3.47301
11
4.93365
21
-3.47453
0
LINE
8
BLACK
6
CONTINUOUS
10
4.93365
20
-3.47453
11
4.9329
21
-3.47594
0
LINE
8
BLACK
6
CONTINUOUS
10
4.9329
20
-3.47594
11
4.93189
21
-3.47717
0
LINE
8
BLACK
6
CONTINUOUS
10
4.93189
20
-3.47717
11
4.93066
21
-3.47818
0
LINE
8
BLACK
6
CONTINUOUS
10
4.93066
20
-3.47818
11
4.92926
21
-3.47893
0
LINE
8
BLACK
6
CONTINUOUS
10
4.92926
20
-3.47893
11
4.92773
21
-3.47939
0
LINE
8
BLACK
6
CONTINUOUS
10
4.92773
20
-3.47939
11
4.92591
21
-3.47957
0
LINE
8
BLACK
6
CONTINUOUS
10
4.92591
20
-3.47957
11
4.90027
21
-3.47957
0
LINE
8
BLACK
6
CONTINUOUS
10
4.90027
20
-3.47957
11
4.89845
21
-3.47939
0
LINE
8
BLACK
6
CONTINUOUS
10
4.89845
20
-3.47939
11
4.89692
21
-3.47893
0
LINE
8
BLACK
6
CONTINUOUS
10
4.89692
20
-3.47893
11
4.89552
21
-3.47818
0
LINE
8
BLACK
6
CONTINUOUS
10
4.89552
20
-3.47818
11
4.89429
21
-3.47717
0
LINE
8
BLACK
6
CONTINUOUS
10
4.89429
20
-3.47717
11
4.89328
21
-3.47594
0
LINE
8
BLACK
6
CONTINUOUS
10
4.89328
20
-3.47594
11
4.89253
21
-3.47453
0
LINE
8
BLACK
6
CONTINUOUS
10
4.89253
20
-3.47453
11
4.89207
21
-3.47301
0
LINE
8
BLACK
6
CONTINUOUS
10
4.89207
20
-3.47301
11
4.89189
21
-3.47119
0
LINE
8
BLACK
6
CONTINUOUS
10
4.89189
20
-3.47119
11
4.89189
21
-3.42881
0
LINE
8
BLACK
6
CONTINUOUS
10
4.89189
20
-3.42881
11
4.89207
21
-3.42699
0
LINE
8
BLACK
6
CONTINUOUS
10
4.89207
20
-3.42699
11
4.89253
21
-3.42547
0
LINE
8
BLACK
6
CONTINUOUS
10
4.89253
20
-3.42547
11
4.89328
21
-3.42406
0
LINE
8
BLACK
6
CONTINUOUS
10
4.89328
20
-3.42406
11
4.89429
21
-3.42283
0
LINE
8
BLACK
6
CONTINUOUS
10
4.89429
20
-3.42283
11
4.89552
21
-3.42182
0
LINE
8
BLACK
6
CONTINUOUS
10
4.89552
20
-3.42182
11
4.89692
21
-3.42107
0
LINE
8
BLACK
6
CONTINUOUS
10
4.89692
20
-3.42107
11
4.89845
21
-3.42061
0
LINE
8
BLACK
6
CONTINUOUS
10
4.89845
20
-3.42061
11
4.90027
21
-3.42043
0
LINE
8
BLACK
6
CONTINUOUS
10
4.90027
20
-3.42043
11
4.92591
21
-3.42043
0
LINE
8
BLACK
6
CONTINUOUS
10
4.92591
20
-3.42043
11
4.92773
21
-3.42061
0
LINE
8
BLACK
6
CONTINUOUS
10
5.18846
20
-3.42061
11
5.18999
21
-3.42107
0
LINE
8
BLACK
6
CONTINUOUS
10
5.18999
20
-3.42107
11
5.19139
21
-3.42182
0
LINE
8
BLACK
6
CONTINUOUS
10
5.19139
20
-3.42182
11
5.19262
21
-3.42283
0
LINE
8
BLACK
6
CONTINUOUS
10
5.19262
20
-3.42283
11
5.19363
21
-3.42406
0
LINE
8
BLACK
6
CONTINUOUS
10
5.19363
20
-3.42406
11
5.19438
21
-3.42547
0
LINE
8
BLACK
6
CONTINUOUS
10
5.19438
20
-3.42547
11
5.19484
21
-3.42699
0
LINE
8
BLACK
6
CONTINUOUS
10
5.19484
20
-3.42699
11
5.19502
21
-3.42881
0
LINE
8
BLACK
6
CONTINUOUS
10
5.19502
20
-3.42881
11
5.19502
21
-3.47119
0
LINE
8
BLACK
6
CONTINUOUS
10
5.19502
20
-3.47119
11
5.19484
21
-3.47301
0
LINE
8
BLACK
6
CONTINUOUS
10
5.19484
20
-3.47301
11
5.19438
21
-3.47453
0
LINE
8
BLACK
6
CONTINUOUS
10
5.19438
20
-3.47453
11
5.19363
21
-3.47594
0
LINE
8
BLACK
6
CONTINUOUS
10
5.19363
20
-3.47594
11
5.19262
21
-3.47717
0
LINE
8
BLACK
6
CONTINUOUS
10
5.19262
20
-3.47717
11
5.19139
21
-3.47818
0
LINE
8
BLACK
6
CONTINUOUS
10
5.19139
20
-3.47818
11
5.18999
21
-3.47893
0
LINE
8
BLACK
6
CONTINUOUS
10
5.18999
20
-3.47893
11
5.18846
21
-3.47939
0
LINE
8
BLACK
6
CONTINUOUS
10
5.18846
20
-3.47939
11
5.18664
21
-3.47957
0
LINE
8
BLACK
6
CONTINUOUS
10
5.18664
20
-3.47957
11
5.161
21
-3.47957
0
LINE
8
BLACK
6
CONTINUOUS
10
5.161
20
-3.47957
11
5.15917
21
-3.47939
0
LINE
8
BLACK
6
CONTINUOUS
10
5.15917
20
-3.47939
11
5.15765
21
-3.47893
0
LINE
8
BLACK
6
CONTINUOUS
10
5.15765
20
-3.47893
11
5.15625
21
-3.47818
0
LINE
8
BLACK
6
CONTINUOUS
10
5.15625
20
-3.47818
11
5.15502
21
-3.47717
0
LINE
8
BLACK
6
CONTINUOUS
10
5.15502
20
-3.47717
11
5.15401
21
-3.47594
0
LINE
8
BLACK
6
CONTINUOUS
10
5.15401
20
-3.47594
11
5.15326
21
-3.47453
0
LINE
8
BLACK
6
CONTINUOUS
10
5.15326
20
-3.47453
11
5.1528
21
-3.47301
0
LINE
8
BLACK
6
CONTINUOUS
10
5.1528
20
-3.47301
11
5.15262
21
-3.47119
0
LINE
8
BLACK
6
CONTINUOUS
10
5.15262
20
-3.47119
11
5.15262
21
-3.42881
0
LINE
8
BLACK
6
CONTINUOUS
10
5.15262
20
-3.42881
11
5.1528
21
-3.42699
0
LINE
8
BLACK
6
CONTINUOUS
10
5.1528
20
-3.42699
11
5.15326
21
-3.42547
0
LINE
8
BLACK
6
CONTINUOUS
10
5.15326
20
-3.42547
11
5.15401
21
-3.42406
0
LINE
8
BLACK
6
CONTINUOUS
10
5.15401
20
-3.42406
11
5.15502
21
-3.42283
0
LINE
8
BLACK
6
CONTINUOUS
10
5.15502
20
-3.42283
11
5.15625
21
-3.42182
0
LINE
8
BLACK
6
CONTINUOUS
10
5.15625
20
-3.42182
11
5.15765
21
-3.42107
0
LINE
8
BLACK
6
CONTINUOUS
10
5.15765
20
-3.42107
11
5.15917
21
-3.42061
0
LINE
8
BLACK
6
CONTINUOUS
10
5.15917
20
-3.42061
11
5.161
21
-3.42043
0
LINE
8
BLACK
6
CONTINUOUS
10
5.161
20
-3.42043
11
5.18664
21
-3.42043
0
LINE
8
BLACK
6
CONTINUOUS
10
5.18664
20
-3.42043
11
5.18846
21
-3.42061
0
LINE
8
BLACK
6
CONTINUOUS
10
5.11464
20
-3.42061
11
5.11617
21
-3.42107
0
LINE
8
BLACK
6
CONTINUOUS
10
5.11617
20
-3.42107
11
5.11757
21
-3.42182
0
LINE
8
BLACK
6
CONTINUOUS
10
5.11757
20
-3.42182
11
5.1188
21
-3.42283
0
LINE
8
BLACK
6
CONTINUOUS
10
5.1188
20
-3.42283
11
5.11981
21
-3.42406
0
LINE
8
BLACK
6
CONTINUOUS
10
5.11981
20
-3.42406
11
5.12056
21
-3.42547
0
LINE
8
BLACK
6
CONTINUOUS
10
5.12056
20
-3.42547
11
5.12102
21
-3.42699
0
LINE
8
BLACK
6
CONTINUOUS
10
5.12102
20
-3.42699
11
5.1212
21
-3.42881
0
LINE
8
BLACK
6
CONTINUOUS
10
5.1212
20
-3.42881
11
5.1212
21
-3.47119
0
LINE
8
BLACK
6
CONTINUOUS
10
5.1212
20
-3.47119
11
5.12102
21
-3.47301
0
LINE
8
BLACK
6
CONTINUOUS
10
5.12102
20
-3.47301
11
5.12056
21
-3.47453
0
LINE
8
BLACK
6
CONTINUOUS
10
5.12056
20
-3.47453
11
5.11981
21
-3.47594
0
LINE
8
BLACK
6
CONTINUOUS
10
5.11981
20
-3.47594
11
5.1188
21
-3.47717
0
LINE
8
BLACK
6
CONTINUOUS
10
5.1188
20
-3.47717
11
5.11757
21
-3.47818
0
LINE
8
BLACK
6
CONTINUOUS
10
5.11757
20
-3.47818
11
5.11617
21
-3.47893
0
LINE
8
BLACK
6
CONTINUOUS
10
5.11617
20
-3.47893
11
5.11464
21
-3.47939
0
LINE
8
BLACK
6
CONTINUOUS
10
5.11464
20
-3.47939
11
5.11282
21
-3.47957
0
LINE
8
BLACK
6
CONTINUOUS
10
5.11282
20
-3.47957
11
5.08718
21
-3.47957
0
LINE
8
BLACK
6
CONTINUOUS
10
5.08718
20
-3.47957
11
5.08536
21
-3.47939
0
LINE
8
BLACK
6
CONTINUOUS
10
5.08536
20
-3.47939
11
5.08383
21
-3.47893
0
LINE
8
BLACK
6
CONTINUOUS
10
5.08383
20
-3.47893
11
5.08243
21
-3.47818
0
LINE
8
BLACK
6
CONTINUOUS
10
5.08243
20
-3.47818
11
5.0812
21
-3.47717
0
LINE
8
BLACK
6
CONTINUOUS
10
5.0812
20
-3.47717
11
5.08019
21
-3.47594
0
LINE
8
BLACK
6
CONTINUOUS
10
5.08019
20
-3.47594
11
5.07944
21
-3.47453
0
LINE
8
BLACK
6
CONTINUOUS
10
5.07944
20
-3.47453
11
5.07898
21
-3.47301
0
LINE
8
BLACK
6
CONTINUOUS
10
5.07898
20
-3.47301
11
5.0788
21
-3.47119
0
LINE
8
BLACK
6
CONTINUOUS
10
5.0788
20
-3.47119
11
5.0788
21
-3.42881
0
LINE
8
BLACK
6
CONTINUOUS
10
5.0788
20
-3.42881
11
5.07898
21
-3.42699
0
LINE
8
BLACK
6
CONTINUOUS
10
5.07898
20
-3.42699
11
5.07944
21
-3.42547
0
LINE
8
BLACK
6
CONTINUOUS
10
5.07944
20
-3.42547
11
5.08019
21
-3.42406
0
LINE
8
BLACK
6
CONTINUOUS
10
5.08019
20
-3.42406
11
5.0812
21
-3.42283
0
LINE
8
BLACK
6
CONTINUOUS
10
5.0812
20
-3.42283
11
5.08243
21
-3.42182
0
LINE
8
BLACK
6
CONTINUOUS
10
5.08243
20
-3.42182
11
5.08383
21
-3.42107
0
LINE
8
BLACK
6
CONTINUOUS
10
5.08383
20
-3.42107
11
5.08536
21
-3.42061
0
LINE
8
BLACK
6
CONTINUOUS
10
5.08536
20
-3.42061
11
5.08718
21
-3.42043
0
LINE
8
BLACK
6
CONTINUOUS
10
5.08718
20
-3.42043
11
5.11282
21
-3.42043
0
LINE
8
BLACK
6
CONTINUOUS
10
5.11282
20
-3.42043
11
5.11464
21
-3.42061
0
LINE
8
BLACK
6
CONTINUOUS
10
5.43937
20
-3.41129
11
5.4402
21
-3.41154
0
LINE
8
BLACK
6
CONTINUOUS
10
5.4402
20
-3.41154
11
5.44096
21
-3.41195
0
LINE
8
BLACK
6
CONTINUOUS
10
5.44096
20
-3.41195
11
5.44163
21
-3.4125
0
LINE
8
BLACK
6
CONTINUOUS
10
5.44163
20
-3.4125
11
5.44218
21
-3.41317
0
LINE
8
BLACK
6
CONTINUOUS
10
5.44218
20
-3.41317
11
5.44259
21
-3.41394
0
LINE
8
BLACK
6
CONTINUOUS
10
5.44259
20
-3.41394
11
5.44284
21
-3.41477
0
LINE
8
BLACK
6
CONTINUOUS
10
5.44284
20
-3.41477
11
5.44295
21
-3.41587
0
LINE
8
BLACK
6
CONTINUOUS
10
5.44295
20
-3.41587
11
5.44295
21
-3.43413
0
LINE
8
BLACK
6
CONTINUOUS
10
5.44295
20
-3.43413
11
5.44284
21
-3.43523
0
LINE
8
BLACK
6
CONTINUOUS
10
5.44284
20
-3.43523
11
5.44259
21
-3.43606
0
LINE
8
BLACK
6
CONTINUOUS
10
5.44259
20
-3.43606
11
5.44218
21
-3.43683
0
LINE
8
BLACK
6
CONTINUOUS
10
5.44218
20
-3.43683
11
5.44163
21
-3.4375
0
LINE
8
BLACK
6
CONTINUOUS
10
5.44163
20
-3.4375
11
5.44096
21
-3.43805
0
LINE
8
BLACK
6
CONTINUOUS
10
5.44096
20
-3.43805
11
5.4402
21
-3.43846
0
LINE
8
BLACK
6
CONTINUOUS
10
5.4402
20
-3.43846
11
5.43937
21
-3.43871
0
LINE
8
BLACK
6
CONTINUOUS
10
5.43937
20
-3.43871
11
5.43826
21
-3.43882
0
LINE
8
BLACK
6
CONTINUOUS
10
5.43826
20
-3.43882
11
5.36686
21
-3.43882
0
LINE
8
BLACK
6
CONTINUOUS
10
5.36686
20
-3.43882
11
5.36575
21
-3.43871
0
LINE
8
BLACK
6
CONTINUOUS
10
5.36575
20
-3.43871
11
5.36492
21
-3.43846
0
LINE
8
BLACK
6
CONTINUOUS
10
5.36492
20
-3.43846
11
5.36416
21
-3.43805
0
LINE
8
BLACK
6
CONTINUOUS
10
5.36416
20
-3.43805
11
5.36349
21
-3.4375
0
LINE
8
BLACK
6
CONTINUOUS
10
5.36349
20
-3.4375
11
5.36293
21
-3.43683
0
LINE
8
BLACK
6
CONTINUOUS
10
5.36293
20
-3.43683
11
5.36253
21
-3.43606
0
LINE
8
BLACK
6
CONTINUOUS
10
5.36253
20
-3.43606
11
5.36227
21
-3.43523
0
LINE
8
BLACK
6
CONTINUOUS
10
5.36227
20
-3.43523
11
5.36217
21
-3.43413
0
LINE
8
BLACK
6
CONTINUOUS
10
5.36217
20
-3.43413
11
5.36217
21
-3.41587
0
LINE
8
BLACK
6
CONTINUOUS
10
5.36217
20
-3.41587
11
5.36227
21
-3.41477
0
LINE
8
BLACK
6
CONTINUOUS
10
5.36227
20
-3.41477
11
5.36253
21
-3.41394
0
LINE
8
BLACK
6
CONTINUOUS
10
5.36253
20
-3.41394
11
5.36293
21
-3.41317
0
LINE
8
BLACK
6
CONTINUOUS
10
5.36293
20
-3.41317
11
5.36349
21
-3.4125
0
LINE
8
BLACK
6
CONTINUOUS
10
5.36349
20
-3.4125
11
5.36416
21
-3.41195
0
LINE
8
BLACK
6
CONTINUOUS
10
5.36416
20
-3.41195
11
5.36492
21
-3.41154
0
LINE
8
BLACK
6
CONTINUOUS
10
5.36492
20
-3.41154
11
5.36575
21
-3.41129
0
LINE
8
BLACK
6
CONTINUOUS
10
5.36575
20
-3.41129
11
5.36686
21
-3.41118
0
LINE
8
BLACK
6
CONTINUOUS
10
5.36686
20
-3.41118
11
5.43826
21
-3.41118
0
LINE
8
BLACK
6
CONTINUOUS
10
5.43826
20
-3.41118
11
5.43937
21
-3.41129
0
LINE
8
BLACK
6
CONTINUOUS
10
5.63425
20
-3.41129
11
5.63508
21
-3.41154
0
LINE
8
BLACK
6
CONTINUOUS
10
5.63508
20
-3.41154
11
5.63584
21
-3.41195
0
LINE
8
BLACK
6
CONTINUOUS
10
5.63584
20
-3.41195
11
5.63651
21
-3.4125
0
LINE
8
BLACK
6
CONTINUOUS
10
5.63651
20
-3.4125
11
5.63707
21
-3.41317
0
LINE
8
BLACK
6
CONTINUOUS
10
5.63707
20
-3.41317
11
5.63747
21
-3.41394
0
LINE
8
BLACK
6
CONTINUOUS
10
5.63747
20
-3.41394
11
5.63773
21
-3.41477
0
LINE
8
BLACK
6
CONTINUOUS
10
5.63773
20
-3.41477
11
5.63783
21
-3.41587
0
LINE
8
BLACK
6
CONTINUOUS
10
5.63783
20
-3.41587
11
5.63783
21
-3.43413
0
LINE
8
BLACK
6
CONTINUOUS
10
5.63783
20
-3.43413
11
5.63773
21
-3.43523
0
LINE
8
BLACK
6
CONTINUOUS
10
5.63773
20
-3.43523
11
5.63747
21
-3.43606
0
LINE
8
BLACK
6
CONTINUOUS
10
5.63747
20
-3.43606
11
5.63707
21
-3.43683
0
LINE
8
BLACK
6
CONTINUOUS
10
5.63707
20
-3.43683
11
5.63651
21
-3.4375
0
LINE
8
BLACK
6
CONTINUOUS
10
5.63651
20
-3.4375
11
5.63584
21
-3.43805
0
LINE
8
BLACK
6
CONTINUOUS
10
5.63584
20
-3.43805
11
5.63508
21
-3.43846
0
LINE
8
BLACK
6
CONTINUOUS
10
5.63508
20
-3.43846
11
5.63425
21
-3.43871
0
LINE
8
BLACK
6
CONTINUOUS
10
5.63425
20
-3.43871
11
5.63314
21
-3.43882
0
LINE
8
BLACK
6
CONTINUOUS
10
5.63314
20
-3.43882
11
5.56174
21
-3.43882
0
LINE
8
BLACK
6
CONTINUOUS
10
5.56174
20
-3.43882
11
5.56063
21
-3.43871
0
LINE
8
BLACK
6
CONTINUOUS
10
5.56063
20
-3.43871
11
5.5598
21
-3.43846
0
LINE
8
BLACK
6
CONTINUOUS
10
5.5598
20
-3.43846
11
5.55904
21
-3.43805
0
LINE
8
BLACK
6
CONTINUOUS
10
5.55904
20
-3.43805
11
5.55837
21
-3.4375
0
LINE
8
BLACK
6
CONTINUOUS
10
5.55837
20
-3.4375
11
5.55782
21
-3.43683
0
LINE
8
BLACK
6
CONTINUOUS
10
5.55782
20
-3.43683
11
5.55741
21
-3.43606
0
LINE
8
BLACK
6
CONTINUOUS
10
5.55741
20
-3.43606
11
5.55716
21
-3.43523
0
LINE
8
BLACK
6
CONTINUOUS
10
5.55716
20
-3.43523
11
5.55705
21
-3.43413
0
LINE
8
BLACK
6
CONTINUOUS
10
5.55705
20
-3.43413
11
5.55705
21
-3.41587
0
LINE
8
BLACK
6
CONTINUOUS
10
5.55705
20
-3.41587
11
5.55716
21
-3.41477
0
LINE
8
BLACK
6
CONTINUOUS
10
5.55716
20
-3.41477
11
5.55741
21
-3.41394
0
LINE
8
BLACK
6
CONTINUOUS
10
5.55741
20
-3.41394
11
5.55782
21
-3.41317
0
LINE
8
BLACK
6
CONTINUOUS
10
5.55782
20
-3.41317
11
5.55837
21
-3.4125
0
LINE
8
BLACK
6
CONTINUOUS
10
5.55837
20
-3.4125
11
5.55904
21
-3.41195
0
LINE
8
BLACK
6
CONTINUOUS
10
5.55904
20
-3.41195
11
5.5598
21
-3.41154
0
LINE
8
BLACK
6
CONTINUOUS
10
5.5598
20
-3.41154
11
5.56063
21
-3.41129
0
LINE
8
BLACK
6
CONTINUOUS
10
5.56063
20
-3.41129
11
5.56174
21
-3.41118
0
LINE
8
BLACK
6
CONTINUOUS
10
5.56174
20
-3.41118
11
5.63314
21
-3.41118
0
LINE
8
BLACK
6
CONTINUOUS
10
5.63314
20
-3.41118
11
5.63425
21
-3.41129
0
LINE
8
BLACK
6
CONTINUOUS
10
6.30447
20
-3.36472
11
6.31035
21
-3.36589
0
LINE
8
BLACK
6
CONTINUOUS
10
6.31035
20
-3.36589
11
6.3168
21
-3.36856
0
LINE
8
BLACK
6
CONTINUOUS
10
6.3168
20
-3.36856
11
6.32261
21
-3.37245
0
LINE
8
BLACK
6
CONTINUOUS
10
6.32261
20
-3.37245
11
6.32755
21
-3.37739
0
LINE
8
BLACK
6
CONTINUOUS
10
6.32755
20
-3.37739
11
6.33144
21
-3.3832
0
LINE
8
BLACK
6
CONTINUOUS
10
6.33144
20
-3.3832
11
6.33411
21
-3.38965
0
LINE
8
BLACK
6
CONTINUOUS
10
6.33411
20
-3.38965
11
6.33547
21
-3.39651
0
LINE
8
BLACK
6
CONTINUOUS
10
6.33547
20
-3.39651
11
6.33547
21
-3.40349
0
LINE
8
BLACK
6
CONTINUOUS
10
6.33547
20
-3.40349
11
6.33411
21
-3.41035
0
LINE
8
BLACK
6
CONTINUOUS
10
6.33411
20
-3.41035
11
6.33144
21
-3.4168
0
LINE
8
BLACK
6
CONTINUOUS
10
6.33144
20
-3.4168
11
6.32755
21
-3.42261
0
LINE
8
BLACK
6
CONTINUOUS
10
6.32755
20
-3.42261
11
6.32261
21
-3.42755
0
LINE
8
BLACK
6
CONTINUOUS
10
6.32261
20
-3.42755
11
6.3168
21
-3.43144
0
LINE
8
BLACK
6
CONTINUOUS
10
6.3168
20
-3.43144
11
6.31035
21
-3.43411
0
LINE
8
BLACK
6
CONTINUOUS
10
6.31035
20
-3.43411
11
6.3047
21
-3.43523
0
LINE
8
BLACK
6
CONTINUOUS
10
6.3047
20
-3.43523
11
6.30349
21
-3.43547
0
LINE
8
BLACK
6
CONTINUOUS
10
6.30349
20
-3.43547
11
6.29651
21
-3.43547
0
LINE
8
BLACK
6
CONTINUOUS
10
6.29651
20
-3.43547
11
6.2953
21
-3.43523
0
LINE
8
BLACK
6
CONTINUOUS
10
6.2953
20
-3.43523
11
6.28965
21
-3.43411
0
LINE
8
BLACK
6
CONTINUOUS
10
6.28965
20
-3.43411
11
6.2832
21
-3.43144
0
LINE
8
BLACK
6
CONTINUOUS
10
6.2832
20
-3.43144
11
6.27739
21
-3.42755
0
LINE
8
BLACK
6
CONTINUOUS
10
6.27739
20
-3.42755
11
6.27245
21
-3.42261
0
LINE
8
BLACK
6
CONTINUOUS
10
6.27245
20
-3.42261
11
6.26856
21
-3.4168
0
LINE
8
BLACK
6
CONTINUOUS
10
6.26856
20
-3.4168
11
6.26589
21
-3.41035
0
LINE
8
BLACK
6
CONTINUOUS
10
6.26589
20
-3.41035
11
6.26453
21
-3.40349
0
LINE
8
BLACK
6
CONTINUOUS
10
6.26453
20
-3.40349
11
6.26453
21
-3.39651
0
LINE
8
BLACK
6
CONTINUOUS
10
6.26453
20
-3.39651
11
6.26589
21
-3.38965
0
LINE
8
BLACK
6
CONTINUOUS
10
6.26589
20
-3.38965
11
6.26856
21
-3.3832
0
LINE
8
BLACK
6
CONTINUOUS
10
6.26856
20
-3.3832
11
6.27245
21
-3.37739
0
LINE
8
BLACK
6
CONTINUOUS
10
6.27245
20
-3.37739
11
6.27739
21
-3.37245
0
LINE
8
BLACK
6
CONTINUOUS
10
6.27739
20
-3.37245
11
6.2832
21
-3.36856
0
LINE
8
BLACK
6
CONTINUOUS
10
6.2832
20
-3.36856
11
6.28965
21
-3.36589
0
LINE
8
BLACK
6
CONTINUOUS
10
6.28965
20
-3.36589
11
6.29553
21
-3.36472
0
LINE
8
BLACK
6
CONTINUOUS
10
6.29553
20
-3.36472
11
6.29651
21
-3.36453
0
LINE
8
BLACK
6
CONTINUOUS
10
6.29651
20
-3.36453
11
6.30349
21
-3.36453
0
LINE
8
BLACK
6
CONTINUOUS
10
6.30349
20
-3.36453
11
6.30447
21
-3.36472
0
LINE
8
BLACK
6
CONTINUOUS
10
6.40447
20
-3.36472
11
6.41035
21
-3.36589
0
LINE
8
BLACK
6
CONTINUOUS
10
6.41035
20
-3.36589
11
6.4168
21
-3.36856
0
LINE
8
BLACK
6
CONTINUOUS
10
6.4168
20
-3.36856
11
6.42261
21
-3.37245
0
LINE
8
BLACK
6
CONTINUOUS
10
6.42261
20
-3.37245
11
6.42755
21
-3.37739
0
LINE
8
BLACK
6
CONTINUOUS
10
6.42755
20
-3.37739
11
6.43144
21
-3.3832
0
LINE
8
BLACK
6
CONTINUOUS
10
6.43144
20
-3.3832
11
6.43411
21
-3.38965
0
LINE
8
BLACK
6
CONTINUOUS
10
6.43411
20
-3.38965
11
6.43547
21
-3.39651
0
LINE
8
BLACK
6
CONTINUOUS
10
6.43547
20
-3.39651
11
6.43547
21
-3.40349
0
LINE
8
BLACK
6
CONTINUOUS
10
6.43547
20
-3.40349
11
6.43411
21
-3.41035
0
LINE
8
BLACK
6
CONTINUOUS
10
6.43411
20
-3.41035
11
6.43144
21
-3.4168
0
LINE
8
BLACK
6
CONTINUOUS
10
6.43144
20
-3.4168
11
6.42755
21
-3.42261
0
LINE
8
BLACK
6
CONTINUOUS
10
6.42755
20
-3.42261
11
6.42261
21
-3.42755
0
LINE
8
BLACK
6
CONTINUOUS
10
6.42261
20
-3.42755
11
6.4168
21
-3.43144
0
LINE
8
BLACK
6
CONTINUOUS
10
6.4168
20
-3.43144
11
6.41035
21
-3.43411
0
LINE
8
BLACK
6
CONTINUOUS
10
6.41035
20
-3.43411
11
6.4047
21
-3.43523
0
LINE
8
BLACK
6
CONTINUOUS
10
6.4047
20
-3.43523
11
6.40349
21
-3.43547
0
LINE
8
BLACK
6
CONTINUOUS
10
6.40349
20
-3.43547
11
6.39651
21
-3.43547
0
LINE
8
BLACK
6
CONTINUOUS
10
6.39651
20
-3.43547
11
6.3953
21
-3.43523
0
LINE
8
BLACK
6
CONTINUOUS
10
6.3953
20
-3.43523
11
6.38965
21
-3.43411
0
LINE
8
BLACK
6
CONTINUOUS
10
6.38965
20
-3.43411
11
6.3832
21
-3.43144
0
LINE
8
BLACK
6
CONTINUOUS
10
6.3832
20
-3.43144
11
6.37739
21
-3.42755
0
LINE
8
BLACK
6
CONTINUOUS
10
6.37739
20
-3.42755
11
6.37245
21
-3.42261
0
LINE
8
BLACK
6
CONTINUOUS
10
6.37245
20
-3.42261
11
6.36856
21
-3.4168
0
LINE
8
BLACK
6
CONTINUOUS
10
6.36856
20
-3.4168
11
6.36589
21
-3.41035
0
LINE
8
BLACK
6
CONTINUOUS
10
6.36589
20
-3.41035
11
6.36453
21
-3.40349
0
LINE
8
BLACK
6
CONTINUOUS
10
6.36453
20
-3.40349
11
6.36453
21
-3.39651
0
LINE
8
BLACK
6
CONTINUOUS
10
6.36453
20
-3.39651
11
6.36589
21
-3.38965
0
LINE
8
BLACK
6
CONTINUOUS
10
6.36589
20
-3.38965
11
6.36856
21
-3.3832
0
LINE
8
BLACK
6
CONTINUOUS
10
6.36856
20
-3.3832
11
6.37245
21
-3.37739
0
LINE
8
BLACK
6
CONTINUOUS
10
6.37245
20
-3.37739
11
6.37739
21
-3.37245
0
LINE
8
BLACK
6
CONTINUOUS
10
6.37739
20
-3.37245
11
6.3832
21
-3.36856
0
LINE
8
BLACK
6
CONTINUOUS
10
6.3832
20
-3.36856
11
6.38965
21
-3.36589
0
LINE
8
BLACK
6
CONTINUOUS
10
6.38965
20
-3.36589
11
6.39553
21
-3.36472
0
LINE
8
BLACK
6
CONTINUOUS
10
6.39553
20
-3.36472
11
6.39651
21
-3.36453
0
LINE
8
BLACK
6
CONTINUOUS
10
6.39651
20
-3.36453
11
6.40349
21
-3.36453
0
LINE
8
BLACK
6
CONTINUOUS
10
6.40349
20
-3.36453
11
6.40447
21
-3.36472
0
LINE
8
BLACK
6
CONTINUOUS
10
5.77773
20
-3.37061
11
5.77926
21
-3.37107
0
LINE
8
BLACK
6
CONTINUOUS
10
5.77926
20
-3.37107
11
5.78066
21
-3.37182
0
LINE
8
BLACK
6
CONTINUOUS
10
5.78066
20
-3.37182
11
5.78189
21
-3.37283
0
LINE
8
BLACK
6
CONTINUOUS
10
5.78189
20
-3.37283
11
5.7829
21
-3.37406
0
LINE
8
BLACK
6
CONTINUOUS
10
5.7829
20
-3.37406
11
5.78365
21
-3.37547
0
LINE
8
BLACK
6
CONTINUOUS
10
5.78365
20
-3.37547
11
5.78411
21
-3.37699
0
LINE
8
BLACK
6
CONTINUOUS
10
5.78411
20
-3.37699
11
5.78429
21
-3.37881
0
LINE
8
BLACK
6
CONTINUOUS
10
5.78429
20
-3.37881
11
5.78429
21
-3.42119
0
LINE
8
BLACK
6
CONTINUOUS
10
5.78429
20
-3.42119
11
5.78411
21
-3.42301
0
LINE
8
BLACK
6
CONTINUOUS
10
5.78411
20
-3.42301
11
5.78365
21
-3.42453
0
LINE
8
BLACK
6
CONTINUOUS
10
5.78365
20
-3.42453
11
5.7829
21
-3.42594
0
LINE
8
BLACK
6
CONTINUOUS
10
5.7829
20
-3.42594
11
5.78189
21
-3.42717
0
LINE
8
BLACK
6
CONTINUOUS
10
5.78189
20
-3.42717
11
5.78066
21
-3.42818
0
LINE
8
BLACK
6
CONTINUOUS
10
5.78066
20
-3.42818
11
5.77926
21
-3.42893
0
LINE
8
BLACK
6
CONTINUOUS
10
5.77926
20
-3.42893
11
5.77773
21
-3.42939
0
LINE
8
BLACK
6
CONTINUOUS
10
5.77773
20
-3.42939
11
5.77591
21
-3.42957
0
LINE
8
BLACK
6
CONTINUOUS
10
5.77591
20
-3.42957
11
5.75027
21
-3.42957
0
LINE
8
BLACK
6
CONTINUOUS
10
5.75027
20
-3.42957
11
5.74845
21
-3.42939
0
LINE
8
BLACK
6
CONTINUOUS
10
5.74845
20
-3.42939
11
5.74692
21
-3.42893
0
LINE
8
BLACK
6
CONTINUOUS
10
5.74692
20
-3.42893
11
5.74552
21
-3.42818
0
LINE
8
BLACK
6
CONTINUOUS
10
5.74552
20
-3.42818
11
5.74429
21
-3.42717
0
LINE
8
BLACK
6
CONTINUOUS
10
5.74429
20
-3.42717
11
5.74328
21
-3.42594
0
LINE
8
BLACK
6
CONTINUOUS
10
5.74328
20
-3.42594
11
5.74253
21
-3.42453
0
LINE
8
BLACK
6
CONTINUOUS
10
5.74253
20
-3.42453
11
5.74207
21
-3.42301
0
LINE
8
BLACK
6
CONTINUOUS
10
5.74207
20
-3.42301
11
5.74189
21
-3.42119
0
LINE
8
BLACK
6
CONTINUOUS
10
5.74189
20
-3.42119
11
5.74189
21
-3.37881
0
LINE
8
BLACK
6
CONTINUOUS
10
5.74189
20
-3.37881
11
5.74207
21
-3.37699
0
LINE
8
BLACK
6
CONTINUOUS
10
5.74207
20
-3.37699
11
5.74253
21
-3.37547
0
LINE
8
BLACK
6
CONTINUOUS
10
5.74253
20
-3.37547
11
5.74328
21
-3.37406
0
LINE
8
BLACK
6
CONTINUOUS
10
5.74328
20
-3.37406
11
5.74429
21
-3.37283
0
LINE
8
BLACK
6
CONTINUOUS
10
5.74429
20
-3.37283
11
5.74552
21
-3.37182
0
LINE
8
BLACK
6
CONTINUOUS
10
5.74552
20
-3.37182
11
5.74692
21
-3.37107
0
LINE
8
BLACK
6
CONTINUOUS
10
5.74692
20
-3.37107
11
5.74845
21
-3.37061
0
LINE
8
BLACK
6
CONTINUOUS
10
5.74845
20
-3.37061
11
5.75027
21
-3.37043
0
LINE
8
BLACK
6
CONTINUOUS
10
5.75027
20
-3.37043
11
5.77591
21
-3.37043
0
LINE
8
BLACK
6
CONTINUOUS
10
5.77591
20
-3.37043
11
5.77773
21
-3.37061
0
LINE
8
BLACK
6
CONTINUOUS
10
5.85155
20
-3.37061
11
5.85308
21
-3.37107
0
LINE
8
BLACK
6
CONTINUOUS
10
5.85308
20
-3.37107
11
5.85448
21
-3.37182
0
LINE
8
BLACK
6
CONTINUOUS
10
5.85448
20
-3.37182
11
5.85571
21
-3.37283
0
LINE
8
BLACK
6
CONTINUOUS
10
5.85571
20
-3.37283
11
5.85672
21
-3.37406
0
LINE
8
BLACK
6
CONTINUOUS
10
5.85672
20
-3.37406
11
5.85747
21
-3.37547
0
LINE
8
BLACK
6
CONTINUOUS
10
5.85747
20
-3.37547
11
5.85793
21
-3.37699
0
LINE
8
BLACK
6
CONTINUOUS
10
5.85793
20
-3.37699
11
5.85811
21
-3.37881
0
LINE
8
BLACK
6
CONTINUOUS
10
5.85811
20
-3.37881
11
5.85811
21
-3.42119
0
LINE
8
BLACK
6
CONTINUOUS
10
5.85811
20
-3.42119
11
5.85793
21
-3.42301
0
LINE
8
BLACK
6
CONTINUOUS
10
5.85793
20
-3.42301
11
5.85747
21
-3.42453
0
LINE
8
BLACK
6
CONTINUOUS
10
5.85747
20
-3.42453
11
5.85672
21
-3.42594
0
LINE
8
BLACK
6
CONTINUOUS
10
5.85672
20
-3.42594
11
5.85571
21
-3.42717
0
LINE
8
BLACK
6
CONTINUOUS
10
5.85571
20
-3.42717
11
5.85448
21
-3.42818
0
LINE
8
BLACK
6
CONTINUOUS
10
5.85448
20
-3.42818
11
5.85308
21
-3.42893
0
LINE
8
BLACK
6
CONTINUOUS
10
5.85308
20
-3.42893
11
5.85155
21
-3.42939
0
LINE
8
BLACK
6
CONTINUOUS
10
5.85155
20
-3.42939
11
5.84973
21
-3.42957
0
LINE
8
BLACK
6
CONTINUOUS
10
5.84973
20
-3.42957
11
5.82409
21
-3.42957
0
LINE
8
BLACK
6
CONTINUOUS
10
5.82409
20
-3.42957
11
5.82227
21
-3.42939
0
LINE
8
BLACK
6
CONTINUOUS
10
5.82227
20
-3.42939
11
5.82074
21
-3.42893
0
LINE
8
BLACK
6
CONTINUOUS
10
5.82074
20
-3.42893
11
5.81934
21
-3.42818
0
LINE
8
BLACK
6
CONTINUOUS
10
5.81934
20
-3.42818
11
5.81811
21
-3.42717
0
LINE
8
BLACK
6
CONTINUOUS
10
5.81811
20
-3.42717
11
5.8171
21
-3.42594
0
LINE
8
BLACK
6
CONTINUOUS
10
5.8171
20
-3.42594
11
5.81635
21
-3.42453
0
LINE
8
BLACK
6
CONTINUOUS
10
5.81635
20
-3.42453
11
5.81589
21
-3.42301
0
LINE
8
BLACK
6
CONTINUOUS
10
5.81589
20
-3.42301
11
5.81571
21
-3.42119
0
LINE
8
BLACK
6
CONTINUOUS
10
5.81571
20
-3.42119
11
5.81571
21
-3.37881
0
LINE
8
BLACK
6
CONTINUOUS
10
5.81571
20
-3.37881
11
5.81589
21
-3.37699
0
LINE
8
BLACK
6
CONTINUOUS
10
5.81589
20
-3.37699
11
5.81635
21
-3.37547
0
LINE
8
BLACK
6
CONTINUOUS
10
5.81635
20
-3.37547
11
5.8171
21
-3.37406
0
LINE
8
BLACK
6
CONTINUOUS
10
5.8171
20
-3.37406
11
5.81811
21
-3.37283
0
LINE
8
BLACK
6
CONTINUOUS
10
5.81811
20
-3.37283
11
5.81934
21
-3.37182
0
LINE
8
BLACK
6
CONTINUOUS
10
5.81934
20
-3.37182
11
5.82074
21
-3.37107
0
LINE
8
BLACK
6
CONTINUOUS
10
5.82074
20
-3.37107
11
5.82227
21
-3.37061
0
LINE
8
BLACK
6
CONTINUOUS
10
5.82227
20
-3.37061
11
5.82409
21
-3.37043
0
LINE
8
BLACK
6
CONTINUOUS
10
5.82409
20
-3.37043
11
5.84973
21
-3.37043
0
LINE
8
BLACK
6
CONTINUOUS
10
5.84973
20
-3.37043
11
5.85155
21
-3.37061
0
LINE
8
BLACK
6
CONTINUOUS
10
5.43937
20
-3.36129
11
5.4402
21
-3.36154
0
LINE
8
BLACK
6
CONTINUOUS
10
5.4402
20
-3.36154
11
5.44096
21
-3.36195
0
LINE
8
BLACK
6
CONTINUOUS
10
5.44096
20
-3.36195
11
5.44163
21
-3.3625
0
LINE
8
BLACK
6
CONTINUOUS
10
5.44163
20
-3.3625
11
5.44218
21
-3.36317
0
LINE
8
BLACK
6
CONTINUOUS
10
5.44218
20
-3.36317
11
5.44259
21
-3.36394
0
LINE
8
BLACK
6
CONTINUOUS
10
5.44259
20
-3.36394
11
5.44284
21
-3.36477
0
LINE
8
BLACK
6
CONTINUOUS
10
5.44284
20
-3.36477
11
5.44295
21
-3.36587
0
LINE
8
BLACK
6
CONTINUOUS
10
5.44295
20
-3.36587
11
5.44295
21
-3.38413
0
LINE
8
BLACK
6
CONTINUOUS
10
5.44295
20
-3.38413
11
5.44284
21
-3.38523
0
LINE
8
BLACK
6
CONTINUOUS
10
5.44284
20
-3.38523
11
5.44259
21
-3.38606
0
LINE
8
BLACK
6
CONTINUOUS
10
5.44259
20
-3.38606
11
5.44218
21
-3.38683
0
LINE
8
BLACK
6
CONTINUOUS
10
5.44218
20
-3.38683
11
5.44163
21
-3.3875
0
LINE
8
BLACK
6
CONTINUOUS
10
5.44163
20
-3.3875
11
5.44096
21
-3.38805
0
LINE
8
BLACK
6
CONTINUOUS
10
5.44096
20
-3.38805
11
5.4402
21
-3.38846
0
LINE
8
BLACK
6
CONTINUOUS
10
5.4402
20
-3.38846
11
5.43937
21
-3.38871
0
LINE
8
BLACK
6
CONTINUOUS
10
5.43937
20
-3.38871
11
5.43826
21
-3.38882
0
LINE
8
BLACK
6
CONTINUOUS
10
5.43826
20
-3.38882
11
5.36686
21
-3.38882
0
LINE
8
BLACK
6
CONTINUOUS
10
5.36686
20
-3.38882
11
5.36575
21
-3.38871
0
LINE
8
BLACK
6
CONTINUOUS
10
5.36575
20
-3.38871
11
5.36492
21
-3.38846
0
LINE
8
BLACK
6
CONTINUOUS
10
5.36492
20
-3.38846
11
5.36416
21
-3.38805
0
LINE
8
BLACK
6
CONTINUOUS
10
5.36416
20
-3.38805
11
5.36349
21
-3.3875
0
LINE
8
BLACK
6
CONTINUOUS
10
5.36349
20
-3.3875
11
5.36293
21
-3.38683
0
LINE
8
BLACK
6
CONTINUOUS
10
5.36293
20
-3.38683
11
5.36253
21
-3.38606
0
LINE
8
BLACK
6
CONTINUOUS
10
5.36253
20
-3.38606
11
5.36227
21
-3.38523
0
LINE
8
BLACK
6
CONTINUOUS
10
5.36227
20
-3.38523
11
5.36217
21
-3.38413
0
LINE
8
BLACK
6
CONTINUOUS
10
5.36217
20
-3.38413
11
5.36217
21
-3.36587
0
LINE
8
BLACK
6
CONTINUOUS
10
5.36217
20
-3.36587
11
5.36227
21
-3.36477
0
LINE
8
BLACK
6
CONTINUOUS
10
5.36227
20
-3.36477
11
5.36253
21
-3.36394
0
LINE
8
BLACK
6
CONTINUOUS
10
5.36253
20
-3.36394
11
5.36293
21
-3.36317
0
LINE
8
BLACK
6
CONTINUOUS
10
5.36293
20
-3.36317
11
5.36349
21
-3.3625
0
LINE
8
BLACK
6
CONTINUOUS
10
5.36349
20
-3.3625
11
5.36416
21
-3.36195
0
LINE
8
BLACK
6
CONTINUOUS
10
5.36416
20
-3.36195
11
5.36492
21
-3.36154
0
LINE
8
BLACK
6
CONTINUOUS
10
5.36492
20
-3.36154
11
5.36575
21
-3.36129
0
LINE
8
BLACK
6
CONTINUOUS
10
5.36575
20
-3.36129
11
5.36686
21
-3.36118
0
LINE
8
BLACK
6
CONTINUOUS
10
5.36686
20
-3.36118
11
5.43826
21
-3.36118
0
LINE
8
BLACK
6
CONTINUOUS
10
5.43826
20
-3.36118
11
5.43937
21
-3.36129
0
LINE
8
BLACK
6
CONTINUOUS
10
5.63425
20
-3.36129
11
5.63508
21
-3.36154
0
LINE
8
BLACK
6
CONTINUOUS
10
5.63508
20
-3.36154
11
5.63584
21
-3.36195
0
LINE
8
BLACK
6
CONTINUOUS
10
5.63584
20
-3.36195
11
5.63651
21
-3.3625
0
LINE
8
BLACK
6
CONTINUOUS
10
5.63651
20
-3.3625
11
5.63707
21
-3.36317
0
LINE
8
BLACK
6
CONTINUOUS
10
5.63707
20
-3.36317
11
5.63747
21
-3.36394
0
LINE
8
BLACK
6
CONTINUOUS
10
5.63747
20
-3.36394
11
5.63773
21
-3.36477
0
LINE
8
BLACK
6
CONTINUOUS
10
5.63773
20
-3.36477
11
5.63783
21
-3.36587
0
LINE
8
BLACK
6
CONTINUOUS
10
5.63783
20
-3.36587
11
5.63783
21
-3.38413
0
LINE
8
BLACK
6
CONTINUOUS
10
5.63783
20
-3.38413
11
5.63773
21
-3.38523
0
LINE
8
BLACK
6
CONTINUOUS
10
5.63773
20
-3.38523
11
5.63747
21
-3.38606
0
LINE
8
BLACK
6
CONTINUOUS
10
5.63747
20
-3.38606
11
5.63707
21
-3.38683
0
LINE
8
BLACK
6
CONTINUOUS
10
5.63707
20
-3.38683
11
5.63651
21
-3.3875
0
LINE
8
BLACK
6
CONTINUOUS
10
5.63651
20
-3.3875
11
5.63584
21
-3.38805
0
LINE
8
BLACK
6
CONTINUOUS
10
5.63584
20
-3.38805
11
5.63508
21
-3.38846
0
LINE
8
BLACK
6
CONTINUOUS
10
5.63508
20
-3.38846
11
5.63425
21
-3.38871
0
LINE
8
BLACK
6
CONTINUOUS
10
5.63425
20
-3.38871
11
5.63314
21
-3.38882
0
LINE
8
BLACK
6
CONTINUOUS
10
5.63314
20
-3.38882
11
5.56174
21
-3.38882
0
LINE
8
BLACK
6
CONTINUOUS
10
5.56174
20
-3.38882
11
5.56063
21
-3.38871
0
LINE
8
BLACK
6
CONTINUOUS
10
5.56063
20
-3.38871
11
5.5598
21
-3.38846
0
LINE
8
BLACK
6
CONTINUOUS
10
5.5598
20
-3.38846
11
5.55904
21
-3.38805
0
LINE
8
BLACK
6
CONTINUOUS
10
5.55904
20
-3.38805
11
5.55837
21
-3.3875
0
LINE
8
BLACK
6
CONTINUOUS
10
5.55837
20
-3.3875
11
5.55782
21
-3.38683
0
LINE
8
BLACK
6
CONTINUOUS
10
5.55782
20
-3.38683
11
5.55741
21
-3.38606
0
LINE
8
BLACK
6
CONTINUOUS
10
5.55741
20
-3.38606
11
5.55716
21
-3.38523
0
LINE
8
BLACK
6
CONTINUOUS
10
5.55716
20
-3.38523
11
5.55705
21
-3.38413
0
LINE
8
BLACK
6
CONTINUOUS
10
5.55705
20
-3.38413
11
5.55705
21
-3.36587
0
LINE
8
BLACK
6
CONTINUOUS
10
5.55705
20
-3.36587
11
5.55716
21
-3.36477
0
LINE
8
BLACK
6
CONTINUOUS
10
5.55716
20
-3.36477
11
5.55741
21
-3.36394
0
LINE
8
BLACK
6
CONTINUOUS
10
5.55741
20
-3.36394
11
5.55782
21
-3.36317
0
LINE
8
BLACK
6
CONTINUOUS
10
5.55782
20
-3.36317
11
5.55837
21
-3.3625
0
LINE
8
BLACK
6
CONTINUOUS
10
5.55837
20
-3.3625
11
5.55904
21
-3.36195
0
LINE
8
BLACK
6
CONTINUOUS
10
5.55904
20
-3.36195
11
5.5598
21
-3.36154
0
LINE
8
BLACK
6
CONTINUOUS
10
5.5598
20
-3.36154
11
5.56063
21
-3.36129
0
LINE
8
BLACK
6
CONTINUOUS
10
5.56063
20
-3.36129
11
5.56174
21
-3.36118
0
LINE
8
BLACK
6
CONTINUOUS
10
5.56174
20
-3.36118
11
5.63314
21
-3.36118
0
LINE
8
BLACK
6
CONTINUOUS
10
5.63314
20
-3.36118
11
5.63425
21
-3.36129
0
LINE
8
BLACK
6
CONTINUOUS
10
6.30447
20
-3.26472
11
6.31035
21
-3.26589
0
LINE
8
BLACK
6
CONTINUOUS
10
6.31035
20
-3.26589
11
6.3168
21
-3.26856
0
LINE
8
BLACK
6
CONTINUOUS
10
6.3168
20
-3.26856
11
6.32261
21
-3.27245
0
LINE
8
BLACK
6
CONTINUOUS
10
6.32261
20
-3.27245
11
6.32755
21
-3.27739
0
LINE
8
BLACK
6
CONTINUOUS
10
6.32755
20
-3.27739
11
6.33144
21
-3.2832
0
LINE
8
BLACK
6
CONTINUOUS
10
6.33144
20
-3.2832
11
6.33411
21
-3.28965
0
LINE
8
BLACK
6
CONTINUOUS
10
6.33411
20
-3.28965
11
6.33547
21
-3.29651
0
LINE
8
BLACK
6
CONTINUOUS
10
6.33547
20
-3.29651
11
6.33547
21
-3.30349
0
LINE
8
BLACK
6
CONTINUOUS
10
6.33547
20
-3.30349
11
6.33411
21
-3.31035
0
LINE
8
BLACK
6
CONTINUOUS
10
6.33411
20
-3.31035
11
6.33144
21
-3.3168
0
LINE
8
BLACK
6
CONTINUOUS
10
6.33144
20
-3.3168
11
6.32755
21
-3.32261
0
LINE
8
BLACK
6
CONTINUOUS
10
6.32755
20
-3.32261
11
6.32261
21
-3.32755
0
LINE
8
BLACK
6
CONTINUOUS
10
6.32261
20
-3.32755
11
6.3168
21
-3.33144
0
LINE
8
BLACK
6
CONTINUOUS
10
6.3168
20
-3.33144
11
6.31035
21
-3.33411
0
LINE
8
BLACK
6
CONTINUOUS
10
6.31035
20
-3.33411
11
6.30447
21
-3.33528
0
LINE
8
BLACK
6
CONTINUOUS
10
6.30447
20
-3.33528
11
6.30349
21
-3.33547
0
LINE
8
BLACK
6
CONTINUOUS
10
6.30349
20
-3.33547
11
6.29651
21
-3.33547
0
LINE
8
BLACK
6
CONTINUOUS
10
6.29651
20
-3.33547
11
6.29553
21
-3.33528
0
LINE
8
BLACK
6
CONTINUOUS
10
6.29553
20
-3.33528
11
6.28965
21
-3.33411
0
LINE
8
BLACK
6
CONTINUOUS
10
6.28965
20
-3.33411
11
6.2832
21
-3.33144
0
LINE
8
BLACK
6
CONTINUOUS
10
6.2832
20
-3.33144
11
6.27739
21
-3.32755
0
LINE
8
BLACK
6
CONTINUOUS
10
6.27739
20
-3.32755
11
6.27245
21
-3.32261
0
LINE
8
BLACK
6
CONTINUOUS
10
6.27245
20
-3.32261
11
6.26856
21
-3.3168
0
LINE
8
BLACK
6
CONTINUOUS
10
6.26856
20
-3.3168
11
6.26589
21
-3.31035
0
LINE
8
BLACK
6
CONTINUOUS
10
6.26589
20
-3.31035
11
6.26453
21
-3.30349
0
LINE
8
BLACK
6
CONTINUOUS
10
6.26453
20
-3.30349
11
6.26453
21
-3.29651
0
LINE
8
BLACK
6
CONTINUOUS
10
6.26453
20
-3.29651
11
6.26589
21
-3.28965
0
LINE
8
BLACK
6
CONTINUOUS
10
6.26589
20
-3.28965
11
6.26856
21
-3.2832
0
LINE
8
BLACK
6
CONTINUOUS
10
6.26856
20
-3.2832
11
6.27245
21
-3.27739
0
LINE
8
BLACK
6
CONTINUOUS
10
6.27245
20
-3.27739
11
6.27739
21
-3.27245
0
LINE
8
BLACK
6
CONTINUOUS
10
6.27739
20
-3.27245
11
6.2832
21
-3.26856
0
LINE
8
BLACK
6
CONTINUOUS
10
6.2832
20
-3.26856
11
6.28965
21
-3.26589
0
LINE
8
BLACK
6
CONTINUOUS
10
6.28965
20
-3.26589
11
6.29553
21
-3.26472
0
LINE
8
BLACK
6
CONTINUOUS
10
6.29553
20
-3.26472
11
6.29651
21
-3.26453
0
LINE
8
BLACK
6
CONTINUOUS
10
6.29651
20
-3.26453
11
6.30349
21
-3.26453
0
LINE
8
BLACK
6
CONTINUOUS
10
6.30349
20
-3.26453
11
6.30447
21
-3.26472
0
LINE
8
BLACK
6
CONTINUOUS
10
6.40447
20
-3.26472
11
6.41035
21
-3.26589
0
LINE
8
BLACK
6
CONTINUOUS
10
6.41035
20
-3.26589
11
6.4168
21
-3.26856
0
LINE
8
BLACK
6
CONTINUOUS
10
6.4168
20
-3.26856
11
6.42261
21
-3.27245
0
LINE
8
BLACK
6
CONTINUOUS
10
6.42261
20
-3.27245
11
6.42755
21
-3.27739
0
LINE
8
BLACK
6
CONTINUOUS
10
6.42755
20
-3.27739
11
6.43144
21
-3.2832
0
LINE
8
BLACK
6
CONTINUOUS
10
6.43144
20
-3.2832
11
6.43411
21
-3.28965
0
LINE
8
BLACK
6
CONTINUOUS
10
6.43411
20
-3.28965
11
6.43547
21
-3.29651
0
LINE
8
BLACK
6
CONTINUOUS
10
6.43547
20
-3.29651
11
6.43547
21
-3.30349
0
LINE
8
BLACK
6
CONTINUOUS
10
6.43547
20
-3.30349
11
6.43411
21
-3.31035
0
LINE
8
BLACK
6
CONTINUOUS
10
6.43411
20
-3.31035
11
6.43144
21
-3.3168
0
LINE
8
BLACK
6
CONTINUOUS
10
6.43144
20
-3.3168
11
6.42755
21
-3.32261
0
LINE
8
BLACK
6
CONTINUOUS
10
6.42755
20
-3.32261
11
6.42261
21
-3.32755
0
LINE
8
BLACK
6
CONTINUOUS
10
6.42261
20
-3.32755
11
6.4168
21
-3.33144
0
LINE
8
BLACK
6
CONTINUOUS
10
6.4168
20
-3.33144
11
6.41035
21
-3.33411
0
LINE
8
BLACK
6
CONTINUOUS
10
6.41035
20
-3.33411
11
6.40447
21
-3.33528
0
LINE
8
BLACK
6
CONTINUOUS
10
6.40447
20
-3.33528
11
6.40349
21
-3.33547
0
LINE
8
BLACK
6
CONTINUOUS
10
6.40349
20
-3.33547
11
6.39651
21
-3.33547
0
LINE
8
BLACK
6
CONTINUOUS
10
6.39651
20
-3.33547
11
6.39553
21
-3.33528
0
LINE
8
BLACK
6
CONTINUOUS
10
6.39553
20
-3.33528
11
6.38965
21
-3.33411
0
LINE
8
BLACK
6
CONTINUOUS
10
6.38965
20
-3.33411
11
6.3832
21
-3.33144
0
LINE
8
BLACK
6
CONTINUOUS
10
6.3832
20
-3.33144
11
6.37739
21
-3.32755
0
LINE
8
BLACK
6
CONTINUOUS
10
6.37739
20
-3.32755
11
6.37245
21
-3.32261
0
LINE
8
BLACK
6
CONTINUOUS
10
6.37245
20
-3.32261
11
6.36856
21
-3.3168
0
LINE
8
BLACK
6
CONTINUOUS
10
6.36856
20
-3.3168
11
6.36589
21
-3.31035
0
LINE
8
BLACK
6
CONTINUOUS
10
6.36589
20
-3.31035
11
6.36453
21
-3.30349
0
LINE
8
BLACK
6
CONTINUOUS
10
6.36453
20
-3.30349
11
6.36453
21
-3.29651
0
LINE
8
BLACK
6
CONTINUOUS
10
6.36453
20
-3.29651
11
6.36589
21
-3.28965
0
LINE
8
BLACK
6
CONTINUOUS
10
6.36589
20
-3.28965
11
6.36856
21
-3.2832
0
LINE
8
BLACK
6
CONTINUOUS
10
6.36856
20
-3.2832
11
6.37245
21
-3.27739
0
LINE
8
BLACK
6
CONTINUOUS
10
6.37245
20
-3.27739
11
6.37739
21
-3.27245
0
LINE
8
BLACK
6
CONTINUOUS
10
6.37739
20
-3.27245
11
6.3832
21
-3.26856
0
LINE
8
BLACK
6
CONTINUOUS
10
6.3832
20
-3.26856
11
6.38965
21
-3.26589
0
LINE
8
BLACK
6
CONTINUOUS
10
6.38965
20
-3.26589
11
6.39553
21
-3.26472
0
LINE
8
BLACK
6
CONTINUOUS
10
6.39553
20
-3.26472
11
6.39651
21
-3.26453
0
LINE
8
BLACK
6
CONTINUOUS
10
6.39651
20
-3.26453
11
6.40349
21
-3.26453
0
LINE
8
BLACK
6
CONTINUOUS
10
6.40349
20
-3.26453
11
6.40447
21
-3.26472
0
LINE
8
BLACK
6
CONTINUOUS
10
5.85155
20
-3.27061
11
5.85308
21
-3.27107
0
LINE
8
BLACK
6
CONTINUOUS
10
5.85308
20
-3.27107
11
5.85448
21
-3.27182
0
LINE
8
BLACK
6
CONTINUOUS
10
5.85448
20
-3.27182
11
5.85571
21
-3.27283
0
LINE
8
BLACK
6
CONTINUOUS
10
5.85571
20
-3.27283
11
5.85672
21
-3.27406
0
LINE
8
BLACK
6
CONTINUOUS
10
5.85672
20
-3.27406
11
5.85747
21
-3.27547
0
LINE
8
BLACK
6
CONTINUOUS
10
5.85747
20
-3.27547
11
5.85793
21
-3.27699
0
LINE
8
BLACK
6
CONTINUOUS
10
5.85793
20
-3.27699
11
5.85811
21
-3.27881
0
LINE
8
BLACK
6
CONTINUOUS
10
5.85811
20
-3.27881
11
5.85811
21
-3.32119
0
LINE
8
BLACK
6
CONTINUOUS
10
5.85811
20
-3.32119
11
5.85793
21
-3.32301
0
LINE
8
BLACK
6
CONTINUOUS
10
5.85793
20
-3.32301
11
5.85747
21
-3.32453
0
LINE
8
BLACK
6
CONTINUOUS
10
5.85747
20
-3.32453
11
5.85672
21
-3.32594
0
LINE
8
BLACK
6
CONTINUOUS
10
5.85672
20
-3.32594
11
5.85571
21
-3.32717
0
LINE
8
BLACK
6
CONTINUOUS
10
5.85571
20
-3.32717
11
5.85448
21
-3.32818
0
LINE
8
BLACK
6
CONTINUOUS
10
5.85448
20
-3.32818
11
5.85308
21
-3.32893
0
LINE
8
BLACK
6
CONTINUOUS
10
5.85308
20
-3.32893
11
5.85155
21
-3.32939
0
LINE
8
BLACK
6
CONTINUOUS
10
5.85155
20
-3.32939
11
5.84973
21
-3.32957
0
LINE
8
BLACK
6
CONTINUOUS
10
5.84973
20
-3.32957
11
5.82409
21
-3.32957
0
LINE
8
BLACK
6
CONTINUOUS
10
5.82409
20
-3.32957
11
5.82227
21
-3.32939
0
LINE
8
BLACK
6
CONTINUOUS
10
5.82227
20
-3.32939
11
5.82074
21
-3.32893
0
LINE
8
BLACK
6
CONTINUOUS
10
5.82074
20
-3.32893
11
5.81934
21
-3.32818
0
LINE
8
BLACK
6
CONTINUOUS
10
5.81934
20
-3.32818
11
5.81811
21
-3.32717
0
LINE
8
BLACK
6
CONTINUOUS
10
5.81811
20
-3.32717
11
5.8171
21
-3.32594
0
LINE
8
BLACK
6
CONTINUOUS
10
5.8171
20
-3.32594
11
5.81635
21
-3.32453
0
LINE
8
BLACK
6
CONTINUOUS
10
5.81635
20
-3.32453
11
5.81589
21
-3.32301
0
LINE
8
BLACK
6
CONTINUOUS
10
5.81589
20
-3.32301
11
5.81571
21
-3.32119
0
LINE
8
BLACK
6
CONTINUOUS
10
5.81571
20
-3.32119
11
5.81571
21
-3.27881
0
LINE
8
BLACK
6
CONTINUOUS
10
5.81571
20
-3.27881
11
5.81589
21
-3.27699
0
LINE
8
BLACK
6
CONTINUOUS
10
5.81589
20
-3.27699
11
5.81635
21
-3.27547
0
LINE
8
BLACK
6
CONTINUOUS
10
5.81635
20
-3.27547
11
5.8171
21
-3.27406
0
LINE
8
BLACK
6
CONTINUOUS
10
5.8171
20
-3.27406
11
5.81811
21
-3.27283
0
LINE
8
BLACK
6
CONTINUOUS
10
5.81811
20
-3.27283
11
5.81934
21
-3.27182
0
LINE
8
BLACK
6
CONTINUOUS
10
5.81934
20
-3.27182
11
5.82074
21
-3.27107
0
LINE
8
BLACK
6
CONTINUOUS
10
5.82074
20
-3.27107
11
5.82227
21
-3.27061
0
LINE
8
BLACK
6
CONTINUOUS
10
5.82227
20
-3.27061
11
5.82409
21
-3.27043
0
LINE
8
BLACK
6
CONTINUOUS
10
5.82409
20
-3.27043
11
5.84973
21
-3.27043
0
LINE
8
BLACK
6
CONTINUOUS
10
5.84973
20
-3.27043
11
5.85155
21
-3.27061
0
LINE
8
BLACK
6
CONTINUOUS
10
5.77773
20
-3.27061
11
5.77926
21
-3.27107
0
LINE
8
BLACK
6
CONTINUOUS
10
5.77926
20
-3.27107
11
5.78066
21
-3.27182
0
LINE
8
BLACK
6
CONTINUOUS
10
5.78066
20
-3.27182
11
5.78189
21
-3.27283
0
LINE
8
BLACK
6
CONTINUOUS
10
5.78189
20
-3.27283
11
5.7829
21
-3.27406
0
LINE
8
BLACK
6
CONTINUOUS
10
5.7829
20
-3.27406
11
5.78365
21
-3.27547
0
LINE
8
BLACK
6
CONTINUOUS
10
5.78365
20
-3.27547
11
5.78411
21
-3.27699
0
LINE
8
BLACK
6
CONTINUOUS
10
5.78411
20
-3.27699
11
5.78429
21
-3.27881
0
LINE
8
BLACK
6
CONTINUOUS
10
5.78429
20
-3.27881
11
5.78429
21
-3.32119
0
LINE
8
BLACK
6
CONTINUOUS
10
5.78429
20
-3.32119
11
5.78411
21
-3.32301
0
LINE
8
BLACK
6
CONTINUOUS
10
5.78411
20
-3.32301
11
5.78365
21
-3.32453
0
LINE
8
BLACK
6
CONTINUOUS
10
5.78365
20
-3.32453
11
5.7829
21
-3.32594
0
LINE
8
BLACK
6
CONTINUOUS
10
5.7829
20
-3.32594
11
5.78189
21
-3.32717
0
LINE
8
BLACK
6
CONTINUOUS
10
5.78189
20
-3.32717
11
5.78066
21
-3.32818
0
LINE
8
BLACK
6
CONTINUOUS
10
5.78066
20
-3.32818
11
5.77926
21
-3.32893
0
LINE
8
BLACK
6
CONTINUOUS
10
5.77926
20
-3.32893
11
5.77773
21
-3.32939
0
LINE
8
BLACK
6
CONTINUOUS
10
5.77773
20
-3.32939
11
5.77591
21
-3.32957
0
LINE
8
BLACK
6
CONTINUOUS
10
5.77591
20
-3.32957
11
5.75027
21
-3.32957
0
LINE
8
BLACK
6
CONTINUOUS
10
5.75027
20
-3.32957
11
5.74845
21
-3.32939
0
LINE
8
BLACK
6
CONTINUOUS
10
5.74845
20
-3.32939
11
5.74692
21
-3.32893
0
LINE
8
BLACK
6
CONTINUOUS
10
5.74692
20
-3.32893
11
5.74552
21
-3.32818
0
LINE
8
BLACK
6
CONTINUOUS
10
5.74552
20
-3.32818
11
5.74429
21
-3.32717
0
LINE
8
BLACK
6
CONTINUOUS
10
5.74429
20
-3.32717
11
5.74328
21
-3.32594
0
LINE
8
BLACK
6
CONTINUOUS
10
5.74328
20
-3.32594
11
5.74253
21
-3.32453
0
LINE
8
BLACK
6
CONTINUOUS
10
5.74253
20
-3.32453
11
5.74207
21
-3.32301
0
LINE
8
BLACK
6
CONTINUOUS
10
5.74207
20
-3.32301
11
5.74189
21
-3.32119
0
LINE
8
BLACK
6
CONTINUOUS
10
5.74189
20
-3.32119
11
5.74189
21
-3.27881
0
LINE
8
BLACK
6
CONTINUOUS
10
5.74189
20
-3.27881
11
5.74207
21
-3.27699
0
LINE
8
BLACK
6
CONTINUOUS
10
5.74207
20
-3.27699
11
5.74253
21
-3.27547
0
LINE
8
BLACK
6
CONTINUOUS
10
5.74253
20
-3.27547
11
5.74328
21
-3.27406
0
LINE
8
BLACK
6
CONTINUOUS
10
5.74328
20
-3.27406
11
5.74429
21
-3.27283
0
LINE
8
BLACK
6
CONTINUOUS
10
5.74429
20
-3.27283
11
5.74552
21
-3.27182
0
LINE
8
BLACK
6
CONTINUOUS
10
5.74552
20
-3.27182
11
5.74692
21
-3.27107
0
LINE
8
BLACK
6
CONTINUOUS
10
5.74692
20
-3.27107
11
5.74845
21
-3.27061
0
LINE
8
BLACK
6
CONTINUOUS
10
5.74845
20
-3.27061
11
5.75027
21
-3.27043
0
LINE
8
BLACK
6
CONTINUOUS
10
5.75027
20
-3.27043
11
5.77591
21
-3.27043
0
LINE
8
BLACK
6
CONTINUOUS
10
5.77591
20
-3.27043
11
5.77773
21
-3.27061
0
LINE
8
BLACK
6
CONTINUOUS
10
6.40447
20
-3.16472
11
6.41035
21
-3.16589
0
LINE
8
BLACK
6
CONTINUOUS
10
6.41035
20
-3.16589
11
6.4168
21
-3.16856
0
LINE
8
BLACK
6
CONTINUOUS
10
6.4168
20
-3.16856
11
6.42261
21
-3.17245
0
LINE
8
BLACK
6
CONTINUOUS
10
6.42261
20
-3.17245
11
6.42755
21
-3.17739
0
LINE
8
BLACK
6
CONTINUOUS
10
6.42755
20
-3.17739
11
6.43144
21
-3.1832
0
LINE
8
BLACK
6
CONTINUOUS
10
6.43144
20
-3.1832
11
6.43411
21
-3.18965
0
LINE
8
BLACK
6
CONTINUOUS
10
6.43411
20
-3.18965
11
6.43547
21
-3.19651
0
LINE
8
BLACK
6
CONTINUOUS
10
6.43547
20
-3.19651
11
6.43547
21
-3.20349
0
LINE
8
BLACK
6
CONTINUOUS
10
6.43547
20
-3.20349
11
6.43411
21
-3.21035
0
LINE
8
BLACK
6
CONTINUOUS
10
6.43411
20
-3.21035
11
6.43144
21
-3.2168
0
LINE
8
BLACK
6
CONTINUOUS
10
6.43144
20
-3.2168
11
6.42755
21
-3.22261
0
LINE
8
BLACK
6
CONTINUOUS
10
6.42755
20
-3.22261
11
6.42261
21
-3.22755
0
LINE
8
BLACK
6
CONTINUOUS
10
6.42261
20
-3.22755
11
6.4168
21
-3.23144
0
LINE
8
BLACK
6
CONTINUOUS
10
6.4168
20
-3.23144
11
6.41035
21
-3.23411
0
LINE
8
BLACK
6
CONTINUOUS
10
6.41035
20
-3.23411
11
6.40447
21
-3.23528
0
LINE
8
BLACK
6
CONTINUOUS
10
6.40447
20
-3.23528
11
6.40349
21
-3.23547
0
LINE
8
BLACK
6
CONTINUOUS
10
6.40349
20
-3.23547
11
6.39651
21
-3.23547
0
LINE
8
BLACK
6
CONTINUOUS
10
6.39651
20
-3.23547
11
6.39553
21
-3.23528
0
LINE
8
BLACK
6
CONTINUOUS
10
6.39553
20
-3.23528
11
6.38965
21
-3.23411
0
LINE
8
BLACK
6
CONTINUOUS
10
6.38965
20
-3.23411
11
6.3832
21
-3.23144
0
LINE
8
BLACK
6
CONTINUOUS
10
6.3832
20
-3.23144
11
6.37739
21
-3.22755
0
LINE
8
BLACK
6
CONTINUOUS
10
6.37739
20
-3.22755
11
6.37245
21
-3.22261
0
LINE
8
BLACK
6
CONTINUOUS
10
6.37245
20
-3.22261
11
6.36856
21
-3.2168
0
LINE
8
BLACK
6
CONTINUOUS
10
6.36856
20
-3.2168
11
6.36589
21
-3.21035
0
LINE
8
BLACK
6
CONTINUOUS
10
6.36589
20
-3.21035
11
6.36453
21
-3.20349
0
LINE
8
BLACK
6
CONTINUOUS
10
6.36453
20
-3.20349
11
6.36453
21
-3.19651
0
LINE
8
BLACK
6
CONTINUOUS
10
6.36453
20
-3.19651
11
6.36589
21
-3.18965
0
LINE
8
BLACK
6
CONTINUOUS
10
6.36589
20
-3.18965
11
6.36856
21
-3.1832
0
LINE
8
BLACK
6
CONTINUOUS
10
6.36856
20
-3.1832
11
6.37245
21
-3.17739
0
LINE
8
BLACK
6
CONTINUOUS
10
6.37245
20
-3.17739
11
6.37739
21
-3.17245
0
LINE
8
BLACK
6
CONTINUOUS
10
6.37739
20
-3.17245
11
6.3832
21
-3.16856
0
LINE
8
BLACK
6
CONTINUOUS
10
6.3832
20
-3.16856
11
6.38965
21
-3.16589
0
LINE
8
BLACK
6
CONTINUOUS
10
6.38965
20
-3.16589
11
6.39553
21
-3.16472
0
LINE
8
BLACK
6
CONTINUOUS
10
6.39553
20
-3.16472
11
6.39651
21
-3.16453
0
LINE
8
BLACK
6
CONTINUOUS
10
6.39651
20
-3.16453
11
6.40349
21
-3.16453
0
LINE
8
BLACK
6
CONTINUOUS
10
6.40349
20
-3.16453
11
6.40447
21
-3.16472
0
LINE
8
BLACK
6
CONTINUOUS
10
6.33547
20
-3.23547
11
6.26453
21
-3.23547
0
LINE
8
BLACK
6
CONTINUOUS
10
6.26453
20
-3.23547
11
6.26453
21
-3.16453
0
LINE
8
BLACK
6
CONTINUOUS
10
6.26453
20
-3.16453
11
6.33547
21
-3.16453
0
LINE
8
BLACK
6
CONTINUOUS
10
6.33547
20
-3.16453
11
6.33547
21
-3.23547
0
LINE
8
BLACK
6
CONTINUOUS
10
5.04083
20
-3.17061
11
5.04235
21
-3.17107
0
LINE
8
BLACK
6
CONTINUOUS
10
5.04235
20
-3.17107
11
5.04375
21
-3.17182
0
LINE
8
BLACK
6
CONTINUOUS
10
5.04375
20
-3.17182
11
5.04498
21
-3.17283
0
LINE
8
BLACK
6
CONTINUOUS
10
5.04498
20
-3.17283
11
5.04599
21
-3.17406
0
LINE
8
BLACK
6
CONTINUOUS
10
5.04599
20
-3.17406
11
5.04674
21
-3.17547
0
LINE
8
BLACK
6
CONTINUOUS
10
5.04674
20
-3.17547
11
5.0472
21
-3.17699
0
LINE
8
BLACK
6
CONTINUOUS
10
5.0472
20
-3.17699
11
5.04738
21
-3.17881
0
LINE
8
BLACK
6
CONTINUOUS
10
5.04738
20
-3.17881
11
5.04738
21
-3.22119
0
LINE
8
BLACK
6
CONTINUOUS
10
5.04738
20
-3.22119
11
5.0472
21
-3.22301
0
LINE
8
BLACK
6
CONTINUOUS
10
5.0472
20
-3.22301
11
5.04674
21
-3.22453
0
LINE
8
BLACK
6
CONTINUOUS
10
5.04674
20
-3.22453
11
5.04599
21
-3.22594
0
LINE
8
BLACK
6
CONTINUOUS
10
5.04599
20
-3.22594
11
5.04498
21
-3.22717
0
LINE
8
BLACK
6
CONTINUOUS
10
5.04498
20
-3.22717
11
5.04375
21
-3.22818
0
LINE
8
BLACK
6
CONTINUOUS
10
5.04375
20
-3.22818
11
5.04235
21
-3.22893
0
LINE
8
BLACK
6
CONTINUOUS
10
5.04235
20
-3.22893
11
5.04083
21
-3.22939
0
LINE
8
BLACK
6
CONTINUOUS
10
5.04083
20
-3.22939
11
5.039
21
-3.22957
0
LINE
8
BLACK
6
CONTINUOUS
10
5.039
20
-3.22957
11
5.01336
21
-3.22957
0
LINE
8
BLACK
6
CONTINUOUS
10
5.01336
20
-3.22957
11
5.01154
21
-3.22939
0
LINE
8
BLACK
6
CONTINUOUS
10
5.01154
20
-3.22939
11
5.01001
21
-3.22893
0
LINE
8
BLACK
6
CONTINUOUS
10
5.01001
20
-3.22893
11
5.00861
21
-3.22818
0
LINE
8
BLACK
6
CONTINUOUS
10
5.00861
20
-3.22818
11
5.00738
21
-3.22717
0
LINE
8
BLACK
6
CONTINUOUS
10
5.00738
20
-3.22717
11
5.00637
21
-3.22594
0
LINE
8
BLACK
6
CONTINUOUS
10
5.00637
20
-3.22594
11
5.00562
21
-3.22453
0
LINE
8
BLACK
6
CONTINUOUS
10
5.00562
20
-3.22453
11
5.00516
21
-3.22301
0
LINE
8
BLACK
6
CONTINUOUS
10
5.00516
20
-3.22301
11
5.00498
21
-3.22119
0
LINE
8
BLACK
6
CONTINUOUS
10
5.00498
20
-3.22119
11
5.00498
21
-3.17881
0
LINE
8
BLACK
6
CONTINUOUS
10
5.00498
20
-3.17881
11
5.00516
21
-3.17699
0
LINE
8
BLACK
6
CONTINUOUS
10
5.00516
20
-3.17699
11
5.00562
21
-3.17547
0
LINE
8
BLACK
6
CONTINUOUS
10
5.00562
20
-3.17547
11
5.00637
21
-3.17406
0
LINE
8
BLACK
6
CONTINUOUS
10
5.00637
20
-3.17406
11
5.00738
21
-3.17283
0
LINE
8
BLACK
6
CONTINUOUS
10
5.00738
20
-3.17283
11
5.00861
21
-3.17182
0
LINE
8
BLACK
6
CONTINUOUS
10
5.00861
20
-3.17182
11
5.01001
21
-3.17107
0
LINE
8
BLACK
6
CONTINUOUS
10
5.01001
20
-3.17107
11
5.01154
21
-3.17061
0
LINE
8
BLACK
6
CONTINUOUS
10
5.01154
20
-3.17061
11
5.01336
21
-3.17043
0
LINE
8
BLACK
6
CONTINUOUS
10
5.01336
20
-3.17043
11
5.039
21
-3.17043
0
LINE
8
BLACK
6
CONTINUOUS
10
5.039
20
-3.17043
11
5.04083
21
-3.17061
0
LINE
8
BLACK
6
CONTINUOUS
10
5.11464
20
-3.17061
11
5.11617
21
-3.17107
0
LINE
8
BLACK
6
CONTINUOUS
10
5.11617
20
-3.17107
11
5.11757
21
-3.17182
0
LINE
8
BLACK
6
CONTINUOUS
10
5.11757
20
-3.17182
11
5.1188
21
-3.17283
0
LINE
8
BLACK
6
CONTINUOUS
10
5.1188
20
-3.17283
11
5.11981
21
-3.17406
0
LINE
8
BLACK
6
CONTINUOUS
10
5.11981
20
-3.17406
11
5.12056
21
-3.17547
0
LINE
8
BLACK
6
CONTINUOUS
10
5.12056
20
-3.17547
11
5.12102
21
-3.17699
0
LINE
8
BLACK
6
CONTINUOUS
10
5.12102
20
-3.17699
11
5.1212
21
-3.17881
0
LINE
8
BLACK
6
CONTINUOUS
10
5.1212
20
-3.17881
11
5.1212
21
-3.22119
0
LINE
8
BLACK
6
CONTINUOUS
10
5.1212
20
-3.22119
11
5.12102
21
-3.22301
0
LINE
8
BLACK
6
CONTINUOUS
10
5.12102
20
-3.22301
11
5.12056
21
-3.22453
0
LINE
8
BLACK
6
CONTINUOUS
10
5.12056
20
-3.22453
11
5.11981
21
-3.22594
0
LINE
8
BLACK
6
CONTINUOUS
10
5.11981
20
-3.22594
11
5.1188
21
-3.22717
0
LINE
8
BLACK
6
CONTINUOUS
10
5.1188
20
-3.22717
11
5.11757
21
-3.22818
0
LINE
8
BLACK
6
CONTINUOUS
10
5.11757
20
-3.22818
11
5.11617
21
-3.22893
0
LINE
8
BLACK
6
CONTINUOUS
10
5.11617
20
-3.22893
11
5.11464
21
-3.22939
0
LINE
8
BLACK
6
CONTINUOUS
10
5.11464
20
-3.22939
11
5.11282
21
-3.22957
0
LINE
8
BLACK
6
CONTINUOUS
10
5.11282
20
-3.22957
11
5.08718
21
-3.22957
0
LINE
8
BLACK
6
CONTINUOUS
10
5.08718
20
-3.22957
11
5.08536
21
-3.22939
0
LINE
8
BLACK
6
CONTINUOUS
10
5.08536
20
-3.22939
11
5.08383
21
-3.22893
0
LINE
8
BLACK
6
CONTINUOUS
10
5.08383
20
-3.22893
11
5.08243
21
-3.22818
0
LINE
8
BLACK
6
CONTINUOUS
10
5.08243
20
-3.22818
11
5.0812
21
-3.22717
0
LINE
8
BLACK
6
CONTINUOUS
10
5.0812
20
-3.22717
11
5.08019
21
-3.22594
0
LINE
8
BLACK
6
CONTINUOUS
10
5.08019
20
-3.22594
11
5.07944
21
-3.22453
0
LINE
8
BLACK
6
CONTINUOUS
10
5.07944
20
-3.22453
11
5.07898
21
-3.22301
0
LINE
8
BLACK
6
CONTINUOUS
10
5.07898
20
-3.22301
11
5.0788
21
-3.22119
0
LINE
8
BLACK
6
CONTINUOUS
10
5.0788
20
-3.22119
11
5.0788
21
-3.17881
0
LINE
8
BLACK
6
CONTINUOUS
10
5.0788
20
-3.17881
11
5.07898
21
-3.17699
0
LINE
8
BLACK
6
CONTINUOUS
10
5.07898
20
-3.17699
11
5.07944
21
-3.17547
0
LINE
8
BLACK
6
CONTINUOUS
10
5.07944
20
-3.17547
11
5.08019
21
-3.17406
0
LINE
8
BLACK
6
CONTINUOUS
10
5.08019
20
-3.17406
11
5.0812
21
-3.17283
0
LINE
8
BLACK
6
CONTINUOUS
10
5.0812
20
-3.17283
11
5.08243
21
-3.17182
0
LINE
8
BLACK
6
CONTINUOUS
10
5.08243
20
-3.17182
11
5.08383
21
-3.17107
0
LINE
8
BLACK
6
CONTINUOUS
10
5.08383
20
-3.17107
11
5.08536
21
-3.17061
0
LINE
8
BLACK
6
CONTINUOUS
10
5.08536
20
-3.17061
11
5.08718
21
-3.17043
0
LINE
8
BLACK
6
CONTINUOUS
10
5.08718
20
-3.17043
11
5.11282
21
-3.17043
0
LINE
8
BLACK
6
CONTINUOUS
10
5.11282
20
-3.17043
11
5.11464
21
-3.17061
0
LINE
8
BLACK
6
CONTINUOUS
10
5.85155
20
-3.17061
11
5.85308
21
-3.17107
0
LINE
8
BLACK
6
CONTINUOUS
10
5.85308
20
-3.17107
11
5.85448
21
-3.17182
0
LINE
8
BLACK
6
CONTINUOUS
10
5.85448
20
-3.17182
11
5.85571
21
-3.17283
0
LINE
8
BLACK
6
CONTINUOUS
10
5.85571
20
-3.17283
11
5.85672
21
-3.17406
0
LINE
8
BLACK
6
CONTINUOUS
10
5.85672
20
-3.17406
11
5.85747
21
-3.17547
0
LINE
8
BLACK
6
CONTINUOUS
10
5.85747
20
-3.17547
11
5.85793
21
-3.17699
0
LINE
8
BLACK
6
CONTINUOUS
10
5.85793
20
-3.17699
11
5.85811
21
-3.17881
0
LINE
8
BLACK
6
CONTINUOUS
10
5.85811
20
-3.17881
11
5.85811
21
-3.22119
0
LINE
8
BLACK
6
CONTINUOUS
10
5.85811
20
-3.22119
11
5.85793
21
-3.22301
0
LINE
8
BLACK
6
CONTINUOUS
10
5.85793
20
-3.22301
11
5.85747
21
-3.22453
0
LINE
8
BLACK
6
CONTINUOUS
10
5.85747
20
-3.22453
11
5.85672
21
-3.22594
0
LINE
8
BLACK
6
CONTINUOUS
10
5.85672
20
-3.22594
11
5.85571
21
-3.22717
0
LINE
8
BLACK
6
CONTINUOUS
10
5.85571
20
-3.22717
11
5.85448
21
-3.22818
0
LINE
8
BLACK
6
CONTINUOUS
10
5.85448
20
-3.22818
11
5.85308
21
-3.22893
0
LINE
8
BLACK
6
CONTINUOUS
10
5.85308
20
-3.22893
11
5.85155
21
-3.22939
0
LINE
8
BLACK
6
CONTINUOUS
10
5.85155
20
-3.22939
11
5.84973
21
-3.22957
0
LINE
8
BLACK
6
CONTINUOUS
10
5.84973
20
-3.22957
11
5.82409
21
-3.22957
0
LINE
8
BLACK
6
CONTINUOUS
10
5.82409
20
-3.22957
11
5.82227
21
-3.22939
0
LINE
8
BLACK
6
CONTINUOUS
10
5.82227
20
-3.22939
11
5.82074
21
-3.22893
0
LINE
8
BLACK
6
CONTINUOUS
10
5.82074
20
-3.22893
11
5.81934
21
-3.22818
0
LINE
8
BLACK
6
CONTINUOUS
10
5.81934
20
-3.22818
11
5.81811
21
-3.22717
0
LINE
8
BLACK
6
CONTINUOUS
10
5.81811
20
-3.22717
11
5.8171
21
-3.22594
0
LINE
8
BLACK
6
CONTINUOUS
10
5.8171
20
-3.22594
11
5.81635
21
-3.22453
0
LINE
8
BLACK
6
CONTINUOUS
10
5.81635
20
-3.22453
11
5.81589
21
-3.22301
0
LINE
8
BLACK
6
CONTINUOUS
10
5.81589
20
-3.22301
11
5.81571
21
-3.22119
0
LINE
8
BLACK
6
CONTINUOUS
10
5.81571
20
-3.22119
11
5.81571
21
-3.17881
0
LINE
8
BLACK
6
CONTINUOUS
10
5.81571
20
-3.17881
11
5.81589
21
-3.17699
0
LINE
8
BLACK
6
CONTINUOUS
10
5.81589
20
-3.17699
11
5.81635
21
-3.17547
0
LINE
8
BLACK
6
CONTINUOUS
10
5.81635
20
-3.17547
11
5.8171
21
-3.17406
0
LINE
8
BLACK
6
CONTINUOUS
10
5.8171
20
-3.17406
11
5.81811
21
-3.17283
0
LINE
8
BLACK
6
CONTINUOUS
10
5.81811
20
-3.17283
11
5.81934
21
-3.17182
0
LINE
8
BLACK
6
CONTINUOUS
10
5.81934
20
-3.17182
11
5.82074
21
-3.17107
0
LINE
8
BLACK
6
CONTINUOUS
10
5.82074
20
-3.17107
11
5.82227
21
-3.17061
0
LINE
8
BLACK
6
CONTINUOUS
10
5.82227
20
-3.17061
11
5.82409
21
-3.17043
0
LINE
8
BLACK
6
CONTINUOUS
10
5.82409
20
-3.17043
11
5.84973
21
-3.17043
0
LINE
8
BLACK
6
CONTINUOUS
10
5.84973
20
-3.17043
11
5.85155
21
-3.17061
0
LINE
8
BLACK
6
CONTINUOUS
10
5.77773
20
-3.17061
11
5.77926
21
-3.17107
0
LINE
8
BLACK
6
CONTINUOUS
10
5.77926
20
-3.17107
11
5.78066
21
-3.17182
0
LINE
8
BLACK
6
CONTINUOUS
10
5.78066
20
-3.17182
11
5.78189
21
-3.17283
0
LINE
8
BLACK
6
CONTINUOUS
10
5.78189
20
-3.17283
11
5.7829
21
-3.17406
0
LINE
8
BLACK
6
CONTINUOUS
10
5.7829
20
-3.17406
11
5.78365
21
-3.17547
0
LINE
8
BLACK
6
CONTINUOUS
10
5.78365
20
-3.17547
11
5.78411
21
-3.17699
0
LINE
8
BLACK
6
CONTINUOUS
10
5.78411
20
-3.17699
11
5.78429
21
-3.17881
0
LINE
8
BLACK
6
CONTINUOUS
10
5.78429
20
-3.17881
11
5.78429
21
-3.22119
0
LINE
8
BLACK
6
CONTINUOUS
10
5.78429
20
-3.22119
11
5.78411
21
-3.22301
0
LINE
8
BLACK
6
CONTINUOUS
10
5.78411
20
-3.22301
11
5.78365
21
-3.22453
0
LINE
8
BLACK
6
CONTINUOUS
10
5.78365
20
-3.22453
11
5.7829
21
-3.22594
0
LINE
8
BLACK
6
CONTINUOUS
10
5.7829
20
-3.22594
11
5.78189
21
-3.22717
0
LINE
8
BLACK
6
CONTINUOUS
10
5.78189
20
-3.22717
11
5.78066
21
-3.22818
0
LINE
8
BLACK
6
CONTINUOUS
10
5.78066
20
-3.22818
11
5.77926
21
-3.22893
0
LINE
8
BLACK
6
CONTINUOUS
10
5.77926
20
-3.22893
11
5.77773
21
-3.22939
0
LINE
8
BLACK
6
CONTINUOUS
10
5.77773
20
-3.22939
11
5.77591
21
-3.22957
0
LINE
8
BLACK
6
CONTINUOUS
10
5.77591
20
-3.22957
11
5.75027
21
-3.22957
0
LINE
8
BLACK
6
CONTINUOUS
10
5.75027
20
-3.22957
11
5.74845
21
-3.22939
0
LINE
8
BLACK
6
CONTINUOUS
10
5.74845
20
-3.22939
11
5.74692
21
-3.22893
0
LINE
8
BLACK
6
CONTINUOUS
10
5.74692
20
-3.22893
11
5.74552
21
-3.22818
0
LINE
8
BLACK
6
CONTINUOUS
10
5.74552
20
-3.22818
11
5.74429
21
-3.22717
0
LINE
8
BLACK
6
CONTINUOUS
10
5.74429
20
-3.22717
11
5.74328
21
-3.22594
0
LINE
8
BLACK
6
CONTINUOUS
10
5.74328
20
-3.22594
11
5.74253
21
-3.22453
0
LINE
8
BLACK
6
CONTINUOUS
10
5.74253
20
-3.22453
11
5.74207
21
-3.22301
0
LINE
8
BLACK
6
CONTINUOUS
10
5.74207
20
-3.22301
11
5.74189
21
-3.22119
0
LINE
8
BLACK
6
CONTINUOUS
10
5.74189
20
-3.22119
11
5.74189
21
-3.17881
0
LINE
8
BLACK
6
CONTINUOUS
10
5.74189
20
-3.17881
11
5.74207
21
-3.17699
0
LINE
8
BLACK
6
CONTINUOUS
10
5.74207
20
-3.17699
11
5.74253
21
-3.17547
0
LINE
8
BLACK
6
CONTINUOUS
10
5.74253
20
-3.17547
11
5.74328
21
-3.17406
0
LINE
8
BLACK
6
CONTINUOUS
10
5.74328
20
-3.17406
11
5.74429
21
-3.17283
0
LINE
8
BLACK
6
CONTINUOUS
10
5.74429
20
-3.17283
11
5.74552
21
-3.17182
0
LINE
8
BLACK
6
CONTINUOUS
10
5.74552
20
-3.17182
11
5.74692
21
-3.17107
0
LINE
8
BLACK
6
CONTINUOUS
10
5.74692
20
-3.17107
11
5.74845
21
-3.17061
0
LINE
8
BLACK
6
CONTINUOUS
10
5.74845
20
-3.17061
11
5.75027
21
-3.17043
0
LINE
8
BLACK
6
CONTINUOUS
10
5.75027
20
-3.17043
11
5.77591
21
-3.17043
0
LINE
8
BLACK
6
CONTINUOUS
10
5.77591
20
-3.17043
11
5.77773
21
-3.17061
0
LINE
8
BLACK
6
CONTINUOUS
10
5.49083
20
-3.17061
11
5.49235
21
-3.17107
0
LINE
8
BLACK
6
CONTINUOUS
10
5.49235
20
-3.17107
11
5.49375
21
-3.17182
0
LINE
8
BLACK
6
CONTINUOUS
10
5.49375
20
-3.17182
11
5.49498
21
-3.17283
0
LINE
8
BLACK
6
CONTINUOUS
10
5.49498
20
-3.17283
11
5.49599
21
-3.17406
0
LINE
8
BLACK
6
CONTINUOUS
10
5.49599
20
-3.17406
11
5.49674
21
-3.17547
0
LINE
8
BLACK
6
CONTINUOUS
10
5.49674
20
-3.17547
11
5.4972
21
-3.17699
0
LINE
8
BLACK
6
CONTINUOUS
10
5.4972
20
-3.17699
11
5.49738
21
-3.17881
0
LINE
8
BLACK
6
CONTINUOUS
10
5.49738
20
-3.17881
11
5.49738
21
-3.22119
0
LINE
8
BLACK
6
CONTINUOUS
10
5.49738
20
-3.22119
11
5.4972
21
-3.22301
0
LINE
8
BLACK
6
CONTINUOUS
10
5.4972
20
-3.22301
11
5.49674
21
-3.22453
0
LINE
8
BLACK
6
CONTINUOUS
10
5.49674
20
-3.22453
11
5.49599
21
-3.22594
0
LINE
8
BLACK
6
CONTINUOUS
10
5.49599
20
-3.22594
11
5.49498
21
-3.22717
0
LINE
8
BLACK
6
CONTINUOUS
10
5.49498
20
-3.22717
11
5.49375
21
-3.22818
0
LINE
8
BLACK
6
CONTINUOUS
10
5.49375
20
-3.22818
11
5.49235
21
-3.22893
0
LINE
8
BLACK
6
CONTINUOUS
10
5.49235
20
-3.22893
11
5.49083
21
-3.22939
0
LINE
8
BLACK
6
CONTINUOUS
10
5.49083
20
-3.22939
11
5.489
21
-3.22957
0
LINE
8
BLACK
6
CONTINUOUS
10
5.489
20
-3.22957
11
5.46336
21
-3.22957
0
LINE
8
BLACK
6
CONTINUOUS
10
5.46336
20
-3.22957
11
5.46154
21
-3.22939
0
LINE
8
BLACK
6
CONTINUOUS
10
5.46154
20
-3.22939
11
5.46001
21
-3.22893
0
LINE
8
BLACK
6
CONTINUOUS
10
5.46001
20
-3.22893
11
5.45861
21
-3.22818
0
LINE
8
BLACK
6
CONTINUOUS
10
5.45861
20
-3.22818
11
5.45738
21
-3.22717
0
LINE
8
BLACK
6
CONTINUOUS
10
5.45738
20
-3.22717
11
5.45637
21
-3.22594
0
LINE
8
BLACK
6
CONTINUOUS
10
5.45637
20
-3.22594
11
5.45562
21
-3.22453
0
LINE
8
BLACK
6
CONTINUOUS
10
5.45562
20
-3.22453
11
5.45516
21
-3.22301
0
LINE
8
BLACK
6
CONTINUOUS
10
5.45516
20
-3.22301
11
5.45498
21
-3.22119
0
LINE
8
BLACK
6
CONTINUOUS
10
5.45498
20
-3.22119
11
5.45498
21
-3.17881
0
LINE
8
BLACK
6
CONTINUOUS
10
5.45498
20
-3.17881
11
5.45516
21
-3.17699
0
LINE
8
BLACK
6
CONTINUOUS
10
5.45516
20
-3.17699
11
5.45562
21
-3.17547
0
LINE
8
BLACK
6
CONTINUOUS
10
5.45562
20
-3.17547
11
5.45637
21
-3.17406
0
LINE
8
BLACK
6
CONTINUOUS
10
5.45637
20
-3.17406
11
5.45738
21
-3.17283
0
LINE
8
BLACK
6
CONTINUOUS
10
5.45738
20
-3.17283
11
5.45861
21
-3.17182
0
LINE
8
BLACK
6
CONTINUOUS
10
5.45861
20
-3.17182
11
5.46001
21
-3.17107
0
LINE
8
BLACK
6
CONTINUOUS
10
5.46001
20
-3.17107
11
5.46154
21
-3.17061
0
LINE
8
BLACK
6
CONTINUOUS
10
5.46154
20
-3.17061
11
5.46336
21
-3.17043
0
LINE
8
BLACK
6
CONTINUOUS
10
5.46336
20
-3.17043
11
5.489
21
-3.17043
0
LINE
8
BLACK
6
CONTINUOUS
10
5.489
20
-3.17043
11
5.49083
21
-3.17061
0
LINE
8
BLACK
6
CONTINUOUS
10
5.56464
20
-3.17061
11
5.56617
21
-3.17107
0
LINE
8
BLACK
6
CONTINUOUS
10
5.56617
20
-3.17107
11
5.56757
21
-3.17182
0
LINE
8
BLACK
6
CONTINUOUS
10
5.56757
20
-3.17182
11
5.5688
21
-3.17283
0
LINE
8
BLACK
6
CONTINUOUS
10
5.5688
20
-3.17283
11
5.56981
21
-3.17406
0
LINE
8
BLACK
6
CONTINUOUS
10
5.56981
20
-3.17406
11
5.57056
21
-3.17547
0
LINE
8
BLACK
6
CONTINUOUS
10
5.57056
20
-3.17547
11
5.57102
21
-3.17699
0
LINE
8
BLACK
6
CONTINUOUS
10
5.57102
20
-3.17699
11
5.5712
21
-3.17881
0
LINE
8
BLACK
6
CONTINUOUS
10
5.5712
20
-3.17881
11
5.5712
21
-3.22119
0
LINE
8
BLACK
6
CONTINUOUS
10
5.5712
20
-3.22119
11
5.57102
21
-3.22301
0
LINE
8
BLACK
6
CONTINUOUS
10
5.57102
20
-3.22301
11
5.57056
21
-3.22453
0
LINE
8
BLACK
6
CONTINUOUS
10
5.57056
20
-3.22453
11
5.56981
21
-3.22594
0
LINE
8
BLACK
6
CONTINUOUS
10
5.56981
20
-3.22594
11
5.5688
21
-3.22717
0
LINE
8
BLACK
6
CONTINUOUS
10
5.5688
20
-3.22717
11
5.56757
21
-3.22818
0
LINE
8
BLACK
6
CONTINUOUS
10
5.56757
20
-3.22818
11
5.56617
21
-3.22893
0
LINE
8
BLACK
6
CONTINUOUS
10
5.56617
20
-3.22893
11
5.56464
21
-3.22939
0
LINE
8
BLACK
6
CONTINUOUS
10
5.56464
20
-3.22939
11
5.56282
21
-3.22957
0
LINE
8
BLACK
6
CONTINUOUS
10
5.56282
20
-3.22957
11
5.53718
21
-3.22957
0
LINE
8
BLACK
6
CONTINUOUS
10
5.53718
20
-3.22957
11
5.53536
21
-3.22939
0
LINE
8
BLACK
6
CONTINUOUS
10
5.53536
20
-3.22939
11
5.53383
21
-3.22893
0
LINE
8
BLACK
6
CONTINUOUS
10
5.53383
20
-3.22893
11
5.53243
21
-3.22818
0
LINE
8
BLACK
6
CONTINUOUS
10
5.53243
20
-3.22818
11
5.5312
21
-3.22717
0
LINE
8
BLACK
6
CONTINUOUS
10
5.5312
20
-3.22717
11
5.53019
21
-3.22594
0
LINE
8
BLACK
6
CONTINUOUS
10
5.53019
20
-3.22594
11
5.52944
21
-3.22453
0
LINE
8
BLACK
6
CONTINUOUS
10
5.52944
20
-3.22453
11
5.52898
21
-3.22301
0
LINE
8
BLACK
6
CONTINUOUS
10
5.52898
20
-3.22301
11
5.5288
21
-3.22119
0
LINE
8
BLACK
6
CONTINUOUS
10
5.5288
20
-3.22119
11
5.5288
21
-3.17881
0
LINE
8
BLACK
6
CONTINUOUS
10
5.5288
20
-3.17881
11
5.52898
21
-3.17699
0
LINE
8
BLACK
6
CONTINUOUS
10
5.52898
20
-3.17699
11
5.52944
21
-3.17547
0
LINE
8
BLACK
6
CONTINUOUS
10
5.52944
20
-3.17547
11
5.53019
21
-3.17406
0
LINE
8
BLACK
6
CONTINUOUS
10
5.53019
20
-3.17406
11
5.5312
21
-3.17283
0
LINE
8
BLACK
6
CONTINUOUS
10
5.5312
20
-3.17283
11
5.53243
21
-3.17182
0
LINE
8
BLACK
6
CONTINUOUS
10
5.53243
20
-3.17182
11
5.53383
21
-3.17107
0
LINE
8
BLACK
6
CONTINUOUS
10
5.53383
20
-3.17107
11
5.53536
21
-3.17061
0
LINE
8
BLACK
6
CONTINUOUS
10
5.53536
20
-3.17061
11
5.53718
21
-3.17043
0
LINE
8
BLACK
6
CONTINUOUS
10
5.53718
20
-3.17043
11
5.56282
21
-3.17043
0
LINE
8
BLACK
6
CONTINUOUS
10
5.56282
20
-3.17043
11
5.56464
21
-3.17061
  0
ENDSEC
  0
EOF
